  0
SECTION
  2
HEADER
  9
$ACADVER
  1
AC1014
  9
$HANDSEED
  5
FFFF
  9
$INSUNITS
 70
     0
  9
$MEASUREMENT
 70
     1
  0
ENDSEC
  0
SECTION
  2
TABLES
  0
TABLE
  2
VPORT
  5
8
330
0
100
AcDbSymbolTable
 70
     4
  0
VPORT
  5
2E
330
8
100
AcDbSymbolTableRecord
100
AcDbViewportTableRecord
  2
*ACTIVE
 70
     0
 10
0.0
 20
0.0
 11
1.0
 21
1.0
 12
210.0
 22
148.5
 13
0.0
 23
0.0
 14
10.0
 24
10.0
 15
10.0
 25
10.0
 16
0.0
 26
0.0
 36
1.0
 17
0.0
 27
0.0
 37
0.0
 40
341.0
 41
1.24
 42
50.0
 43
0.0
 44
0.0
 50
0.0
 51
0.0
 71
     0
 72
   100
 73
     1
 74
     3
 75
     0
 76
     0
 77
     0
 78
     0
  0
ENDTAB
  0
TABLE
  2
LTYPE
  5
5
330
0
100
AcDbSymbolTable
 70
     1
  0
LTYPE
  5
14
330
5
100
AcDbSymbolTableRecord
100
AcDbLinetypeTableRecord
  2
BYBLOCK
 70
     0
  3

 72
    65
 73
     0
 40
0.0
  0
LTYPE
  5
15
330
5
100
AcDbSymbolTableRecord
100
AcDbLinetypeTableRecord
  2
BYLAYER
 70
     0
  3

 72
    65
 73
     0
 40
0.0
  0
LTYPE
  5
16
330
5
100
AcDbSymbolTableRecord
100
AcDbLinetypeTableRecord
  2
CONTINUOUS
 70
     0
  3
Solid line
 72
    65
 73
     0
 40
0.0
  0
ENDTAB
  0
TABLE
  2
LAYER
  5
2
100
AcDbSymbolTable
 70
2
  0
LAYER
  5
50
100
AcDbSymbolTableRecord
100
AcDbLayerTableRecord
  2
0
 70
0
  6
CONTINUOUS
  0
LAYER
  5
51
100
AcDbSymbolTableRecord
100
AcDbLayerTableRecord
  2
Layer_1
 70
0
  6
CONTINUOUS
  0
ENDTAB
  0
TABLE
  2
STYLE
  5
3
330
0
100
AcDbSymbolTable
 70
     1
  0
STYLE
  5
11
330
3
100
AcDbSymbolTableRecord
100
AcDbTextStyleTableRecord
  2
STANDARD
 70
     0
 40
0.0
 41
1.0
 50
0.0
 71
     0
 42
2.5
  3
txt
  4

  0
ENDTAB
  0
TABLE
  2
VIEW
  5
6
330
0
100
AcDbSymbolTable
 70
     0
  0
ENDTAB
  0
TABLE
  2
UCS
  5
7
330
0
100
AcDbSymbolTable
 70
     0
  0
ENDTAB
  0
TABLE
  2
APPID
  5
9
330
0
100
AcDbSymbolTable
 70
     2
  0
APPID
  5
12
330
9
100
AcDbSymbolTableRecord
100
AcDbRegAppTableRecord
  2
ACAD
 70
     0
  0
ENDTAB
  0
TABLE
  2
DIMSTYLE
  5
A
330
0
100
AcDbSymbolTable
 70
     1
  0
DIMSTYLE
105
27
330
A
100
AcDbSymbolTableRecord
100
AcDbDimStyleTableRecord
  2
ISO-25
 70
     0
  3

  4

  5

  6

  7

 40
1.0
 41
2.5
 42
0.625
 43
3.75
 44
1.25
 45
0.0
 46
0.0
 47
0.0
 48
0.0
140
2.5
141
2.5
142
0.0
143
0.03937007874016
144
1.0
145
0.0
146
1.0
147
0.625
 71
     0
 72
     0
 73
     0
 74
     0
 75
     0
 76
     0
 77
     1
 78
     8
170
     0
171
     3
172
     1
173
     0
174
     0
175
     0
176
     0
177
     0
178
     0
270
     2
271
     2
272
     2
273
     2
274
     3
340
11
275
     0
280
     0
281
     0
282
     0
283
     0
284
     8
285
     0
286
     0
287
     3
288
     0
  0
ENDTAB
  0
TABLE
  2
BLOCK_RECORD
  5
1
330
0
100
AcDbSymbolTable
 70
     1
  0
BLOCK_RECORD
  5
1F
330
1
100
AcDbSymbolTableRecord
100
AcDbBlockTableRecord
  2
*MODEL_SPACE
  0
BLOCK_RECORD
  5
1B
330
1
100
AcDbSymbolTableRecord
100
AcDbBlockTableRecord
  2
*PAPER_SPACE
  0
ENDTAB
  0
ENDSEC
  0
SECTION
  2
BLOCKS
  0
BLOCK
  5
20
330
1F
100
AcDbEntity
  8
0
100
AcDbBlockBegin
  2
*MODEL_SPACE
 70
     0
 10
0.0
 20
0.0
 30
0.0
  3
*MODEL_SPACE
  1

  0
ENDBLK
  5
21
330
1F
100
AcDbEntity
  8
0
100
AcDbBlockEnd
  0
BLOCK
  5
1C
330
1B
100
AcDbEntity
 67
     1
  8
0
100
AcDbBlockBegin
  2
*PAPER_SPACE
  1

  0
ENDBLK
  5
1D
330
1B
100
AcDbEntity
 67
     1
  8
0
100
AcDbBlockEnd
  0
ENDSEC
  0
SECTION
  2
ENTITIES
  0
LINE
  5
100
100
AcDbEntity
  8
Layer_1
 62
3
100
AcDbLine
 10
-8.265625
 20
286.467256
 30
0.0
 11
308.304690
 21
286.467256
 31
0.0
  0
SPLINE
  5
101
100
AcDbEntity
  8
Layer_1
 62
3
100
AcDbSpline
 70
8
 71
3
 72
8
 73
4
 74
0
 40
0
 40
0
 40
0
 40
0
 40
1
 40
1
 40
1
 40
1
 10
308.304690
 20
286.467256
 30
0.0
 10
309.357268
 20
286.467256
 30
0.0
 10
310.366735
 20
286.885391
 30
0.0
 10
311.111020
 20
287.629676
 30
0.0
  0
SPLINE
  5
102
100
AcDbEntity
  8
Layer_1
 62
3
100
AcDbSpline
 70
8
 71
3
 72
8
 73
4
 74
0
 40
0
 40
0
 40
0
 40
0
 40
1
 40
1
 40
1
 40
1
 10
311.111020
 20
287.629676
 30
0.0
 10
311.855305
 20
288.373961
 30
0.0
 10
312.273440
 20
289.383428
 30
0.0
 10
312.273440
 20
290.436006
 30
0.0
  0
LINE
  5
103
100
AcDbEntity
  8
Layer_1
 62
3
100
AcDbLine
 10
312.273440
 20
290.436006
 30
0.0
 11
312.273440
 21
305.263672
 31
0.0
  0
SPLINE
  5
104
100
AcDbEntity
  8
Layer_1
 62
3
100
AcDbSpline
 70
8
 71
3
 72
8
 73
4
 74
0
 40
0
 40
0
 40
0
 40
0
 40
1
 40
1
 40
1
 40
1
 10
312.273440
 20
305.263672
 30
0.0
 10
312.273440
 20
306.316250
 30
0.0
 10
311.855305
 20
307.325717
 30
0.0
 10
311.111020
 20
308.070002
 30
0.0
  0
SPLINE
  5
105
100
AcDbEntity
  8
Layer_1
 62
3
100
AcDbSpline
 70
8
 71
3
 72
8
 73
4
 74
0
 40
0
 40
0
 40
0
 40
0
 40
1
 40
1
 40
1
 40
1
 10
311.111020
 20
308.070002
 30
0.0
 10
310.366735
 20
308.814287
 30
0.0
 10
309.357268
 20
309.232422
 30
0.0
 10
308.304690
 20
309.232422
 30
0.0
  0
LINE
  5
106
100
AcDbEntity
  8
Layer_1
 62
3
100
AcDbLine
 10
308.304690
 20
309.232422
 30
0.0
 11
-8.265625
 21
309.232422
 31
0.0
  0
SPLINE
  5
107
100
AcDbEntity
  8
Layer_1
 62
3
100
AcDbSpline
 70
8
 71
3
 72
8
 73
4
 74
0
 40
0
 40
0
 40
0
 40
0
 40
1
 40
1
 40
1
 40
1
 10
-8.265625
 20
309.232422
 30
0.0
 10
-9.318203
 20
309.232422
 30
0.0
 10
-10.327670
 20
308.814287
 30
0.0
 10
-11.071955
 20
308.070002
 30
0.0
  0
SPLINE
  5
108
100
AcDbEntity
  8
Layer_1
 62
3
100
AcDbSpline
 70
8
 71
3
 72
8
 73
4
 74
0
 40
0
 40
0
 40
0
 40
0
 40
1
 40
1
 40
1
 40
1
 10
-11.071955
 20
308.070002
 30
0.0
 10
-11.816240
 20
307.325717
 30
0.0
 10
-12.234375
 20
306.316250
 30
0.0
 10
-12.234375
 20
305.263672
 30
0.0
  0
LINE
  5
109
100
AcDbEntity
  8
Layer_1
 62
3
100
AcDbLine
 10
-12.234375
 20
305.263672
 30
0.0
 11
-12.234375
 21
290.436006
 31
0.0
  0
SPLINE
  5
10a
100
AcDbEntity
  8
Layer_1
 62
3
100
AcDbSpline
 70
8
 71
3
 72
8
 73
4
 74
0
 40
0
 40
0
 40
0
 40
0
 40
1
 40
1
 40
1
 40
1
 10
-12.234375
 20
290.436006
 30
0.0
 10
-12.234375
 20
289.383428
 30
0.0
 10
-11.816240
 20
288.373961
 30
0.0
 10
-11.071955
 20
287.629676
 30
0.0
  0
SPLINE
  5
10b
100
AcDbEntity
  8
Layer_1
 62
3
100
AcDbSpline
 70
8
 71
3
 72
8
 73
4
 74
0
 40
0
 40
0
 40
0
 40
0
 40
1
 40
1
 40
1
 40
1
 10
-11.071955
 20
287.629676
 30
0.0
 10
-10.327670
 20
286.885391
 30
0.0
 10
-9.318203
 20
286.467256
 30
0.0
 10
-8.265625
 20
286.467256
 30
0.0
  0
LINE
  5
10c
100
AcDbEntity
  8
Layer_1
 62
3
100
AcDbLine
 10
-8.265625
 20
286.467256
 30
0.0
 11
-8.265625
 21
286.467256
 31
0.0
  0
SPLINE
  5
10d
100
AcDbEntity
  8
Layer_1
 62
3
100
AcDbSpline
 70
8
 71
3
 72
8
 73
4
 74
0
 40
0
 40
0
 40
0
 40
0
 40
1
 40
1
 40
1
 40
1
 10
304.036620
 20
303.004430
 30
0.0
 10
303.652381
 20
303.004430
 30
0.0
 10
303.305976
 20
302.772970
 30
0.0
 10
303.158934
 20
302.417979
 30
0.0
  0
SPLINE
  5
10e
100
AcDbEntity
  8
Layer_1
 62
3
100
AcDbSpline
 70
8
 71
3
 72
8
 73
4
 74
0
 40
0
 40
0
 40
0
 40
0
 40
1
 40
1
 40
1
 40
1
 10
303.158934
 20
302.417979
 30
0.0
 10
303.011893
 20
302.062989
 30
0.0
 10
303.093170
 20
301.654377
 30
0.0
 10
303.364869
 20
301.382679
 30
0.0
  0
SPLINE
  5
10f
100
AcDbEntity
  8
Layer_1
 62
3
100
AcDbSpline
 70
8
 71
3
 72
8
 73
4
 74
0
 40
0
 40
0
 40
0
 40
0
 40
1
 40
1
 40
1
 40
1
 10
303.364869
 20
301.382679
 30
0.0
 10
303.636567
 20
301.110980
 30
0.0
 10
304.045179
 20
301.029703
 30
0.0
 10
304.400169
 20
301.176744
 30
0.0
  0
SPLINE
  5
110
100
AcDbEntity
  8
Layer_1
 62
3
100
AcDbSpline
 70
8
 71
3
 72
8
 73
4
 74
0
 40
0
 40
0
 40
0
 40
0
 40
1
 40
1
 40
1
 40
1
 10
304.400169
 20
301.176744
 30
0.0
 10
304.755160
 20
301.323786
 30
0.0
 10
304.986620
 20
301.670191
 30
0.0
 10
304.986620
 20
302.054430
 30
0.0
  0
SPLINE
  5
111
100
AcDbEntity
  8
Layer_1
 62
3
100
AcDbSpline
 70
8
 71
3
 72
8
 73
4
 74
0
 40
0
 40
0
 40
0
 40
0
 40
1
 40
1
 40
1
 40
1
 10
304.986620
 20
302.054430
 30
0.0
 10
304.986620
 20
302.306386
 30
0.0
 10
304.886531
 20
302.548022
 30
0.0
 10
304.708371
 20
302.726181
 30
0.0
  0
SPLINE
  5
112
100
AcDbEntity
  8
Layer_1
 62
3
100
AcDbSpline
 70
8
 71
3
 72
8
 73
4
 74
0
 40
0
 40
0
 40
0
 40
0
 40
1
 40
1
 40
1
 40
1
 10
304.708371
 20
302.726181
 30
0.0
 10
304.530212
 20
302.904341
 30
0.0
 10
304.288576
 20
303.004430
 30
0.0
 10
304.036620
 20
303.004430
 30
0.0
  0
LINE
  5
113
100
AcDbEntity
  8
Layer_1
 62
3
100
AcDbLine
 10
304.036620
 20
303.004430
 30
0.0
 11
304.036620
 21
303.004430
 31
0.0
  0
SPLINE
  5
114
100
AcDbEntity
  8
Layer_1
 62
3
100
AcDbSpline
 70
8
 71
3
 72
8
 73
4
 74
0
 40
0
 40
0
 40
0
 40
0
 40
1
 40
1
 40
1
 40
1
 10
204.788910
 20
303.004430
 30
0.0
 10
204.404671
 20
303.004430
 30
0.0
 10
204.058266
 20
302.772970
 30
0.0
 10
203.911224
 20
302.417979
 30
0.0
  0
SPLINE
  5
115
100
AcDbEntity
  8
Layer_1
 62
3
100
AcDbSpline
 70
8
 71
3
 72
8
 73
4
 74
0
 40
0
 40
0
 40
0
 40
0
 40
1
 40
1
 40
1
 40
1
 10
203.911224
 20
302.417979
 30
0.0
 10
203.764183
 20
302.062989
 30
0.0
 10
203.845460
 20
301.654377
 30
0.0
 10
204.117159
 20
301.382679
 30
0.0
  0
SPLINE
  5
116
100
AcDbEntity
  8
Layer_1
 62
3
100
AcDbSpline
 70
8
 71
3
 72
8
 73
4
 74
0
 40
0
 40
0
 40
0
 40
0
 40
1
 40
1
 40
1
 40
1
 10
204.117159
 20
301.382679
 30
0.0
 10
204.388857
 20
301.110980
 30
0.0
 10
204.797469
 20
301.029703
 30
0.0
 10
205.152459
 20
301.176744
 30
0.0
  0
SPLINE
  5
117
100
AcDbEntity
  8
Layer_1
 62
3
100
AcDbSpline
 70
8
 71
3
 72
8
 73
4
 74
0
 40
0
 40
0
 40
0
 40
0
 40
1
 40
1
 40
1
 40
1
 10
205.152459
 20
301.176744
 30
0.0
 10
205.507450
 20
301.323786
 30
0.0
 10
205.738910
 20
301.670191
 30
0.0
 10
205.738910
 20
302.054430
 30
0.0
  0
SPLINE
  5
118
100
AcDbEntity
  8
Layer_1
 62
3
100
AcDbSpline
 70
8
 71
3
 72
8
 73
4
 74
0
 40
0
 40
0
 40
0
 40
0
 40
1
 40
1
 40
1
 40
1
 10
205.738910
 20
302.054430
 30
0.0
 10
205.738910
 20
302.306386
 30
0.0
 10
205.638821
 20
302.548022
 30
0.0
 10
205.460661
 20
302.726181
 30
0.0
  0
SPLINE
  5
119
100
AcDbEntity
  8
Layer_1
 62
3
100
AcDbSpline
 70
8
 71
3
 72
8
 73
4
 74
0
 40
0
 40
0
 40
0
 40
0
 40
1
 40
1
 40
1
 40
1
 10
205.460661
 20
302.726181
 30
0.0
 10
205.282502
 20
302.904341
 30
0.0
 10
205.040866
 20
303.004430
 30
0.0
 10
204.788910
 20
303.004430
 30
0.0
  0
LINE
  5
11a
100
AcDbEntity
  8
Layer_1
 62
3
100
AcDbLine
 10
204.788910
 20
303.004430
 30
0.0
 11
204.788910
 21
303.004430
 31
0.0
  0
SPLINE
  5
11b
100
AcDbEntity
  8
Layer_1
 62
3
100
AcDbSpline
 70
8
 71
3
 72
8
 73
4
 74
0
 40
0
 40
0
 40
0
 40
0
 40
1
 40
1
 40
1
 40
1
 10
38.100216
 20
303.004430
 30
0.0
 10
37.715977
 20
303.004430
 30
0.0
 10
37.369572
 20
302.772970
 30
0.0
 10
37.222530
 20
302.417979
 30
0.0
  0
SPLINE
  5
11c
100
AcDbEntity
  8
Layer_1
 62
3
100
AcDbSpline
 70
8
 71
3
 72
8
 73
4
 74
0
 40
0
 40
0
 40
0
 40
0
 40
1
 40
1
 40
1
 40
1
 10
37.222530
 20
302.417979
 30
0.0
 10
37.075489
 20
302.062989
 30
0.0
 10
37.156766
 20
301.654377
 30
0.0
 10
37.428465
 20
301.382679
 30
0.0
  0
SPLINE
  5
11d
100
AcDbEntity
  8
Layer_1
 62
3
100
AcDbSpline
 70
8
 71
3
 72
8
 73
4
 74
0
 40
0
 40
0
 40
0
 40
0
 40
1
 40
1
 40
1
 40
1
 10
37.428465
 20
301.382679
 30
0.0
 10
37.700163
 20
301.110980
 30
0.0
 10
38.108775
 20
301.029703
 30
0.0
 10
38.463765
 20
301.176744
 30
0.0
  0
SPLINE
  5
11e
100
AcDbEntity
  8
Layer_1
 62
3
100
AcDbSpline
 70
8
 71
3
 72
8
 73
4
 74
0
 40
0
 40
0
 40
0
 40
0
 40
1
 40
1
 40
1
 40
1
 10
38.463765
 20
301.176744
 30
0.0
 10
38.818756
 20
301.323786
 30
0.0
 10
39.050216
 20
301.670191
 30
0.0
 10
39.050216
 20
302.054430
 30
0.0
  0
SPLINE
  5
11f
100
AcDbEntity
  8
Layer_1
 62
3
100
AcDbSpline
 70
8
 71
3
 72
8
 73
4
 74
0
 40
0
 40
0
 40
0
 40
0
 40
1
 40
1
 40
1
 40
1
 10
39.050216
 20
302.054430
 30
0.0
 10
39.050216
 20
302.306386
 30
0.0
 10
38.950127
 20
302.548022
 30
0.0
 10
38.771967
 20
302.726181
 30
0.0
  0
SPLINE
  5
120
100
AcDbEntity
  8
Layer_1
 62
3
100
AcDbSpline
 70
8
 71
3
 72
8
 73
4
 74
0
 40
0
 40
0
 40
0
 40
0
 40
1
 40
1
 40
1
 40
1
 10
38.771967
 20
302.726181
 30
0.0
 10
38.593808
 20
302.904341
 30
0.0
 10
38.352172
 20
303.004430
 30
0.0
 10
38.100216
 20
303.004430
 30
0.0
  0
LINE
  5
121
100
AcDbEntity
  8
Layer_1
 62
3
100
AcDbLine
 10
38.100216
 20
303.004430
 30
0.0
 11
38.100216
 21
303.004430
 31
0.0
  0
SPLINE
  5
122
100
AcDbEntity
  8
Layer_1
 62
3
100
AcDbSpline
 70
8
 71
3
 72
8
 73
4
 74
0
 40
0
 40
0
 40
0
 40
0
 40
1
 40
1
 40
1
 40
1
 10
-3.999313
 20
303.004430
 30
0.0
 10
-4.383552
 20
303.004430
 30
0.0
 10
-4.729956
 20
302.772970
 30
0.0
 10
-4.876998
 20
302.417979
 30
0.0
  0
SPLINE
  5
123
100
AcDbEntity
  8
Layer_1
 62
3
100
AcDbSpline
 70
8
 71
3
 72
8
 73
4
 74
0
 40
0
 40
0
 40
0
 40
0
 40
1
 40
1
 40
1
 40
1
 10
-4.876998
 20
302.417979
 30
0.0
 10
-5.024040
 20
302.062989
 30
0.0
 10
-4.942762
 20
301.654377
 30
0.0
 10
-4.671064
 20
301.382679
 30
0.0
  0
SPLINE
  5
124
100
AcDbEntity
  8
Layer_1
 62
3
100
AcDbSpline
 70
8
 71
3
 72
8
 73
4
 74
0
 40
0
 40
0
 40
0
 40
0
 40
1
 40
1
 40
1
 40
1
 10
-4.671064
 20
301.382679
 30
0.0
 10
-4.399366
 20
301.110980
 30
0.0
 10
-3.990754
 20
301.029703
 30
0.0
 10
-3.635764
 20
301.176744
 30
0.0
  0
SPLINE
  5
125
100
AcDbEntity
  8
Layer_1
 62
3
100
AcDbSpline
 70
8
 71
3
 72
8
 73
4
 74
0
 40
0
 40
0
 40
0
 40
0
 40
1
 40
1
 40
1
 40
1
 10
-3.635764
 20
301.176744
 30
0.0
 10
-3.280773
 20
301.323786
 30
0.0
 10
-3.049313
 20
301.670191
 30
0.0
 10
-3.049313
 20
302.054430
 30
0.0
  0
SPLINE
  5
126
100
AcDbEntity
  8
Layer_1
 62
3
100
AcDbSpline
 70
8
 71
3
 72
8
 73
4
 74
0
 40
0
 40
0
 40
0
 40
0
 40
1
 40
1
 40
1
 40
1
 10
-3.049313
 20
302.054430
 30
0.0
 10
-3.049313
 20
302.306386
 30
0.0
 10
-3.149402
 20
302.548022
 30
0.0
 10
-3.327561
 20
302.726181
 30
0.0
  0
SPLINE
  5
127
100
AcDbEntity
  8
Layer_1
 62
3
100
AcDbSpline
 70
8
 71
3
 72
8
 73
4
 74
0
 40
0
 40
0
 40
0
 40
0
 40
1
 40
1
 40
1
 40
1
 10
-3.327561
 20
302.726181
 30
0.0
 10
-3.505721
 20
302.904341
 30
0.0
 10
-3.747357
 20
303.004430
 30
0.0
 10
-3.999313
 20
303.004430
 30
0.0
  0
LINE
  5
128
100
AcDbEntity
  8
Layer_1
 62
3
100
AcDbLine
 10
-3.999313
 20
303.004430
 30
0.0
 11
-3.999313
 21
303.004430
 31
0.0
  0
SPLINE
  5
129
100
AcDbEntity
  8
Layer_1
 62
3
100
AcDbSpline
 70
8
 71
3
 72
8
 73
4
 74
0
 40
0
 40
0
 40
0
 40
0
 40
1
 40
1
 40
1
 40
1
 10
247.660050
 20
293.960243
 30
0.0
 10
247.660050
 20
293.576004
 30
0.0
 10
247.891510
 20
293.229599
 30
0.0
 10
248.246501
 20
293.082557
 30
0.0
  0
SPLINE
  5
12a
100
AcDbEntity
  8
Layer_1
 62
3
100
AcDbSpline
 70
8
 71
3
 72
8
 73
4
 74
0
 40
0
 40
0
 40
0
 40
0
 40
1
 40
1
 40
1
 40
1
 10
248.246501
 20
293.082557
 30
0.0
 10
248.601491
 20
292.935515
 30
0.0
 10
249.010103
 20
293.016793
 30
0.0
 10
249.281801
 20
293.288491
 30
0.0
  0
SPLINE
  5
12b
100
AcDbEntity
  8
Layer_1
 62
3
100
AcDbSpline
 70
8
 71
3
 72
8
 73
4
 74
0
 40
0
 40
0
 40
0
 40
0
 40
1
 40
1
 40
1
 40
1
 10
249.281801
 20
293.288491
 30
0.0
 10
249.553500
 20
293.560189
 30
0.0
 10
249.634777
 20
293.968801
 30
0.0
 10
249.487736
 20
294.323792
 30
0.0
  0
SPLINE
  5
12c
100
AcDbEntity
  8
Layer_1
 62
3
100
AcDbSpline
 70
8
 71
3
 72
8
 73
4
 74
0
 40
0
 40
0
 40
0
 40
0
 40
1
 40
1
 40
1
 40
1
 10
249.487736
 20
294.323792
 30
0.0
 10
249.340694
 20
294.678783
 30
0.0
 10
248.994289
 20
294.910243
 30
0.0
 10
248.610050
 20
294.910243
 30
0.0
  0
SPLINE
  5
12d
100
AcDbEntity
  8
Layer_1
 62
3
100
AcDbSpline
 70
8
 71
3
 72
8
 73
4
 74
0
 40
0
 40
0
 40
0
 40
0
 40
1
 40
1
 40
1
 40
1
 10
248.610050
 20
294.910243
 30
0.0
 10
248.358094
 20
294.910243
 30
0.0
 10
248.116458
 20
294.810154
 30
0.0
 10
247.938299
 20
294.631994
 30
0.0
  0
SPLINE
  5
12e
100
AcDbEntity
  8
Layer_1
 62
3
100
AcDbSpline
 70
8
 71
3
 72
8
 73
4
 74
0
 40
0
 40
0
 40
0
 40
0
 40
1
 40
1
 40
1
 40
1
 10
247.938299
 20
294.631994
 30
0.0
 10
247.760139
 20
294.453835
 30
0.0
 10
247.660050
 20
294.212198
 30
0.0
 10
247.660050
 20
293.960243
 30
0.0
  0
LINE
  5
12f
100
AcDbEntity
  8
Layer_1
 62
3
100
AcDbLine
 10
247.660050
 20
293.960243
 30
0.0
 11
247.660050
 21
293.960243
 31
0.0
  0
SPLINE
  5
130
100
AcDbEntity
  8
Layer_1
 62
3
100
AcDbSpline
 70
8
 71
3
 72
8
 73
4
 74
0
 40
0
 40
0
 40
0
 40
0
 40
1
 40
1
 40
1
 40
1
 10
293.375100
 20
293.960243
 30
0.0
 10
293.375100
 20
293.576004
 30
0.0
 10
293.606560
 20
293.229599
 30
0.0
 10
293.961551
 20
293.082557
 30
0.0
  0
SPLINE
  5
131
100
AcDbEntity
  8
Layer_1
 62
3
100
AcDbSpline
 70
8
 71
3
 72
8
 73
4
 74
0
 40
0
 40
0
 40
0
 40
0
 40
1
 40
1
 40
1
 40
1
 10
293.961551
 20
293.082557
 30
0.0
 10
294.316541
 20
292.935515
 30
0.0
 10
294.725153
 20
293.016793
 30
0.0
 10
294.996851
 20
293.288491
 30
0.0
  0
SPLINE
  5
132
100
AcDbEntity
  8
Layer_1
 62
3
100
AcDbSpline
 70
8
 71
3
 72
8
 73
4
 74
0
 40
0
 40
0
 40
0
 40
0
 40
1
 40
1
 40
1
 40
1
 10
294.996851
 20
293.288491
 30
0.0
 10
295.268550
 20
293.560189
 30
0.0
 10
295.349827
 20
293.968801
 30
0.0
 10
295.202786
 20
294.323792
 30
0.0
  0
SPLINE
  5
133
100
AcDbEntity
  8
Layer_1
 62
3
100
AcDbSpline
 70
8
 71
3
 72
8
 73
4
 74
0
 40
0
 40
0
 40
0
 40
0
 40
1
 40
1
 40
1
 40
1
 10
295.202786
 20
294.323792
 30
0.0
 10
295.055744
 20
294.678783
 30
0.0
 10
294.709339
 20
294.910243
 30
0.0
 10
294.325100
 20
294.910243
 30
0.0
  0
SPLINE
  5
134
100
AcDbEntity
  8
Layer_1
 62
3
100
AcDbSpline
 70
8
 71
3
 72
8
 73
4
 74
0
 40
0
 40
0
 40
0
 40
0
 40
1
 40
1
 40
1
 40
1
 10
294.325100
 20
294.910243
 30
0.0
 10
294.073144
 20
294.910243
 30
0.0
 10
293.831508
 20
294.810154
 30
0.0
 10
293.653349
 20
294.631994
 30
0.0
  0
SPLINE
  5
135
100
AcDbEntity
  8
Layer_1
 62
3
100
AcDbSpline
 70
8
 71
3
 72
8
 73
4
 74
0
 40
0
 40
0
 40
0
 40
0
 40
1
 40
1
 40
1
 40
1
 10
293.653349
 20
294.631994
 30
0.0
 10
293.475189
 20
294.453835
 30
0.0
 10
293.375100
 20
294.212198
 30
0.0
 10
293.375100
 20
293.960243
 30
0.0
  0
LINE
  5
136
100
AcDbEntity
  8
Layer_1
 62
3
100
AcDbLine
 10
293.375100
 20
293.960243
 30
0.0
 11
293.375100
 21
293.960243
 31
0.0
  0
ENDSEC
  0
SECTION
  2
OBJECTS
  0
DICTIONARY
  5
C
330
0
100
AcDbDictionary
  3
ACAD_GROUP
350
D
  3
ACAD_MLINESTYLE
350
17
  0
DICTIONARY
  5
D
330
C
100
AcDbDictionary
  0
DICTIONARY
  5
1A
330
C
100
AcDbDictionary
  0
DICTIONARY
  5
17
330
C
100
AcDbDictionary
  3
STANDARD
350
18
  0
DICTIONARY
  5
19
330
C
100
AcDbDictionary
  0
ENDSEC
  0
EOF
