  0
SECTION
  2
HEADER
  9
$ACADVER
  1
AC1014
  9
$HANDSEED
  5
FFFF
  9
$INSUNITS
 70
     0
  9
$MEASUREMENT
 70
     1
  0
ENDSEC
  0
SECTION
  2
TABLES
  0
TABLE
  2
VPORT
  5
8
330
0
100
AcDbSymbolTable
 70
     4
  0
VPORT
  5
2E
330
8
100
AcDbSymbolTableRecord
100
AcDbViewportTableRecord
  2
*ACTIVE
 70
     0
 10
0.0
 20
0.0
 11
1.0
 21
1.0
 12
210.0
 22
148.5
 13
0.0
 23
0.0
 14
10.0
 24
10.0
 15
10.0
 25
10.0
 16
0.0
 26
0.0
 36
1.0
 17
0.0
 27
0.0
 37
0.0
 40
341.0
 41
1.24
 42
50.0
 43
0.0
 44
0.0
 50
0.0
 51
0.0
 71
     0
 72
   100
 73
     1
 74
     3
 75
     0
 76
     0
 77
     0
 78
     0
  0
ENDTAB
  0
TABLE
  2
LTYPE
  5
5
330
0
100
AcDbSymbolTable
 70
     1
  0
LTYPE
  5
14
330
5
100
AcDbSymbolTableRecord
100
AcDbLinetypeTableRecord
  2
BYBLOCK
 70
     0
  3

 72
    65
 73
     0
 40
0.0
  0
LTYPE
  5
15
330
5
100
AcDbSymbolTableRecord
100
AcDbLinetypeTableRecord
  2
BYLAYER
 70
     0
  3

 72
    65
 73
     0
 40
0.0
  0
LTYPE
  5
16
330
5
100
AcDbSymbolTableRecord
100
AcDbLinetypeTableRecord
  2
CONTINUOUS
 70
     0
  3
Solid line
 72
    65
 73
     0
 40
0.0
  0
ENDTAB
  0
TABLE
  2
LAYER
  5
2
100
AcDbSymbolTable
 70
2
  0
LAYER
  5
50
100
AcDbSymbolTableRecord
100
AcDbLayerTableRecord
  2
0
 70
0
  6
CONTINUOUS
  0
LAYER
  5
51
100
AcDbSymbolTableRecord
100
AcDbLayerTableRecord
  2
Layer_1
 70
0
  6
CONTINUOUS
  0
ENDTAB
  0
TABLE
  2
STYLE
  5
3
330
0
100
AcDbSymbolTable
 70
     1
  0
STYLE
  5
11
330
3
100
AcDbSymbolTableRecord
100
AcDbTextStyleTableRecord
  2
STANDARD
 70
     0
 40
0.0
 41
1.0
 50
0.0
 71
     0
 42
2.5
  3
txt
  4

  0
ENDTAB
  0
TABLE
  2
VIEW
  5
6
330
0
100
AcDbSymbolTable
 70
     0
  0
ENDTAB
  0
TABLE
  2
UCS
  5
7
330
0
100
AcDbSymbolTable
 70
     0
  0
ENDTAB
  0
TABLE
  2
APPID
  5
9
330
0
100
AcDbSymbolTable
 70
     2
  0
APPID
  5
12
330
9
100
AcDbSymbolTableRecord
100
AcDbRegAppTableRecord
  2
ACAD
 70
     0
  0
ENDTAB
  0
TABLE
  2
DIMSTYLE
  5
A
330
0
100
AcDbSymbolTable
 70
     1
  0
DIMSTYLE
105
27
330
A
100
AcDbSymbolTableRecord
100
AcDbDimStyleTableRecord
  2
ISO-25
 70
     0
  3

  4

  5

  6

  7

 40
1.0
 41
2.5
 42
0.625
 43
3.75
 44
1.25
 45
0.0
 46
0.0
 47
0.0
 48
0.0
140
2.5
141
2.5
142
0.0
143
0.03937007874016
144
1.0
145
0.0
146
1.0
147
0.625
 71
     0
 72
     0
 73
     0
 74
     0
 75
     0
 76
     0
 77
     1
 78
     8
170
     0
171
     3
172
     1
173
     0
174
     0
175
     0
176
     0
177
     0
178
     0
270
     2
271
     2
272
     2
273
     2
274
     3
340
11
275
     0
280
     0
281
     0
282
     0
283
     0
284
     8
285
     0
286
     0
287
     3
288
     0
  0
ENDTAB
  0
TABLE
  2
BLOCK_RECORD
  5
1
330
0
100
AcDbSymbolTable
 70
     1
  0
BLOCK_RECORD
  5
1F
330
1
100
AcDbSymbolTableRecord
100
AcDbBlockTableRecord
  2
*MODEL_SPACE
  0
BLOCK_RECORD
  5
1B
330
1
100
AcDbSymbolTableRecord
100
AcDbBlockTableRecord
  2
*PAPER_SPACE
  0
ENDTAB
  0
ENDSEC
  0
SECTION
  2
BLOCKS
  0
BLOCK
  5
20
330
1F
100
AcDbEntity
  8
0
100
AcDbBlockBegin
  2
*MODEL_SPACE
 70
     0
 10
0.0
 20
0.0
 30
0.0
  3
*MODEL_SPACE
  1

  0
ENDBLK
  5
21
330
1F
100
AcDbEntity
  8
0
100
AcDbBlockEnd
  0
BLOCK
  5
1C
330
1B
100
AcDbEntity
 67
     1
  8
0
100
AcDbBlockBegin
  2
*PAPER_SPACE
  1

  0
ENDBLK
  5
1D
330
1B
100
AcDbEntity
 67
     1
  8
0
100
AcDbBlockEnd
  0
ENDSEC
  0
SECTION
  2
ENTITIES
  0
LINE
  5
100
100
AcDbEntity
  8
Layer_1
 62
2
100
AcDbLine
 10
249.820410
 20
309.232422
 30
0.0
 11
308.304690
 21
309.232422
 31
0.0
  0
SPLINE
  5
101
100
AcDbEntity
  8
Layer_1
 62
2
100
AcDbSpline
 70
8
 71
3
 72
8
 73
4
 74
0
 40
0
 40
0
 40
0
 40
0
 40
1
 40
1
 40
1
 40
1
 10
308.304690
 20
309.232422
 30
0.0
 10
309.357268
 20
309.232422
 30
0.0
 10
310.366735
 20
308.814287
 30
0.0
 10
311.111020
 20
308.070002
 30
0.0
  0
SPLINE
  5
102
100
AcDbEntity
  8
Layer_1
 62
2
100
AcDbSpline
 70
8
 71
3
 72
8
 73
4
 74
0
 40
0
 40
0
 40
0
 40
0
 40
1
 40
1
 40
1
 40
1
 10
311.111020
 20
308.070002
 30
0.0
 10
311.855305
 20
307.325717
 30
0.0
 10
312.273440
 20
306.316250
 30
0.0
 10
312.273440
 20
305.263672
 30
0.0
  0
LINE
  5
103
100
AcDbEntity
  8
Layer_1
 62
2
100
AcDbLine
 10
312.273440
 20
305.263672
 30
0.0
 11
312.273440
 21
212.531250
 31
0.0
  0
SPLINE
  5
104
100
AcDbEntity
  8
Layer_1
 62
2
100
AcDbSpline
 70
8
 71
3
 72
8
 73
4
 74
0
 40
0
 40
0
 40
0
 40
0
 40
1
 40
1
 40
1
 40
1
 10
312.273440
 20
212.531250
 30
0.0
 10
312.273440
 20
211.478672
 30
0.0
 10
311.855305
 20
210.469205
 30
0.0
 10
311.111020
 20
209.724920
 30
0.0
  0
SPLINE
  5
105
100
AcDbEntity
  8
Layer_1
 62
2
100
AcDbSpline
 70
8
 71
3
 72
8
 73
4
 74
0
 40
0
 40
0
 40
0
 40
0
 40
1
 40
1
 40
1
 40
1
 10
311.111020
 20
209.724920
 30
0.0
 10
310.366735
 20
208.980635
 30
0.0
 10
309.357268
 20
208.562500
 30
0.0
 10
308.304690
 20
208.562500
 30
0.0
  0
LINE
  5
106
100
AcDbEntity
  8
Layer_1
 62
2
100
AcDbLine
 10
308.304690
 20
208.562500
 30
0.0
 11
-8.263672
 21
208.562500
 31
0.0
  0
SPLINE
  5
107
100
AcDbEntity
  8
Layer_1
 62
2
100
AcDbSpline
 70
8
 71
3
 72
8
 73
4
 74
0
 40
0
 40
0
 40
0
 40
0
 40
1
 40
1
 40
1
 40
1
 10
-8.263672
 20
208.562500
 30
0.0
 10
-9.316250
 20
208.562500
 30
0.0
 10
-10.325717
 20
208.980635
 30
0.0
 10
-11.070002
 20
209.724920
 30
0.0
  0
SPLINE
  5
108
100
AcDbEntity
  8
Layer_1
 62
2
100
AcDbSpline
 70
8
 71
3
 72
8
 73
4
 74
0
 40
0
 40
0
 40
0
 40
0
 40
1
 40
1
 40
1
 40
1
 10
-11.070002
 20
209.724920
 30
0.0
 10
-11.814287
 20
210.469205
 30
0.0
 10
-12.232422
 20
211.478672
 30
0.0
 10
-12.232422
 20
212.531250
 30
0.0
  0
LINE
  5
109
100
AcDbEntity
  8
Layer_1
 62
2
100
AcDbLine
 10
-12.232422
 20
212.531250
 30
0.0
 11
-12.232422
 21
305.263672
 31
0.0
  0
SPLINE
  5
10a
100
AcDbEntity
  8
Layer_1
 62
2
100
AcDbSpline
 70
8
 71
3
 72
8
 73
4
 74
0
 40
0
 40
0
 40
0
 40
0
 40
1
 40
1
 40
1
 40
1
 10
-12.232422
 20
305.263672
 30
0.0
 10
-12.232422
 20
306.316250
 30
0.0
 10
-11.814287
 20
307.325717
 30
0.0
 10
-11.070002
 20
308.070002
 30
0.0
  0
SPLINE
  5
10b
100
AcDbEntity
  8
Layer_1
 62
2
100
AcDbSpline
 70
8
 71
3
 72
8
 73
4
 74
0
 40
0
 40
0
 40
0
 40
0
 40
1
 40
1
 40
1
 40
1
 10
-11.070002
 20
308.070002
 30
0.0
 10
-10.325717
 20
308.814287
 30
0.0
 10
-9.316250
 20
309.232422
 30
0.0
 10
-8.263672
 20
309.232422
 30
0.0
  0
LINE
  5
10c
100
AcDbEntity
  8
Layer_1
 62
2
100
AcDbLine
 10
-8.263672
 20
309.232422
 30
0.0
 11
235.698280
 21
309.232422
 31
0.0
  0
SPLINE
  5
10d
100
AcDbEntity
  8
Layer_1
 62
2
100
AcDbSpline
 70
8
 71
3
 72
8
 73
4
 74
0
 40
0
 40
0
 40
0
 40
0
 40
1
 40
1
 40
1
 40
1
 10
235.698280
 20
309.232422
 30
0.0
 10
236.282823
 20
309.232419
 30
0.0
 10
236.756730
 20
308.758632
 30
0.0
 10
236.756880
 20
308.174089
 30
0.0
  0
LINE
  5
10e
100
AcDbEntity
  8
Layer_1
 62
2
100
AcDbLine
 10
236.756880
 20
308.174089
 30
0.0
 11
236.758880
 21
298.587502
 31
0.0
  0
SPLINE
  5
10f
100
AcDbEntity
  8
Layer_1
 62
2
100
AcDbSpline
 70
8
 71
3
 72
8
 73
4
 74
0
 40
0
 40
0
 40
0
 40
0
 40
1
 40
1
 40
1
 40
1
 10
236.758880
 20
298.587502
 30
0.0
 10
236.758952
 20
298.306840
 30
0.0
 10
236.647510
 20
298.037649
 30
0.0
 10
236.449077
 20
297.839165
 30
0.0
  0
SPLINE
  5
110
100
AcDbEntity
  8
Layer_1
 62
2
100
AcDbSpline
 70
8
 71
3
 72
8
 73
4
 74
0
 40
0
 40
0
 40
0
 40
0
 40
1
 40
1
 40
1
 40
1
 10
236.449077
 20
297.839165
 30
0.0
 10
236.250645
 20
297.640681
 30
0.0
 10
235.981482
 20
297.529170
 30
0.0
 10
235.700820
 20
297.529169
 30
0.0
  0
LINE
  5
111
100
AcDbEntity
  8
Layer_1
 62
2
100
AcDbLine
 10
235.700820
 20
297.529169
 30
0.0
 11
0.528056
 21
297.529169
 31
0.0
  0
SPLINE
  5
112
100
AcDbEntity
  8
Layer_1
 62
2
100
AcDbSpline
 70
8
 71
3
 72
8
 73
4
 74
0
 40
0
 40
0
 40
0
 40
0
 40
1
 40
1
 40
1
 40
1
 10
0.528056
 20
297.529169
 30
0.0
 10
0.247370
 20
297.529169
 30
0.0
 10
-0.021820
 20
297.417666
 30
0.0
 10
-0.220294
 20
297.219190
 30
0.0
  0
SPLINE
  5
113
100
AcDbEntity
  8
Layer_1
 62
2
100
AcDbSpline
 70
8
 71
3
 72
8
 73
4
 74
0
 40
0
 40
0
 40
0
 40
0
 40
1
 40
1
 40
1
 40
1
 10
-0.220294
 20
297.219190
 30
0.0
 10
-0.418767
 20
297.020713
 30
0.0
 10
-0.530267
 20
296.751522
 30
0.0
 10
-0.530263
 20
296.470836
 30
0.0
  0
LINE
  5
114
100
AcDbEntity
  8
Layer_1
 62
2
100
AcDbLine
 10
-0.530263
 20
296.470836
 30
0.0
 11
-0.529291
 21
221.326168
 31
0.0
  0
SPLINE
  5
115
100
AcDbEntity
  8
Layer_1
 62
2
100
AcDbSpline
 70
8
 71
3
 72
8
 73
4
 74
0
 40
0
 40
0
 40
0
 40
0
 40
1
 40
1
 40
1
 40
1
 10
-0.529291
 20
221.326168
 30
0.0
 10
-0.529283
 20
220.741665
 30
0.0
 10
-0.055447
 20
220.267835
 30
0.0
 10
0.529056
 20
220.267835
 30
0.0
  0
LINE
  5
116
100
AcDbEntity
  8
Layer_1
 62
2
100
AcDbLine
 10
0.529056
 20
220.267835
 30
0.0
 11
28.047724
 21
220.267835
 31
0.0
  0
LINE
  5
117
100
AcDbEntity
  8
Layer_1
 62
2
100
AcDbLine
 10
28.047724
 20
220.267835
 30
0.0
 11
46.037390
 21
220.267835
 31
0.0
  0
LINE
  5
118
100
AcDbEntity
  8
Layer_1
 62
2
100
AcDbLine
 10
46.037390
 20
220.267835
 30
0.0
 11
194.734730
 21
220.267835
 31
0.0
  0
LINE
  5
119
100
AcDbEntity
  8
Layer_1
 62
2
100
AcDbLine
 10
194.734730
 20
220.267835
 30
0.0
 11
212.724390
 21
220.267835
 31
0.0
  0
LINE
  5
11a
100
AcDbEntity
  8
Layer_1
 62
2
100
AcDbLine
 10
212.724390
 20
220.267835
 30
0.0
 11
299.510230
 21
220.267835
 31
0.0
  0
SPLINE
  5
11b
100
AcDbEntity
  8
Layer_1
 62
2
100
AcDbSpline
 70
8
 71
3
 72
8
 73
4
 74
0
 40
0
 40
0
 40
0
 40
0
 40
1
 40
1
 40
1
 40
1
 10
299.510230
 20
220.267835
 30
0.0
 10
300.094730
 20
220.267837
 30
0.0
 10
300.568560
 20
220.741668
 30
0.0
 10
300.568560
 20
221.326168
 30
0.0
  0
LINE
  5
11c
100
AcDbEntity
  8
Layer_1
 62
2
100
AcDbLine
 10
300.568560
 20
221.326168
 30
0.0
 11
300.568560
 21
296.470836
 31
0.0
  0
SPLINE
  5
11d
100
AcDbEntity
  8
Layer_1
 62
2
100
AcDbSpline
 70
8
 71
3
 72
8
 73
4
 74
0
 40
0
 40
0
 40
0
 40
0
 40
1
 40
1
 40
1
 40
1
 10
300.568560
 20
296.470836
 30
0.0
 10
300.568560
 20
297.055336
 30
0.0
 10
300.094730
 20
297.529167
 30
0.0
 10
299.510230
 20
297.529169
 30
0.0
  0
LINE
  5
11e
100
AcDbEntity
  8
Layer_1
 62
2
100
AcDbLine
 10
299.510230
 20
297.529169
 30
0.0
 11
249.822010
 21
297.529169
 31
0.0
  0
SPLINE
  5
11f
100
AcDbEntity
  8
Layer_1
 62
2
100
AcDbSpline
 70
8
 71
3
 72
8
 73
4
 74
0
 40
0
 40
0
 40
0
 40
0
 40
1
 40
1
 40
1
 40
1
 10
249.822010
 20
297.529169
 30
0.0
 10
249.237478
 20
297.529169
 30
0.0
 10
248.763593
 20
298.002971
 30
0.0
 10
248.763490
 20
298.587502
 30
0.0
  0
LINE
  5
120
100
AcDbEntity
  8
Layer_1
 62
2
100
AcDbLine
 10
248.763490
 20
298.587502
 30
0.0
 11
248.761490
 21
308.174089
 31
0.0
  0
SPLINE
  5
121
100
AcDbEntity
  8
Layer_1
 62
2
100
AcDbSpline
 70
8
 71
3
 72
8
 73
4
 74
0
 40
0
 40
0
 40
0
 40
0
 40
1
 40
1
 40
1
 40
1
 10
248.761490
 20
308.174089
 30
0.0
 10
248.761441
 20
308.454758
 30
0.0
 10
248.872901
 20
308.723949
 30
0.0
 10
249.071346
 20
308.922430
 30
0.0
  0
SPLINE
  5
122
100
AcDbEntity
  8
Layer_1
 62
2
100
AcDbSpline
 70
8
 71
3
 72
8
 73
4
 74
0
 40
0
 40
0
 40
0
 40
0
 40
1
 40
1
 40
1
 40
1
 10
249.071346
 20
308.922430
 30
0.0
 10
249.269791
 20
309.120911
 30
0.0
 10
249.538961
 20
309.232420
 30
0.0
 10
249.819630
 20
309.232422
 30
0.0
  0
LINE
  5
123
100
AcDbEntity
  8
Layer_1
 62
2
100
AcDbLine
 10
249.819630
 20
309.232422
 30
0.0
 11
249.820410
 21
309.232422
 31
0.0
  0
SPLINE
  5
124
100
AcDbEntity
  8
Layer_1
 62
2
100
AcDbSpline
 70
8
 71
3
 72
8
 73
4
 74
0
 40
0
 40
0
 40
0
 40
0
 40
1
 40
1
 40
1
 40
1
 10
304.036620
 20
303.619430
 30
0.0
 10
303.172294
 20
303.619430
 30
0.0
 10
302.471620
 20
302.918756
 30
0.0
 10
302.471620
 20
302.054430
 30
0.0
  0
SPLINE
  5
125
100
AcDbEntity
  8
Layer_1
 62
2
100
AcDbSpline
 70
8
 71
3
 72
8
 73
4
 74
0
 40
0
 40
0
 40
0
 40
0
 40
1
 40
1
 40
1
 40
1
 10
302.471620
 20
302.054430
 30
0.0
 10
302.471620
 20
301.190104
 30
0.0
 10
303.172294
 20
300.489430
 30
0.0
 10
304.036620
 20
300.489430
 30
0.0
  0
SPLINE
  5
126
100
AcDbEntity
  8
Layer_1
 62
2
100
AcDbSpline
 70
8
 71
3
 72
8
 73
4
 74
0
 40
0
 40
0
 40
0
 40
0
 40
1
 40
1
 40
1
 40
1
 10
304.036620
 20
300.489430
 30
0.0
 10
304.900946
 20
300.489430
 30
0.0
 10
305.601620
 20
301.190104
 30
0.0
 10
305.601620
 20
302.054430
 30
0.0
  0
SPLINE
  5
127
100
AcDbEntity
  8
Layer_1
 62
2
100
AcDbSpline
 70
8
 71
3
 72
8
 73
4
 74
0
 40
0
 40
0
 40
0
 40
0
 40
1
 40
1
 40
1
 40
1
 10
305.601620
 20
302.054430
 30
0.0
 10
305.601620
 20
302.469494
 30
0.0
 10
305.436737
 20
302.867558
 30
0.0
 10
305.143242
 20
303.161052
 30
0.0
  0
SPLINE
  5
128
100
AcDbEntity
  8
Layer_1
 62
2
100
AcDbSpline
 70
8
 71
3
 72
8
 73
4
 74
0
 40
0
 40
0
 40
0
 40
0
 40
1
 40
1
 40
1
 40
1
 10
305.143242
 20
303.161052
 30
0.0
 10
304.849748
 20
303.454547
 30
0.0
 10
304.451684
 20
303.619430
 30
0.0
 10
304.036620
 20
303.619430
 30
0.0
  0
LINE
  5
129
100
AcDbEntity
  8
Layer_1
 62
2
100
AcDbLine
 10
304.036620
 20
303.619430
 30
0.0
 11
304.036620
 21
303.619430
 31
0.0
  0
SPLINE
  5
12a
100
AcDbEntity
  8
Layer_1
 62
2
100
AcDbSpline
 70
8
 71
3
 72
8
 73
4
 74
0
 40
0
 40
0
 40
0
 40
0
 40
1
 40
1
 40
1
 40
1
 10
304.036620
 20
217.302198
 30
0.0
 10
303.172294
 20
217.302198
 30
0.0
 10
302.471620
 20
216.601524
 30
0.0
 10
302.471620
 20
215.737198
 30
0.0
  0
SPLINE
  5
12b
100
AcDbEntity
  8
Layer_1
 62
2
100
AcDbSpline
 70
8
 71
3
 72
8
 73
4
 74
0
 40
0
 40
0
 40
0
 40
0
 40
1
 40
1
 40
1
 40
1
 10
302.471620
 20
215.737198
 30
0.0
 10
302.471620
 20
214.872872
 30
0.0
 10
303.172294
 20
214.172198
 30
0.0
 10
304.036620
 20
214.172198
 30
0.0
  0
SPLINE
  5
12c
100
AcDbEntity
  8
Layer_1
 62
2
100
AcDbSpline
 70
8
 71
3
 72
8
 73
4
 74
0
 40
0
 40
0
 40
0
 40
0
 40
1
 40
1
 40
1
 40
1
 10
304.036620
 20
214.172198
 30
0.0
 10
304.900946
 20
214.172198
 30
0.0
 10
305.601620
 20
214.872872
 30
0.0
 10
305.601620
 20
215.737198
 30
0.0
  0
SPLINE
  5
12d
100
AcDbEntity
  8
Layer_1
 62
2
100
AcDbSpline
 70
8
 71
3
 72
8
 73
4
 74
0
 40
0
 40
0
 40
0
 40
0
 40
1
 40
1
 40
1
 40
1
 10
305.601620
 20
215.737198
 30
0.0
 10
305.601620
 20
216.152262
 30
0.0
 10
305.436737
 20
216.550326
 30
0.0
 10
305.143242
 20
216.843820
 30
0.0
  0
SPLINE
  5
12e
100
AcDbEntity
  8
Layer_1
 62
2
100
AcDbSpline
 70
8
 71
3
 72
8
 73
4
 74
0
 40
0
 40
0
 40
0
 40
0
 40
1
 40
1
 40
1
 40
1
 10
305.143242
 20
216.843820
 30
0.0
 10
304.849748
 20
217.137315
 30
0.0
 10
304.451684
 20
217.302198
 30
0.0
 10
304.036620
 20
217.302198
 30
0.0
  0
LINE
  5
12f
100
AcDbEntity
  8
Layer_1
 62
2
100
AcDbLine
 10
304.036620
 20
217.302198
 30
0.0
 11
304.036620
 21
217.302198
 31
0.0
  0
SPLINE
  5
130
100
AcDbEntity
  8
Layer_1
 62
2
100
AcDbSpline
 70
8
 71
3
 72
8
 73
4
 74
0
 40
0
 40
0
 40
0
 40
0
 40
1
 40
1
 40
1
 40
1
 10
204.788910
 20
303.619430
 30
0.0
 10
204.155927
 20
303.619430
 30
0.0
 10
203.585271
 20
303.238130
 30
0.0
 10
203.343038
 20
302.653330
 30
0.0
  0
SPLINE
  5
131
100
AcDbEntity
  8
Layer_1
 62
2
100
AcDbSpline
 70
8
 71
3
 72
8
 73
4
 74
0
 40
0
 40
0
 40
0
 40
0
 40
1
 40
1
 40
1
 40
1
 10
203.343038
 20
302.653330
 30
0.0
 10
203.100806
 20
302.068529
 30
0.0
 10
203.234701
 20
301.395395
 30
0.0
 10
203.682288
 20
300.947808
 30
0.0
  0
SPLINE
  5
132
100
AcDbEntity
  8
Layer_1
 62
2
100
AcDbSpline
 70
8
 71
3
 72
8
 73
4
 74
0
 40
0
 40
0
 40
0
 40
0
 40
1
 40
1
 40
1
 40
1
 10
203.682288
 20
300.947808
 30
0.0
 10
204.129875
 20
300.500221
 30
0.0
 10
204.803009
 20
300.366326
 30
0.0
 10
205.387810
 20
300.608558
 30
0.0
  0
SPLINE
  5
133
100
AcDbEntity
  8
Layer_1
 62
2
100
AcDbSpline
 70
8
 71
3
 72
8
 73
4
 74
0
 40
0
 40
0
 40
0
 40
0
 40
1
 40
1
 40
1
 40
1
 10
205.387810
 20
300.608558
 30
0.0
 10
205.972610
 20
300.850791
 30
0.0
 10
206.353910
 20
301.421447
 30
0.0
 10
206.353910
 20
302.054430
 30
0.0
  0
SPLINE
  5
134
100
AcDbEntity
  8
Layer_1
 62
2
100
AcDbSpline
 70
8
 71
3
 72
8
 73
4
 74
0
 40
0
 40
0
 40
0
 40
0
 40
1
 40
1
 40
1
 40
1
 10
206.353910
 20
302.054430
 30
0.0
 10
206.353910
 20
302.469494
 30
0.0
 10
206.189027
 20
302.867558
 30
0.0
 10
205.895532
 20
303.161052
 30
0.0
  0
SPLINE
  5
135
100
AcDbEntity
  8
Layer_1
 62
2
100
AcDbSpline
 70
8
 71
3
 72
8
 73
4
 74
0
 40
0
 40
0
 40
0
 40
0
 40
1
 40
1
 40
1
 40
1
 10
205.895532
 20
303.161052
 30
0.0
 10
205.602038
 20
303.454547
 30
0.0
 10
205.203974
 20
303.619430
 30
0.0
 10
204.788910
 20
303.619430
 30
0.0
  0
LINE
  5
136
100
AcDbEntity
  8
Layer_1
 62
2
100
AcDbLine
 10
204.788910
 20
303.619430
 30
0.0
 11
204.788910
 21
303.619430
 31
0.0
  0
SPLINE
  5
137
100
AcDbEntity
  8
Layer_1
 62
2
100
AcDbSpline
 70
8
 71
3
 72
8
 73
4
 74
0
 40
0
 40
0
 40
0
 40
0
 40
1
 40
1
 40
1
 40
1
 10
204.788910
 20
217.302198
 30
0.0
 10
204.155927
 20
217.302198
 30
0.0
 10
203.585271
 20
216.920898
 30
0.0
 10
203.343038
 20
216.336098
 30
0.0
  0
SPLINE
  5
138
100
AcDbEntity
  8
Layer_1
 62
2
100
AcDbSpline
 70
8
 71
3
 72
8
 73
4
 74
0
 40
0
 40
0
 40
0
 40
0
 40
1
 40
1
 40
1
 40
1
 10
203.343038
 20
216.336098
 30
0.0
 10
203.100806
 20
215.751297
 30
0.0
 10
203.234701
 20
215.078163
 30
0.0
 10
203.682288
 20
214.630576
 30
0.0
  0
SPLINE
  5
139
100
AcDbEntity
  8
Layer_1
 62
2
100
AcDbSpline
 70
8
 71
3
 72
8
 73
4
 74
0
 40
0
 40
0
 40
0
 40
0
 40
1
 40
1
 40
1
 40
1
 10
203.682288
 20
214.630576
 30
0.0
 10
204.129875
 20
214.182989
 30
0.0
 10
204.803009
 20
214.049094
 30
0.0
 10
205.387810
 20
214.291326
 30
0.0
  0
SPLINE
  5
13a
100
AcDbEntity
  8
Layer_1
 62
2
100
AcDbSpline
 70
8
 71
3
 72
8
 73
4
 74
0
 40
0
 40
0
 40
0
 40
0
 40
1
 40
1
 40
1
 40
1
 10
205.387810
 20
214.291326
 30
0.0
 10
205.972610
 20
214.533559
 30
0.0
 10
206.353910
 20
215.104215
 30
0.0
 10
206.353910
 20
215.737198
 30
0.0
  0
SPLINE
  5
13b
100
AcDbEntity
  8
Layer_1
 62
2
100
AcDbSpline
 70
8
 71
3
 72
8
 73
4
 74
0
 40
0
 40
0
 40
0
 40
0
 40
1
 40
1
 40
1
 40
1
 10
206.353910
 20
215.737198
 30
0.0
 10
206.353910
 20
216.152262
 30
0.0
 10
206.189027
 20
216.550326
 30
0.0
 10
205.895532
 20
216.843820
 30
0.0
  0
SPLINE
  5
13c
100
AcDbEntity
  8
Layer_1
 62
2
100
AcDbSpline
 70
8
 71
3
 72
8
 73
4
 74
0
 40
0
 40
0
 40
0
 40
0
 40
1
 40
1
 40
1
 40
1
 10
205.895532
 20
216.843820
 30
0.0
 10
205.602038
 20
217.137315
 30
0.0
 10
205.203974
 20
217.302198
 30
0.0
 10
204.788910
 20
217.302198
 30
0.0
  0
LINE
  5
13d
100
AcDbEntity
  8
Layer_1
 62
2
100
AcDbLine
 10
204.788910
 20
217.302198
 30
0.0
 11
204.788910
 21
217.302198
 31
0.0
  0
SPLINE
  5
13e
100
AcDbEntity
  8
Layer_1
 62
2
100
AcDbSpline
 70
8
 71
3
 72
8
 73
4
 74
0
 40
0
 40
0
 40
0
 40
0
 40
1
 40
1
 40
1
 40
1
 10
38.100216
 20
303.619430
 30
0.0
 10
37.467233
 20
303.619430
 30
0.0
 10
36.896577
 20
303.238130
 30
0.0
 10
36.654344
 20
302.653330
 30
0.0
  0
SPLINE
  5
13f
100
AcDbEntity
  8
Layer_1
 62
2
100
AcDbSpline
 70
8
 71
3
 72
8
 73
4
 74
0
 40
0
 40
0
 40
0
 40
0
 40
1
 40
1
 40
1
 40
1
 10
36.654344
 20
302.653330
 30
0.0
 10
36.412112
 20
302.068529
 30
0.0
 10
36.546007
 20
301.395395
 30
0.0
 10
36.993594
 20
300.947808
 30
0.0
  0
SPLINE
  5
140
100
AcDbEntity
  8
Layer_1
 62
2
100
AcDbSpline
 70
8
 71
3
 72
8
 73
4
 74
0
 40
0
 40
0
 40
0
 40
0
 40
1
 40
1
 40
1
 40
1
 10
36.993594
 20
300.947808
 30
0.0
 10
37.441181
 20
300.500221
 30
0.0
 10
38.114315
 20
300.366326
 30
0.0
 10
38.699116
 20
300.608558
 30
0.0
  0
SPLINE
  5
141
100
AcDbEntity
  8
Layer_1
 62
2
100
AcDbSpline
 70
8
 71
3
 72
8
 73
4
 74
0
 40
0
 40
0
 40
0
 40
0
 40
1
 40
1
 40
1
 40
1
 10
38.699116
 20
300.608558
 30
0.0
 10
39.283916
 20
300.850791
 30
0.0
 10
39.665216
 20
301.421447
 30
0.0
 10
39.665216
 20
302.054430
 30
0.0
  0
SPLINE
  5
142
100
AcDbEntity
  8
Layer_1
 62
2
100
AcDbSpline
 70
8
 71
3
 72
8
 73
4
 74
0
 40
0
 40
0
 40
0
 40
0
 40
1
 40
1
 40
1
 40
1
 10
39.665216
 20
302.054430
 30
0.0
 10
39.665216
 20
302.469494
 30
0.0
 10
39.500333
 20
302.867558
 30
0.0
 10
39.206838
 20
303.161052
 30
0.0
  0
SPLINE
  5
143
100
AcDbEntity
  8
Layer_1
 62
2
100
AcDbSpline
 70
8
 71
3
 72
8
 73
4
 74
0
 40
0
 40
0
 40
0
 40
0
 40
1
 40
1
 40
1
 40
1
 10
39.206838
 20
303.161052
 30
0.0
 10
38.913344
 20
303.454547
 30
0.0
 10
38.515280
 20
303.619430
 30
0.0
 10
38.100216
 20
303.619430
 30
0.0
  0
LINE
  5
144
100
AcDbEntity
  8
Layer_1
 62
2
100
AcDbLine
 10
38.100216
 20
303.619430
 30
0.0
 11
38.100216
 21
303.619430
 31
0.0
  0
SPLINE
  5
145
100
AcDbEntity
  8
Layer_1
 62
2
100
AcDbSpline
 70
8
 71
3
 72
8
 73
4
 74
0
 40
0
 40
0
 40
0
 40
0
 40
1
 40
1
 40
1
 40
1
 10
38.100216
 20
217.302198
 30
0.0
 10
37.467233
 20
217.302198
 30
0.0
 10
36.896577
 20
216.920898
 30
0.0
 10
36.654344
 20
216.336098
 30
0.0
  0
SPLINE
  5
146
100
AcDbEntity
  8
Layer_1
 62
2
100
AcDbSpline
 70
8
 71
3
 72
8
 73
4
 74
0
 40
0
 40
0
 40
0
 40
0
 40
1
 40
1
 40
1
 40
1
 10
36.654344
 20
216.336098
 30
0.0
 10
36.412112
 20
215.751297
 30
0.0
 10
36.546007
 20
215.078163
 30
0.0
 10
36.993594
 20
214.630576
 30
0.0
  0
SPLINE
  5
147
100
AcDbEntity
  8
Layer_1
 62
2
100
AcDbSpline
 70
8
 71
3
 72
8
 73
4
 74
0
 40
0
 40
0
 40
0
 40
0
 40
1
 40
1
 40
1
 40
1
 10
36.993594
 20
214.630576
 30
0.0
 10
37.441181
 20
214.182989
 30
0.0
 10
38.114315
 20
214.049094
 30
0.0
 10
38.699116
 20
214.291326
 30
0.0
  0
SPLINE
  5
148
100
AcDbEntity
  8
Layer_1
 62
2
100
AcDbSpline
 70
8
 71
3
 72
8
 73
4
 74
0
 40
0
 40
0
 40
0
 40
0
 40
1
 40
1
 40
1
 40
1
 10
38.699116
 20
214.291326
 30
0.0
 10
39.283916
 20
214.533559
 30
0.0
 10
39.665216
 20
215.104215
 30
0.0
 10
39.665216
 20
215.737198
 30
0.0
  0
SPLINE
  5
149
100
AcDbEntity
  8
Layer_1
 62
2
100
AcDbSpline
 70
8
 71
3
 72
8
 73
4
 74
0
 40
0
 40
0
 40
0
 40
0
 40
1
 40
1
 40
1
 40
1
 10
39.665216
 20
215.737198
 30
0.0
 10
39.665216
 20
216.152262
 30
0.0
 10
39.500333
 20
216.550326
 30
0.0
 10
39.206838
 20
216.843820
 30
0.0
  0
SPLINE
  5
14a
100
AcDbEntity
  8
Layer_1
 62
2
100
AcDbSpline
 70
8
 71
3
 72
8
 73
4
 74
0
 40
0
 40
0
 40
0
 40
0
 40
1
 40
1
 40
1
 40
1
 10
39.206838
 20
216.843820
 30
0.0
 10
38.913344
 20
217.137315
 30
0.0
 10
38.515280
 20
217.302198
 30
0.0
 10
38.100216
 20
217.302198
 30
0.0
  0
LINE
  5
14b
100
AcDbEntity
  8
Layer_1
 62
2
100
AcDbLine
 10
38.100216
 20
217.302198
 30
0.0
 11
38.100216
 21
217.302198
 31
0.0
  0
SPLINE
  5
14c
100
AcDbEntity
  8
Layer_1
 62
2
100
AcDbSpline
 70
8
 71
3
 72
8
 73
4
 74
0
 40
0
 40
0
 40
0
 40
0
 40
1
 40
1
 40
1
 40
1
 10
-3.999313
 20
303.619430
 30
0.0
 10
-4.632296
 20
303.619430
 30
0.0
 10
-5.202952
 20
303.238130
 30
0.0
 10
-5.445184
 20
302.653330
 30
0.0
  0
SPLINE
  5
14d
100
AcDbEntity
  8
Layer_1
 62
2
100
AcDbSpline
 70
8
 71
3
 72
8
 73
4
 74
0
 40
0
 40
0
 40
0
 40
0
 40
1
 40
1
 40
1
 40
1
 10
-5.445184
 20
302.653330
 30
0.0
 10
-5.687417
 20
302.068529
 30
0.0
 10
-5.553522
 20
301.395395
 30
0.0
 10
-5.105935
 20
300.947808
 30
0.0
  0
SPLINE
  5
14e
100
AcDbEntity
  8
Layer_1
 62
2
100
AcDbSpline
 70
8
 71
3
 72
8
 73
4
 74
0
 40
0
 40
0
 40
0
 40
0
 40
1
 40
1
 40
1
 40
1
 10
-5.105935
 20
300.947808
 30
0.0
 10
-4.658348
 20
300.500221
 30
0.0
 10
-3.985214
 20
300.366326
 30
0.0
 10
-3.400413
 20
300.608558
 30
0.0
  0
SPLINE
  5
14f
100
AcDbEntity
  8
Layer_1
 62
2
100
AcDbSpline
 70
8
 71
3
 72
8
 73
4
 74
0
 40
0
 40
0
 40
0
 40
0
 40
1
 40
1
 40
1
 40
1
 10
-3.400413
 20
300.608558
 30
0.0
 10
-2.815613
 20
300.850791
 30
0.0
 10
-2.434313
 20
301.421447
 30
0.0
 10
-2.434313
 20
302.054430
 30
0.0
  0
SPLINE
  5
150
100
AcDbEntity
  8
Layer_1
 62
2
100
AcDbSpline
 70
8
 71
3
 72
8
 73
4
 74
0
 40
0
 40
0
 40
0
 40
0
 40
1
 40
1
 40
1
 40
1
 10
-2.434313
 20
302.054430
 30
0.0
 10
-2.434313
 20
302.469494
 30
0.0
 10
-2.599196
 20
302.867558
 30
0.0
 10
-2.892691
 20
303.161052
 30
0.0
  0
SPLINE
  5
151
100
AcDbEntity
  8
Layer_1
 62
2
100
AcDbSpline
 70
8
 71
3
 72
8
 73
4
 74
0
 40
0
 40
0
 40
0
 40
0
 40
1
 40
1
 40
1
 40
1
 10
-2.892691
 20
303.161052
 30
0.0
 10
-3.186185
 20
303.454547
 30
0.0
 10
-3.584249
 20
303.619430
 30
0.0
 10
-3.999313
 20
303.619430
 30
0.0
  0
LINE
  5
152
100
AcDbEntity
  8
Layer_1
 62
2
100
AcDbLine
 10
-3.999313
 20
303.619430
 30
0.0
 11
-3.999313
 21
303.619430
 31
0.0
  0
SPLINE
  5
153
100
AcDbEntity
  8
Layer_1
 62
2
100
AcDbSpline
 70
8
 71
3
 72
8
 73
4
 74
0
 40
0
 40
0
 40
0
 40
0
 40
1
 40
1
 40
1
 40
1
 10
-3.999313
 20
217.302198
 30
0.0
 10
-4.632296
 20
217.302198
 30
0.0
 10
-5.202952
 20
216.920898
 30
0.0
 10
-5.445184
 20
216.336098
 30
0.0
  0
SPLINE
  5
154
100
AcDbEntity
  8
Layer_1
 62
2
100
AcDbSpline
 70
8
 71
3
 72
8
 73
4
 74
0
 40
0
 40
0
 40
0
 40
0
 40
1
 40
1
 40
1
 40
1
 10
-5.445184
 20
216.336098
 30
0.0
 10
-5.687417
 20
215.751297
 30
0.0
 10
-5.553522
 20
215.078163
 30
0.0
 10
-5.105935
 20
214.630576
 30
0.0
  0
SPLINE
  5
155
100
AcDbEntity
  8
Layer_1
 62
2
100
AcDbSpline
 70
8
 71
3
 72
8
 73
4
 74
0
 40
0
 40
0
 40
0
 40
0
 40
1
 40
1
 40
1
 40
1
 10
-5.105935
 20
214.630576
 30
0.0
 10
-4.658348
 20
214.182989
 30
0.0
 10
-3.985214
 20
214.049094
 30
0.0
 10
-3.400413
 20
214.291326
 30
0.0
  0
SPLINE
  5
156
100
AcDbEntity
  8
Layer_1
 62
2
100
AcDbSpline
 70
8
 71
3
 72
8
 73
4
 74
0
 40
0
 40
0
 40
0
 40
0
 40
1
 40
1
 40
1
 40
1
 10
-3.400413
 20
214.291326
 30
0.0
 10
-2.815613
 20
214.533559
 30
0.0
 10
-2.434313
 20
215.104215
 30
0.0
 10
-2.434313
 20
215.737198
 30
0.0
  0
SPLINE
  5
157
100
AcDbEntity
  8
Layer_1
 62
2
100
AcDbSpline
 70
8
 71
3
 72
8
 73
4
 74
0
 40
0
 40
0
 40
0
 40
0
 40
1
 40
1
 40
1
 40
1
 10
-2.434313
 20
215.737198
 30
0.0
 10
-2.434313
 20
216.152262
 30
0.0
 10
-2.599196
 20
216.550326
 30
0.0
 10
-2.892691
 20
216.843820
 30
0.0
  0
SPLINE
  5
158
100
AcDbEntity
  8
Layer_1
 62
2
100
AcDbSpline
 70
8
 71
3
 72
8
 73
4
 74
0
 40
0
 40
0
 40
0
 40
0
 40
1
 40
1
 40
1
 40
1
 10
-2.892691
 20
216.843820
 30
0.0
 10
-3.186185
 20
217.137315
 30
0.0
 10
-3.584249
 20
217.302198
 30
0.0
 10
-3.999313
 20
217.302198
 30
0.0
  0
LINE
  5
159
100
AcDbEntity
  8
Layer_1
 62
2
100
AcDbLine
 10
-3.999313
 20
217.302198
 30
0.0
 11
-3.999313
 21
217.302198
 31
0.0
  0
ENDSEC
  0
SECTION
  2
OBJECTS
  0
DICTIONARY
  5
C
330
0
100
AcDbDictionary
  3
ACAD_GROUP
350
D
  3
ACAD_MLINESTYLE
350
17
  0
DICTIONARY
  5
D
330
C
100
AcDbDictionary
  0
DICTIONARY
  5
1A
330
C
100
AcDbDictionary
  0
DICTIONARY
  5
17
330
C
100
AcDbDictionary
  3
STANDARD
350
18
  0
DICTIONARY
  5
19
330
C
100
AcDbDictionary
  0
ENDSEC
  0
EOF
