  0
SECTION
  2
HEADER
  9
$ACADVER
  1
AC1014
  9
$HANDSEED
  5
FFFF
  9
$INSUNITS
 70
     0
  9
$MEASUREMENT
 70
     1
  0
ENDSEC
  0
SECTION
  2
TABLES
  0
TABLE
  2
VPORT
  5
8
330
0
100
AcDbSymbolTable
 70
     4
  0
VPORT
  5
2E
330
8
100
AcDbSymbolTableRecord
100
AcDbViewportTableRecord
  2
*ACTIVE
 70
     0
 10
0.0
 20
0.0
 11
1.0
 21
1.0
 12
210.0
 22
148.5
 13
0.0
 23
0.0
 14
10.0
 24
10.0
 15
10.0
 25
10.0
 16
0.0
 26
0.0
 36
1.0
 17
0.0
 27
0.0
 37
0.0
 40
341.0
 41
1.24
 42
50.0
 43
0.0
 44
0.0
 50
0.0
 51
0.0
 71
     0
 72
   100
 73
     1
 74
     3
 75
     0
 76
     0
 77
     0
 78
     0
  0
ENDTAB
  0
TABLE
  2
LTYPE
  5
5
330
0
100
AcDbSymbolTable
 70
     1
  0
LTYPE
  5
14
330
5
100
AcDbSymbolTableRecord
100
AcDbLinetypeTableRecord
  2
BYBLOCK
 70
     0
  3

 72
    65
 73
     0
 40
0.0
  0
LTYPE
  5
15
330
5
100
AcDbSymbolTableRecord
100
AcDbLinetypeTableRecord
  2
BYLAYER
 70
     0
  3

 72
    65
 73
     0
 40
0.0
  0
LTYPE
  5
16
330
5
100
AcDbSymbolTableRecord
100
AcDbLinetypeTableRecord
  2
CONTINUOUS
 70
     0
  3
Solid line
 72
    65
 73
     0
 40
0.0
  0
ENDTAB
  0
TABLE
  2
LAYER
  5
2
100
AcDbSymbolTable
 70
2
  0
LAYER
  5
50
100
AcDbSymbolTableRecord
100
AcDbLayerTableRecord
  2
0
 70
0
  6
CONTINUOUS
  0
LAYER
  5
51
100
AcDbSymbolTableRecord
100
AcDbLayerTableRecord
  2
Layer_1
 70
0
  6
CONTINUOUS
  0
ENDTAB
  0
TABLE
  2
STYLE
  5
3
330
0
100
AcDbSymbolTable
 70
     1
  0
STYLE
  5
11
330
3
100
AcDbSymbolTableRecord
100
AcDbTextStyleTableRecord
  2
STANDARD
 70
     0
 40
0.0
 41
1.0
 50
0.0
 71
     0
 42
2.5
  3
txt
  4

  0
ENDTAB
  0
TABLE
  2
VIEW
  5
6
330
0
100
AcDbSymbolTable
 70
     0
  0
ENDTAB
  0
TABLE
  2
UCS
  5
7
330
0
100
AcDbSymbolTable
 70
     0
  0
ENDTAB
  0
TABLE
  2
APPID
  5
9
330
0
100
AcDbSymbolTable
 70
     2
  0
APPID
  5
12
330
9
100
AcDbSymbolTableRecord
100
AcDbRegAppTableRecord
  2
ACAD
 70
     0
  0
ENDTAB
  0
TABLE
  2
DIMSTYLE
  5
A
330
0
100
AcDbSymbolTable
 70
     1
  0
DIMSTYLE
105
27
330
A
100
AcDbSymbolTableRecord
100
AcDbDimStyleTableRecord
  2
ISO-25
 70
     0
  3

  4

  5

  6

  7

 40
1.0
 41
2.5
 42
0.625
 43
3.75
 44
1.25
 45
0.0
 46
0.0
 47
0.0
 48
0.0
140
2.5
141
2.5
142
0.0
143
0.03937007874016
144
1.0
145
0.0
146
1.0
147
0.625
 71
     0
 72
     0
 73
     0
 74
     0
 75
     0
 76
     0
 77
     1
 78
     8
170
     0
171
     3
172
     1
173
     0
174
     0
175
     0
176
     0
177
     0
178
     0
270
     2
271
     2
272
     2
273
     2
274
     3
340
11
275
     0
280
     0
281
     0
282
     0
283
     0
284
     8
285
     0
286
     0
287
     3
288
     0
  0
ENDTAB
  0
TABLE
  2
BLOCK_RECORD
  5
1
330
0
100
AcDbSymbolTable
 70
     1
  0
BLOCK_RECORD
  5
1F
330
1
100
AcDbSymbolTableRecord
100
AcDbBlockTableRecord
  2
*MODEL_SPACE
  0
BLOCK_RECORD
  5
1B
330
1
100
AcDbSymbolTableRecord
100
AcDbBlockTableRecord
  2
*PAPER_SPACE
  0
ENDTAB
  0
ENDSEC
  0
SECTION
  2
BLOCKS
  0
BLOCK
  5
20
330
1F
100
AcDbEntity
  8
0
100
AcDbBlockBegin
  2
*MODEL_SPACE
 70
     0
 10
0.0
 20
0.0
 30
0.0
  3
*MODEL_SPACE
  1

  0
ENDBLK
  5
21
330
1F
100
AcDbEntity
  8
0
100
AcDbBlockEnd
  0
BLOCK
  5
1C
330
1B
100
AcDbEntity
 67
     1
  8
0
100
AcDbBlockBegin
  2
*PAPER_SPACE
  1

  0
ENDBLK
  5
1D
330
1B
100
AcDbEntity
 67
     1
  8
0
100
AcDbBlockEnd
  0
ENDSEC
  0
SECTION
  2
ENTITIES
  0
SPLINE
  5
100
100
AcDbEntity
  8
Layer_1
 62
6
100
AcDbSpline
 70
8
 71
3
 72
8
 73
4
 74
0
 40
0
 40
0
 40
0
 40
0
 40
1
 40
1
 40
1
 40
1
 10
247.660020
 20
276.182710
 30
0.0
 10
247.660020
 20
275.798471
 30
0.0
 10
247.891480
 20
275.452066
 30
0.0
 10
248.246471
 20
275.305024
 30
0.0
  0
SPLINE
  5
101
100
AcDbEntity
  8
Layer_1
 62
6
100
AcDbSpline
 70
8
 71
3
 72
8
 73
4
 74
0
 40
0
 40
0
 40
0
 40
0
 40
1
 40
1
 40
1
 40
1
 10
248.246471
 20
275.305024
 30
0.0
 10
248.601461
 20
275.157983
 30
0.0
 10
249.010073
 20
275.239260
 30
0.0
 10
249.281771
 20
275.510959
 30
0.0
  0
SPLINE
  5
102
100
AcDbEntity
  8
Layer_1
 62
6
100
AcDbSpline
 70
8
 71
3
 72
8
 73
4
 74
0
 40
0
 40
0
 40
0
 40
0
 40
1
 40
1
 40
1
 40
1
 10
249.281771
 20
275.510959
 30
0.0
 10
249.553470
 20
275.782657
 30
0.0
 10
249.634747
 20
276.191269
 30
0.0
 10
249.487706
 20
276.546259
 30
0.0
  0
SPLINE
  5
103
100
AcDbEntity
  8
Layer_1
 62
6
100
AcDbSpline
 70
8
 71
3
 72
8
 73
4
 74
0
 40
0
 40
0
 40
0
 40
0
 40
1
 40
1
 40
1
 40
1
 10
249.487706
 20
276.546259
 30
0.0
 10
249.340664
 20
276.901250
 30
0.0
 10
248.994259
 20
277.132710
 30
0.0
 10
248.610020
 20
277.132710
 30
0.0
  0
SPLINE
  5
104
100
AcDbEntity
  8
Layer_1
 62
6
100
AcDbSpline
 70
8
 71
3
 72
8
 73
4
 74
0
 40
0
 40
0
 40
0
 40
0
 40
1
 40
1
 40
1
 40
1
 10
248.610020
 20
277.132710
 30
0.0
 10
248.358064
 20
277.132710
 30
0.0
 10
248.116428
 20
277.032621
 30
0.0
 10
247.938269
 20
276.854461
 30
0.0
  0
SPLINE
  5
105
100
AcDbEntity
  8
Layer_1
 62
6
100
AcDbSpline
 70
8
 71
3
 72
8
 73
4
 74
0
 40
0
 40
0
 40
0
 40
0
 40
1
 40
1
 40
1
 40
1
 10
247.938269
 20
276.854461
 30
0.0
 10
247.760109
 20
276.676302
 30
0.0
 10
247.660020
 20
276.434666
 30
0.0
 10
247.660020
 20
276.182710
 30
0.0
  0
LINE
  5
106
100
AcDbEntity
  8
Layer_1
 62
6
100
AcDbLine
 10
247.660020
 20
276.182710
 30
0.0
 11
247.660020
 21
276.182710
 31
0.0
  0
SPLINE
  5
107
100
AcDbEntity
  8
Layer_1
 62
6
100
AcDbSpline
 70
8
 71
3
 72
8
 73
4
 74
0
 40
0
 40
0
 40
0
 40
0
 40
1
 40
1
 40
1
 40
1
 10
247.660020
 20
293.960110
 30
0.0
 10
247.660020
 20
293.575871
 30
0.0
 10
247.891480
 20
293.229466
 30
0.0
 10
248.246471
 20
293.082424
 30
0.0
  0
SPLINE
  5
108
100
AcDbEntity
  8
Layer_1
 62
6
100
AcDbSpline
 70
8
 71
3
 72
8
 73
4
 74
0
 40
0
 40
0
 40
0
 40
0
 40
1
 40
1
 40
1
 40
1
 10
248.246471
 20
293.082424
 30
0.0
 10
248.601461
 20
292.935383
 30
0.0
 10
249.010073
 20
293.016660
 30
0.0
 10
249.281771
 20
293.288359
 30
0.0
  0
SPLINE
  5
109
100
AcDbEntity
  8
Layer_1
 62
6
100
AcDbSpline
 70
8
 71
3
 72
8
 73
4
 74
0
 40
0
 40
0
 40
0
 40
0
 40
1
 40
1
 40
1
 40
1
 10
249.281771
 20
293.288359
 30
0.0
 10
249.553470
 20
293.560057
 30
0.0
 10
249.634747
 20
293.968669
 30
0.0
 10
249.487706
 20
294.323659
 30
0.0
  0
SPLINE
  5
10a
100
AcDbEntity
  8
Layer_1
 62
6
100
AcDbSpline
 70
8
 71
3
 72
8
 73
4
 74
0
 40
0
 40
0
 40
0
 40
0
 40
1
 40
1
 40
1
 40
1
 10
249.487706
 20
294.323659
 30
0.0
 10
249.340664
 20
294.678650
 30
0.0
 10
248.994259
 20
294.910110
 30
0.0
 10
248.610020
 20
294.910110
 30
0.0
  0
SPLINE
  5
10b
100
AcDbEntity
  8
Layer_1
 62
6
100
AcDbSpline
 70
8
 71
3
 72
8
 73
4
 74
0
 40
0
 40
0
 40
0
 40
0
 40
1
 40
1
 40
1
 40
1
 10
248.610020
 20
294.910110
 30
0.0
 10
248.358064
 20
294.910110
 30
0.0
 10
248.116428
 20
294.810021
 30
0.0
 10
247.938269
 20
294.631861
 30
0.0
  0
SPLINE
  5
10c
100
AcDbEntity
  8
Layer_1
 62
6
100
AcDbSpline
 70
8
 71
3
 72
8
 73
4
 74
0
 40
0
 40
0
 40
0
 40
0
 40
1
 40
1
 40
1
 40
1
 10
247.938269
 20
294.631861
 30
0.0
 10
247.760109
 20
294.453702
 30
0.0
 10
247.660020
 20
294.212066
 30
0.0
 10
247.660020
 20
293.960110
 30
0.0
  0
LINE
  5
10d
100
AcDbEntity
  8
Layer_1
 62
6
100
AcDbLine
 10
247.660020
 20
293.960110
 30
0.0
 11
247.660020
 21
293.960110
 31
0.0
  0
SPLINE
  5
10e
100
AcDbEntity
  8
Layer_1
 62
6
100
AcDbSpline
 70
8
 71
3
 72
8
 73
4
 74
0
 40
0
 40
0
 40
0
 40
0
 40
1
 40
1
 40
1
 40
1
 10
293.375080
 20
276.182710
 30
0.0
 10
293.375080
 20
275.798471
 30
0.0
 10
293.606540
 20
275.452066
 30
0.0
 10
293.961531
 20
275.305024
 30
0.0
  0
SPLINE
  5
10f
100
AcDbEntity
  8
Layer_1
 62
6
100
AcDbSpline
 70
8
 71
3
 72
8
 73
4
 74
0
 40
0
 40
0
 40
0
 40
0
 40
1
 40
1
 40
1
 40
1
 10
293.961531
 20
275.305024
 30
0.0
 10
294.316521
 20
275.157983
 30
0.0
 10
294.725133
 20
275.239260
 30
0.0
 10
294.996831
 20
275.510959
 30
0.0
  0
SPLINE
  5
110
100
AcDbEntity
  8
Layer_1
 62
6
100
AcDbSpline
 70
8
 71
3
 72
8
 73
4
 74
0
 40
0
 40
0
 40
0
 40
0
 40
1
 40
1
 40
1
 40
1
 10
294.996831
 20
275.510959
 30
0.0
 10
295.268530
 20
275.782657
 30
0.0
 10
295.349807
 20
276.191269
 30
0.0
 10
295.202766
 20
276.546259
 30
0.0
  0
SPLINE
  5
111
100
AcDbEntity
  8
Layer_1
 62
6
100
AcDbSpline
 70
8
 71
3
 72
8
 73
4
 74
0
 40
0
 40
0
 40
0
 40
0
 40
1
 40
1
 40
1
 40
1
 10
295.202766
 20
276.546259
 30
0.0
 10
295.055724
 20
276.901250
 30
0.0
 10
294.709319
 20
277.132710
 30
0.0
 10
294.325080
 20
277.132710
 30
0.0
  0
SPLINE
  5
112
100
AcDbEntity
  8
Layer_1
 62
6
100
AcDbSpline
 70
8
 71
3
 72
8
 73
4
 74
0
 40
0
 40
0
 40
0
 40
0
 40
1
 40
1
 40
1
 40
1
 10
294.325080
 20
277.132710
 30
0.0
 10
294.073124
 20
277.132710
 30
0.0
 10
293.831488
 20
277.032621
 30
0.0
 10
293.653329
 20
276.854461
 30
0.0
  0
SPLINE
  5
113
100
AcDbEntity
  8
Layer_1
 62
6
100
AcDbSpline
 70
8
 71
3
 72
8
 73
4
 74
0
 40
0
 40
0
 40
0
 40
0
 40
1
 40
1
 40
1
 40
1
 10
293.653329
 20
276.854461
 30
0.0
 10
293.475169
 20
276.676302
 30
0.0
 10
293.375080
 20
276.434666
 30
0.0
 10
293.375080
 20
276.182710
 30
0.0
  0
LINE
  5
114
100
AcDbEntity
  8
Layer_1
 62
6
100
AcDbLine
 10
293.375080
 20
276.182710
 30
0.0
 11
293.375080
 21
276.182710
 31
0.0
  0
SPLINE
  5
115
100
AcDbEntity
  8
Layer_1
 62
6
100
AcDbSpline
 70
8
 71
3
 72
8
 73
4
 74
0
 40
0
 40
0
 40
0
 40
0
 40
1
 40
1
 40
1
 40
1
 10
293.375080
 20
293.960110
 30
0.0
 10
293.375080
 20
293.575871
 30
0.0
 10
293.606540
 20
293.229466
 30
0.0
 10
293.961531
 20
293.082424
 30
0.0
  0
SPLINE
  5
116
100
AcDbEntity
  8
Layer_1
 62
6
100
AcDbSpline
 70
8
 71
3
 72
8
 73
4
 74
0
 40
0
 40
0
 40
0
 40
0
 40
1
 40
1
 40
1
 40
1
 10
293.961531
 20
293.082424
 30
0.0
 10
294.316521
 20
292.935383
 30
0.0
 10
294.725133
 20
293.016660
 30
0.0
 10
294.996831
 20
293.288359
 30
0.0
  0
SPLINE
  5
117
100
AcDbEntity
  8
Layer_1
 62
6
100
AcDbSpline
 70
8
 71
3
 72
8
 73
4
 74
0
 40
0
 40
0
 40
0
 40
0
 40
1
 40
1
 40
1
 40
1
 10
294.996831
 20
293.288359
 30
0.0
 10
295.268530
 20
293.560057
 30
0.0
 10
295.349807
 20
293.968669
 30
0.0
 10
295.202766
 20
294.323659
 30
0.0
  0
SPLINE
  5
118
100
AcDbEntity
  8
Layer_1
 62
6
100
AcDbSpline
 70
8
 71
3
 72
8
 73
4
 74
0
 40
0
 40
0
 40
0
 40
0
 40
1
 40
1
 40
1
 40
1
 10
295.202766
 20
294.323659
 30
0.0
 10
295.055724
 20
294.678650
 30
0.0
 10
294.709319
 20
294.910110
 30
0.0
 10
294.325080
 20
294.910110
 30
0.0
  0
SPLINE
  5
119
100
AcDbEntity
  8
Layer_1
 62
6
100
AcDbSpline
 70
8
 71
3
 72
8
 73
4
 74
0
 40
0
 40
0
 40
0
 40
0
 40
1
 40
1
 40
1
 40
1
 10
294.325080
 20
294.910110
 30
0.0
 10
294.073124
 20
294.910110
 30
0.0
 10
293.831488
 20
294.810021
 30
0.0
 10
293.653329
 20
294.631861
 30
0.0
  0
SPLINE
  5
11a
100
AcDbEntity
  8
Layer_1
 62
6
100
AcDbSpline
 70
8
 71
3
 72
8
 73
4
 74
0
 40
0
 40
0
 40
0
 40
0
 40
1
 40
1
 40
1
 40
1
 10
293.653329
 20
294.631861
 30
0.0
 10
293.475169
 20
294.453702
 30
0.0
 10
293.375080
 20
294.212066
 30
0.0
 10
293.375080
 20
293.960110
 30
0.0
  0
LINE
  5
11b
100
AcDbEntity
  8
Layer_1
 62
6
100
AcDbLine
 10
293.375080
 20
293.960110
 30
0.0
 11
293.375080
 21
293.960110
 31
0.0
  0
LINE
  5
11c
100
AcDbEntity
  8
Layer_1
 62
6
100
AcDbLine
 10
-12.232289
 20
305.262121
 30
0.0
 11
-12.232289
 21
290.436591
 31
0.0
  0
SPLINE
  5
11d
100
AcDbEntity
  8
Layer_1
 62
6
100
AcDbSpline
 70
8
 71
3
 72
8
 73
4
 74
0
 40
0
 40
0
 40
0
 40
0
 40
1
 40
1
 40
1
 40
1
 10
-12.232289
 20
290.436591
 30
0.0
 10
-12.232289
 20
289.384013
 30
0.0
 10
-11.814154
 20
288.374546
 30
0.0
 10
-11.069869
 20
287.630261
 30
0.0
  0
SPLINE
  5
11e
100
AcDbEntity
  8
Layer_1
 62
6
100
AcDbSpline
 70
8
 71
3
 72
8
 73
4
 74
0
 40
0
 40
0
 40
0
 40
0
 40
1
 40
1
 40
1
 40
1
 10
-11.069869
 20
287.630261
 30
0.0
 10
-10.325584
 20
286.885976
 30
0.0
 10
-9.316117
 20
286.467841
 30
0.0
 10
-8.263539
 20
286.467841
 30
0.0
  0
LINE
  5
11f
100
AcDbEntity
  8
Layer_1
 62
6
100
AcDbLine
 10
-8.263539
 20
286.467841
 30
0.0
 11
-8.088106
 21
286.467841
 31
0.0
  0
SPLINE
  5
120
100
AcDbEntity
  8
Layer_1
 62
6
100
AcDbSpline
 70
8
 71
3
 72
8
 73
4
 74
0
 40
0
 40
0
 40
0
 40
0
 40
1
 40
1
 40
1
 40
1
 10
-8.088106
 20
286.467841
 30
0.0
 10
-7.035530
 20
286.467841
 30
0.0
 10
-6.026064
 20
286.049706
 30
0.0
 10
-5.281782
 20
285.305420
 30
0.0
  0
SPLINE
  5
121
100
AcDbEntity
  8
Layer_1
 62
6
100
AcDbSpline
 70
8
 71
3
 72
8
 73
4
 74
0
 40
0
 40
0
 40
0
 40
0
 40
1
 40
1
 40
1
 40
1
 10
-5.281782
 20
285.305420
 30
0.0
 10
-4.537499
 20
284.561135
 30
0.0
 10
-4.119368
 20
283.551668
 30
0.0
 10
-4.119372
 20
282.499091
 30
0.0
  0
LINE
  5
122
100
AcDbEntity
  8
Layer_1
 62
6
100
AcDbLine
 10
-4.119372
 20
282.499091
 30
0.0
 11
-4.119540
 21
240.051351
 31
0.0
  0
SPLINE
  5
123
100
AcDbEntity
  8
Layer_1
 62
6
100
AcDbSpline
 70
8
 71
3
 72
8
 73
4
 74
0
 40
0
 40
0
 40
0
 40
0
 40
1
 40
1
 40
1
 40
1
 10
-4.119540
 20
240.051351
 30
0.0
 10
-4.119550
 20
237.483219
 30
0.0
 10
-4.999040
 20
234.992539
 30
0.0
 10
-6.611638
 20
232.993831
 30
0.0
  0
LINE
  5
124
100
AcDbEntity
  8
Layer_1
 62
6
100
AcDbLine
 10
-6.611638
 20
232.993831
 30
0.0
 11
-9.739406
 21
229.117171
 31
0.0
  0
SPLINE
  5
125
100
AcDbEntity
  8
Layer_1
 62
6
100
AcDbSpline
 70
8
 71
3
 72
8
 73
4
 74
0
 40
0
 40
0
 40
0
 40
0
 40
1
 40
1
 40
1
 40
1
 10
-9.739406
 20
229.117171
 30
0.0
 10
-11.352007
 20
227.118459
 30
0.0
 10
-12.231528
 20
224.627789
 30
0.0
 10
-12.231602
 20
222.059651
 30
0.0
  0
LINE
  5
126
100
AcDbEntity
  8
Layer_1
 62
6
100
AcDbLine
 10
-12.231602
 20
222.059651
 30
0.0
 11
-12.231874
 21
212.532121
 31
0.0
  0
SPLINE
  5
127
100
AcDbEntity
  8
Layer_1
 62
6
100
AcDbSpline
 70
8
 71
3
 72
8
 73
4
 74
0
 40
0
 40
0
 40
0
 40
0
 40
1
 40
1
 40
1
 40
1
 10
-12.231874
 20
212.532121
 30
0.0
 10
-12.231904
 20
211.479554
 30
0.0
 10
-11.813794
 20
210.470086
 30
0.0
 10
-11.069528
 20
209.725798
 30
0.0
  0
SPLINE
  5
128
100
AcDbEntity
  8
Layer_1
 62
6
100
AcDbSpline
 70
8
 71
3
 72
8
 73
4
 74
0
 40
0
 40
0
 40
0
 40
0
 40
1
 40
1
 40
1
 40
1
 10
-11.069528
 20
209.725798
 30
0.0
 10
-10.325261
 20
208.981510
 30
0.0
 10
-9.315805
 20
208.563371
 30
0.0
 10
-8.263238
 20
208.563371
 30
0.0
  0
LINE
  5
129
100
AcDbEntity
  8
Layer_1
 62
6
100
AcDbLine
 10
-8.263238
 20
208.563371
 30
0.0
 11
17.923994
 21
208.563371
 31
0.0
  0
LINE
  5
12a
100
AcDbEntity
  8
Layer_1
 62
6
100
AcDbLine
 10
17.923994
 20
208.563371
 30
0.0
 11
255.011850
 21
208.563371
 31
0.0
  0
LINE
  5
12b
100
AcDbEntity
  8
Layer_1
 62
6
100
AcDbLine
 10
255.011850
 20
208.563371
 30
0.0
 11
308.303670
 21
208.563371
 31
0.0
  0
SPLINE
  5
12c
100
AcDbEntity
  8
Layer_1
 62
6
100
AcDbSpline
 70
8
 71
3
 72
8
 73
4
 74
0
 40
0
 40
0
 40
0
 40
0
 40
1
 40
1
 40
1
 40
1
 10
308.303670
 20
208.563371
 30
0.0
 10
309.356240
 20
208.563370
 30
0.0
 10
310.365698
 20
208.981508
 30
0.0
 10
311.109969
 20
209.725796
 30
0.0
  0
SPLINE
  5
12d
100
AcDbEntity
  8
Layer_1
 62
6
100
AcDbSpline
 70
8
 71
3
 72
8
 73
4
 74
0
 40
0
 40
0
 40
0
 40
0
 40
1
 40
1
 40
1
 40
1
 10
311.109969
 20
209.725796
 30
0.0
 10
311.854240
 20
210.470084
 30
0.0
 10
312.272355
 20
211.479551
 30
0.0
 10
312.272330
 20
212.532121
 30
0.0
  0
LINE
  5
12e
100
AcDbEntity
  8
Layer_1
 62
6
100
AcDbLine
 10
312.272330
 20
212.532121
 30
0.0
 11
312.272100
 21
222.059651
 31
0.0
  0
SPLINE
  5
12f
100
AcDbEntity
  8
Layer_1
 62
6
100
AcDbSpline
 70
8
 71
3
 72
8
 73
4
 74
0
 40
0
 40
0
 40
0
 40
0
 40
1
 40
1
 40
1
 40
1
 10
312.272100
 20
222.059651
 30
0.0
 10
312.272046
 20
224.251546
 30
0.0
 10
310.495154
 20
226.028401
 30
0.0
 10
308.303260
 20
226.028411
 30
0.0
  0
LINE
  5
130
100
AcDbEntity
  8
Layer_1
 62
6
100
AcDbLine
 10
308.303260
 20
226.028411
 30
0.0
 11
308.135030
 21
226.028421
 31
0.0
  0
SPLINE
  5
131
100
AcDbEntity
  8
Layer_1
 62
6
100
AcDbSpline
 70
8
 71
3
 72
8
 73
4
 74
0
 40
0
 40
0
 40
0
 40
0
 40
1
 40
1
 40
1
 40
1
 10
308.135030
 20
226.028421
 30
0.0
 10
305.943108
 20
226.028431
 30
0.0
 10
304.166168
 20
227.805259
 30
0.0
 10
304.166020
 20
229.997181
 30
0.0
  0
LINE
  5
132
100
AcDbEntity
  8
Layer_1
 62
6
100
AcDbLine
 10
304.166020
 20
229.997181
 30
0.0
 11
304.163020
 21
282.499091
 31
0.0
  0
SPLINE
  5
133
100
AcDbEntity
  8
Layer_1
 62
6
100
AcDbSpline
 70
8
 71
3
 72
8
 73
4
 74
0
 40
0
 40
0
 40
0
 40
0
 40
1
 40
1
 40
1
 40
1
 10
304.163020
 20
282.499091
 30
0.0
 10
304.162950
 20
283.551646
 30
0.0
 10
304.581027
 20
284.561114
 30
0.0
 10
305.325271
 20
285.305406
 30
0.0
  0
SPLINE
  5
134
100
AcDbEntity
  8
Layer_1
 62
6
100
AcDbSpline
 70
8
 71
3
 72
8
 73
4
 74
0
 40
0
 40
0
 40
0
 40
0
 40
1
 40
1
 40
1
 40
1
 10
305.325271
 20
285.305406
 30
0.0
 10
306.069515
 20
286.049699
 30
0.0
 10
307.078956
 20
286.467842
 30
0.0
 10
308.131510
 20
286.467841
 30
0.0
  0
LINE
  5
135
100
AcDbEntity
  8
Layer_1
 62
6
100
AcDbLine
 10
308.131510
 20
286.467841
 30
0.0
 11
308.304820
 21
286.467841
 31
0.0
  0
SPLINE
  5
136
100
AcDbEntity
  8
Layer_1
 62
6
100
AcDbSpline
 70
8
 71
3
 72
8
 73
4
 74
0
 40
0
 40
0
 40
0
 40
0
 40
1
 40
1
 40
1
 40
1
 10
308.304820
 20
286.467841
 30
0.0
 10
309.357383
 20
286.467841
 30
0.0
 10
310.366834
 20
286.885981
 30
0.0
 10
311.111094
 20
287.630270
 30
0.0
  0
SPLINE
  5
137
100
AcDbEntity
  8
Layer_1
 62
6
100
AcDbSpline
 70
8
 71
3
 72
8
 73
4
 74
0
 40
0
 40
0
 40
0
 40
0
 40
1
 40
1
 40
1
 40
1
 10
311.111094
 20
287.630270
 30
0.0
 10
311.855354
 20
288.374560
 30
0.0
 10
312.273453
 20
289.384028
 30
0.0
 10
312.273410
 20
290.436591
 30
0.0
  0
LINE
  5
138
100
AcDbEntity
  8
Layer_1
 62
6
100
AcDbLine
 10
312.273410
 20
290.436591
 30
0.0
 11
312.272800
 21
305.262121
 31
0.0
  0
SPLINE
  5
139
100
AcDbEntity
  8
Layer_1
 62
6
100
AcDbSpline
 70
8
 71
3
 72
8
 73
4
 74
0
 40
0
 40
0
 40
0
 40
0
 40
1
 40
1
 40
1
 40
1
 10
312.272800
 20
305.262121
 30
0.0
 10
312.272710
 20
307.454027
 30
0.0
 10
310.495796
 20
309.230870
 30
0.0
 10
308.303890
 20
309.230871
 30
0.0
  0
LINE
  5
13a
100
AcDbEntity
  8
Layer_1
 62
6
100
AcDbLine
 10
308.303890
 20
309.230871
 30
0.0
 11
-8.263059
 21
309.230871
 31
0.0
  0
SPLINE
  5
13b
100
AcDbEntity
  8
Layer_1
 62
6
100
AcDbSpline
 70
8
 71
3
 72
8
 73
4
 74
0
 40
0
 40
0
 40
0
 40
0
 40
1
 40
1
 40
1
 40
1
 10
-8.263059
 20
309.230871
 30
0.0
 10
-9.315637
 20
309.230871
 30
0.0
 10
-10.325104
 20
308.812736
 30
0.0
 10
-11.069389
 20
308.068451
 30
0.0
  0
SPLINE
  5
13c
100
AcDbEntity
  8
Layer_1
 62
6
100
AcDbSpline
 70
8
 71
3
 72
8
 73
4
 74
0
 40
0
 40
0
 40
0
 40
0
 40
1
 40
1
 40
1
 40
1
 10
-11.069389
 20
308.068451
 30
0.0
 10
-11.813674
 20
307.324166
 30
0.0
 10
-12.231809
 20
306.314699
 30
0.0
 10
-12.231809
 20
305.262121
 30
0.0
  0
LINE
  5
13d
100
AcDbEntity
  8
Layer_1
 62
6
100
AcDbLine
 10
-12.231809
 20
305.262121
 30
0.0
 11
-12.232289
 21
305.262121
 31
0.0
  0
SPLINE
  5
13e
100
AcDbEntity
  8
Layer_1
 62
6
100
AcDbSpline
 70
8
 71
3
 72
8
 73
4
 74
0
 40
0
 40
0
 40
0
 40
0
 40
1
 40
1
 40
1
 40
1
 10
304.036590
 20
303.619300
 30
0.0
 10
303.403607
 20
303.619300
 30
0.0
 10
302.832951
 20
303.238000
 30
0.0
 10
302.590718
 20
302.653200
 30
0.0
  0
SPLINE
  5
13f
100
AcDbEntity
  8
Layer_1
 62
6
100
AcDbSpline
 70
8
 71
3
 72
8
 73
4
 74
0
 40
0
 40
0
 40
0
 40
0
 40
1
 40
1
 40
1
 40
1
 10
302.590718
 20
302.653200
 30
0.0
 10
302.348486
 20
302.068399
 30
0.0
 10
302.482381
 20
301.395265
 30
0.0
 10
302.929968
 20
300.947678
 30
0.0
  0
SPLINE
  5
140
100
AcDbEntity
  8
Layer_1
 62
6
100
AcDbSpline
 70
8
 71
3
 72
8
 73
4
 74
0
 40
0
 40
0
 40
0
 40
0
 40
1
 40
1
 40
1
 40
1
 10
302.929968
 20
300.947678
 30
0.0
 10
303.377555
 20
300.500091
 30
0.0
 10
304.050689
 20
300.366196
 30
0.0
 10
304.635490
 20
300.608428
 30
0.0
  0
SPLINE
  5
141
100
AcDbEntity
  8
Layer_1
 62
6
100
AcDbSpline
 70
8
 71
3
 72
8
 73
4
 74
0
 40
0
 40
0
 40
0
 40
0
 40
1
 40
1
 40
1
 40
1
 10
304.635490
 20
300.608428
 30
0.0
 10
305.220290
 20
300.850661
 30
0.0
 10
305.601590
 20
301.421317
 30
0.0
 10
305.601590
 20
302.054300
 30
0.0
  0
SPLINE
  5
142
100
AcDbEntity
  8
Layer_1
 62
6
100
AcDbSpline
 70
8
 71
3
 72
8
 73
4
 74
0
 40
0
 40
0
 40
0
 40
0
 40
1
 40
1
 40
1
 40
1
 10
305.601590
 20
302.054300
 30
0.0
 10
305.601590
 20
302.469364
 30
0.0
 10
305.436707
 20
302.867428
 30
0.0
 10
305.143212
 20
303.160922
 30
0.0
  0
SPLINE
  5
143
100
AcDbEntity
  8
Layer_1
 62
6
100
AcDbSpline
 70
8
 71
3
 72
8
 73
4
 74
0
 40
0
 40
0
 40
0
 40
0
 40
1
 40
1
 40
1
 40
1
 10
305.143212
 20
303.160922
 30
0.0
 10
304.849718
 20
303.454417
 30
0.0
 10
304.451654
 20
303.619300
 30
0.0
 10
304.036590
 20
303.619300
 30
0.0
  0
LINE
  5
144
100
AcDbEntity
  8
Layer_1
 62
6
100
AcDbLine
 10
304.036590
 20
303.619300
 30
0.0
 11
304.036590
 21
303.619300
 31
0.0
  0
SPLINE
  5
145
100
AcDbEntity
  8
Layer_1
 62
6
100
AcDbSpline
 70
8
 71
3
 72
8
 73
4
 74
0
 40
0
 40
0
 40
0
 40
0
 40
1
 40
1
 40
1
 40
1
 10
304.036590
 20
216.687040
 30
0.0
 10
303.652351
 20
216.687040
 30
0.0
 10
303.305946
 20
216.455580
 30
0.0
 10
303.158904
 20
216.100589
 30
0.0
  0
SPLINE
  5
146
100
AcDbEntity
  8
Layer_1
 62
6
100
AcDbSpline
 70
8
 71
3
 72
8
 73
4
 74
0
 40
0
 40
0
 40
0
 40
0
 40
1
 40
1
 40
1
 40
1
 10
303.158904
 20
216.100589
 30
0.0
 10
303.011863
 20
215.745599
 30
0.0
 10
303.093140
 20
215.336987
 30
0.0
 10
303.364839
 20
215.065289
 30
0.0
  0
SPLINE
  5
147
100
AcDbEntity
  8
Layer_1
 62
6
100
AcDbSpline
 70
8
 71
3
 72
8
 73
4
 74
0
 40
0
 40
0
 40
0
 40
0
 40
1
 40
1
 40
1
 40
1
 10
303.364839
 20
215.065289
 30
0.0
 10
303.636537
 20
214.793590
 30
0.0
 10
304.045149
 20
214.712313
 30
0.0
 10
304.400139
 20
214.859354
 30
0.0
  0
SPLINE
  5
148
100
AcDbEntity
  8
Layer_1
 62
6
100
AcDbSpline
 70
8
 71
3
 72
8
 73
4
 74
0
 40
0
 40
0
 40
0
 40
0
 40
1
 40
1
 40
1
 40
1
 10
304.400139
 20
214.859354
 30
0.0
 10
304.755130
 20
215.006396
 30
0.0
 10
304.986590
 20
215.352801
 30
0.0
 10
304.986590
 20
215.737040
 30
0.0
  0
SPLINE
  5
149
100
AcDbEntity
  8
Layer_1
 62
6
100
AcDbSpline
 70
8
 71
3
 72
8
 73
4
 74
0
 40
0
 40
0
 40
0
 40
0
 40
1
 40
1
 40
1
 40
1
 10
304.986590
 20
215.737040
 30
0.0
 10
304.986590
 20
215.988996
 30
0.0
 10
304.886501
 20
216.230632
 30
0.0
 10
304.708341
 20
216.408791
 30
0.0
  0
SPLINE
  5
14a
100
AcDbEntity
  8
Layer_1
 62
6
100
AcDbSpline
 70
8
 71
3
 72
8
 73
4
 74
0
 40
0
 40
0
 40
0
 40
0
 40
1
 40
1
 40
1
 40
1
 10
304.708341
 20
216.408791
 30
0.0
 10
304.530182
 20
216.586951
 30
0.0
 10
304.288546
 20
216.687040
 30
0.0
 10
304.036590
 20
216.687040
 30
0.0
  0
LINE
  5
14b
100
AcDbEntity
  8
Layer_1
 62
6
100
AcDbLine
 10
304.036590
 20
216.687040
 30
0.0
 11
304.036590
 21
216.687040
 31
0.0
  0
SPLINE
  5
14c
100
AcDbEntity
  8
Layer_1
 62
6
100
AcDbSpline
 70
8
 71
3
 72
8
 73
4
 74
0
 40
0
 40
0
 40
0
 40
0
 40
1
 40
1
 40
1
 40
1
 10
204.788880
 20
303.619300
 30
0.0
 10
204.155897
 20
303.619300
 30
0.0
 10
203.585241
 20
303.238000
 30
0.0
 10
203.343008
 20
302.653200
 30
0.0
  0
SPLINE
  5
14d
100
AcDbEntity
  8
Layer_1
 62
6
100
AcDbSpline
 70
8
 71
3
 72
8
 73
4
 74
0
 40
0
 40
0
 40
0
 40
0
 40
1
 40
1
 40
1
 40
1
 10
203.343008
 20
302.653200
 30
0.0
 10
203.100776
 20
302.068399
 30
0.0
 10
203.234671
 20
301.395265
 30
0.0
 10
203.682258
 20
300.947678
 30
0.0
  0
SPLINE
  5
14e
100
AcDbEntity
  8
Layer_1
 62
6
100
AcDbSpline
 70
8
 71
3
 72
8
 73
4
 74
0
 40
0
 40
0
 40
0
 40
0
 40
1
 40
1
 40
1
 40
1
 10
203.682258
 20
300.947678
 30
0.0
 10
204.129845
 20
300.500091
 30
0.0
 10
204.802979
 20
300.366196
 30
0.0
 10
205.387780
 20
300.608428
 30
0.0
  0
SPLINE
  5
14f
100
AcDbEntity
  8
Layer_1
 62
6
100
AcDbSpline
 70
8
 71
3
 72
8
 73
4
 74
0
 40
0
 40
0
 40
0
 40
0
 40
1
 40
1
 40
1
 40
1
 10
205.387780
 20
300.608428
 30
0.0
 10
205.972580
 20
300.850661
 30
0.0
 10
206.353880
 20
301.421317
 30
0.0
 10
206.353880
 20
302.054300
 30
0.0
  0
SPLINE
  5
150
100
AcDbEntity
  8
Layer_1
 62
6
100
AcDbSpline
 70
8
 71
3
 72
8
 73
4
 74
0
 40
0
 40
0
 40
0
 40
0
 40
1
 40
1
 40
1
 40
1
 10
206.353880
 20
302.054300
 30
0.0
 10
206.353880
 20
302.469364
 30
0.0
 10
206.188997
 20
302.867428
 30
0.0
 10
205.895502
 20
303.160922
 30
0.0
  0
SPLINE
  5
151
100
AcDbEntity
  8
Layer_1
 62
6
100
AcDbSpline
 70
8
 71
3
 72
8
 73
4
 74
0
 40
0
 40
0
 40
0
 40
0
 40
1
 40
1
 40
1
 40
1
 10
205.895502
 20
303.160922
 30
0.0
 10
205.602008
 20
303.454417
 30
0.0
 10
205.203944
 20
303.619300
 30
0.0
 10
204.788880
 20
303.619300
 30
0.0
  0
LINE
  5
152
100
AcDbEntity
  8
Layer_1
 62
6
100
AcDbLine
 10
204.788880
 20
303.619300
 30
0.0
 11
204.788880
 21
303.619300
 31
0.0
  0
SPLINE
  5
153
100
AcDbEntity
  8
Layer_1
 62
6
100
AcDbSpline
 70
8
 71
3
 72
8
 73
4
 74
0
 40
0
 40
0
 40
0
 40
0
 40
1
 40
1
 40
1
 40
1
 10
204.788880
 20
216.687040
 30
0.0
 10
204.404641
 20
216.687040
 30
0.0
 10
204.058236
 20
216.455580
 30
0.0
 10
203.911194
 20
216.100589
 30
0.0
  0
SPLINE
  5
154
100
AcDbEntity
  8
Layer_1
 62
6
100
AcDbSpline
 70
8
 71
3
 72
8
 73
4
 74
0
 40
0
 40
0
 40
0
 40
0
 40
1
 40
1
 40
1
 40
1
 10
203.911194
 20
216.100589
 30
0.0
 10
203.764153
 20
215.745599
 30
0.0
 10
203.845430
 20
215.336987
 30
0.0
 10
204.117129
 20
215.065289
 30
0.0
  0
SPLINE
  5
155
100
AcDbEntity
  8
Layer_1
 62
6
100
AcDbSpline
 70
8
 71
3
 72
8
 73
4
 74
0
 40
0
 40
0
 40
0
 40
0
 40
1
 40
1
 40
1
 40
1
 10
204.117129
 20
215.065289
 30
0.0
 10
204.388827
 20
214.793590
 30
0.0
 10
204.797439
 20
214.712313
 30
0.0
 10
205.152429
 20
214.859354
 30
0.0
  0
SPLINE
  5
156
100
AcDbEntity
  8
Layer_1
 62
6
100
AcDbSpline
 70
8
 71
3
 72
8
 73
4
 74
0
 40
0
 40
0
 40
0
 40
0
 40
1
 40
1
 40
1
 40
1
 10
205.152429
 20
214.859354
 30
0.0
 10
205.507420
 20
215.006396
 30
0.0
 10
205.738880
 20
215.352801
 30
0.0
 10
205.738880
 20
215.737040
 30
0.0
  0
SPLINE
  5
157
100
AcDbEntity
  8
Layer_1
 62
6
100
AcDbSpline
 70
8
 71
3
 72
8
 73
4
 74
0
 40
0
 40
0
 40
0
 40
0
 40
1
 40
1
 40
1
 40
1
 10
205.738880
 20
215.737040
 30
0.0
 10
205.738880
 20
215.988996
 30
0.0
 10
205.638791
 20
216.230632
 30
0.0
 10
205.460631
 20
216.408791
 30
0.0
  0
SPLINE
  5
158
100
AcDbEntity
  8
Layer_1
 62
6
100
AcDbSpline
 70
8
 71
3
 72
8
 73
4
 74
0
 40
0
 40
0
 40
0
 40
0
 40
1
 40
1
 40
1
 40
1
 10
205.460631
 20
216.408791
 30
0.0
 10
205.282472
 20
216.586951
 30
0.0
 10
205.040836
 20
216.687040
 30
0.0
 10
204.788880
 20
216.687040
 30
0.0
  0
LINE
  5
159
100
AcDbEntity
  8
Layer_1
 62
6
100
AcDbLine
 10
204.788880
 20
216.687040
 30
0.0
 11
204.788880
 21
216.687040
 31
0.0
  0
SPLINE
  5
15a
100
AcDbEntity
  8
Layer_1
 62
6
100
AcDbSpline
 70
8
 71
3
 72
8
 73
4
 74
0
 40
0
 40
0
 40
0
 40
0
 40
1
 40
1
 40
1
 40
1
 10
38.100184
 20
303.619300
 30
0.0
 10
37.467201
 20
303.619300
 30
0.0
 10
36.896545
 20
303.238000
 30
0.0
 10
36.654312
 20
302.653200
 30
0.0
  0
SPLINE
  5
15b
100
AcDbEntity
  8
Layer_1
 62
6
100
AcDbSpline
 70
8
 71
3
 72
8
 73
4
 74
0
 40
0
 40
0
 40
0
 40
0
 40
1
 40
1
 40
1
 40
1
 10
36.654312
 20
302.653200
 30
0.0
 10
36.412080
 20
302.068399
 30
0.0
 10
36.545975
 20
301.395265
 30
0.0
 10
36.993562
 20
300.947678
 30
0.0
  0
SPLINE
  5
15c
100
AcDbEntity
  8
Layer_1
 62
6
100
AcDbSpline
 70
8
 71
3
 72
8
 73
4
 74
0
 40
0
 40
0
 40
0
 40
0
 40
1
 40
1
 40
1
 40
1
 10
36.993562
 20
300.947678
 30
0.0
 10
37.441149
 20
300.500091
 30
0.0
 10
38.114283
 20
300.366196
 30
0.0
 10
38.699084
 20
300.608428
 30
0.0
  0
SPLINE
  5
15d
100
AcDbEntity
  8
Layer_1
 62
6
100
AcDbSpline
 70
8
 71
3
 72
8
 73
4
 74
0
 40
0
 40
0
 40
0
 40
0
 40
1
 40
1
 40
1
 40
1
 10
38.699084
 20
300.608428
 30
0.0
 10
39.283884
 20
300.850661
 30
0.0
 10
39.665184
 20
301.421317
 30
0.0
 10
39.665184
 20
302.054300
 30
0.0
  0
SPLINE
  5
15e
100
AcDbEntity
  8
Layer_1
 62
6
100
AcDbSpline
 70
8
 71
3
 72
8
 73
4
 74
0
 40
0
 40
0
 40
0
 40
0
 40
1
 40
1
 40
1
 40
1
 10
39.665184
 20
302.054300
 30
0.0
 10
39.665184
 20
302.918626
 30
0.0
 10
38.964510
 20
303.619300
 30
0.0
 10
38.100184
 20
303.619300
 30
0.0
  0
LINE
  5
15f
100
AcDbEntity
  8
Layer_1
 62
6
100
AcDbLine
 10
38.100184
 20
303.619300
 30
0.0
 11
38.100184
 21
303.619300
 31
0.0
  0
SPLINE
  5
160
100
AcDbEntity
  8
Layer_1
 62
6
100
AcDbSpline
 70
8
 71
3
 72
8
 73
4
 74
0
 40
0
 40
0
 40
0
 40
0
 40
1
 40
1
 40
1
 40
1
 10
38.100184
 20
216.687040
 30
0.0
 10
37.715945
 20
216.687040
 30
0.0
 10
37.369540
 20
216.455580
 30
0.0
 10
37.222498
 20
216.100589
 30
0.0
  0
SPLINE
  5
161
100
AcDbEntity
  8
Layer_1
 62
6
100
AcDbSpline
 70
8
 71
3
 72
8
 73
4
 74
0
 40
0
 40
0
 40
0
 40
0
 40
1
 40
1
 40
1
 40
1
 10
37.222498
 20
216.100589
 30
0.0
 10
37.075457
 20
215.745599
 30
0.0
 10
37.156734
 20
215.336987
 30
0.0
 10
37.428433
 20
215.065289
 30
0.0
  0
SPLINE
  5
162
100
AcDbEntity
  8
Layer_1
 62
6
100
AcDbSpline
 70
8
 71
3
 72
8
 73
4
 74
0
 40
0
 40
0
 40
0
 40
0
 40
1
 40
1
 40
1
 40
1
 10
37.428433
 20
215.065289
 30
0.0
 10
37.700131
 20
214.793590
 30
0.0
 10
38.108743
 20
214.712313
 30
0.0
 10
38.463733
 20
214.859354
 30
0.0
  0
SPLINE
  5
163
100
AcDbEntity
  8
Layer_1
 62
6
100
AcDbSpline
 70
8
 71
3
 72
8
 73
4
 74
0
 40
0
 40
0
 40
0
 40
0
 40
1
 40
1
 40
1
 40
1
 10
38.463733
 20
214.859354
 30
0.0
 10
38.818724
 20
215.006396
 30
0.0
 10
39.050184
 20
215.352801
 30
0.0
 10
39.050184
 20
215.737040
 30
0.0
  0
SPLINE
  5
164
100
AcDbEntity
  8
Layer_1
 62
6
100
AcDbSpline
 70
8
 71
3
 72
8
 73
4
 74
0
 40
0
 40
0
 40
0
 40
0
 40
1
 40
1
 40
1
 40
1
 10
39.050184
 20
215.737040
 30
0.0
 10
39.050184
 20
216.261711
 30
0.0
 10
38.624855
 20
216.687040
 30
0.0
 10
38.100184
 20
216.687040
 30
0.0
  0
LINE
  5
165
100
AcDbEntity
  8
Layer_1
 62
6
100
AcDbLine
 10
38.100184
 20
216.687040
 30
0.0
 11
38.100184
 21
216.687040
 31
0.0
  0
SPLINE
  5
166
100
AcDbEntity
  8
Layer_1
 62
6
100
AcDbSpline
 70
8
 71
3
 72
8
 73
4
 74
0
 40
0
 40
0
 40
0
 40
0
 40
1
 40
1
 40
1
 40
1
 10
-3.999342
 20
303.619300
 30
0.0
 10
-4.632325
 20
303.619300
 30
0.0
 10
-5.202981
 20
303.238000
 30
0.0
 10
-5.445214
 20
302.653200
 30
0.0
  0
SPLINE
  5
167
100
AcDbEntity
  8
Layer_1
 62
6
100
AcDbSpline
 70
8
 71
3
 72
8
 73
4
 74
0
 40
0
 40
0
 40
0
 40
0
 40
1
 40
1
 40
1
 40
1
 10
-5.445214
 20
302.653200
 30
0.0
 10
-5.687446
 20
302.068399
 30
0.0
 10
-5.553551
 20
301.395265
 30
0.0
 10
-5.105964
 20
300.947678
 30
0.0
  0
SPLINE
  5
168
100
AcDbEntity
  8
Layer_1
 62
6
100
AcDbSpline
 70
8
 71
3
 72
8
 73
4
 74
0
 40
0
 40
0
 40
0
 40
0
 40
1
 40
1
 40
1
 40
1
 10
-5.105964
 20
300.947678
 30
0.0
 10
-4.658377
 20
300.500091
 30
0.0
 10
-3.985243
 20
300.366196
 30
0.0
 10
-3.400442
 20
300.608428
 30
0.0
  0
SPLINE
  5
169
100
AcDbEntity
  8
Layer_1
 62
6
100
AcDbSpline
 70
8
 71
3
 72
8
 73
4
 74
0
 40
0
 40
0
 40
0
 40
0
 40
1
 40
1
 40
1
 40
1
 10
-3.400442
 20
300.608428
 30
0.0
 10
-2.815642
 20
300.850661
 30
0.0
 10
-2.434342
 20
301.421317
 30
0.0
 10
-2.434342
 20
302.054300
 30
0.0
  0
SPLINE
  5
16a
100
AcDbEntity
  8
Layer_1
 62
6
100
AcDbSpline
 70
8
 71
3
 72
8
 73
4
 74
0
 40
0
 40
0
 40
0
 40
0
 40
1
 40
1
 40
1
 40
1
 10
-2.434342
 20
302.054300
 30
0.0
 10
-2.434342
 20
302.469364
 30
0.0
 10
-2.599225
 20
302.867428
 30
0.0
 10
-2.892720
 20
303.160922
 30
0.0
  0
SPLINE
  5
16b
100
AcDbEntity
  8
Layer_1
 62
6
100
AcDbSpline
 70
8
 71
3
 72
8
 73
4
 74
0
 40
0
 40
0
 40
0
 40
0
 40
1
 40
1
 40
1
 40
1
 10
-2.892720
 20
303.160922
 30
0.0
 10
-3.186214
 20
303.454417
 30
0.0
 10
-3.584278
 20
303.619300
 30
0.0
 10
-3.999342
 20
303.619300
 30
0.0
  0
LINE
  5
16c
100
AcDbEntity
  8
Layer_1
 62
6
100
AcDbLine
 10
-3.999342
 20
303.619300
 30
0.0
 11
-3.999342
 21
303.619300
 31
0.0
  0
SPLINE
  5
16d
100
AcDbEntity
  8
Layer_1
 62
6
100
AcDbSpline
 70
8
 71
3
 72
8
 73
4
 74
0
 40
0
 40
0
 40
0
 40
0
 40
1
 40
1
 40
1
 40
1
 10
-3.999342
 20
216.687040
 30
0.0
 10
-4.383581
 20
216.687040
 30
0.0
 10
-4.729986
 20
216.455580
 30
0.0
 10
-4.877028
 20
216.100589
 30
0.0
  0
SPLINE
  5
16e
100
AcDbEntity
  8
Layer_1
 62
6
100
AcDbSpline
 70
8
 71
3
 72
8
 73
4
 74
0
 40
0
 40
0
 40
0
 40
0
 40
1
 40
1
 40
1
 40
1
 10
-4.877028
 20
216.100589
 30
0.0
 10
-5.024069
 20
215.745599
 30
0.0
 10
-4.942792
 20
215.336987
 30
0.0
 10
-4.671093
 20
215.065289
 30
0.0
  0
SPLINE
  5
16f
100
AcDbEntity
  8
Layer_1
 62
6
100
AcDbSpline
 70
8
 71
3
 72
8
 73
4
 74
0
 40
0
 40
0
 40
0
 40
0
 40
1
 40
1
 40
1
 40
1
 10
-4.671093
 20
215.065289
 30
0.0
 10
-4.399395
 20
214.793590
 30
0.0
 10
-3.990783
 20
214.712313
 30
0.0
 10
-3.635793
 20
214.859354
 30
0.0
  0
SPLINE
  5
170
100
AcDbEntity
  8
Layer_1
 62
6
100
AcDbSpline
 70
8
 71
3
 72
8
 73
4
 74
0
 40
0
 40
0
 40
0
 40
0
 40
1
 40
1
 40
1
 40
1
 10
-3.635793
 20
214.859354
 30
0.0
 10
-3.280802
 20
215.006396
 30
0.0
 10
-3.049342
 20
215.352801
 30
0.0
 10
-3.049342
 20
215.737040
 30
0.0
  0
SPLINE
  5
171
100
AcDbEntity
  8
Layer_1
 62
6
100
AcDbSpline
 70
8
 71
3
 72
8
 73
4
 74
0
 40
0
 40
0
 40
0
 40
0
 40
1
 40
1
 40
1
 40
1
 10
-3.049342
 20
215.737040
 30
0.0
 10
-3.049342
 20
215.988996
 30
0.0
 10
-3.149431
 20
216.230632
 30
0.0
 10
-3.327591
 20
216.408791
 30
0.0
  0
SPLINE
  5
172
100
AcDbEntity
  8
Layer_1
 62
6
100
AcDbSpline
 70
8
 71
3
 72
8
 73
4
 74
0
 40
0
 40
0
 40
0
 40
0
 40
1
 40
1
 40
1
 40
1
 10
-3.327591
 20
216.408791
 30
0.0
 10
-3.505750
 20
216.586951
 30
0.0
 10
-3.747386
 20
216.687040
 30
0.0
 10
-3.999342
 20
216.687040
 30
0.0
  0
LINE
  5
173
100
AcDbEntity
  8
Layer_1
 62
6
100
AcDbLine
 10
-3.999342
 20
216.687040
 30
0.0
 11
-3.999342
 21
216.687040
 31
0.0
  0
ENDSEC
  0
SECTION
  2
OBJECTS
  0
DICTIONARY
  5
C
330
0
100
AcDbDictionary
  3
ACAD_GROUP
350
D
  3
ACAD_MLINESTYLE
350
17
  0
DICTIONARY
  5
D
330
C
100
AcDbDictionary
  0
DICTIONARY
  5
1A
330
C
100
AcDbDictionary
  0
DICTIONARY
  5
17
330
C
100
AcDbDictionary
  3
STANDARD
350
18
  0
DICTIONARY
  5
19
330
C
100
AcDbDictionary
  0
ENDSEC
  0
EOF
