  0
SECTION
  2
HEADER
  9
$ACADVER
  1
AC1014
  9
$HANDSEED
  5
FFFF
  9
$INSUNITS
 70
     0
  9
$MEASUREMENT
 70
     1
  0
ENDSEC
  0
SECTION
  2
TABLES
  0
TABLE
  2
VPORT
  5
8
330
0
100
AcDbSymbolTable
 70
     4
  0
VPORT
  5
2E
330
8
100
AcDbSymbolTableRecord
100
AcDbViewportTableRecord
  2
*ACTIVE
 70
     0
 10
0.0
 20
0.0
 11
1.0
 21
1.0
 12
210.0
 22
148.5
 13
0.0
 23
0.0
 14
10.0
 24
10.0
 15
10.0
 25
10.0
 16
0.0
 26
0.0
 36
1.0
 17
0.0
 27
0.0
 37
0.0
 40
341.0
 41
1.24
 42
50.0
 43
0.0
 44
0.0
 50
0.0
 51
0.0
 71
     0
 72
   100
 73
     1
 74
     3
 75
     0
 76
     0
 77
     0
 78
     0
  0
ENDTAB
  0
TABLE
  2
LTYPE
  5
5
330
0
100
AcDbSymbolTable
 70
     1
  0
LTYPE
  5
14
330
5
100
AcDbSymbolTableRecord
100
AcDbLinetypeTableRecord
  2
BYBLOCK
 70
     0
  3

 72
    65
 73
     0
 40
0.0
  0
LTYPE
  5
15
330
5
100
AcDbSymbolTableRecord
100
AcDbLinetypeTableRecord
  2
BYLAYER
 70
     0
  3

 72
    65
 73
     0
 40
0.0
  0
LTYPE
  5
16
330
5
100
AcDbSymbolTableRecord
100
AcDbLinetypeTableRecord
  2
CONTINUOUS
 70
     0
  3
Solid line
 72
    65
 73
     0
 40
0.0
  0
ENDTAB
  0
TABLE
  2
LAYER
  5
2
100
AcDbSymbolTable
 70
2
  0
LAYER
  5
50
100
AcDbSymbolTableRecord
100
AcDbLayerTableRecord
  2
0
 70
0
  6
CONTINUOUS
  0
LAYER
  5
51
100
AcDbSymbolTableRecord
100
AcDbLayerTableRecord
  2
Layer_1
 70
0
  6
CONTINUOUS
  0
ENDTAB
  0
TABLE
  2
STYLE
  5
3
330
0
100
AcDbSymbolTable
 70
     1
  0
STYLE
  5
11
330
3
100
AcDbSymbolTableRecord
100
AcDbTextStyleTableRecord
  2
STANDARD
 70
     0
 40
0.0
 41
1.0
 50
0.0
 71
     0
 42
2.5
  3
txt
  4

  0
ENDTAB
  0
TABLE
  2
VIEW
  5
6
330
0
100
AcDbSymbolTable
 70
     0
  0
ENDTAB
  0
TABLE
  2
UCS
  5
7
330
0
100
AcDbSymbolTable
 70
     0
  0
ENDTAB
  0
TABLE
  2
APPID
  5
9
330
0
100
AcDbSymbolTable
 70
     2
  0
APPID
  5
12
330
9
100
AcDbSymbolTableRecord
100
AcDbRegAppTableRecord
  2
ACAD
 70
     0
  0
ENDTAB
  0
TABLE
  2
DIMSTYLE
  5
A
330
0
100
AcDbSymbolTable
 70
     1
  0
DIMSTYLE
105
27
330
A
100
AcDbSymbolTableRecord
100
AcDbDimStyleTableRecord
  2
ISO-25
 70
     0
  3

  4

  5

  6

  7

 40
1.0
 41
2.5
 42
0.625
 43
3.75
 44
1.25
 45
0.0
 46
0.0
 47
0.0
 48
0.0
140
2.5
141
2.5
142
0.0
143
0.03937007874016
144
1.0
145
0.0
146
1.0
147
0.625
 71
     0
 72
     0
 73
     0
 74
     0
 75
     0
 76
     0
 77
     1
 78
     8
170
     0
171
     3
172
     1
173
     0
174
     0
175
     0
176
     0
177
     0
178
     0
270
     2
271
     2
272
     2
273
     2
274
     3
340
11
275
     0
280
     0
281
     0
282
     0
283
     0
284
     8
285
     0
286
     0
287
     3
288
     0
  0
ENDTAB
  0
TABLE
  2
BLOCK_RECORD
  5
1
330
0
100
AcDbSymbolTable
 70
     1
  0
BLOCK_RECORD
  5
1F
330
1
100
AcDbSymbolTableRecord
100
AcDbBlockTableRecord
  2
*MODEL_SPACE
  0
BLOCK_RECORD
  5
1B
330
1
100
AcDbSymbolTableRecord
100
AcDbBlockTableRecord
  2
*PAPER_SPACE
  0
ENDTAB
  0
ENDSEC
  0
SECTION
  2
BLOCKS
  0
BLOCK
  5
20
330
1F
100
AcDbEntity
  8
0
100
AcDbBlockBegin
  2
*MODEL_SPACE
 70
     0
 10
0.0
 20
0.0
 30
0.0
  3
*MODEL_SPACE
  1

  0
ENDBLK
  5
21
330
1F
100
AcDbEntity
  8
0
100
AcDbBlockEnd
  0
BLOCK
  5
1C
330
1B
100
AcDbEntity
 67
     1
  8
0
100
AcDbBlockBegin
  2
*PAPER_SPACE
  1

  0
ENDBLK
  5
1D
330
1B
100
AcDbEntity
 67
     1
  8
0
100
AcDbBlockEnd
  0
ENDSEC
  0
SECTION
  2
ENTITIES
  0
LINE
  5
100
100
AcDbEntity
  8
Layer_1
 62
1
100
AcDbLine
 10
117.325000
 20
294.475000
 30
0.0
 11
130.325000
 21
294.475000
 31
0.0
  0
SPLINE
  5
101
100
AcDbEntity
  8
Layer_1
 62
1
100
AcDbSpline
 70
8
 71
3
 72
8
 73
4
 74
0
 40
0
 40
0
 40
0
 40
0
 40
1
 40
1
 40
1
 40
1
 10
130.325000
 20
294.475000
 30
0.0
 10
130.457608
 20
294.475000
 30
0.0
 10
130.584785
 20
294.422322
 30
0.0
 10
130.678553
 20
294.328553
 30
0.0
  0
SPLINE
  5
102
100
AcDbEntity
  8
Layer_1
 62
1
100
AcDbSpline
 70
8
 71
3
 72
8
 73
4
 74
0
 40
0
 40
0
 40
0
 40
0
 40
1
 40
1
 40
1
 40
1
 10
130.678553
 20
294.328553
 30
0.0
 10
130.772322
 20
294.234785
 30
0.0
 10
130.825000
 20
294.107608
 30
0.0
 10
130.825000
 20
293.975000
 30
0.0
  0
LINE
  5
103
100
AcDbEntity
  8
Layer_1
 62
1
100
AcDbLine
 10
130.825000
 20
293.975000
 30
0.0
 11
130.825000
 21
280.975000
 31
0.0
  0
SPLINE
  5
104
100
AcDbEntity
  8
Layer_1
 62
1
100
AcDbSpline
 70
8
 71
3
 72
8
 73
4
 74
0
 40
0
 40
0
 40
0
 40
0
 40
1
 40
1
 40
1
 40
1
 10
130.825000
 20
280.975000
 30
0.0
 10
130.825000
 20
280.842392
 30
0.0
 10
130.772322
 20
280.715215
 30
0.0
 10
130.678553
 20
280.621447
 30
0.0
  0
SPLINE
  5
105
100
AcDbEntity
  8
Layer_1
 62
1
100
AcDbSpline
 70
8
 71
3
 72
8
 73
4
 74
0
 40
0
 40
0
 40
0
 40
0
 40
1
 40
1
 40
1
 40
1
 10
130.678553
 20
280.621447
 30
0.0
 10
130.584785
 20
280.527678
 30
0.0
 10
130.457608
 20
280.475000
 30
0.0
 10
130.325000
 20
280.475000
 30
0.0
  0
LINE
  5
106
100
AcDbEntity
  8
Layer_1
 62
1
100
AcDbLine
 10
130.325000
 20
280.475000
 30
0.0
 11
117.325000
 21
280.475000
 31
0.0
  0
SPLINE
  5
107
100
AcDbEntity
  8
Layer_1
 62
1
100
AcDbSpline
 70
8
 71
3
 72
8
 73
4
 74
0
 40
0
 40
0
 40
0
 40
0
 40
1
 40
1
 40
1
 40
1
 10
117.325000
 20
280.475000
 30
0.0
 10
117.192392
 20
280.475000
 30
0.0
 10
117.065215
 20
280.527678
 30
0.0
 10
116.971447
 20
280.621447
 30
0.0
  0
SPLINE
  5
108
100
AcDbEntity
  8
Layer_1
 62
1
100
AcDbSpline
 70
8
 71
3
 72
8
 73
4
 74
0
 40
0
 40
0
 40
0
 40
0
 40
1
 40
1
 40
1
 40
1
 10
116.971447
 20
280.621447
 30
0.0
 10
116.877678
 20
280.715215
 30
0.0
 10
116.825000
 20
280.842392
 30
0.0
 10
116.825000
 20
280.975000
 30
0.0
  0
LINE
  5
109
100
AcDbEntity
  8
Layer_1
 62
1
100
AcDbLine
 10
116.825000
 20
280.975000
 30
0.0
 11
116.825000
 21
293.975000
 31
0.0
  0
SPLINE
  5
10a
100
AcDbEntity
  8
Layer_1
 62
1
100
AcDbSpline
 70
8
 71
3
 72
8
 73
4
 74
0
 40
0
 40
0
 40
0
 40
0
 40
1
 40
1
 40
1
 40
1
 10
116.825000
 20
293.975000
 30
0.0
 10
116.825000
 20
294.107608
 30
0.0
 10
116.877678
 20
294.234785
 30
0.0
 10
116.971447
 20
294.328553
 30
0.0
  0
SPLINE
  5
10b
100
AcDbEntity
  8
Layer_1
 62
1
100
AcDbSpline
 70
8
 71
3
 72
8
 73
4
 74
0
 40
0
 40
0
 40
0
 40
0
 40
1
 40
1
 40
1
 40
1
 10
116.971447
 20
294.328553
 30
0.0
 10
117.065215
 20
294.422322
 30
0.0
 10
117.192392
 20
294.475000
 30
0.0
 10
117.325000
 20
294.475000
 30
0.0
  0
LINE
  5
10c
100
AcDbEntity
  8
Layer_1
 62
1
100
AcDbLine
 10
117.325000
 20
294.475000
 30
0.0
 11
117.325000
 21
294.475000
 31
0.0
  0
LINE
  5
10d
100
AcDbEntity
  8
Layer_1
 62
1
100
AcDbLine
 10
55.413000
 20
237.325000
 30
0.0
 11
68.413000
 21
237.325000
 31
0.0
  0
SPLINE
  5
10e
100
AcDbEntity
  8
Layer_1
 62
1
100
AcDbSpline
 70
8
 71
3
 72
8
 73
4
 74
0
 40
0
 40
0
 40
0
 40
0
 40
1
 40
1
 40
1
 40
1
 10
68.413000
 20
237.325000
 30
0.0
 10
68.545608
 20
237.325000
 30
0.0
 10
68.672785
 20
237.272322
 30
0.0
 10
68.766553
 20
237.178553
 30
0.0
  0
SPLINE
  5
10f
100
AcDbEntity
  8
Layer_1
 62
1
100
AcDbSpline
 70
8
 71
3
 72
8
 73
4
 74
0
 40
0
 40
0
 40
0
 40
0
 40
1
 40
1
 40
1
 40
1
 10
68.766553
 20
237.178553
 30
0.0
 10
68.860322
 20
237.084785
 30
0.0
 10
68.913000
 20
236.957608
 30
0.0
 10
68.913000
 20
236.825000
 30
0.0
  0
LINE
  5
110
100
AcDbEntity
  8
Layer_1
 62
1
100
AcDbLine
 10
68.913000
 20
236.825000
 30
0.0
 11
68.913000
 21
223.825000
 31
0.0
  0
SPLINE
  5
111
100
AcDbEntity
  8
Layer_1
 62
1
100
AcDbSpline
 70
8
 71
3
 72
8
 73
4
 74
0
 40
0
 40
0
 40
0
 40
0
 40
1
 40
1
 40
1
 40
1
 10
68.913000
 20
223.825000
 30
0.0
 10
68.913000
 20
223.692392
 30
0.0
 10
68.860322
 20
223.565215
 30
0.0
 10
68.766553
 20
223.471447
 30
0.0
  0
SPLINE
  5
112
100
AcDbEntity
  8
Layer_1
 62
1
100
AcDbSpline
 70
8
 71
3
 72
8
 73
4
 74
0
 40
0
 40
0
 40
0
 40
0
 40
1
 40
1
 40
1
 40
1
 10
68.766553
 20
223.471447
 30
0.0
 10
68.672785
 20
223.377678
 30
0.0
 10
68.545608
 20
223.325000
 30
0.0
 10
68.413000
 20
223.325000
 30
0.0
  0
LINE
  5
113
100
AcDbEntity
  8
Layer_1
 62
1
100
AcDbLine
 10
68.413000
 20
223.325000
 30
0.0
 11
55.413000
 21
223.325000
 31
0.0
  0
SPLINE
  5
114
100
AcDbEntity
  8
Layer_1
 62
1
100
AcDbSpline
 70
8
 71
3
 72
8
 73
4
 74
0
 40
0
 40
0
 40
0
 40
0
 40
1
 40
1
 40
1
 40
1
 10
55.413000
 20
223.325000
 30
0.0
 10
55.280392
 20
223.325000
 30
0.0
 10
55.153215
 20
223.377678
 30
0.0
 10
55.059447
 20
223.471447
 30
0.0
  0
SPLINE
  5
115
100
AcDbEntity
  8
Layer_1
 62
1
100
AcDbSpline
 70
8
 71
3
 72
8
 73
4
 74
0
 40
0
 40
0
 40
0
 40
0
 40
1
 40
1
 40
1
 40
1
 10
55.059447
 20
223.471447
 30
0.0
 10
54.965678
 20
223.565215
 30
0.0
 10
54.913000
 20
223.692392
 30
0.0
 10
54.913000
 20
223.825000
 30
0.0
  0
LINE
  5
116
100
AcDbEntity
  8
Layer_1
 62
1
100
AcDbLine
 10
54.913000
 20
223.825000
 30
0.0
 11
54.913000
 21
236.825000
 31
0.0
  0
SPLINE
  5
117
100
AcDbEntity
  8
Layer_1
 62
1
100
AcDbSpline
 70
8
 71
3
 72
8
 73
4
 74
0
 40
0
 40
0
 40
0
 40
0
 40
1
 40
1
 40
1
 40
1
 10
54.913000
 20
236.825000
 30
0.0
 10
54.913000
 20
236.957608
 30
0.0
 10
54.965678
 20
237.084785
 30
0.0
 10
55.059447
 20
237.178553
 30
0.0
  0
SPLINE
  5
118
100
AcDbEntity
  8
Layer_1
 62
1
100
AcDbSpline
 70
8
 71
3
 72
8
 73
4
 74
0
 40
0
 40
0
 40
0
 40
0
 40
1
 40
1
 40
1
 40
1
 10
55.059447
 20
237.178553
 30
0.0
 10
55.153215
 20
237.272322
 30
0.0
 10
55.280392
 20
237.325000
 30
0.0
 10
55.413000
 20
237.325000
 30
0.0
  0
LINE
  5
119
100
AcDbEntity
  8
Layer_1
 62
1
100
AcDbLine
 10
55.413000
 20
237.325000
 30
0.0
 11
55.413000
 21
237.325000
 31
0.0
  0
LINE
  5
11a
100
AcDbEntity
  8
Layer_1
 62
1
100
AcDbLine
 10
55.413000
 20
256.375000
 30
0.0
 11
68.413000
 21
256.375000
 31
0.0
  0
SPLINE
  5
11b
100
AcDbEntity
  8
Layer_1
 62
1
100
AcDbSpline
 70
8
 71
3
 72
8
 73
4
 74
0
 40
0
 40
0
 40
0
 40
0
 40
1
 40
1
 40
1
 40
1
 10
68.413000
 20
256.375000
 30
0.0
 10
68.545608
 20
256.375000
 30
0.0
 10
68.672785
 20
256.322322
 30
0.0
 10
68.766553
 20
256.228553
 30
0.0
  0
SPLINE
  5
11c
100
AcDbEntity
  8
Layer_1
 62
1
100
AcDbSpline
 70
8
 71
3
 72
8
 73
4
 74
0
 40
0
 40
0
 40
0
 40
0
 40
1
 40
1
 40
1
 40
1
 10
68.766553
 20
256.228553
 30
0.0
 10
68.860322
 20
256.134785
 30
0.0
 10
68.913000
 20
256.007608
 30
0.0
 10
68.913000
 20
255.875000
 30
0.0
  0
LINE
  5
11d
100
AcDbEntity
  8
Layer_1
 62
1
100
AcDbLine
 10
68.913000
 20
255.875000
 30
0.0
 11
68.913000
 21
242.875000
 31
0.0
  0
SPLINE
  5
11e
100
AcDbEntity
  8
Layer_1
 62
1
100
AcDbSpline
 70
8
 71
3
 72
8
 73
4
 74
0
 40
0
 40
0
 40
0
 40
0
 40
1
 40
1
 40
1
 40
1
 10
68.913000
 20
242.875000
 30
0.0
 10
68.913000
 20
242.742392
 30
0.0
 10
68.860322
 20
242.615215
 30
0.0
 10
68.766553
 20
242.521447
 30
0.0
  0
SPLINE
  5
11f
100
AcDbEntity
  8
Layer_1
 62
1
100
AcDbSpline
 70
8
 71
3
 72
8
 73
4
 74
0
 40
0
 40
0
 40
0
 40
0
 40
1
 40
1
 40
1
 40
1
 10
68.766553
 20
242.521447
 30
0.0
 10
68.672785
 20
242.427678
 30
0.0
 10
68.545608
 20
242.375000
 30
0.0
 10
68.413000
 20
242.375000
 30
0.0
  0
LINE
  5
120
100
AcDbEntity
  8
Layer_1
 62
1
100
AcDbLine
 10
68.413000
 20
242.375000
 30
0.0
 11
55.413000
 21
242.375000
 31
0.0
  0
SPLINE
  5
121
100
AcDbEntity
  8
Layer_1
 62
1
100
AcDbSpline
 70
8
 71
3
 72
8
 73
4
 74
0
 40
0
 40
0
 40
0
 40
0
 40
1
 40
1
 40
1
 40
1
 10
55.413000
 20
242.375000
 30
0.0
 10
55.280392
 20
242.375000
 30
0.0
 10
55.153215
 20
242.427678
 30
0.0
 10
55.059447
 20
242.521447
 30
0.0
  0
SPLINE
  5
122
100
AcDbEntity
  8
Layer_1
 62
1
100
AcDbSpline
 70
8
 71
3
 72
8
 73
4
 74
0
 40
0
 40
0
 40
0
 40
0
 40
1
 40
1
 40
1
 40
1
 10
55.059447
 20
242.521447
 30
0.0
 10
54.965678
 20
242.615215
 30
0.0
 10
54.913000
 20
242.742392
 30
0.0
 10
54.913000
 20
242.875000
 30
0.0
  0
LINE
  5
123
100
AcDbEntity
  8
Layer_1
 62
1
100
AcDbLine
 10
54.913000
 20
242.875000
 30
0.0
 11
54.913000
 21
255.875000
 31
0.0
  0
SPLINE
  5
124
100
AcDbEntity
  8
Layer_1
 62
1
100
AcDbSpline
 70
8
 71
3
 72
8
 73
4
 74
0
 40
0
 40
0
 40
0
 40
0
 40
1
 40
1
 40
1
 40
1
 10
54.913000
 20
255.875000
 30
0.0
 10
54.913000
 20
256.007608
 30
0.0
 10
54.965678
 20
256.134785
 30
0.0
 10
55.059447
 20
256.228553
 30
0.0
  0
SPLINE
  5
125
100
AcDbEntity
  8
Layer_1
 62
1
100
AcDbSpline
 70
8
 71
3
 72
8
 73
4
 74
0
 40
0
 40
0
 40
0
 40
0
 40
1
 40
1
 40
1
 40
1
 10
55.059447
 20
256.228553
 30
0.0
 10
55.153215
 20
256.322322
 30
0.0
 10
55.280392
 20
256.375000
 30
0.0
 10
55.413000
 20
256.375000
 30
0.0
  0
LINE
  5
126
100
AcDbEntity
  8
Layer_1
 62
1
100
AcDbLine
 10
55.413000
 20
256.375000
 30
0.0
 11
55.413000
 21
256.375000
 31
0.0
  0
LINE
  5
127
100
AcDbEntity
  8
Layer_1
 62
1
100
AcDbLine
 10
217.338000
 20
294.475000
 30
0.0
 11
230.338000
 21
294.475000
 31
0.0
  0
SPLINE
  5
128
100
AcDbEntity
  8
Layer_1
 62
1
100
AcDbSpline
 70
8
 71
3
 72
8
 73
4
 74
0
 40
0
 40
0
 40
0
 40
0
 40
1
 40
1
 40
1
 40
1
 10
230.338000
 20
294.475000
 30
0.0
 10
230.470608
 20
294.475000
 30
0.0
 10
230.597785
 20
294.422322
 30
0.0
 10
230.691553
 20
294.328553
 30
0.0
  0
SPLINE
  5
129
100
AcDbEntity
  8
Layer_1
 62
1
100
AcDbSpline
 70
8
 71
3
 72
8
 73
4
 74
0
 40
0
 40
0
 40
0
 40
0
 40
1
 40
1
 40
1
 40
1
 10
230.691553
 20
294.328553
 30
0.0
 10
230.785322
 20
294.234785
 30
0.0
 10
230.838000
 20
294.107608
 30
0.0
 10
230.838000
 20
293.975000
 30
0.0
  0
LINE
  5
12a
100
AcDbEntity
  8
Layer_1
 62
1
100
AcDbLine
 10
230.838000
 20
293.975000
 30
0.0
 11
230.838000
 21
280.975000
 31
0.0
  0
SPLINE
  5
12b
100
AcDbEntity
  8
Layer_1
 62
1
100
AcDbSpline
 70
8
 71
3
 72
8
 73
4
 74
0
 40
0
 40
0
 40
0
 40
0
 40
1
 40
1
 40
1
 40
1
 10
230.838000
 20
280.975000
 30
0.0
 10
230.838000
 20
280.842392
 30
0.0
 10
230.785322
 20
280.715215
 30
0.0
 10
230.691553
 20
280.621447
 30
0.0
  0
SPLINE
  5
12c
100
AcDbEntity
  8
Layer_1
 62
1
100
AcDbSpline
 70
8
 71
3
 72
8
 73
4
 74
0
 40
0
 40
0
 40
0
 40
0
 40
1
 40
1
 40
1
 40
1
 10
230.691553
 20
280.621447
 30
0.0
 10
230.597785
 20
280.527678
 30
0.0
 10
230.470608
 20
280.475000
 30
0.0
 10
230.338000
 20
280.475000
 30
0.0
  0
LINE
  5
12d
100
AcDbEntity
  8
Layer_1
 62
1
100
AcDbLine
 10
230.338000
 20
280.475000
 30
0.0
 11
217.338000
 21
280.475000
 31
0.0
  0
SPLINE
  5
12e
100
AcDbEntity
  8
Layer_1
 62
1
100
AcDbSpline
 70
8
 71
3
 72
8
 73
4
 74
0
 40
0
 40
0
 40
0
 40
0
 40
1
 40
1
 40
1
 40
1
 10
217.338000
 20
280.475000
 30
0.0
 10
217.205392
 20
280.475000
 30
0.0
 10
217.078215
 20
280.527678
 30
0.0
 10
216.984447
 20
280.621447
 30
0.0
  0
SPLINE
  5
12f
100
AcDbEntity
  8
Layer_1
 62
1
100
AcDbSpline
 70
8
 71
3
 72
8
 73
4
 74
0
 40
0
 40
0
 40
0
 40
0
 40
1
 40
1
 40
1
 40
1
 10
216.984447
 20
280.621447
 30
0.0
 10
216.890678
 20
280.715215
 30
0.0
 10
216.838000
 20
280.842392
 30
0.0
 10
216.838000
 20
280.975000
 30
0.0
  0
LINE
  5
130
100
AcDbEntity
  8
Layer_1
 62
1
100
AcDbLine
 10
216.838000
 20
280.975000
 30
0.0
 11
216.838000
 21
293.975000
 31
0.0
  0
SPLINE
  5
131
100
AcDbEntity
  8
Layer_1
 62
1
100
AcDbSpline
 70
8
 71
3
 72
8
 73
4
 74
0
 40
0
 40
0
 40
0
 40
0
 40
1
 40
1
 40
1
 40
1
 10
216.838000
 20
293.975000
 30
0.0
 10
216.838000
 20
294.107608
 30
0.0
 10
216.890678
 20
294.234785
 30
0.0
 10
216.984447
 20
294.328553
 30
0.0
  0
SPLINE
  5
132
100
AcDbEntity
  8
Layer_1
 62
1
100
AcDbSpline
 70
8
 71
3
 72
8
 73
4
 74
0
 40
0
 40
0
 40
0
 40
0
 40
1
 40
1
 40
1
 40
1
 10
216.984447
 20
294.328553
 30
0.0
 10
217.078215
 20
294.422322
 30
0.0
 10
217.205392
 20
294.475000
 30
0.0
 10
217.338000
 20
294.475000
 30
0.0
  0
LINE
  5
133
100
AcDbEntity
  8
Layer_1
 62
1
100
AcDbLine
 10
217.338000
 20
294.475000
 30
0.0
 11
217.338000
 21
294.475000
 31
0.0
  0
LINE
  5
134
100
AcDbEntity
  8
Layer_1
 62
1
100
AcDbLine
 10
193.525000
 20
294.475000
 30
0.0
 11
206.525000
 21
294.475000
 31
0.0
  0
SPLINE
  5
135
100
AcDbEntity
  8
Layer_1
 62
1
100
AcDbSpline
 70
8
 71
3
 72
8
 73
4
 74
0
 40
0
 40
0
 40
0
 40
0
 40
1
 40
1
 40
1
 40
1
 10
206.525000
 20
294.475000
 30
0.0
 10
206.657608
 20
294.475000
 30
0.0
 10
206.784785
 20
294.422322
 30
0.0
 10
206.878553
 20
294.328553
 30
0.0
  0
SPLINE
  5
136
100
AcDbEntity
  8
Layer_1
 62
1
100
AcDbSpline
 70
8
 71
3
 72
8
 73
4
 74
0
 40
0
 40
0
 40
0
 40
0
 40
1
 40
1
 40
1
 40
1
 10
206.878553
 20
294.328553
 30
0.0
 10
206.972322
 20
294.234785
 30
0.0
 10
207.025000
 20
294.107608
 30
0.0
 10
207.025000
 20
293.975000
 30
0.0
  0
LINE
  5
137
100
AcDbEntity
  8
Layer_1
 62
1
100
AcDbLine
 10
207.025000
 20
293.975000
 30
0.0
 11
207.025000
 21
280.975000
 31
0.0
  0
SPLINE
  5
138
100
AcDbEntity
  8
Layer_1
 62
1
100
AcDbSpline
 70
8
 71
3
 72
8
 73
4
 74
0
 40
0
 40
0
 40
0
 40
0
 40
1
 40
1
 40
1
 40
1
 10
207.025000
 20
280.975000
 30
0.0
 10
207.025000
 20
280.842392
 30
0.0
 10
206.972322
 20
280.715215
 30
0.0
 10
206.878553
 20
280.621447
 30
0.0
  0
SPLINE
  5
139
100
AcDbEntity
  8
Layer_1
 62
1
100
AcDbSpline
 70
8
 71
3
 72
8
 73
4
 74
0
 40
0
 40
0
 40
0
 40
0
 40
1
 40
1
 40
1
 40
1
 10
206.878553
 20
280.621447
 30
0.0
 10
206.784785
 20
280.527678
 30
0.0
 10
206.657608
 20
280.475000
 30
0.0
 10
206.525000
 20
280.475000
 30
0.0
  0
LINE
  5
13a
100
AcDbEntity
  8
Layer_1
 62
1
100
AcDbLine
 10
206.525000
 20
280.475000
 30
0.0
 11
193.525000
 21
280.475000
 31
0.0
  0
SPLINE
  5
13b
100
AcDbEntity
  8
Layer_1
 62
1
100
AcDbSpline
 70
8
 71
3
 72
8
 73
4
 74
0
 40
0
 40
0
 40
0
 40
0
 40
1
 40
1
 40
1
 40
1
 10
193.525000
 20
280.475000
 30
0.0
 10
193.392392
 20
280.475000
 30
0.0
 10
193.265215
 20
280.527678
 30
0.0
 10
193.171447
 20
280.621447
 30
0.0
  0
SPLINE
  5
13c
100
AcDbEntity
  8
Layer_1
 62
1
100
AcDbSpline
 70
8
 71
3
 72
8
 73
4
 74
0
 40
0
 40
0
 40
0
 40
0
 40
1
 40
1
 40
1
 40
1
 10
193.171447
 20
280.621447
 30
0.0
 10
193.077678
 20
280.715215
 30
0.0
 10
193.025000
 20
280.842392
 30
0.0
 10
193.025000
 20
280.975000
 30
0.0
  0
LINE
  5
13d
100
AcDbEntity
  8
Layer_1
 62
1
100
AcDbLine
 10
193.025000
 20
280.975000
 30
0.0
 11
193.025000
 21
293.975000
 31
0.0
  0
SPLINE
  5
13e
100
AcDbEntity
  8
Layer_1
 62
1
100
AcDbSpline
 70
8
 71
3
 72
8
 73
4
 74
0
 40
0
 40
0
 40
0
 40
0
 40
1
 40
1
 40
1
 40
1
 10
193.025000
 20
293.975000
 30
0.0
 10
193.025000
 20
294.107608
 30
0.0
 10
193.077678
 20
294.234785
 30
0.0
 10
193.171447
 20
294.328553
 30
0.0
  0
SPLINE
  5
13f
100
AcDbEntity
  8
Layer_1
 62
1
100
AcDbSpline
 70
8
 71
3
 72
8
 73
4
 74
0
 40
0
 40
0
 40
0
 40
0
 40
1
 40
1
 40
1
 40
1
 10
193.171447
 20
294.328553
 30
0.0
 10
193.265215
 20
294.422322
 30
0.0
 10
193.392392
 20
294.475000
 30
0.0
 10
193.525000
 20
294.475000
 30
0.0
  0
LINE
  5
140
100
AcDbEntity
  8
Layer_1
 62
1
100
AcDbLine
 10
193.525000
 20
294.475000
 30
0.0
 11
193.525000
 21
294.475000
 31
0.0
  0
LINE
  5
141
100
AcDbEntity
  8
Layer_1
 62
1
100
AcDbLine
 10
174.475000
 20
294.475000
 30
0.0
 11
187.475000
 21
294.475000
 31
0.0
  0
SPLINE
  5
142
100
AcDbEntity
  8
Layer_1
 62
1
100
AcDbSpline
 70
8
 71
3
 72
8
 73
4
 74
0
 40
0
 40
0
 40
0
 40
0
 40
1
 40
1
 40
1
 40
1
 10
187.475000
 20
294.475000
 30
0.0
 10
187.607608
 20
294.475000
 30
0.0
 10
187.734785
 20
294.422322
 30
0.0
 10
187.828553
 20
294.328553
 30
0.0
  0
SPLINE
  5
143
100
AcDbEntity
  8
Layer_1
 62
1
100
AcDbSpline
 70
8
 71
3
 72
8
 73
4
 74
0
 40
0
 40
0
 40
0
 40
0
 40
1
 40
1
 40
1
 40
1
 10
187.828553
 20
294.328553
 30
0.0
 10
187.922322
 20
294.234785
 30
0.0
 10
187.975000
 20
294.107608
 30
0.0
 10
187.975000
 20
293.975000
 30
0.0
  0
LINE
  5
144
100
AcDbEntity
  8
Layer_1
 62
1
100
AcDbLine
 10
187.975000
 20
293.975000
 30
0.0
 11
187.975000
 21
280.975000
 31
0.0
  0
SPLINE
  5
145
100
AcDbEntity
  8
Layer_1
 62
1
100
AcDbSpline
 70
8
 71
3
 72
8
 73
4
 74
0
 40
0
 40
0
 40
0
 40
0
 40
1
 40
1
 40
1
 40
1
 10
187.975000
 20
280.975000
 30
0.0
 10
187.975000
 20
280.842392
 30
0.0
 10
187.922322
 20
280.715215
 30
0.0
 10
187.828553
 20
280.621447
 30
0.0
  0
SPLINE
  5
146
100
AcDbEntity
  8
Layer_1
 62
1
100
AcDbSpline
 70
8
 71
3
 72
8
 73
4
 74
0
 40
0
 40
0
 40
0
 40
0
 40
1
 40
1
 40
1
 40
1
 10
187.828553
 20
280.621447
 30
0.0
 10
187.734785
 20
280.527678
 30
0.0
 10
187.607608
 20
280.475000
 30
0.0
 10
187.475000
 20
280.475000
 30
0.0
  0
LINE
  5
147
100
AcDbEntity
  8
Layer_1
 62
1
100
AcDbLine
 10
187.475000
 20
280.475000
 30
0.0
 11
174.475000
 21
280.475000
 31
0.0
  0
SPLINE
  5
148
100
AcDbEntity
  8
Layer_1
 62
1
100
AcDbSpline
 70
8
 71
3
 72
8
 73
4
 74
0
 40
0
 40
0
 40
0
 40
0
 40
1
 40
1
 40
1
 40
1
 10
174.475000
 20
280.475000
 30
0.0
 10
174.342392
 20
280.475000
 30
0.0
 10
174.215215
 20
280.527678
 30
0.0
 10
174.121447
 20
280.621447
 30
0.0
  0
SPLINE
  5
149
100
AcDbEntity
  8
Layer_1
 62
1
100
AcDbSpline
 70
8
 71
3
 72
8
 73
4
 74
0
 40
0
 40
0
 40
0
 40
0
 40
1
 40
1
 40
1
 40
1
 10
174.121447
 20
280.621447
 30
0.0
 10
174.027678
 20
280.715215
 30
0.0
 10
173.975000
 20
280.842392
 30
0.0
 10
173.975000
 20
280.975000
 30
0.0
  0
LINE
  5
14a
100
AcDbEntity
  8
Layer_1
 62
1
100
AcDbLine
 10
173.975000
 20
280.975000
 30
0.0
 11
173.975000
 21
293.975000
 31
0.0
  0
SPLINE
  5
14b
100
AcDbEntity
  8
Layer_1
 62
1
100
AcDbSpline
 70
8
 71
3
 72
8
 73
4
 74
0
 40
0
 40
0
 40
0
 40
0
 40
1
 40
1
 40
1
 40
1
 10
173.975000
 20
293.975000
 30
0.0
 10
173.975000
 20
294.107608
 30
0.0
 10
174.027678
 20
294.234785
 30
0.0
 10
174.121447
 20
294.328553
 30
0.0
  0
SPLINE
  5
14c
100
AcDbEntity
  8
Layer_1
 62
1
100
AcDbSpline
 70
8
 71
3
 72
8
 73
4
 74
0
 40
0
 40
0
 40
0
 40
0
 40
1
 40
1
 40
1
 40
1
 10
174.121447
 20
294.328553
 30
0.0
 10
174.215215
 20
294.422322
 30
0.0
 10
174.342392
 20
294.475000
 30
0.0
 10
174.475000
 20
294.475000
 30
0.0
  0
LINE
  5
14d
100
AcDbEntity
  8
Layer_1
 62
1
100
AcDbLine
 10
174.475000
 20
294.475000
 30
0.0
 11
174.475000
 21
294.475000
 31
0.0
  0
LINE
  5
14e
100
AcDbEntity
  8
Layer_1
 62
1
100
AcDbLine
 10
155.425000
 20
294.475000
 30
0.0
 11
168.425000
 21
294.475000
 31
0.0
  0
SPLINE
  5
14f
100
AcDbEntity
  8
Layer_1
 62
1
100
AcDbSpline
 70
8
 71
3
 72
8
 73
4
 74
0
 40
0
 40
0
 40
0
 40
0
 40
1
 40
1
 40
1
 40
1
 10
168.425000
 20
294.475000
 30
0.0
 10
168.557608
 20
294.475000
 30
0.0
 10
168.684785
 20
294.422322
 30
0.0
 10
168.778553
 20
294.328553
 30
0.0
  0
SPLINE
  5
150
100
AcDbEntity
  8
Layer_1
 62
1
100
AcDbSpline
 70
8
 71
3
 72
8
 73
4
 74
0
 40
0
 40
0
 40
0
 40
0
 40
1
 40
1
 40
1
 40
1
 10
168.778553
 20
294.328553
 30
0.0
 10
168.872322
 20
294.234785
 30
0.0
 10
168.925000
 20
294.107608
 30
0.0
 10
168.925000
 20
293.975000
 30
0.0
  0
LINE
  5
151
100
AcDbEntity
  8
Layer_1
 62
1
100
AcDbLine
 10
168.925000
 20
293.975000
 30
0.0
 11
168.925000
 21
280.975000
 31
0.0
  0
SPLINE
  5
152
100
AcDbEntity
  8
Layer_1
 62
1
100
AcDbSpline
 70
8
 71
3
 72
8
 73
4
 74
0
 40
0
 40
0
 40
0
 40
0
 40
1
 40
1
 40
1
 40
1
 10
168.925000
 20
280.975000
 30
0.0
 10
168.925000
 20
280.842392
 30
0.0
 10
168.872322
 20
280.715215
 30
0.0
 10
168.778553
 20
280.621447
 30
0.0
  0
SPLINE
  5
153
100
AcDbEntity
  8
Layer_1
 62
1
100
AcDbSpline
 70
8
 71
3
 72
8
 73
4
 74
0
 40
0
 40
0
 40
0
 40
0
 40
1
 40
1
 40
1
 40
1
 10
168.778553
 20
280.621447
 30
0.0
 10
168.684785
 20
280.527678
 30
0.0
 10
168.557608
 20
280.475000
 30
0.0
 10
168.425000
 20
280.475000
 30
0.0
  0
LINE
  5
154
100
AcDbEntity
  8
Layer_1
 62
1
100
AcDbLine
 10
168.425000
 20
280.475000
 30
0.0
 11
155.425000
 21
280.475000
 31
0.0
  0
SPLINE
  5
155
100
AcDbEntity
  8
Layer_1
 62
1
100
AcDbSpline
 70
8
 71
3
 72
8
 73
4
 74
0
 40
0
 40
0
 40
0
 40
0
 40
1
 40
1
 40
1
 40
1
 10
155.425000
 20
280.475000
 30
0.0
 10
155.292392
 20
280.475000
 30
0.0
 10
155.165215
 20
280.527678
 30
0.0
 10
155.071447
 20
280.621447
 30
0.0
  0
SPLINE
  5
156
100
AcDbEntity
  8
Layer_1
 62
1
100
AcDbSpline
 70
8
 71
3
 72
8
 73
4
 74
0
 40
0
 40
0
 40
0
 40
0
 40
1
 40
1
 40
1
 40
1
 10
155.071447
 20
280.621447
 30
0.0
 10
154.977678
 20
280.715215
 30
0.0
 10
154.925000
 20
280.842392
 30
0.0
 10
154.925000
 20
280.975000
 30
0.0
  0
LINE
  5
157
100
AcDbEntity
  8
Layer_1
 62
1
100
AcDbLine
 10
154.925000
 20
280.975000
 30
0.0
 11
154.925000
 21
293.975000
 31
0.0
  0
SPLINE
  5
158
100
AcDbEntity
  8
Layer_1
 62
1
100
AcDbSpline
 70
8
 71
3
 72
8
 73
4
 74
0
 40
0
 40
0
 40
0
 40
0
 40
1
 40
1
 40
1
 40
1
 10
154.925000
 20
293.975000
 30
0.0
 10
154.925000
 20
294.107608
 30
0.0
 10
154.977678
 20
294.234785
 30
0.0
 10
155.071447
 20
294.328553
 30
0.0
  0
SPLINE
  5
159
100
AcDbEntity
  8
Layer_1
 62
1
100
AcDbSpline
 70
8
 71
3
 72
8
 73
4
 74
0
 40
0
 40
0
 40
0
 40
0
 40
1
 40
1
 40
1
 40
1
 10
155.071447
 20
294.328553
 30
0.0
 10
155.165215
 20
294.422322
 30
0.0
 10
155.292392
 20
294.475000
 30
0.0
 10
155.425000
 20
294.475000
 30
0.0
  0
LINE
  5
15a
100
AcDbEntity
  8
Layer_1
 62
1
100
AcDbLine
 10
155.425000
 20
294.475000
 30
0.0
 11
155.425000
 21
294.475000
 31
0.0
  0
LINE
  5
15b
100
AcDbEntity
  8
Layer_1
 62
1
100
AcDbLine
 10
136.375000
 20
294.475000
 30
0.0
 11
149.375000
 21
294.475000
 31
0.0
  0
SPLINE
  5
15c
100
AcDbEntity
  8
Layer_1
 62
1
100
AcDbSpline
 70
8
 71
3
 72
8
 73
4
 74
0
 40
0
 40
0
 40
0
 40
0
 40
1
 40
1
 40
1
 40
1
 10
149.375000
 20
294.475000
 30
0.0
 10
149.507608
 20
294.475000
 30
0.0
 10
149.634785
 20
294.422322
 30
0.0
 10
149.728553
 20
294.328553
 30
0.0
  0
SPLINE
  5
15d
100
AcDbEntity
  8
Layer_1
 62
1
100
AcDbSpline
 70
8
 71
3
 72
8
 73
4
 74
0
 40
0
 40
0
 40
0
 40
0
 40
1
 40
1
 40
1
 40
1
 10
149.728553
 20
294.328553
 30
0.0
 10
149.822322
 20
294.234785
 30
0.0
 10
149.875000
 20
294.107608
 30
0.0
 10
149.875000
 20
293.975000
 30
0.0
  0
LINE
  5
15e
100
AcDbEntity
  8
Layer_1
 62
1
100
AcDbLine
 10
149.875000
 20
293.975000
 30
0.0
 11
149.875000
 21
280.975000
 31
0.0
  0
SPLINE
  5
15f
100
AcDbEntity
  8
Layer_1
 62
1
100
AcDbSpline
 70
8
 71
3
 72
8
 73
4
 74
0
 40
0
 40
0
 40
0
 40
0
 40
1
 40
1
 40
1
 40
1
 10
149.875000
 20
280.975000
 30
0.0
 10
149.875000
 20
280.842392
 30
0.0
 10
149.822322
 20
280.715215
 30
0.0
 10
149.728553
 20
280.621447
 30
0.0
  0
SPLINE
  5
160
100
AcDbEntity
  8
Layer_1
 62
1
100
AcDbSpline
 70
8
 71
3
 72
8
 73
4
 74
0
 40
0
 40
0
 40
0
 40
0
 40
1
 40
1
 40
1
 40
1
 10
149.728553
 20
280.621447
 30
0.0
 10
149.634785
 20
280.527678
 30
0.0
 10
149.507608
 20
280.475000
 30
0.0
 10
149.375000
 20
280.475000
 30
0.0
  0
LINE
  5
161
100
AcDbEntity
  8
Layer_1
 62
1
100
AcDbLine
 10
149.375000
 20
280.475000
 30
0.0
 11
136.375000
 21
280.475000
 31
0.0
  0
SPLINE
  5
162
100
AcDbEntity
  8
Layer_1
 62
1
100
AcDbSpline
 70
8
 71
3
 72
8
 73
4
 74
0
 40
0
 40
0
 40
0
 40
0
 40
1
 40
1
 40
1
 40
1
 10
136.375000
 20
280.475000
 30
0.0
 10
136.242392
 20
280.475000
 30
0.0
 10
136.115215
 20
280.527678
 30
0.0
 10
136.021447
 20
280.621447
 30
0.0
  0
SPLINE
  5
163
100
AcDbEntity
  8
Layer_1
 62
1
100
AcDbSpline
 70
8
 71
3
 72
8
 73
4
 74
0
 40
0
 40
0
 40
0
 40
0
 40
1
 40
1
 40
1
 40
1
 10
136.021447
 20
280.621447
 30
0.0
 10
135.927678
 20
280.715215
 30
0.0
 10
135.875000
 20
280.842392
 30
0.0
 10
135.875000
 20
280.975000
 30
0.0
  0
LINE
  5
164
100
AcDbEntity
  8
Layer_1
 62
1
100
AcDbLine
 10
135.875000
 20
280.975000
 30
0.0
 11
135.875000
 21
293.975000
 31
0.0
  0
SPLINE
  5
165
100
AcDbEntity
  8
Layer_1
 62
1
100
AcDbSpline
 70
8
 71
3
 72
8
 73
4
 74
0
 40
0
 40
0
 40
0
 40
0
 40
1
 40
1
 40
1
 40
1
 10
135.875000
 20
293.975000
 30
0.0
 10
135.875000
 20
294.107608
 30
0.0
 10
135.927678
 20
294.234785
 30
0.0
 10
136.021447
 20
294.328553
 30
0.0
  0
SPLINE
  5
166
100
AcDbEntity
  8
Layer_1
 62
1
100
AcDbSpline
 70
8
 71
3
 72
8
 73
4
 74
0
 40
0
 40
0
 40
0
 40
0
 40
1
 40
1
 40
1
 40
1
 10
136.021447
 20
294.328553
 30
0.0
 10
136.115215
 20
294.422322
 30
0.0
 10
136.242392
 20
294.475000
 30
0.0
 10
136.375000
 20
294.475000
 30
0.0
  0
LINE
  5
167
100
AcDbEntity
  8
Layer_1
 62
1
100
AcDbLine
 10
136.375000
 20
294.475000
 30
0.0
 11
136.375000
 21
294.475000
 31
0.0
  0
LINE
  5
168
100
AcDbEntity
  8
Layer_1
 62
1
100
AcDbLine
 10
98.275000
 20
294.475000
 30
0.0
 11
111.275000
 21
294.475000
 31
0.0
  0
SPLINE
  5
169
100
AcDbEntity
  8
Layer_1
 62
1
100
AcDbSpline
 70
8
 71
3
 72
8
 73
4
 74
0
 40
0
 40
0
 40
0
 40
0
 40
1
 40
1
 40
1
 40
1
 10
111.275000
 20
294.475000
 30
0.0
 10
111.407608
 20
294.475000
 30
0.0
 10
111.534785
 20
294.422322
 30
0.0
 10
111.628553
 20
294.328553
 30
0.0
  0
SPLINE
  5
16a
100
AcDbEntity
  8
Layer_1
 62
1
100
AcDbSpline
 70
8
 71
3
 72
8
 73
4
 74
0
 40
0
 40
0
 40
0
 40
0
 40
1
 40
1
 40
1
 40
1
 10
111.628553
 20
294.328553
 30
0.0
 10
111.722322
 20
294.234785
 30
0.0
 10
111.775000
 20
294.107608
 30
0.0
 10
111.775000
 20
293.975000
 30
0.0
  0
LINE
  5
16b
100
AcDbEntity
  8
Layer_1
 62
1
100
AcDbLine
 10
111.775000
 20
293.975000
 30
0.0
 11
111.775000
 21
280.975000
 31
0.0
  0
SPLINE
  5
16c
100
AcDbEntity
  8
Layer_1
 62
1
100
AcDbSpline
 70
8
 71
3
 72
8
 73
4
 74
0
 40
0
 40
0
 40
0
 40
0
 40
1
 40
1
 40
1
 40
1
 10
111.775000
 20
280.975000
 30
0.0
 10
111.775000
 20
280.842392
 30
0.0
 10
111.722322
 20
280.715215
 30
0.0
 10
111.628553
 20
280.621447
 30
0.0
  0
SPLINE
  5
16d
100
AcDbEntity
  8
Layer_1
 62
1
100
AcDbSpline
 70
8
 71
3
 72
8
 73
4
 74
0
 40
0
 40
0
 40
0
 40
0
 40
1
 40
1
 40
1
 40
1
 10
111.628553
 20
280.621447
 30
0.0
 10
111.534785
 20
280.527678
 30
0.0
 10
111.407608
 20
280.475000
 30
0.0
 10
111.275000
 20
280.475000
 30
0.0
  0
LINE
  5
16e
100
AcDbEntity
  8
Layer_1
 62
1
100
AcDbLine
 10
111.275000
 20
280.475000
 30
0.0
 11
98.275000
 21
280.475000
 31
0.0
  0
SPLINE
  5
16f
100
AcDbEntity
  8
Layer_1
 62
1
100
AcDbSpline
 70
8
 71
3
 72
8
 73
4
 74
0
 40
0
 40
0
 40
0
 40
0
 40
1
 40
1
 40
1
 40
1
 10
98.275000
 20
280.475000
 30
0.0
 10
98.142392
 20
280.475000
 30
0.0
 10
98.015215
 20
280.527678
 30
0.0
 10
97.921447
 20
280.621447
 30
0.0
  0
SPLINE
  5
170
100
AcDbEntity
  8
Layer_1
 62
1
100
AcDbSpline
 70
8
 71
3
 72
8
 73
4
 74
0
 40
0
 40
0
 40
0
 40
0
 40
1
 40
1
 40
1
 40
1
 10
97.921447
 20
280.621447
 30
0.0
 10
97.827678
 20
280.715215
 30
0.0
 10
97.775000
 20
280.842392
 30
0.0
 10
97.775000
 20
280.975000
 30
0.0
  0
LINE
  5
171
100
AcDbEntity
  8
Layer_1
 62
1
100
AcDbLine
 10
97.775000
 20
280.975000
 30
0.0
 11
97.775000
 21
293.975000
 31
0.0
  0
SPLINE
  5
172
100
AcDbEntity
  8
Layer_1
 62
1
100
AcDbSpline
 70
8
 71
3
 72
8
 73
4
 74
0
 40
0
 40
0
 40
0
 40
0
 40
1
 40
1
 40
1
 40
1
 10
97.775000
 20
293.975000
 30
0.0
 10
97.775000
 20
294.107608
 30
0.0
 10
97.827678
 20
294.234785
 30
0.0
 10
97.921447
 20
294.328553
 30
0.0
  0
SPLINE
  5
173
100
AcDbEntity
  8
Layer_1
 62
1
100
AcDbSpline
 70
8
 71
3
 72
8
 73
4
 74
0
 40
0
 40
0
 40
0
 40
0
 40
1
 40
1
 40
1
 40
1
 10
97.921447
 20
294.328553
 30
0.0
 10
98.015215
 20
294.422322
 30
0.0
 10
98.142392
 20
294.475000
 30
0.0
 10
98.275000
 20
294.475000
 30
0.0
  0
LINE
  5
174
100
AcDbEntity
  8
Layer_1
 62
1
100
AcDbLine
 10
98.275000
 20
294.475000
 30
0.0
 11
98.275000
 21
294.475000
 31
0.0
  0
LINE
  5
175
100
AcDbEntity
  8
Layer_1
 62
1
100
AcDbLine
 10
79.225000
 20
294.475000
 30
0.0
 11
92.225000
 21
294.475000
 31
0.0
  0
SPLINE
  5
176
100
AcDbEntity
  8
Layer_1
 62
1
100
AcDbSpline
 70
8
 71
3
 72
8
 73
4
 74
0
 40
0
 40
0
 40
0
 40
0
 40
1
 40
1
 40
1
 40
1
 10
92.225000
 20
294.475000
 30
0.0
 10
92.357608
 20
294.475000
 30
0.0
 10
92.484785
 20
294.422322
 30
0.0
 10
92.578553
 20
294.328553
 30
0.0
  0
SPLINE
  5
177
100
AcDbEntity
  8
Layer_1
 62
1
100
AcDbSpline
 70
8
 71
3
 72
8
 73
4
 74
0
 40
0
 40
0
 40
0
 40
0
 40
1
 40
1
 40
1
 40
1
 10
92.578553
 20
294.328553
 30
0.0
 10
92.672322
 20
294.234785
 30
0.0
 10
92.725000
 20
294.107608
 30
0.0
 10
92.725000
 20
293.975000
 30
0.0
  0
LINE
  5
178
100
AcDbEntity
  8
Layer_1
 62
1
100
AcDbLine
 10
92.725000
 20
293.975000
 30
0.0
 11
92.725000
 21
280.975000
 31
0.0
  0
SPLINE
  5
179
100
AcDbEntity
  8
Layer_1
 62
1
100
AcDbSpline
 70
8
 71
3
 72
8
 73
4
 74
0
 40
0
 40
0
 40
0
 40
0
 40
1
 40
1
 40
1
 40
1
 10
92.725000
 20
280.975000
 30
0.0
 10
92.725000
 20
280.842392
 30
0.0
 10
92.672322
 20
280.715215
 30
0.0
 10
92.578553
 20
280.621447
 30
0.0
  0
SPLINE
  5
17a
100
AcDbEntity
  8
Layer_1
 62
1
100
AcDbSpline
 70
8
 71
3
 72
8
 73
4
 74
0
 40
0
 40
0
 40
0
 40
0
 40
1
 40
1
 40
1
 40
1
 10
92.578553
 20
280.621447
 30
0.0
 10
92.484785
 20
280.527678
 30
0.0
 10
92.357608
 20
280.475000
 30
0.0
 10
92.225000
 20
280.475000
 30
0.0
  0
LINE
  5
17b
100
AcDbEntity
  8
Layer_1
 62
1
100
AcDbLine
 10
92.225000
 20
280.475000
 30
0.0
 11
79.225000
 21
280.475000
 31
0.0
  0
SPLINE
  5
17c
100
AcDbEntity
  8
Layer_1
 62
1
100
AcDbSpline
 70
8
 71
3
 72
8
 73
4
 74
0
 40
0
 40
0
 40
0
 40
0
 40
1
 40
1
 40
1
 40
1
 10
79.225000
 20
280.475000
 30
0.0
 10
79.092392
 20
280.475000
 30
0.0
 10
78.965215
 20
280.527678
 30
0.0
 10
78.871447
 20
280.621447
 30
0.0
  0
SPLINE
  5
17d
100
AcDbEntity
  8
Layer_1
 62
1
100
AcDbSpline
 70
8
 71
3
 72
8
 73
4
 74
0
 40
0
 40
0
 40
0
 40
0
 40
1
 40
1
 40
1
 40
1
 10
78.871447
 20
280.621447
 30
0.0
 10
78.777678
 20
280.715215
 30
0.0
 10
78.725000
 20
280.842392
 30
0.0
 10
78.725000
 20
280.975000
 30
0.0
  0
LINE
  5
17e
100
AcDbEntity
  8
Layer_1
 62
1
100
AcDbLine
 10
78.725000
 20
280.975000
 30
0.0
 11
78.725000
 21
293.975000
 31
0.0
  0
SPLINE
  5
17f
100
AcDbEntity
  8
Layer_1
 62
1
100
AcDbSpline
 70
8
 71
3
 72
8
 73
4
 74
0
 40
0
 40
0
 40
0
 40
0
 40
1
 40
1
 40
1
 40
1
 10
78.725000
 20
293.975000
 30
0.0
 10
78.725000
 20
294.107608
 30
0.0
 10
78.777678
 20
294.234785
 30
0.0
 10
78.871447
 20
294.328553
 30
0.0
  0
SPLINE
  5
180
100
AcDbEntity
  8
Layer_1
 62
1
100
AcDbSpline
 70
8
 71
3
 72
8
 73
4
 74
0
 40
0
 40
0
 40
0
 40
0
 40
1
 40
1
 40
1
 40
1
 10
78.871447
 20
294.328553
 30
0.0
 10
78.965215
 20
294.422322
 30
0.0
 10
79.092392
 20
294.475000
 30
0.0
 10
79.225000
 20
294.475000
 30
0.0
  0
LINE
  5
181
100
AcDbEntity
  8
Layer_1
 62
1
100
AcDbLine
 10
79.225000
 20
294.475000
 30
0.0
 11
79.225000
 21
294.475000
 31
0.0
  0
LINE
  5
182
100
AcDbEntity
  8
Layer_1
 62
1
100
AcDbLine
 10
60.175000
 20
294.475000
 30
0.0
 11
73.175000
 21
294.475000
 31
0.0
  0
SPLINE
  5
183
100
AcDbEntity
  8
Layer_1
 62
1
100
AcDbSpline
 70
8
 71
3
 72
8
 73
4
 74
0
 40
0
 40
0
 40
0
 40
0
 40
1
 40
1
 40
1
 40
1
 10
73.175000
 20
294.475000
 30
0.0
 10
73.307608
 20
294.475000
 30
0.0
 10
73.434785
 20
294.422322
 30
0.0
 10
73.528553
 20
294.328553
 30
0.0
  0
SPLINE
  5
184
100
AcDbEntity
  8
Layer_1
 62
1
100
AcDbSpline
 70
8
 71
3
 72
8
 73
4
 74
0
 40
0
 40
0
 40
0
 40
0
 40
1
 40
1
 40
1
 40
1
 10
73.528553
 20
294.328553
 30
0.0
 10
73.622322
 20
294.234785
 30
0.0
 10
73.675000
 20
294.107608
 30
0.0
 10
73.675000
 20
293.975000
 30
0.0
  0
LINE
  5
185
100
AcDbEntity
  8
Layer_1
 62
1
100
AcDbLine
 10
73.675000
 20
293.975000
 30
0.0
 11
73.675000
 21
280.975000
 31
0.0
  0
SPLINE
  5
186
100
AcDbEntity
  8
Layer_1
 62
1
100
AcDbSpline
 70
8
 71
3
 72
8
 73
4
 74
0
 40
0
 40
0
 40
0
 40
0
 40
1
 40
1
 40
1
 40
1
 10
73.675000
 20
280.975000
 30
0.0
 10
73.675000
 20
280.842392
 30
0.0
 10
73.622322
 20
280.715215
 30
0.0
 10
73.528553
 20
280.621447
 30
0.0
  0
SPLINE
  5
187
100
AcDbEntity
  8
Layer_1
 62
1
100
AcDbSpline
 70
8
 71
3
 72
8
 73
4
 74
0
 40
0
 40
0
 40
0
 40
0
 40
1
 40
1
 40
1
 40
1
 10
73.528553
 20
280.621447
 30
0.0
 10
73.434785
 20
280.527678
 30
0.0
 10
73.307608
 20
280.475000
 30
0.0
 10
73.175000
 20
280.475000
 30
0.0
  0
LINE
  5
188
100
AcDbEntity
  8
Layer_1
 62
1
100
AcDbLine
 10
73.175000
 20
280.475000
 30
0.0
 11
60.175000
 21
280.475000
 31
0.0
  0
SPLINE
  5
189
100
AcDbEntity
  8
Layer_1
 62
1
100
AcDbSpline
 70
8
 71
3
 72
8
 73
4
 74
0
 40
0
 40
0
 40
0
 40
0
 40
1
 40
1
 40
1
 40
1
 10
60.175000
 20
280.475000
 30
0.0
 10
60.042392
 20
280.475000
 30
0.0
 10
59.915215
 20
280.527678
 30
0.0
 10
59.821447
 20
280.621447
 30
0.0
  0
SPLINE
  5
18a
100
AcDbEntity
  8
Layer_1
 62
1
100
AcDbSpline
 70
8
 71
3
 72
8
 73
4
 74
0
 40
0
 40
0
 40
0
 40
0
 40
1
 40
1
 40
1
 40
1
 10
59.821447
 20
280.621447
 30
0.0
 10
59.727678
 20
280.715215
 30
0.0
 10
59.675000
 20
280.842392
 30
0.0
 10
59.675000
 20
280.975000
 30
0.0
  0
LINE
  5
18b
100
AcDbEntity
  8
Layer_1
 62
1
100
AcDbLine
 10
59.675000
 20
280.975000
 30
0.0
 11
59.675000
 21
293.975000
 31
0.0
  0
SPLINE
  5
18c
100
AcDbEntity
  8
Layer_1
 62
1
100
AcDbSpline
 70
8
 71
3
 72
8
 73
4
 74
0
 40
0
 40
0
 40
0
 40
0
 40
1
 40
1
 40
1
 40
1
 10
59.675000
 20
293.975000
 30
0.0
 10
59.675000
 20
294.107608
 30
0.0
 10
59.727678
 20
294.234785
 30
0.0
 10
59.821447
 20
294.328553
 30
0.0
  0
SPLINE
  5
18d
100
AcDbEntity
  8
Layer_1
 62
1
100
AcDbSpline
 70
8
 71
3
 72
8
 73
4
 74
0
 40
0
 40
0
 40
0
 40
0
 40
1
 40
1
 40
1
 40
1
 10
59.821447
 20
294.328553
 30
0.0
 10
59.915215
 20
294.422322
 30
0.0
 10
60.042392
 20
294.475000
 30
0.0
 10
60.175000
 20
294.475000
 30
0.0
  0
LINE
  5
18e
100
AcDbEntity
  8
Layer_1
 62
1
100
AcDbLine
 10
60.175000
 20
294.475000
 30
0.0
 11
60.175000
 21
294.475000
 31
0.0
  0
LINE
  5
18f
100
AcDbEntity
  8
Layer_1
 62
1
100
AcDbLine
 10
41.125000
 20
294.475000
 30
0.0
 11
54.125000
 21
294.475000
 31
0.0
  0
SPLINE
  5
190
100
AcDbEntity
  8
Layer_1
 62
1
100
AcDbSpline
 70
8
 71
3
 72
8
 73
4
 74
0
 40
0
 40
0
 40
0
 40
0
 40
1
 40
1
 40
1
 40
1
 10
54.125000
 20
294.475000
 30
0.0
 10
54.257608
 20
294.475000
 30
0.0
 10
54.384785
 20
294.422322
 30
0.0
 10
54.478553
 20
294.328553
 30
0.0
  0
SPLINE
  5
191
100
AcDbEntity
  8
Layer_1
 62
1
100
AcDbSpline
 70
8
 71
3
 72
8
 73
4
 74
0
 40
0
 40
0
 40
0
 40
0
 40
1
 40
1
 40
1
 40
1
 10
54.478553
 20
294.328553
 30
0.0
 10
54.572322
 20
294.234785
 30
0.0
 10
54.625000
 20
294.107608
 30
0.0
 10
54.625000
 20
293.975000
 30
0.0
  0
LINE
  5
192
100
AcDbEntity
  8
Layer_1
 62
1
100
AcDbLine
 10
54.625000
 20
293.975000
 30
0.0
 11
54.625000
 21
280.975000
 31
0.0
  0
SPLINE
  5
193
100
AcDbEntity
  8
Layer_1
 62
1
100
AcDbSpline
 70
8
 71
3
 72
8
 73
4
 74
0
 40
0
 40
0
 40
0
 40
0
 40
1
 40
1
 40
1
 40
1
 10
54.625000
 20
280.975000
 30
0.0
 10
54.625000
 20
280.842392
 30
0.0
 10
54.572322
 20
280.715215
 30
0.0
 10
54.478553
 20
280.621447
 30
0.0
  0
SPLINE
  5
194
100
AcDbEntity
  8
Layer_1
 62
1
100
AcDbSpline
 70
8
 71
3
 72
8
 73
4
 74
0
 40
0
 40
0
 40
0
 40
0
 40
1
 40
1
 40
1
 40
1
 10
54.478553
 20
280.621447
 30
0.0
 10
54.384785
 20
280.527678
 30
0.0
 10
54.257608
 20
280.475000
 30
0.0
 10
54.125000
 20
280.475000
 30
0.0
  0
LINE
  5
195
100
AcDbEntity
  8
Layer_1
 62
1
100
AcDbLine
 10
54.125000
 20
280.475000
 30
0.0
 11
41.125000
 21
280.475000
 31
0.0
  0
SPLINE
  5
196
100
AcDbEntity
  8
Layer_1
 62
1
100
AcDbSpline
 70
8
 71
3
 72
8
 73
4
 74
0
 40
0
 40
0
 40
0
 40
0
 40
1
 40
1
 40
1
 40
1
 10
41.125000
 20
280.475000
 30
0.0
 10
40.992392
 20
280.475000
 30
0.0
 10
40.865215
 20
280.527678
 30
0.0
 10
40.771447
 20
280.621447
 30
0.0
  0
SPLINE
  5
197
100
AcDbEntity
  8
Layer_1
 62
1
100
AcDbSpline
 70
8
 71
3
 72
8
 73
4
 74
0
 40
0
 40
0
 40
0
 40
0
 40
1
 40
1
 40
1
 40
1
 10
40.771447
 20
280.621447
 30
0.0
 10
40.677678
 20
280.715215
 30
0.0
 10
40.625000
 20
280.842392
 30
0.0
 10
40.625000
 20
280.975000
 30
0.0
  0
LINE
  5
198
100
AcDbEntity
  8
Layer_1
 62
1
100
AcDbLine
 10
40.625000
 20
280.975000
 30
0.0
 11
40.625000
 21
293.975000
 31
0.0
  0
SPLINE
  5
199
100
AcDbEntity
  8
Layer_1
 62
1
100
AcDbSpline
 70
8
 71
3
 72
8
 73
4
 74
0
 40
0
 40
0
 40
0
 40
0
 40
1
 40
1
 40
1
 40
1
 10
40.625000
 20
293.975000
 30
0.0
 10
40.625000
 20
294.107608
 30
0.0
 10
40.677678
 20
294.234785
 30
0.0
 10
40.771447
 20
294.328553
 30
0.0
  0
SPLINE
  5
19a
100
AcDbEntity
  8
Layer_1
 62
1
100
AcDbSpline
 70
8
 71
3
 72
8
 73
4
 74
0
 40
0
 40
0
 40
0
 40
0
 40
1
 40
1
 40
1
 40
1
 10
40.771447
 20
294.328553
 30
0.0
 10
40.865215
 20
294.422322
 30
0.0
 10
40.992392
 20
294.475000
 30
0.0
 10
41.125000
 20
294.475000
 30
0.0
  0
LINE
  5
19b
100
AcDbEntity
  8
Layer_1
 62
1
100
AcDbLine
 10
41.125000
 20
294.475000
 30
0.0
 11
41.125000
 21
294.475000
 31
0.0
  0
LINE
  5
19c
100
AcDbEntity
  8
Layer_1
 62
1
100
AcDbLine
 10
3.025000
 20
294.475000
 30
0.0
 11
16.025000
 21
294.475000
 31
0.0
  0
SPLINE
  5
19d
100
AcDbEntity
  8
Layer_1
 62
1
100
AcDbSpline
 70
8
 71
3
 72
8
 73
4
 74
0
 40
0
 40
0
 40
0
 40
0
 40
1
 40
1
 40
1
 40
1
 10
16.025000
 20
294.475000
 30
0.0
 10
16.157608
 20
294.475000
 30
0.0
 10
16.284785
 20
294.422322
 30
0.0
 10
16.378553
 20
294.328553
 30
0.0
  0
SPLINE
  5
19e
100
AcDbEntity
  8
Layer_1
 62
1
100
AcDbSpline
 70
8
 71
3
 72
8
 73
4
 74
0
 40
0
 40
0
 40
0
 40
0
 40
1
 40
1
 40
1
 40
1
 10
16.378553
 20
294.328553
 30
0.0
 10
16.472322
 20
294.234785
 30
0.0
 10
16.525000
 20
294.107608
 30
0.0
 10
16.525000
 20
293.975000
 30
0.0
  0
LINE
  5
19f
100
AcDbEntity
  8
Layer_1
 62
1
100
AcDbLine
 10
16.525000
 20
293.975000
 30
0.0
 11
16.525000
 21
280.975000
 31
0.0
  0
SPLINE
  5
1a0
100
AcDbEntity
  8
Layer_1
 62
1
100
AcDbSpline
 70
8
 71
3
 72
8
 73
4
 74
0
 40
0
 40
0
 40
0
 40
0
 40
1
 40
1
 40
1
 40
1
 10
16.525000
 20
280.975000
 30
0.0
 10
16.525000
 20
280.842392
 30
0.0
 10
16.472322
 20
280.715215
 30
0.0
 10
16.378553
 20
280.621447
 30
0.0
  0
SPLINE
  5
1a1
100
AcDbEntity
  8
Layer_1
 62
1
100
AcDbSpline
 70
8
 71
3
 72
8
 73
4
 74
0
 40
0
 40
0
 40
0
 40
0
 40
1
 40
1
 40
1
 40
1
 10
16.378553
 20
280.621447
 30
0.0
 10
16.284785
 20
280.527678
 30
0.0
 10
16.157608
 20
280.475000
 30
0.0
 10
16.025000
 20
280.475000
 30
0.0
  0
LINE
  5
1a2
100
AcDbEntity
  8
Layer_1
 62
1
100
AcDbLine
 10
16.025000
 20
280.475000
 30
0.0
 11
3.025000
 21
280.475000
 31
0.0
  0
SPLINE
  5
1a3
100
AcDbEntity
  8
Layer_1
 62
1
100
AcDbSpline
 70
8
 71
3
 72
8
 73
4
 74
0
 40
0
 40
0
 40
0
 40
0
 40
1
 40
1
 40
1
 40
1
 10
3.025000
 20
280.475000
 30
0.0
 10
2.892392
 20
280.475000
 30
0.0
 10
2.765215
 20
280.527678
 30
0.0
 10
2.671447
 20
280.621447
 30
0.0
  0
SPLINE
  5
1a4
100
AcDbEntity
  8
Layer_1
 62
1
100
AcDbSpline
 70
8
 71
3
 72
8
 73
4
 74
0
 40
0
 40
0
 40
0
 40
0
 40
1
 40
1
 40
1
 40
1
 10
2.671447
 20
280.621447
 30
0.0
 10
2.577678
 20
280.715215
 30
0.0
 10
2.525000
 20
280.842392
 30
0.0
 10
2.525000
 20
280.975000
 30
0.0
  0
LINE
  5
1a5
100
AcDbEntity
  8
Layer_1
 62
1
100
AcDbLine
 10
2.525000
 20
280.975000
 30
0.0
 11
2.525000
 21
293.975000
 31
0.0
  0
SPLINE
  5
1a6
100
AcDbEntity
  8
Layer_1
 62
1
100
AcDbSpline
 70
8
 71
3
 72
8
 73
4
 74
0
 40
0
 40
0
 40
0
 40
0
 40
1
 40
1
 40
1
 40
1
 10
2.525000
 20
293.975000
 30
0.0
 10
2.525000
 20
294.107608
 30
0.0
 10
2.577678
 20
294.234785
 30
0.0
 10
2.671447
 20
294.328553
 30
0.0
  0
SPLINE
  5
1a7
100
AcDbEntity
  8
Layer_1
 62
1
100
AcDbSpline
 70
8
 71
3
 72
8
 73
4
 74
0
 40
0
 40
0
 40
0
 40
0
 40
1
 40
1
 40
1
 40
1
 10
2.671447
 20
294.328553
 30
0.0
 10
2.765215
 20
294.422322
 30
0.0
 10
2.892392
 20
294.475000
 30
0.0
 10
3.025000
 20
294.475000
 30
0.0
  0
LINE
  5
1a8
100
AcDbEntity
  8
Layer_1
 62
1
100
AcDbLine
 10
3.025000
 20
294.475000
 30
0.0
 11
3.025000
 21
294.475000
 31
0.0
  0
LINE
  5
1a9
100
AcDbEntity
  8
Layer_1
 62
1
100
AcDbLine
 10
284.013000
 20
237.325000
 30
0.0
 11
297.013000
 21
237.325000
 31
0.0
  0
SPLINE
  5
1aa
100
AcDbEntity
  8
Layer_1
 62
1
100
AcDbSpline
 70
8
 71
3
 72
8
 73
4
 74
0
 40
0
 40
0
 40
0
 40
0
 40
1
 40
1
 40
1
 40
1
 10
297.013000
 20
237.325000
 30
0.0
 10
297.145608
 20
237.325000
 30
0.0
 10
297.272785
 20
237.272322
 30
0.0
 10
297.366553
 20
237.178553
 30
0.0
  0
SPLINE
  5
1ab
100
AcDbEntity
  8
Layer_1
 62
1
100
AcDbSpline
 70
8
 71
3
 72
8
 73
4
 74
0
 40
0
 40
0
 40
0
 40
0
 40
1
 40
1
 40
1
 40
1
 10
297.366553
 20
237.178553
 30
0.0
 10
297.460322
 20
237.084785
 30
0.0
 10
297.513000
 20
236.957608
 30
0.0
 10
297.513000
 20
236.825000
 30
0.0
  0
LINE
  5
1ac
100
AcDbEntity
  8
Layer_1
 62
1
100
AcDbLine
 10
297.513000
 20
236.825000
 30
0.0
 11
297.513000
 21
223.825000
 31
0.0
  0
SPLINE
  5
1ad
100
AcDbEntity
  8
Layer_1
 62
1
100
AcDbSpline
 70
8
 71
3
 72
8
 73
4
 74
0
 40
0
 40
0
 40
0
 40
0
 40
1
 40
1
 40
1
 40
1
 10
297.513000
 20
223.825000
 30
0.0
 10
297.513000
 20
223.692392
 30
0.0
 10
297.460322
 20
223.565215
 30
0.0
 10
297.366553
 20
223.471447
 30
0.0
  0
SPLINE
  5
1ae
100
AcDbEntity
  8
Layer_1
 62
1
100
AcDbSpline
 70
8
 71
3
 72
8
 73
4
 74
0
 40
0
 40
0
 40
0
 40
0
 40
1
 40
1
 40
1
 40
1
 10
297.366553
 20
223.471447
 30
0.0
 10
297.272785
 20
223.377678
 30
0.0
 10
297.145608
 20
223.325000
 30
0.0
 10
297.013000
 20
223.325000
 30
0.0
  0
LINE
  5
1af
100
AcDbEntity
  8
Layer_1
 62
1
100
AcDbLine
 10
297.013000
 20
223.325000
 30
0.0
 11
284.013000
 21
223.325000
 31
0.0
  0
SPLINE
  5
1b0
100
AcDbEntity
  8
Layer_1
 62
1
100
AcDbSpline
 70
8
 71
3
 72
8
 73
4
 74
0
 40
0
 40
0
 40
0
 40
0
 40
1
 40
1
 40
1
 40
1
 10
284.013000
 20
223.325000
 30
0.0
 10
283.880392
 20
223.325000
 30
0.0
 10
283.753215
 20
223.377678
 30
0.0
 10
283.659447
 20
223.471447
 30
0.0
  0
SPLINE
  5
1b1
100
AcDbEntity
  8
Layer_1
 62
1
100
AcDbSpline
 70
8
 71
3
 72
8
 73
4
 74
0
 40
0
 40
0
 40
0
 40
0
 40
1
 40
1
 40
1
 40
1
 10
283.659447
 20
223.471447
 30
0.0
 10
283.565678
 20
223.565215
 30
0.0
 10
283.513000
 20
223.692392
 30
0.0
 10
283.513000
 20
223.825000
 30
0.0
  0
LINE
  5
1b2
100
AcDbEntity
  8
Layer_1
 62
1
100
AcDbLine
 10
283.513000
 20
223.825000
 30
0.0
 11
283.513000
 21
236.825000
 31
0.0
  0
SPLINE
  5
1b3
100
AcDbEntity
  8
Layer_1
 62
1
100
AcDbSpline
 70
8
 71
3
 72
8
 73
4
 74
0
 40
0
 40
0
 40
0
 40
0
 40
1
 40
1
 40
1
 40
1
 10
283.513000
 20
236.825000
 30
0.0
 10
283.513000
 20
236.957608
 30
0.0
 10
283.565678
 20
237.084785
 30
0.0
 10
283.659447
 20
237.178553
 30
0.0
  0
SPLINE
  5
1b4
100
AcDbEntity
  8
Layer_1
 62
1
100
AcDbSpline
 70
8
 71
3
 72
8
 73
4
 74
0
 40
0
 40
0
 40
0
 40
0
 40
1
 40
1
 40
1
 40
1
 10
283.659447
 20
237.178553
 30
0.0
 10
283.753215
 20
237.272322
 30
0.0
 10
283.880392
 20
237.325000
 30
0.0
 10
284.013000
 20
237.325000
 30
0.0
  0
LINE
  5
1b5
100
AcDbEntity
  8
Layer_1
 62
1
100
AcDbLine
 10
284.013000
 20
237.325000
 30
0.0
 11
284.013000
 21
237.325000
 31
0.0
  0
LINE
  5
1b6
100
AcDbEntity
  8
Layer_1
 62
1
100
AcDbLine
 10
264.963000
 20
237.325000
 30
0.0
 11
277.963000
 21
237.325000
 31
0.0
  0
SPLINE
  5
1b7
100
AcDbEntity
  8
Layer_1
 62
1
100
AcDbSpline
 70
8
 71
3
 72
8
 73
4
 74
0
 40
0
 40
0
 40
0
 40
0
 40
1
 40
1
 40
1
 40
1
 10
277.963000
 20
237.325000
 30
0.0
 10
278.095608
 20
237.325000
 30
0.0
 10
278.222785
 20
237.272322
 30
0.0
 10
278.316553
 20
237.178553
 30
0.0
  0
SPLINE
  5
1b8
100
AcDbEntity
  8
Layer_1
 62
1
100
AcDbSpline
 70
8
 71
3
 72
8
 73
4
 74
0
 40
0
 40
0
 40
0
 40
0
 40
1
 40
1
 40
1
 40
1
 10
278.316553
 20
237.178553
 30
0.0
 10
278.410322
 20
237.084785
 30
0.0
 10
278.463000
 20
236.957608
 30
0.0
 10
278.463000
 20
236.825000
 30
0.0
  0
LINE
  5
1b9
100
AcDbEntity
  8
Layer_1
 62
1
100
AcDbLine
 10
278.463000
 20
236.825000
 30
0.0
 11
278.463000
 21
223.825000
 31
0.0
  0
SPLINE
  5
1ba
100
AcDbEntity
  8
Layer_1
 62
1
100
AcDbSpline
 70
8
 71
3
 72
8
 73
4
 74
0
 40
0
 40
0
 40
0
 40
0
 40
1
 40
1
 40
1
 40
1
 10
278.463000
 20
223.825000
 30
0.0
 10
278.463000
 20
223.692392
 30
0.0
 10
278.410322
 20
223.565215
 30
0.0
 10
278.316553
 20
223.471447
 30
0.0
  0
SPLINE
  5
1bb
100
AcDbEntity
  8
Layer_1
 62
1
100
AcDbSpline
 70
8
 71
3
 72
8
 73
4
 74
0
 40
0
 40
0
 40
0
 40
0
 40
1
 40
1
 40
1
 40
1
 10
278.316553
 20
223.471447
 30
0.0
 10
278.222785
 20
223.377678
 30
0.0
 10
278.095608
 20
223.325000
 30
0.0
 10
277.963000
 20
223.325000
 30
0.0
  0
LINE
  5
1bc
100
AcDbEntity
  8
Layer_1
 62
1
100
AcDbLine
 10
277.963000
 20
223.325000
 30
0.0
 11
264.963000
 21
223.325000
 31
0.0
  0
SPLINE
  5
1bd
100
AcDbEntity
  8
Layer_1
 62
1
100
AcDbSpline
 70
8
 71
3
 72
8
 73
4
 74
0
 40
0
 40
0
 40
0
 40
0
 40
1
 40
1
 40
1
 40
1
 10
264.963000
 20
223.325000
 30
0.0
 10
264.830392
 20
223.325000
 30
0.0
 10
264.703215
 20
223.377678
 30
0.0
 10
264.609447
 20
223.471447
 30
0.0
  0
SPLINE
  5
1be
100
AcDbEntity
  8
Layer_1
 62
1
100
AcDbSpline
 70
8
 71
3
 72
8
 73
4
 74
0
 40
0
 40
0
 40
0
 40
0
 40
1
 40
1
 40
1
 40
1
 10
264.609447
 20
223.471447
 30
0.0
 10
264.515678
 20
223.565215
 30
0.0
 10
264.463000
 20
223.692392
 30
0.0
 10
264.463000
 20
223.825000
 30
0.0
  0
LINE
  5
1bf
100
AcDbEntity
  8
Layer_1
 62
1
100
AcDbLine
 10
264.463000
 20
223.825000
 30
0.0
 11
264.463000
 21
236.825000
 31
0.0
  0
SPLINE
  5
1c0
100
AcDbEntity
  8
Layer_1
 62
1
100
AcDbSpline
 70
8
 71
3
 72
8
 73
4
 74
0
 40
0
 40
0
 40
0
 40
0
 40
1
 40
1
 40
1
 40
1
 10
264.463000
 20
236.825000
 30
0.0
 10
264.463000
 20
236.957608
 30
0.0
 10
264.515678
 20
237.084785
 30
0.0
 10
264.609447
 20
237.178553
 30
0.0
  0
SPLINE
  5
1c1
100
AcDbEntity
  8
Layer_1
 62
1
100
AcDbSpline
 70
8
 71
3
 72
8
 73
4
 74
0
 40
0
 40
0
 40
0
 40
0
 40
1
 40
1
 40
1
 40
1
 10
264.609447
 20
237.178553
 30
0.0
 10
264.703215
 20
237.272322
 30
0.0
 10
264.830392
 20
237.325000
 30
0.0
 10
264.963000
 20
237.325000
 30
0.0
  0
LINE
  5
1c2
100
AcDbEntity
  8
Layer_1
 62
1
100
AcDbLine
 10
264.963000
 20
237.325000
 30
0.0
 11
264.963000
 21
237.325000
 31
0.0
  0
LINE
  5
1c3
100
AcDbEntity
  8
Layer_1
 62
1
100
AcDbLine
 10
219.719000
 20
237.325000
 30
0.0
 11
232.719000
 21
237.325000
 31
0.0
  0
SPLINE
  5
1c4
100
AcDbEntity
  8
Layer_1
 62
1
100
AcDbSpline
 70
8
 71
3
 72
8
 73
4
 74
0
 40
0
 40
0
 40
0
 40
0
 40
1
 40
1
 40
1
 40
1
 10
232.719000
 20
237.325000
 30
0.0
 10
232.851608
 20
237.325000
 30
0.0
 10
232.978785
 20
237.272322
 30
0.0
 10
233.072553
 20
237.178553
 30
0.0
  0
SPLINE
  5
1c5
100
AcDbEntity
  8
Layer_1
 62
1
100
AcDbSpline
 70
8
 71
3
 72
8
 73
4
 74
0
 40
0
 40
0
 40
0
 40
0
 40
1
 40
1
 40
1
 40
1
 10
233.072553
 20
237.178553
 30
0.0
 10
233.166322
 20
237.084785
 30
0.0
 10
233.219000
 20
236.957608
 30
0.0
 10
233.219000
 20
236.825000
 30
0.0
  0
LINE
  5
1c6
100
AcDbEntity
  8
Layer_1
 62
1
100
AcDbLine
 10
233.219000
 20
236.825000
 30
0.0
 11
233.219000
 21
223.825000
 31
0.0
  0
SPLINE
  5
1c7
100
AcDbEntity
  8
Layer_1
 62
1
100
AcDbSpline
 70
8
 71
3
 72
8
 73
4
 74
0
 40
0
 40
0
 40
0
 40
0
 40
1
 40
1
 40
1
 40
1
 10
233.219000
 20
223.825000
 30
0.0
 10
233.219000
 20
223.692392
 30
0.0
 10
233.166322
 20
223.565215
 30
0.0
 10
233.072553
 20
223.471447
 30
0.0
  0
SPLINE
  5
1c8
100
AcDbEntity
  8
Layer_1
 62
1
100
AcDbSpline
 70
8
 71
3
 72
8
 73
4
 74
0
 40
0
 40
0
 40
0
 40
0
 40
1
 40
1
 40
1
 40
1
 10
233.072553
 20
223.471447
 30
0.0
 10
232.978785
 20
223.377678
 30
0.0
 10
232.851608
 20
223.325000
 30
0.0
 10
232.719000
 20
223.325000
 30
0.0
  0
LINE
  5
1c9
100
AcDbEntity
  8
Layer_1
 62
1
100
AcDbLine
 10
232.719000
 20
223.325000
 30
0.0
 11
219.719000
 21
223.325000
 31
0.0
  0
SPLINE
  5
1ca
100
AcDbEntity
  8
Layer_1
 62
1
100
AcDbSpline
 70
8
 71
3
 72
8
 73
4
 74
0
 40
0
 40
0
 40
0
 40
0
 40
1
 40
1
 40
1
 40
1
 10
219.719000
 20
223.325000
 30
0.0
 10
219.586392
 20
223.325000
 30
0.0
 10
219.459215
 20
223.377678
 30
0.0
 10
219.365447
 20
223.471447
 30
0.0
  0
SPLINE
  5
1cb
100
AcDbEntity
  8
Layer_1
 62
1
100
AcDbSpline
 70
8
 71
3
 72
8
 73
4
 74
0
 40
0
 40
0
 40
0
 40
0
 40
1
 40
1
 40
1
 40
1
 10
219.365447
 20
223.471447
 30
0.0
 10
219.271678
 20
223.565215
 30
0.0
 10
219.219000
 20
223.692392
 30
0.0
 10
219.219000
 20
223.825000
 30
0.0
  0
LINE
  5
1cc
100
AcDbEntity
  8
Layer_1
 62
1
100
AcDbLine
 10
219.219000
 20
223.825000
 30
0.0
 11
219.219000
 21
236.825000
 31
0.0
  0
SPLINE
  5
1cd
100
AcDbEntity
  8
Layer_1
 62
1
100
AcDbSpline
 70
8
 71
3
 72
8
 73
4
 74
0
 40
0
 40
0
 40
0
 40
0
 40
1
 40
1
 40
1
 40
1
 10
219.219000
 20
236.825000
 30
0.0
 10
219.219000
 20
236.957608
 30
0.0
 10
219.271678
 20
237.084785
 30
0.0
 10
219.365447
 20
237.178553
 30
0.0
  0
SPLINE
  5
1ce
100
AcDbEntity
  8
Layer_1
 62
1
100
AcDbSpline
 70
8
 71
3
 72
8
 73
4
 74
0
 40
0
 40
0
 40
0
 40
0
 40
1
 40
1
 40
1
 40
1
 10
219.365447
 20
237.178553
 30
0.0
 10
219.459215
 20
237.272322
 30
0.0
 10
219.586392
 20
237.325000
 30
0.0
 10
219.719000
 20
237.325000
 30
0.0
  0
LINE
  5
1cf
100
AcDbEntity
  8
Layer_1
 62
1
100
AcDbLine
 10
219.719000
 20
237.325000
 30
0.0
 11
219.719000
 21
237.325000
 31
0.0
  0
LINE
  5
1d0
100
AcDbEntity
  8
Layer_1
 62
1
100
AcDbLine
 10
176.856000
 20
237.325000
 30
0.0
 11
189.856000
 21
237.325000
 31
0.0
  0
SPLINE
  5
1d1
100
AcDbEntity
  8
Layer_1
 62
1
100
AcDbSpline
 70
8
 71
3
 72
8
 73
4
 74
0
 40
0
 40
0
 40
0
 40
0
 40
1
 40
1
 40
1
 40
1
 10
189.856000
 20
237.325000
 30
0.0
 10
189.988608
 20
237.325000
 30
0.0
 10
190.115785
 20
237.272322
 30
0.0
 10
190.209553
 20
237.178553
 30
0.0
  0
SPLINE
  5
1d2
100
AcDbEntity
  8
Layer_1
 62
1
100
AcDbSpline
 70
8
 71
3
 72
8
 73
4
 74
0
 40
0
 40
0
 40
0
 40
0
 40
1
 40
1
 40
1
 40
1
 10
190.209553
 20
237.178553
 30
0.0
 10
190.303322
 20
237.084785
 30
0.0
 10
190.356000
 20
236.957608
 30
0.0
 10
190.356000
 20
236.825000
 30
0.0
  0
LINE
  5
1d3
100
AcDbEntity
  8
Layer_1
 62
1
100
AcDbLine
 10
190.356000
 20
236.825000
 30
0.0
 11
190.356000
 21
223.825000
 31
0.0
  0
SPLINE
  5
1d4
100
AcDbEntity
  8
Layer_1
 62
1
100
AcDbSpline
 70
8
 71
3
 72
8
 73
4
 74
0
 40
0
 40
0
 40
0
 40
0
 40
1
 40
1
 40
1
 40
1
 10
190.356000
 20
223.825000
 30
0.0
 10
190.356000
 20
223.692392
 30
0.0
 10
190.303322
 20
223.565215
 30
0.0
 10
190.209553
 20
223.471447
 30
0.0
  0
SPLINE
  5
1d5
100
AcDbEntity
  8
Layer_1
 62
1
100
AcDbSpline
 70
8
 71
3
 72
8
 73
4
 74
0
 40
0
 40
0
 40
0
 40
0
 40
1
 40
1
 40
1
 40
1
 10
190.209553
 20
223.471447
 30
0.0
 10
190.115785
 20
223.377678
 30
0.0
 10
189.988608
 20
223.325000
 30
0.0
 10
189.856000
 20
223.325000
 30
0.0
  0
LINE
  5
1d6
100
AcDbEntity
  8
Layer_1
 62
1
100
AcDbLine
 10
189.856000
 20
223.325000
 30
0.0
 11
176.856000
 21
223.325000
 31
0.0
  0
SPLINE
  5
1d7
100
AcDbEntity
  8
Layer_1
 62
1
100
AcDbSpline
 70
8
 71
3
 72
8
 73
4
 74
0
 40
0
 40
0
 40
0
 40
0
 40
1
 40
1
 40
1
 40
1
 10
176.856000
 20
223.325000
 30
0.0
 10
176.723392
 20
223.325000
 30
0.0
 10
176.596215
 20
223.377678
 30
0.0
 10
176.502447
 20
223.471447
 30
0.0
  0
SPLINE
  5
1d8
100
AcDbEntity
  8
Layer_1
 62
1
100
AcDbSpline
 70
8
 71
3
 72
8
 73
4
 74
0
 40
0
 40
0
 40
0
 40
0
 40
1
 40
1
 40
1
 40
1
 10
176.502447
 20
223.471447
 30
0.0
 10
176.408678
 20
223.565215
 30
0.0
 10
176.356000
 20
223.692392
 30
0.0
 10
176.356000
 20
223.825000
 30
0.0
  0
LINE
  5
1d9
100
AcDbEntity
  8
Layer_1
 62
1
100
AcDbLine
 10
176.356000
 20
223.825000
 30
0.0
 11
176.356000
 21
236.825000
 31
0.0
  0
SPLINE
  5
1da
100
AcDbEntity
  8
Layer_1
 62
1
100
AcDbSpline
 70
8
 71
3
 72
8
 73
4
 74
0
 40
0
 40
0
 40
0
 40
0
 40
1
 40
1
 40
1
 40
1
 10
176.356000
 20
236.825000
 30
0.0
 10
176.356000
 20
236.957608
 30
0.0
 10
176.408678
 20
237.084785
 30
0.0
 10
176.502447
 20
237.178553
 30
0.0
  0
SPLINE
  5
1db
100
AcDbEntity
  8
Layer_1
 62
1
100
AcDbSpline
 70
8
 71
3
 72
8
 73
4
 74
0
 40
0
 40
0
 40
0
 40
0
 40
1
 40
1
 40
1
 40
1
 10
176.502447
 20
237.178553
 30
0.0
 10
176.596215
 20
237.272322
 30
0.0
 10
176.723392
 20
237.325000
 30
0.0
 10
176.856000
 20
237.325000
 30
0.0
  0
LINE
  5
1dc
100
AcDbEntity
  8
Layer_1
 62
1
100
AcDbLine
 10
176.856000
 20
237.325000
 30
0.0
 11
176.856000
 21
237.325000
 31
0.0
  0
LINE
  5
1dd
100
AcDbEntity
  8
Layer_1
 62
1
100
AcDbLine
 10
7.788000
 20
237.325000
 30
0.0
 11
20.788000
 21
237.325000
 31
0.0
  0
SPLINE
  5
1de
100
AcDbEntity
  8
Layer_1
 62
1
100
AcDbSpline
 70
8
 71
3
 72
8
 73
4
 74
0
 40
0
 40
0
 40
0
 40
0
 40
1
 40
1
 40
1
 40
1
 10
20.788000
 20
237.325000
 30
0.0
 10
20.920608
 20
237.325000
 30
0.0
 10
21.047785
 20
237.272322
 30
0.0
 10
21.141553
 20
237.178553
 30
0.0
  0
SPLINE
  5
1df
100
AcDbEntity
  8
Layer_1
 62
1
100
AcDbSpline
 70
8
 71
3
 72
8
 73
4
 74
0
 40
0
 40
0
 40
0
 40
0
 40
1
 40
1
 40
1
 40
1
 10
21.141553
 20
237.178553
 30
0.0
 10
21.235322
 20
237.084785
 30
0.0
 10
21.288000
 20
236.957608
 30
0.0
 10
21.288000
 20
236.825000
 30
0.0
  0
LINE
  5
1e0
100
AcDbEntity
  8
Layer_1
 62
1
100
AcDbLine
 10
21.288000
 20
236.825000
 30
0.0
 11
21.288000
 21
223.825000
 31
0.0
  0
SPLINE
  5
1e1
100
AcDbEntity
  8
Layer_1
 62
1
100
AcDbSpline
 70
8
 71
3
 72
8
 73
4
 74
0
 40
0
 40
0
 40
0
 40
0
 40
1
 40
1
 40
1
 40
1
 10
21.288000
 20
223.825000
 30
0.0
 10
21.288000
 20
223.692392
 30
0.0
 10
21.235322
 20
223.565215
 30
0.0
 10
21.141553
 20
223.471447
 30
0.0
  0
SPLINE
  5
1e2
100
AcDbEntity
  8
Layer_1
 62
1
100
AcDbSpline
 70
8
 71
3
 72
8
 73
4
 74
0
 40
0
 40
0
 40
0
 40
0
 40
1
 40
1
 40
1
 40
1
 10
21.141553
 20
223.471447
 30
0.0
 10
21.047785
 20
223.377678
 30
0.0
 10
20.920608
 20
223.325000
 30
0.0
 10
20.788000
 20
223.325000
 30
0.0
  0
LINE
  5
1e3
100
AcDbEntity
  8
Layer_1
 62
1
100
AcDbLine
 10
20.788000
 20
223.325000
 30
0.0
 11
7.788000
 21
223.325000
 31
0.0
  0
SPLINE
  5
1e4
100
AcDbEntity
  8
Layer_1
 62
1
100
AcDbSpline
 70
8
 71
3
 72
8
 73
4
 74
0
 40
0
 40
0
 40
0
 40
0
 40
1
 40
1
 40
1
 40
1
 10
7.788000
 20
223.325000
 30
0.0
 10
7.655392
 20
223.325000
 30
0.0
 10
7.528215
 20
223.377678
 30
0.0
 10
7.434447
 20
223.471447
 30
0.0
  0
SPLINE
  5
1e5
100
AcDbEntity
  8
Layer_1
 62
1
100
AcDbSpline
 70
8
 71
3
 72
8
 73
4
 74
0
 40
0
 40
0
 40
0
 40
0
 40
1
 40
1
 40
1
 40
1
 10
7.434447
 20
223.471447
 30
0.0
 10
7.340678
 20
223.565215
 30
0.0
 10
7.288000
 20
223.692392
 30
0.0
 10
7.288000
 20
223.825000
 30
0.0
  0
LINE
  5
1e6
100
AcDbEntity
  8
Layer_1
 62
1
100
AcDbLine
 10
7.288000
 20
223.825000
 30
0.0
 11
7.288000
 21
236.825000
 31
0.0
  0
SPLINE
  5
1e7
100
AcDbEntity
  8
Layer_1
 62
1
100
AcDbSpline
 70
8
 71
3
 72
8
 73
4
 74
0
 40
0
 40
0
 40
0
 40
0
 40
1
 40
1
 40
1
 40
1
 10
7.288000
 20
236.825000
 30
0.0
 10
7.288000
 20
236.957608
 30
0.0
 10
7.340678
 20
237.084785
 30
0.0
 10
7.434447
 20
237.178553
 30
0.0
  0
SPLINE
  5
1e8
100
AcDbEntity
  8
Layer_1
 62
1
100
AcDbSpline
 70
8
 71
3
 72
8
 73
4
 74
0
 40
0
 40
0
 40
0
 40
0
 40
1
 40
1
 40
1
 40
1
 10
7.434447
 20
237.178553
 30
0.0
 10
7.528215
 20
237.272322
 30
0.0
 10
7.655392
 20
237.325000
 30
0.0
 10
7.788000
 20
237.325000
 30
0.0
  0
LINE
  5
1e9
100
AcDbEntity
  8
Layer_1
 62
1
100
AcDbLine
 10
7.788000
 20
237.325000
 30
0.0
 11
7.788000
 21
237.325000
 31
0.0
  0
LINE
  5
1ea
100
AcDbEntity
  8
Layer_1
 62
1
100
AcDbLine
 10
264.963000
 20
256.375000
 30
0.0
 11
277.963000
 21
256.375000
 31
0.0
  0
SPLINE
  5
1eb
100
AcDbEntity
  8
Layer_1
 62
1
100
AcDbSpline
 70
8
 71
3
 72
8
 73
4
 74
0
 40
0
 40
0
 40
0
 40
0
 40
1
 40
1
 40
1
 40
1
 10
277.963000
 20
256.375000
 30
0.0
 10
278.095608
 20
256.375000
 30
0.0
 10
278.222785
 20
256.322322
 30
0.0
 10
278.316553
 20
256.228553
 30
0.0
  0
SPLINE
  5
1ec
100
AcDbEntity
  8
Layer_1
 62
1
100
AcDbSpline
 70
8
 71
3
 72
8
 73
4
 74
0
 40
0
 40
0
 40
0
 40
0
 40
1
 40
1
 40
1
 40
1
 10
278.316553
 20
256.228553
 30
0.0
 10
278.410322
 20
256.134785
 30
0.0
 10
278.463000
 20
256.007608
 30
0.0
 10
278.463000
 20
255.875000
 30
0.0
  0
LINE
  5
1ed
100
AcDbEntity
  8
Layer_1
 62
1
100
AcDbLine
 10
278.463000
 20
255.875000
 30
0.0
 11
278.463000
 21
242.875000
 31
0.0
  0
SPLINE
  5
1ee
100
AcDbEntity
  8
Layer_1
 62
1
100
AcDbSpline
 70
8
 71
3
 72
8
 73
4
 74
0
 40
0
 40
0
 40
0
 40
0
 40
1
 40
1
 40
1
 40
1
 10
278.463000
 20
242.875000
 30
0.0
 10
278.463000
 20
242.742392
 30
0.0
 10
278.410322
 20
242.615215
 30
0.0
 10
278.316553
 20
242.521447
 30
0.0
  0
SPLINE
  5
1ef
100
AcDbEntity
  8
Layer_1
 62
1
100
AcDbSpline
 70
8
 71
3
 72
8
 73
4
 74
0
 40
0
 40
0
 40
0
 40
0
 40
1
 40
1
 40
1
 40
1
 10
278.316553
 20
242.521447
 30
0.0
 10
278.222785
 20
242.427678
 30
0.0
 10
278.095608
 20
242.375000
 30
0.0
 10
277.963000
 20
242.375000
 30
0.0
  0
LINE
  5
1f0
100
AcDbEntity
  8
Layer_1
 62
1
100
AcDbLine
 10
277.963000
 20
242.375000
 30
0.0
 11
264.963000
 21
242.375000
 31
0.0
  0
SPLINE
  5
1f1
100
AcDbEntity
  8
Layer_1
 62
1
100
AcDbSpline
 70
8
 71
3
 72
8
 73
4
 74
0
 40
0
 40
0
 40
0
 40
0
 40
1
 40
1
 40
1
 40
1
 10
264.963000
 20
242.375000
 30
0.0
 10
264.830392
 20
242.375000
 30
0.0
 10
264.703215
 20
242.427678
 30
0.0
 10
264.609447
 20
242.521447
 30
0.0
  0
SPLINE
  5
1f2
100
AcDbEntity
  8
Layer_1
 62
1
100
AcDbSpline
 70
8
 71
3
 72
8
 73
4
 74
0
 40
0
 40
0
 40
0
 40
0
 40
1
 40
1
 40
1
 40
1
 10
264.609447
 20
242.521447
 30
0.0
 10
264.515678
 20
242.615215
 30
0.0
 10
264.463000
 20
242.742392
 30
0.0
 10
264.463000
 20
242.875000
 30
0.0
  0
LINE
  5
1f3
100
AcDbEntity
  8
Layer_1
 62
1
100
AcDbLine
 10
264.463000
 20
242.875000
 30
0.0
 11
264.463000
 21
255.875000
 31
0.0
  0
SPLINE
  5
1f4
100
AcDbEntity
  8
Layer_1
 62
1
100
AcDbSpline
 70
8
 71
3
 72
8
 73
4
 74
0
 40
0
 40
0
 40
0
 40
0
 40
1
 40
1
 40
1
 40
1
 10
264.463000
 20
255.875000
 30
0.0
 10
264.463000
 20
256.007608
 30
0.0
 10
264.515678
 20
256.134785
 30
0.0
 10
264.609447
 20
256.228553
 30
0.0
  0
SPLINE
  5
1f5
100
AcDbEntity
  8
Layer_1
 62
1
100
AcDbSpline
 70
8
 71
3
 72
8
 73
4
 74
0
 40
0
 40
0
 40
0
 40
0
 40
1
 40
1
 40
1
 40
1
 10
264.609447
 20
256.228553
 30
0.0
 10
264.703215
 20
256.322322
 30
0.0
 10
264.830392
 20
256.375000
 30
0.0
 10
264.963000
 20
256.375000
 30
0.0
  0
LINE
  5
1f6
100
AcDbEntity
  8
Layer_1
 62
1
100
AcDbLine
 10
264.963000
 20
256.375000
 30
0.0
 11
264.963000
 21
256.375000
 31
0.0
  0
LINE
  5
1f7
100
AcDbEntity
  8
Layer_1
 62
1
100
AcDbLine
 10
214.956000
 20
256.375000
 30
0.0
 11
227.956000
 21
256.375000
 31
0.0
  0
SPLINE
  5
1f8
100
AcDbEntity
  8
Layer_1
 62
1
100
AcDbSpline
 70
8
 71
3
 72
8
 73
4
 74
0
 40
0
 40
0
 40
0
 40
0
 40
1
 40
1
 40
1
 40
1
 10
227.956000
 20
256.375000
 30
0.0
 10
228.088608
 20
256.375000
 30
0.0
 10
228.215785
 20
256.322322
 30
0.0
 10
228.309553
 20
256.228553
 30
0.0
  0
SPLINE
  5
1f9
100
AcDbEntity
  8
Layer_1
 62
1
100
AcDbSpline
 70
8
 71
3
 72
8
 73
4
 74
0
 40
0
 40
0
 40
0
 40
0
 40
1
 40
1
 40
1
 40
1
 10
228.309553
 20
256.228553
 30
0.0
 10
228.403322
 20
256.134785
 30
0.0
 10
228.456000
 20
256.007608
 30
0.0
 10
228.456000
 20
255.875000
 30
0.0
  0
LINE
  5
1fa
100
AcDbEntity
  8
Layer_1
 62
1
100
AcDbLine
 10
228.456000
 20
255.875000
 30
0.0
 11
228.456000
 21
242.875000
 31
0.0
  0
SPLINE
  5
1fb
100
AcDbEntity
  8
Layer_1
 62
1
100
AcDbSpline
 70
8
 71
3
 72
8
 73
4
 74
0
 40
0
 40
0
 40
0
 40
0
 40
1
 40
1
 40
1
 40
1
 10
228.456000
 20
242.875000
 30
0.0
 10
228.456000
 20
242.742392
 30
0.0
 10
228.403322
 20
242.615215
 30
0.0
 10
228.309553
 20
242.521447
 30
0.0
  0
SPLINE
  5
1fc
100
AcDbEntity
  8
Layer_1
 62
1
100
AcDbSpline
 70
8
 71
3
 72
8
 73
4
 74
0
 40
0
 40
0
 40
0
 40
0
 40
1
 40
1
 40
1
 40
1
 10
228.309553
 20
242.521447
 30
0.0
 10
228.215785
 20
242.427678
 30
0.0
 10
228.088608
 20
242.375000
 30
0.0
 10
227.956000
 20
242.375000
 30
0.0
  0
LINE
  5
1fd
100
AcDbEntity
  8
Layer_1
 62
1
100
AcDbLine
 10
227.956000
 20
242.375000
 30
0.0
 11
214.956000
 21
242.375000
 31
0.0
  0
SPLINE
  5
1fe
100
AcDbEntity
  8
Layer_1
 62
1
100
AcDbSpline
 70
8
 71
3
 72
8
 73
4
 74
0
 40
0
 40
0
 40
0
 40
0
 40
1
 40
1
 40
1
 40
1
 10
214.956000
 20
242.375000
 30
0.0
 10
214.823392
 20
242.375000
 30
0.0
 10
214.696215
 20
242.427678
 30
0.0
 10
214.602447
 20
242.521447
 30
0.0
  0
SPLINE
  5
1ff
100
AcDbEntity
  8
Layer_1
 62
1
100
AcDbSpline
 70
8
 71
3
 72
8
 73
4
 74
0
 40
0
 40
0
 40
0
 40
0
 40
1
 40
1
 40
1
 40
1
 10
214.602447
 20
242.521447
 30
0.0
 10
214.508678
 20
242.615215
 30
0.0
 10
214.456000
 20
242.742392
 30
0.0
 10
214.456000
 20
242.875000
 30
0.0
  0
LINE
  5
200
100
AcDbEntity
  8
Layer_1
 62
1
100
AcDbLine
 10
214.456000
 20
242.875000
 30
0.0
 11
214.456000
 21
255.875000
 31
0.0
  0
SPLINE
  5
201
100
AcDbEntity
  8
Layer_1
 62
1
100
AcDbSpline
 70
8
 71
3
 72
8
 73
4
 74
0
 40
0
 40
0
 40
0
 40
0
 40
1
 40
1
 40
1
 40
1
 10
214.456000
 20
255.875000
 30
0.0
 10
214.456000
 20
256.007608
 30
0.0
 10
214.508678
 20
256.134785
 30
0.0
 10
214.602447
 20
256.228553
 30
0.0
  0
SPLINE
  5
202
100
AcDbEntity
  8
Layer_1
 62
1
100
AcDbSpline
 70
8
 71
3
 72
8
 73
4
 74
0
 40
0
 40
0
 40
0
 40
0
 40
1
 40
1
 40
1
 40
1
 10
214.602447
 20
256.228553
 30
0.0
 10
214.696215
 20
256.322322
 30
0.0
 10
214.823392
 20
256.375000
 30
0.0
 10
214.956000
 20
256.375000
 30
0.0
  0
LINE
  5
203
100
AcDbEntity
  8
Layer_1
 62
1
100
AcDbLine
 10
214.956000
 20
256.375000
 30
0.0
 11
214.956000
 21
256.375000
 31
0.0
  0
LINE
  5
204
100
AcDbEntity
  8
Layer_1
 62
1
100
AcDbLine
 10
188.763000
 20
256.375000
 30
0.0
 11
201.763000
 21
256.375000
 31
0.0
  0
SPLINE
  5
205
100
AcDbEntity
  8
Layer_1
 62
1
100
AcDbSpline
 70
8
 71
3
 72
8
 73
4
 74
0
 40
0
 40
0
 40
0
 40
0
 40
1
 40
1
 40
1
 40
1
 10
201.763000
 20
256.375000
 30
0.0
 10
201.895608
 20
256.375000
 30
0.0
 10
202.022785
 20
256.322322
 30
0.0
 10
202.116553
 20
256.228553
 30
0.0
  0
SPLINE
  5
206
100
AcDbEntity
  8
Layer_1
 62
1
100
AcDbSpline
 70
8
 71
3
 72
8
 73
4
 74
0
 40
0
 40
0
 40
0
 40
0
 40
1
 40
1
 40
1
 40
1
 10
202.116553
 20
256.228553
 30
0.0
 10
202.210322
 20
256.134785
 30
0.0
 10
202.263000
 20
256.007608
 30
0.0
 10
202.263000
 20
255.875000
 30
0.0
  0
LINE
  5
207
100
AcDbEntity
  8
Layer_1
 62
1
100
AcDbLine
 10
202.263000
 20
255.875000
 30
0.0
 11
202.263000
 21
242.875000
 31
0.0
  0
SPLINE
  5
208
100
AcDbEntity
  8
Layer_1
 62
1
100
AcDbSpline
 70
8
 71
3
 72
8
 73
4
 74
0
 40
0
 40
0
 40
0
 40
0
 40
1
 40
1
 40
1
 40
1
 10
202.263000
 20
242.875000
 30
0.0
 10
202.263000
 20
242.742392
 30
0.0
 10
202.210322
 20
242.615215
 30
0.0
 10
202.116553
 20
242.521447
 30
0.0
  0
SPLINE
  5
209
100
AcDbEntity
  8
Layer_1
 62
1
100
AcDbSpline
 70
8
 71
3
 72
8
 73
4
 74
0
 40
0
 40
0
 40
0
 40
0
 40
1
 40
1
 40
1
 40
1
 10
202.116553
 20
242.521447
 30
0.0
 10
202.022785
 20
242.427678
 30
0.0
 10
201.895608
 20
242.375000
 30
0.0
 10
201.763000
 20
242.375000
 30
0.0
  0
LINE
  5
20a
100
AcDbEntity
  8
Layer_1
 62
1
100
AcDbLine
 10
201.763000
 20
242.375000
 30
0.0
 11
188.763000
 21
242.375000
 31
0.0
  0
SPLINE
  5
20b
100
AcDbEntity
  8
Layer_1
 62
1
100
AcDbSpline
 70
8
 71
3
 72
8
 73
4
 74
0
 40
0
 40
0
 40
0
 40
0
 40
1
 40
1
 40
1
 40
1
 10
188.763000
 20
242.375000
 30
0.0
 10
188.630392
 20
242.375000
 30
0.0
 10
188.503215
 20
242.427678
 30
0.0
 10
188.409447
 20
242.521447
 30
0.0
  0
SPLINE
  5
20c
100
AcDbEntity
  8
Layer_1
 62
1
100
AcDbSpline
 70
8
 71
3
 72
8
 73
4
 74
0
 40
0
 40
0
 40
0
 40
0
 40
1
 40
1
 40
1
 40
1
 10
188.409447
 20
242.521447
 30
0.0
 10
188.315678
 20
242.615215
 30
0.0
 10
188.263000
 20
242.742392
 30
0.0
 10
188.263000
 20
242.875000
 30
0.0
  0
LINE
  5
20d
100
AcDbEntity
  8
Layer_1
 62
1
100
AcDbLine
 10
188.263000
 20
242.875000
 30
0.0
 11
188.263000
 21
255.875000
 31
0.0
  0
SPLINE
  5
20e
100
AcDbEntity
  8
Layer_1
 62
1
100
AcDbSpline
 70
8
 71
3
 72
8
 73
4
 74
0
 40
0
 40
0
 40
0
 40
0
 40
1
 40
1
 40
1
 40
1
 10
188.263000
 20
255.875000
 30
0.0
 10
188.263000
 20
256.007608
 30
0.0
 10
188.315678
 20
256.134785
 30
0.0
 10
188.409447
 20
256.228553
 30
0.0
  0
SPLINE
  5
20f
100
AcDbEntity
  8
Layer_1
 62
1
100
AcDbSpline
 70
8
 71
3
 72
8
 73
4
 74
0
 40
0
 40
0
 40
0
 40
0
 40
1
 40
1
 40
1
 40
1
 10
188.409447
 20
256.228553
 30
0.0
 10
188.503215
 20
256.322322
 30
0.0
 10
188.630392
 20
256.375000
 30
0.0
 10
188.763000
 20
256.375000
 30
0.0
  0
LINE
  5
210
100
AcDbEntity
  8
Layer_1
 62
1
100
AcDbLine
 10
188.763000
 20
256.375000
 30
0.0
 11
188.763000
 21
256.375000
 31
0.0
  0
LINE
  5
211
100
AcDbEntity
  8
Layer_1
 62
1
100
AcDbLine
 10
169.713000
 20
256.375000
 30
0.0
 11
182.713000
 21
256.375000
 31
0.0
  0
SPLINE
  5
212
100
AcDbEntity
  8
Layer_1
 62
1
100
AcDbSpline
 70
8
 71
3
 72
8
 73
4
 74
0
 40
0
 40
0
 40
0
 40
0
 40
1
 40
1
 40
1
 40
1
 10
182.713000
 20
256.375000
 30
0.0
 10
182.845608
 20
256.375000
 30
0.0
 10
182.972785
 20
256.322322
 30
0.0
 10
183.066553
 20
256.228553
 30
0.0
  0
SPLINE
  5
213
100
AcDbEntity
  8
Layer_1
 62
1
100
AcDbSpline
 70
8
 71
3
 72
8
 73
4
 74
0
 40
0
 40
0
 40
0
 40
0
 40
1
 40
1
 40
1
 40
1
 10
183.066553
 20
256.228553
 30
0.0
 10
183.160322
 20
256.134785
 30
0.0
 10
183.213000
 20
256.007608
 30
0.0
 10
183.213000
 20
255.875000
 30
0.0
  0
LINE
  5
214
100
AcDbEntity
  8
Layer_1
 62
1
100
AcDbLine
 10
183.213000
 20
255.875000
 30
0.0
 11
183.213000
 21
242.875000
 31
0.0
  0
SPLINE
  5
215
100
AcDbEntity
  8
Layer_1
 62
1
100
AcDbSpline
 70
8
 71
3
 72
8
 73
4
 74
0
 40
0
 40
0
 40
0
 40
0
 40
1
 40
1
 40
1
 40
1
 10
183.213000
 20
242.875000
 30
0.0
 10
183.213000
 20
242.742392
 30
0.0
 10
183.160322
 20
242.615215
 30
0.0
 10
183.066553
 20
242.521447
 30
0.0
  0
SPLINE
  5
216
100
AcDbEntity
  8
Layer_1
 62
1
100
AcDbSpline
 70
8
 71
3
 72
8
 73
4
 74
0
 40
0
 40
0
 40
0
 40
0
 40
1
 40
1
 40
1
 40
1
 10
183.066553
 20
242.521447
 30
0.0
 10
182.972785
 20
242.427678
 30
0.0
 10
182.845608
 20
242.375000
 30
0.0
 10
182.713000
 20
242.375000
 30
0.0
  0
LINE
  5
217
100
AcDbEntity
  8
Layer_1
 62
1
100
AcDbLine
 10
182.713000
 20
242.375000
 30
0.0
 11
169.713000
 21
242.375000
 31
0.0
  0
SPLINE
  5
218
100
AcDbEntity
  8
Layer_1
 62
1
100
AcDbSpline
 70
8
 71
3
 72
8
 73
4
 74
0
 40
0
 40
0
 40
0
 40
0
 40
1
 40
1
 40
1
 40
1
 10
169.713000
 20
242.375000
 30
0.0
 10
169.580392
 20
242.375000
 30
0.0
 10
169.453215
 20
242.427678
 30
0.0
 10
169.359447
 20
242.521447
 30
0.0
  0
SPLINE
  5
219
100
AcDbEntity
  8
Layer_1
 62
1
100
AcDbSpline
 70
8
 71
3
 72
8
 73
4
 74
0
 40
0
 40
0
 40
0
 40
0
 40
1
 40
1
 40
1
 40
1
 10
169.359447
 20
242.521447
 30
0.0
 10
169.265678
 20
242.615215
 30
0.0
 10
169.213000
 20
242.742392
 30
0.0
 10
169.213000
 20
242.875000
 30
0.0
  0
LINE
  5
21a
100
AcDbEntity
  8
Layer_1
 62
1
100
AcDbLine
 10
169.213000
 20
242.875000
 30
0.0
 11
169.213000
 21
255.875000
 31
0.0
  0
SPLINE
  5
21b
100
AcDbEntity
  8
Layer_1
 62
1
100
AcDbSpline
 70
8
 71
3
 72
8
 73
4
 74
0
 40
0
 40
0
 40
0
 40
0
 40
1
 40
1
 40
1
 40
1
 10
169.213000
 20
255.875000
 30
0.0
 10
169.213000
 20
256.007608
 30
0.0
 10
169.265678
 20
256.134785
 30
0.0
 10
169.359447
 20
256.228553
 30
0.0
  0
SPLINE
  5
21c
100
AcDbEntity
  8
Layer_1
 62
1
100
AcDbSpline
 70
8
 71
3
 72
8
 73
4
 74
0
 40
0
 40
0
 40
0
 40
0
 40
1
 40
1
 40
1
 40
1
 10
169.359447
 20
256.228553
 30
0.0
 10
169.453215
 20
256.322322
 30
0.0
 10
169.580392
 20
256.375000
 30
0.0
 10
169.713000
 20
256.375000
 30
0.0
  0
LINE
  5
21d
100
AcDbEntity
  8
Layer_1
 62
1
100
AcDbLine
 10
169.713000
 20
256.375000
 30
0.0
 11
169.713000
 21
256.375000
 31
0.0
  0
LINE
  5
21e
100
AcDbEntity
  8
Layer_1
 62
1
100
AcDbLine
 10
150.663000
 20
256.375000
 30
0.0
 11
163.663000
 21
256.375000
 31
0.0
  0
SPLINE
  5
21f
100
AcDbEntity
  8
Layer_1
 62
1
100
AcDbSpline
 70
8
 71
3
 72
8
 73
4
 74
0
 40
0
 40
0
 40
0
 40
0
 40
1
 40
1
 40
1
 40
1
 10
163.663000
 20
256.375000
 30
0.0
 10
163.795608
 20
256.375000
 30
0.0
 10
163.922785
 20
256.322322
 30
0.0
 10
164.016553
 20
256.228553
 30
0.0
  0
SPLINE
  5
220
100
AcDbEntity
  8
Layer_1
 62
1
100
AcDbSpline
 70
8
 71
3
 72
8
 73
4
 74
0
 40
0
 40
0
 40
0
 40
0
 40
1
 40
1
 40
1
 40
1
 10
164.016553
 20
256.228553
 30
0.0
 10
164.110322
 20
256.134785
 30
0.0
 10
164.163000
 20
256.007608
 30
0.0
 10
164.163000
 20
255.875000
 30
0.0
  0
LINE
  5
221
100
AcDbEntity
  8
Layer_1
 62
1
100
AcDbLine
 10
164.163000
 20
255.875000
 30
0.0
 11
164.163000
 21
242.875000
 31
0.0
  0
SPLINE
  5
222
100
AcDbEntity
  8
Layer_1
 62
1
100
AcDbSpline
 70
8
 71
3
 72
8
 73
4
 74
0
 40
0
 40
0
 40
0
 40
0
 40
1
 40
1
 40
1
 40
1
 10
164.163000
 20
242.875000
 30
0.0
 10
164.163000
 20
242.742392
 30
0.0
 10
164.110322
 20
242.615215
 30
0.0
 10
164.016553
 20
242.521447
 30
0.0
  0
SPLINE
  5
223
100
AcDbEntity
  8
Layer_1
 62
1
100
AcDbSpline
 70
8
 71
3
 72
8
 73
4
 74
0
 40
0
 40
0
 40
0
 40
0
 40
1
 40
1
 40
1
 40
1
 10
164.016553
 20
242.521447
 30
0.0
 10
163.922785
 20
242.427678
 30
0.0
 10
163.795608
 20
242.375000
 30
0.0
 10
163.663000
 20
242.375000
 30
0.0
  0
LINE
  5
224
100
AcDbEntity
  8
Layer_1
 62
1
100
AcDbLine
 10
163.663000
 20
242.375000
 30
0.0
 11
150.663000
 21
242.375000
 31
0.0
  0
SPLINE
  5
225
100
AcDbEntity
  8
Layer_1
 62
1
100
AcDbSpline
 70
8
 71
3
 72
8
 73
4
 74
0
 40
0
 40
0
 40
0
 40
0
 40
1
 40
1
 40
1
 40
1
 10
150.663000
 20
242.375000
 30
0.0
 10
150.530392
 20
242.375000
 30
0.0
 10
150.403215
 20
242.427678
 30
0.0
 10
150.309447
 20
242.521447
 30
0.0
  0
SPLINE
  5
226
100
AcDbEntity
  8
Layer_1
 62
1
100
AcDbSpline
 70
8
 71
3
 72
8
 73
4
 74
0
 40
0
 40
0
 40
0
 40
0
 40
1
 40
1
 40
1
 40
1
 10
150.309447
 20
242.521447
 30
0.0
 10
150.215678
 20
242.615215
 30
0.0
 10
150.163000
 20
242.742392
 30
0.0
 10
150.163000
 20
242.875000
 30
0.0
  0
LINE
  5
227
100
AcDbEntity
  8
Layer_1
 62
1
100
AcDbLine
 10
150.163000
 20
242.875000
 30
0.0
 11
150.163000
 21
255.875000
 31
0.0
  0
SPLINE
  5
228
100
AcDbEntity
  8
Layer_1
 62
1
100
AcDbSpline
 70
8
 71
3
 72
8
 73
4
 74
0
 40
0
 40
0
 40
0
 40
0
 40
1
 40
1
 40
1
 40
1
 10
150.163000
 20
255.875000
 30
0.0
 10
150.163000
 20
256.007608
 30
0.0
 10
150.215678
 20
256.134785
 30
0.0
 10
150.309447
 20
256.228553
 30
0.0
  0
SPLINE
  5
229
100
AcDbEntity
  8
Layer_1
 62
1
100
AcDbSpline
 70
8
 71
3
 72
8
 73
4
 74
0
 40
0
 40
0
 40
0
 40
0
 40
1
 40
1
 40
1
 40
1
 10
150.309447
 20
256.228553
 30
0.0
 10
150.403215
 20
256.322322
 30
0.0
 10
150.530392
 20
256.375000
 30
0.0
 10
150.663000
 20
256.375000
 30
0.0
  0
LINE
  5
22a
100
AcDbEntity
  8
Layer_1
 62
1
100
AcDbLine
 10
150.663000
 20
256.375000
 30
0.0
 11
150.663000
 21
256.375000
 31
0.0
  0
LINE
  5
22b
100
AcDbEntity
  8
Layer_1
 62
1
100
AcDbLine
 10
131.613000
 20
256.375000
 30
0.0
 11
144.613000
 21
256.375000
 31
0.0
  0
SPLINE
  5
22c
100
AcDbEntity
  8
Layer_1
 62
1
100
AcDbSpline
 70
8
 71
3
 72
8
 73
4
 74
0
 40
0
 40
0
 40
0
 40
0
 40
1
 40
1
 40
1
 40
1
 10
144.613000
 20
256.375000
 30
0.0
 10
144.745608
 20
256.375000
 30
0.0
 10
144.872785
 20
256.322322
 30
0.0
 10
144.966553
 20
256.228553
 30
0.0
  0
SPLINE
  5
22d
100
AcDbEntity
  8
Layer_1
 62
1
100
AcDbSpline
 70
8
 71
3
 72
8
 73
4
 74
0
 40
0
 40
0
 40
0
 40
0
 40
1
 40
1
 40
1
 40
1
 10
144.966553
 20
256.228553
 30
0.0
 10
145.060322
 20
256.134785
 30
0.0
 10
145.113000
 20
256.007608
 30
0.0
 10
145.113000
 20
255.875000
 30
0.0
  0
LINE
  5
22e
100
AcDbEntity
  8
Layer_1
 62
1
100
AcDbLine
 10
145.113000
 20
255.875000
 30
0.0
 11
145.113000
 21
242.875000
 31
0.0
  0
SPLINE
  5
22f
100
AcDbEntity
  8
Layer_1
 62
1
100
AcDbSpline
 70
8
 71
3
 72
8
 73
4
 74
0
 40
0
 40
0
 40
0
 40
0
 40
1
 40
1
 40
1
 40
1
 10
145.113000
 20
242.875000
 30
0.0
 10
145.113000
 20
242.742392
 30
0.0
 10
145.060322
 20
242.615215
 30
0.0
 10
144.966553
 20
242.521447
 30
0.0
  0
SPLINE
  5
230
100
AcDbEntity
  8
Layer_1
 62
1
100
AcDbSpline
 70
8
 71
3
 72
8
 73
4
 74
0
 40
0
 40
0
 40
0
 40
0
 40
1
 40
1
 40
1
 40
1
 10
144.966553
 20
242.521447
 30
0.0
 10
144.872785
 20
242.427678
 30
0.0
 10
144.745608
 20
242.375000
 30
0.0
 10
144.613000
 20
242.375000
 30
0.0
  0
LINE
  5
231
100
AcDbEntity
  8
Layer_1
 62
1
100
AcDbLine
 10
144.613000
 20
242.375000
 30
0.0
 11
131.613000
 21
242.375000
 31
0.0
  0
SPLINE
  5
232
100
AcDbEntity
  8
Layer_1
 62
1
100
AcDbSpline
 70
8
 71
3
 72
8
 73
4
 74
0
 40
0
 40
0
 40
0
 40
0
 40
1
 40
1
 40
1
 40
1
 10
131.613000
 20
242.375000
 30
0.0
 10
131.480392
 20
242.375000
 30
0.0
 10
131.353215
 20
242.427678
 30
0.0
 10
131.259447
 20
242.521447
 30
0.0
  0
SPLINE
  5
233
100
AcDbEntity
  8
Layer_1
 62
1
100
AcDbSpline
 70
8
 71
3
 72
8
 73
4
 74
0
 40
0
 40
0
 40
0
 40
0
 40
1
 40
1
 40
1
 40
1
 10
131.259447
 20
242.521447
 30
0.0
 10
131.165678
 20
242.615215
 30
0.0
 10
131.113000
 20
242.742392
 30
0.0
 10
131.113000
 20
242.875000
 30
0.0
  0
LINE
  5
234
100
AcDbEntity
  8
Layer_1
 62
1
100
AcDbLine
 10
131.113000
 20
242.875000
 30
0.0
 11
131.113000
 21
255.875000
 31
0.0
  0
SPLINE
  5
235
100
AcDbEntity
  8
Layer_1
 62
1
100
AcDbSpline
 70
8
 71
3
 72
8
 73
4
 74
0
 40
0
 40
0
 40
0
 40
0
 40
1
 40
1
 40
1
 40
1
 10
131.113000
 20
255.875000
 30
0.0
 10
131.113000
 20
256.007608
 30
0.0
 10
131.165678
 20
256.134785
 30
0.0
 10
131.259447
 20
256.228553
 30
0.0
  0
SPLINE
  5
236
100
AcDbEntity
  8
Layer_1
 62
1
100
AcDbSpline
 70
8
 71
3
 72
8
 73
4
 74
0
 40
0
 40
0
 40
0
 40
0
 40
1
 40
1
 40
1
 40
1
 10
131.259447
 20
256.228553
 30
0.0
 10
131.353215
 20
256.322322
 30
0.0
 10
131.480392
 20
256.375000
 30
0.0
 10
131.613000
 20
256.375000
 30
0.0
  0
LINE
  5
237
100
AcDbEntity
  8
Layer_1
 62
1
100
AcDbLine
 10
131.613000
 20
256.375000
 30
0.0
 11
131.613000
 21
256.375000
 31
0.0
  0
LINE
  5
238
100
AcDbEntity
  8
Layer_1
 62
1
100
AcDbLine
 10
112.563000
 20
256.375000
 30
0.0
 11
125.563000
 21
256.375000
 31
0.0
  0
SPLINE
  5
239
100
AcDbEntity
  8
Layer_1
 62
1
100
AcDbSpline
 70
8
 71
3
 72
8
 73
4
 74
0
 40
0
 40
0
 40
0
 40
0
 40
1
 40
1
 40
1
 40
1
 10
125.563000
 20
256.375000
 30
0.0
 10
125.695608
 20
256.375000
 30
0.0
 10
125.822785
 20
256.322322
 30
0.0
 10
125.916553
 20
256.228553
 30
0.0
  0
SPLINE
  5
23a
100
AcDbEntity
  8
Layer_1
 62
1
100
AcDbSpline
 70
8
 71
3
 72
8
 73
4
 74
0
 40
0
 40
0
 40
0
 40
0
 40
1
 40
1
 40
1
 40
1
 10
125.916553
 20
256.228553
 30
0.0
 10
126.010322
 20
256.134785
 30
0.0
 10
126.063000
 20
256.007608
 30
0.0
 10
126.063000
 20
255.875000
 30
0.0
  0
LINE
  5
23b
100
AcDbEntity
  8
Layer_1
 62
1
100
AcDbLine
 10
126.063000
 20
255.875000
 30
0.0
 11
126.063000
 21
242.875000
 31
0.0
  0
SPLINE
  5
23c
100
AcDbEntity
  8
Layer_1
 62
1
100
AcDbSpline
 70
8
 71
3
 72
8
 73
4
 74
0
 40
0
 40
0
 40
0
 40
0
 40
1
 40
1
 40
1
 40
1
 10
126.063000
 20
242.875000
 30
0.0
 10
126.063000
 20
242.742392
 30
0.0
 10
126.010322
 20
242.615215
 30
0.0
 10
125.916553
 20
242.521447
 30
0.0
  0
SPLINE
  5
23d
100
AcDbEntity
  8
Layer_1
 62
1
100
AcDbSpline
 70
8
 71
3
 72
8
 73
4
 74
0
 40
0
 40
0
 40
0
 40
0
 40
1
 40
1
 40
1
 40
1
 10
125.916553
 20
242.521447
 30
0.0
 10
125.822785
 20
242.427678
 30
0.0
 10
125.695608
 20
242.375000
 30
0.0
 10
125.563000
 20
242.375000
 30
0.0
  0
LINE
  5
23e
100
AcDbEntity
  8
Layer_1
 62
1
100
AcDbLine
 10
125.563000
 20
242.375000
 30
0.0
 11
112.563000
 21
242.375000
 31
0.0
  0
SPLINE
  5
23f
100
AcDbEntity
  8
Layer_1
 62
1
100
AcDbSpline
 70
8
 71
3
 72
8
 73
4
 74
0
 40
0
 40
0
 40
0
 40
0
 40
1
 40
1
 40
1
 40
1
 10
112.563000
 20
242.375000
 30
0.0
 10
112.430392
 20
242.375000
 30
0.0
 10
112.303215
 20
242.427678
 30
0.0
 10
112.209447
 20
242.521447
 30
0.0
  0
SPLINE
  5
240
100
AcDbEntity
  8
Layer_1
 62
1
100
AcDbSpline
 70
8
 71
3
 72
8
 73
4
 74
0
 40
0
 40
0
 40
0
 40
0
 40
1
 40
1
 40
1
 40
1
 10
112.209447
 20
242.521447
 30
0.0
 10
112.115678
 20
242.615215
 30
0.0
 10
112.063000
 20
242.742392
 30
0.0
 10
112.063000
 20
242.875000
 30
0.0
  0
LINE
  5
241
100
AcDbEntity
  8
Layer_1
 62
1
100
AcDbLine
 10
112.063000
 20
242.875000
 30
0.0
 11
112.063000
 21
255.875000
 31
0.0
  0
SPLINE
  5
242
100
AcDbEntity
  8
Layer_1
 62
1
100
AcDbSpline
 70
8
 71
3
 72
8
 73
4
 74
0
 40
0
 40
0
 40
0
 40
0
 40
1
 40
1
 40
1
 40
1
 10
112.063000
 20
255.875000
 30
0.0
 10
112.063000
 20
256.007608
 30
0.0
 10
112.115678
 20
256.134785
 30
0.0
 10
112.209447
 20
256.228553
 30
0.0
  0
SPLINE
  5
243
100
AcDbEntity
  8
Layer_1
 62
1
100
AcDbSpline
 70
8
 71
3
 72
8
 73
4
 74
0
 40
0
 40
0
 40
0
 40
0
 40
1
 40
1
 40
1
 40
1
 10
112.209447
 20
256.228553
 30
0.0
 10
112.303215
 20
256.322322
 30
0.0
 10
112.430392
 20
256.375000
 30
0.0
 10
112.563000
 20
256.375000
 30
0.0
  0
LINE
  5
244
100
AcDbEntity
  8
Layer_1
 62
1
100
AcDbLine
 10
112.563000
 20
256.375000
 30
0.0
 11
112.563000
 21
256.375000
 31
0.0
  0
LINE
  5
245
100
AcDbEntity
  8
Layer_1
 62
1
100
AcDbLine
 10
93.513000
 20
256.375000
 30
0.0
 11
106.513000
 21
256.375000
 31
0.0
  0
SPLINE
  5
246
100
AcDbEntity
  8
Layer_1
 62
1
100
AcDbSpline
 70
8
 71
3
 72
8
 73
4
 74
0
 40
0
 40
0
 40
0
 40
0
 40
1
 40
1
 40
1
 40
1
 10
106.513000
 20
256.375000
 30
0.0
 10
106.645608
 20
256.375000
 30
0.0
 10
106.772785
 20
256.322322
 30
0.0
 10
106.866553
 20
256.228553
 30
0.0
  0
SPLINE
  5
247
100
AcDbEntity
  8
Layer_1
 62
1
100
AcDbSpline
 70
8
 71
3
 72
8
 73
4
 74
0
 40
0
 40
0
 40
0
 40
0
 40
1
 40
1
 40
1
 40
1
 10
106.866553
 20
256.228553
 30
0.0
 10
106.960322
 20
256.134785
 30
0.0
 10
107.013000
 20
256.007608
 30
0.0
 10
107.013000
 20
255.875000
 30
0.0
  0
LINE
  5
248
100
AcDbEntity
  8
Layer_1
 62
1
100
AcDbLine
 10
107.013000
 20
255.875000
 30
0.0
 11
107.013000
 21
242.875000
 31
0.0
  0
SPLINE
  5
249
100
AcDbEntity
  8
Layer_1
 62
1
100
AcDbSpline
 70
8
 71
3
 72
8
 73
4
 74
0
 40
0
 40
0
 40
0
 40
0
 40
1
 40
1
 40
1
 40
1
 10
107.013000
 20
242.875000
 30
0.0
 10
107.013000
 20
242.742392
 30
0.0
 10
106.960322
 20
242.615215
 30
0.0
 10
106.866553
 20
242.521447
 30
0.0
  0
SPLINE
  5
24a
100
AcDbEntity
  8
Layer_1
 62
1
100
AcDbSpline
 70
8
 71
3
 72
8
 73
4
 74
0
 40
0
 40
0
 40
0
 40
0
 40
1
 40
1
 40
1
 40
1
 10
106.866553
 20
242.521447
 30
0.0
 10
106.772785
 20
242.427678
 30
0.0
 10
106.645608
 20
242.375000
 30
0.0
 10
106.513000
 20
242.375000
 30
0.0
  0
LINE
  5
24b
100
AcDbEntity
  8
Layer_1
 62
1
100
AcDbLine
 10
106.513000
 20
242.375000
 30
0.0
 11
93.513000
 21
242.375000
 31
0.0
  0
SPLINE
  5
24c
100
AcDbEntity
  8
Layer_1
 62
1
100
AcDbSpline
 70
8
 71
3
 72
8
 73
4
 74
0
 40
0
 40
0
 40
0
 40
0
 40
1
 40
1
 40
1
 40
1
 10
93.513000
 20
242.375000
 30
0.0
 10
93.380392
 20
242.375000
 30
0.0
 10
93.253215
 20
242.427678
 30
0.0
 10
93.159447
 20
242.521447
 30
0.0
  0
SPLINE
  5
24d
100
AcDbEntity
  8
Layer_1
 62
1
100
AcDbSpline
 70
8
 71
3
 72
8
 73
4
 74
0
 40
0
 40
0
 40
0
 40
0
 40
1
 40
1
 40
1
 40
1
 10
93.159447
 20
242.521447
 30
0.0
 10
93.065678
 20
242.615215
 30
0.0
 10
93.013000
 20
242.742392
 30
0.0
 10
93.013000
 20
242.875000
 30
0.0
  0
LINE
  5
24e
100
AcDbEntity
  8
Layer_1
 62
1
100
AcDbLine
 10
93.013000
 20
242.875000
 30
0.0
 11
93.013000
 21
255.875000
 31
0.0
  0
SPLINE
  5
24f
100
AcDbEntity
  8
Layer_1
 62
1
100
AcDbSpline
 70
8
 71
3
 72
8
 73
4
 74
0
 40
0
 40
0
 40
0
 40
0
 40
1
 40
1
 40
1
 40
1
 10
93.013000
 20
255.875000
 30
0.0
 10
93.013000
 20
256.007608
 30
0.0
 10
93.065678
 20
256.134785
 30
0.0
 10
93.159447
 20
256.228553
 30
0.0
  0
SPLINE
  5
250
100
AcDbEntity
  8
Layer_1
 62
1
100
AcDbSpline
 70
8
 71
3
 72
8
 73
4
 74
0
 40
0
 40
0
 40
0
 40
0
 40
1
 40
1
 40
1
 40
1
 10
93.159447
 20
256.228553
 30
0.0
 10
93.253215
 20
256.322322
 30
0.0
 10
93.380392
 20
256.375000
 30
0.0
 10
93.513000
 20
256.375000
 30
0.0
  0
LINE
  5
251
100
AcDbEntity
  8
Layer_1
 62
1
100
AcDbLine
 10
93.513000
 20
256.375000
 30
0.0
 11
93.513000
 21
256.375000
 31
0.0
  0
LINE
  5
252
100
AcDbEntity
  8
Layer_1
 62
1
100
AcDbLine
 10
74.463000
 20
256.375000
 30
0.0
 11
87.463000
 21
256.375000
 31
0.0
  0
SPLINE
  5
253
100
AcDbEntity
  8
Layer_1
 62
1
100
AcDbSpline
 70
8
 71
3
 72
8
 73
4
 74
0
 40
0
 40
0
 40
0
 40
0
 40
1
 40
1
 40
1
 40
1
 10
87.463000
 20
256.375000
 30
0.0
 10
87.595608
 20
256.375000
 30
0.0
 10
87.722785
 20
256.322322
 30
0.0
 10
87.816553
 20
256.228553
 30
0.0
  0
SPLINE
  5
254
100
AcDbEntity
  8
Layer_1
 62
1
100
AcDbSpline
 70
8
 71
3
 72
8
 73
4
 74
0
 40
0
 40
0
 40
0
 40
0
 40
1
 40
1
 40
1
 40
1
 10
87.816553
 20
256.228553
 30
0.0
 10
87.910322
 20
256.134785
 30
0.0
 10
87.963000
 20
256.007608
 30
0.0
 10
87.963000
 20
255.875000
 30
0.0
  0
LINE
  5
255
100
AcDbEntity
  8
Layer_1
 62
1
100
AcDbLine
 10
87.963000
 20
255.875000
 30
0.0
 11
87.963000
 21
242.875000
 31
0.0
  0
SPLINE
  5
256
100
AcDbEntity
  8
Layer_1
 62
1
100
AcDbSpline
 70
8
 71
3
 72
8
 73
4
 74
0
 40
0
 40
0
 40
0
 40
0
 40
1
 40
1
 40
1
 40
1
 10
87.963000
 20
242.875000
 30
0.0
 10
87.963000
 20
242.742392
 30
0.0
 10
87.910322
 20
242.615215
 30
0.0
 10
87.816553
 20
242.521447
 30
0.0
  0
SPLINE
  5
257
100
AcDbEntity
  8
Layer_1
 62
1
100
AcDbSpline
 70
8
 71
3
 72
8
 73
4
 74
0
 40
0
 40
0
 40
0
 40
0
 40
1
 40
1
 40
1
 40
1
 10
87.816553
 20
242.521447
 30
0.0
 10
87.722785
 20
242.427678
 30
0.0
 10
87.595608
 20
242.375000
 30
0.0
 10
87.463000
 20
242.375000
 30
0.0
  0
LINE
  5
258
100
AcDbEntity
  8
Layer_1
 62
1
100
AcDbLine
 10
87.463000
 20
242.375000
 30
0.0
 11
74.463000
 21
242.375000
 31
0.0
  0
SPLINE
  5
259
100
AcDbEntity
  8
Layer_1
 62
1
100
AcDbSpline
 70
8
 71
3
 72
8
 73
4
 74
0
 40
0
 40
0
 40
0
 40
0
 40
1
 40
1
 40
1
 40
1
 10
74.463000
 20
242.375000
 30
0.0
 10
74.330392
 20
242.375000
 30
0.0
 10
74.203215
 20
242.427678
 30
0.0
 10
74.109447
 20
242.521447
 30
0.0
  0
SPLINE
  5
25a
100
AcDbEntity
  8
Layer_1
 62
1
100
AcDbSpline
 70
8
 71
3
 72
8
 73
4
 74
0
 40
0
 40
0
 40
0
 40
0
 40
1
 40
1
 40
1
 40
1
 10
74.109447
 20
242.521447
 30
0.0
 10
74.015678
 20
242.615215
 30
0.0
 10
73.963000
 20
242.742392
 30
0.0
 10
73.963000
 20
242.875000
 30
0.0
  0
LINE
  5
25b
100
AcDbEntity
  8
Layer_1
 62
1
100
AcDbLine
 10
73.963000
 20
242.875000
 30
0.0
 11
73.963000
 21
255.875000
 31
0.0
  0
SPLINE
  5
25c
100
AcDbEntity
  8
Layer_1
 62
1
100
AcDbSpline
 70
8
 71
3
 72
8
 73
4
 74
0
 40
0
 40
0
 40
0
 40
0
 40
1
 40
1
 40
1
 40
1
 10
73.963000
 20
255.875000
 30
0.0
 10
73.963000
 20
256.007608
 30
0.0
 10
74.015678
 20
256.134785
 30
0.0
 10
74.109447
 20
256.228553
 30
0.0
  0
SPLINE
  5
25d
100
AcDbEntity
  8
Layer_1
 62
1
100
AcDbSpline
 70
8
 71
3
 72
8
 73
4
 74
0
 40
0
 40
0
 40
0
 40
0
 40
1
 40
1
 40
1
 40
1
 10
74.109447
 20
256.228553
 30
0.0
 10
74.203215
 20
256.322322
 30
0.0
 10
74.330392
 20
256.375000
 30
0.0
 10
74.463000
 20
256.375000
 30
0.0
  0
LINE
  5
25e
100
AcDbEntity
  8
Layer_1
 62
1
100
AcDbLine
 10
74.463000
 20
256.375000
 30
0.0
 11
74.463000
 21
256.375000
 31
0.0
  0
LINE
  5
25f
100
AcDbEntity
  8
Layer_1
 62
1
100
AcDbLine
 10
36.363000
 20
256.375000
 30
0.0
 11
49.363000
 21
256.375000
 31
0.0
  0
SPLINE
  5
260
100
AcDbEntity
  8
Layer_1
 62
1
100
AcDbSpline
 70
8
 71
3
 72
8
 73
4
 74
0
 40
0
 40
0
 40
0
 40
0
 40
1
 40
1
 40
1
 40
1
 10
49.363000
 20
256.375000
 30
0.0
 10
49.495608
 20
256.375000
 30
0.0
 10
49.622785
 20
256.322322
 30
0.0
 10
49.716553
 20
256.228553
 30
0.0
  0
SPLINE
  5
261
100
AcDbEntity
  8
Layer_1
 62
1
100
AcDbSpline
 70
8
 71
3
 72
8
 73
4
 74
0
 40
0
 40
0
 40
0
 40
0
 40
1
 40
1
 40
1
 40
1
 10
49.716553
 20
256.228553
 30
0.0
 10
49.810322
 20
256.134785
 30
0.0
 10
49.863000
 20
256.007608
 30
0.0
 10
49.863000
 20
255.875000
 30
0.0
  0
LINE
  5
262
100
AcDbEntity
  8
Layer_1
 62
1
100
AcDbLine
 10
49.863000
 20
255.875000
 30
0.0
 11
49.863000
 21
242.875000
 31
0.0
  0
SPLINE
  5
263
100
AcDbEntity
  8
Layer_1
 62
1
100
AcDbSpline
 70
8
 71
3
 72
8
 73
4
 74
0
 40
0
 40
0
 40
0
 40
0
 40
1
 40
1
 40
1
 40
1
 10
49.863000
 20
242.875000
 30
0.0
 10
49.863000
 20
242.742392
 30
0.0
 10
49.810322
 20
242.615215
 30
0.0
 10
49.716553
 20
242.521447
 30
0.0
  0
SPLINE
  5
264
100
AcDbEntity
  8
Layer_1
 62
1
100
AcDbSpline
 70
8
 71
3
 72
8
 73
4
 74
0
 40
0
 40
0
 40
0
 40
0
 40
1
 40
1
 40
1
 40
1
 10
49.716553
 20
242.521447
 30
0.0
 10
49.622785
 20
242.427678
 30
0.0
 10
49.495608
 20
242.375000
 30
0.0
 10
49.363000
 20
242.375000
 30
0.0
  0
LINE
  5
265
100
AcDbEntity
  8
Layer_1
 62
1
100
AcDbLine
 10
49.363000
 20
242.375000
 30
0.0
 11
36.363000
 21
242.375000
 31
0.0
  0
SPLINE
  5
266
100
AcDbEntity
  8
Layer_1
 62
1
100
AcDbSpline
 70
8
 71
3
 72
8
 73
4
 74
0
 40
0
 40
0
 40
0
 40
0
 40
1
 40
1
 40
1
 40
1
 10
36.363000
 20
242.375000
 30
0.0
 10
36.230392
 20
242.375000
 30
0.0
 10
36.103215
 20
242.427678
 30
0.0
 10
36.009447
 20
242.521447
 30
0.0
  0
SPLINE
  5
267
100
AcDbEntity
  8
Layer_1
 62
1
100
AcDbSpline
 70
8
 71
3
 72
8
 73
4
 74
0
 40
0
 40
0
 40
0
 40
0
 40
1
 40
1
 40
1
 40
1
 10
36.009447
 20
242.521447
 30
0.0
 10
35.915678
 20
242.615215
 30
0.0
 10
35.863000
 20
242.742392
 30
0.0
 10
35.863000
 20
242.875000
 30
0.0
  0
LINE
  5
268
100
AcDbEntity
  8
Layer_1
 62
1
100
AcDbLine
 10
35.863000
 20
242.875000
 30
0.0
 11
35.863000
 21
255.875000
 31
0.0
  0
SPLINE
  5
269
100
AcDbEntity
  8
Layer_1
 62
1
100
AcDbSpline
 70
8
 71
3
 72
8
 73
4
 74
0
 40
0
 40
0
 40
0
 40
0
 40
1
 40
1
 40
1
 40
1
 10
35.863000
 20
255.875000
 30
0.0
 10
35.863000
 20
256.007608
 30
0.0
 10
35.915678
 20
256.134785
 30
0.0
 10
36.009447
 20
256.228553
 30
0.0
  0
SPLINE
  5
26a
100
AcDbEntity
  8
Layer_1
 62
1
100
AcDbSpline
 70
8
 71
3
 72
8
 73
4
 74
0
 40
0
 40
0
 40
0
 40
0
 40
1
 40
1
 40
1
 40
1
 10
36.009447
 20
256.228553
 30
0.0
 10
36.103215
 20
256.322322
 30
0.0
 10
36.230392
 20
256.375000
 30
0.0
 10
36.363000
 20
256.375000
 30
0.0
  0
LINE
  5
26b
100
AcDbEntity
  8
Layer_1
 62
1
100
AcDbLine
 10
36.363000
 20
256.375000
 30
0.0
 11
36.363000
 21
256.375000
 31
0.0
  0
LINE
  5
26c
100
AcDbEntity
  8
Layer_1
 62
1
100
AcDbLine
 10
10.169000
 20
256.375000
 30
0.0
 11
23.169000
 21
256.375000
 31
0.0
  0
SPLINE
  5
26d
100
AcDbEntity
  8
Layer_1
 62
1
100
AcDbSpline
 70
8
 71
3
 72
8
 73
4
 74
0
 40
0
 40
0
 40
0
 40
0
 40
1
 40
1
 40
1
 40
1
 10
23.169000
 20
256.375000
 30
0.0
 10
23.301608
 20
256.375000
 30
0.0
 10
23.428785
 20
256.322322
 30
0.0
 10
23.522553
 20
256.228553
 30
0.0
  0
SPLINE
  5
26e
100
AcDbEntity
  8
Layer_1
 62
1
100
AcDbSpline
 70
8
 71
3
 72
8
 73
4
 74
0
 40
0
 40
0
 40
0
 40
0
 40
1
 40
1
 40
1
 40
1
 10
23.522553
 20
256.228553
 30
0.0
 10
23.616322
 20
256.134785
 30
0.0
 10
23.669000
 20
256.007608
 30
0.0
 10
23.669000
 20
255.875000
 30
0.0
  0
LINE
  5
26f
100
AcDbEntity
  8
Layer_1
 62
1
100
AcDbLine
 10
23.669000
 20
255.875000
 30
0.0
 11
23.669000
 21
242.875000
 31
0.0
  0
SPLINE
  5
270
100
AcDbEntity
  8
Layer_1
 62
1
100
AcDbSpline
 70
8
 71
3
 72
8
 73
4
 74
0
 40
0
 40
0
 40
0
 40
0
 40
1
 40
1
 40
1
 40
1
 10
23.669000
 20
242.875000
 30
0.0
 10
23.669000
 20
242.742392
 30
0.0
 10
23.616322
 20
242.615215
 30
0.0
 10
23.522553
 20
242.521447
 30
0.0
  0
SPLINE
  5
271
100
AcDbEntity
  8
Layer_1
 62
1
100
AcDbSpline
 70
8
 71
3
 72
8
 73
4
 74
0
 40
0
 40
0
 40
0
 40
0
 40
1
 40
1
 40
1
 40
1
 10
23.522553
 20
242.521447
 30
0.0
 10
23.428785
 20
242.427678
 30
0.0
 10
23.301608
 20
242.375000
 30
0.0
 10
23.169000
 20
242.375000
 30
0.0
  0
LINE
  5
272
100
AcDbEntity
  8
Layer_1
 62
1
100
AcDbLine
 10
23.169000
 20
242.375000
 30
0.0
 11
10.169000
 21
242.375000
 31
0.0
  0
SPLINE
  5
273
100
AcDbEntity
  8
Layer_1
 62
1
100
AcDbSpline
 70
8
 71
3
 72
8
 73
4
 74
0
 40
0
 40
0
 40
0
 40
0
 40
1
 40
1
 40
1
 40
1
 10
10.169000
 20
242.375000
 30
0.0
 10
10.036392
 20
242.375000
 30
0.0
 10
9.909215
 20
242.427678
 30
0.0
 10
9.815447
 20
242.521447
 30
0.0
  0
SPLINE
  5
274
100
AcDbEntity
  8
Layer_1
 62
1
100
AcDbSpline
 70
8
 71
3
 72
8
 73
4
 74
0
 40
0
 40
0
 40
0
 40
0
 40
1
 40
1
 40
1
 40
1
 10
9.815447
 20
242.521447
 30
0.0
 10
9.721678
 20
242.615215
 30
0.0
 10
9.669000
 20
242.742392
 30
0.0
 10
9.669000
 20
242.875000
 30
0.0
  0
LINE
  5
275
100
AcDbEntity
  8
Layer_1
 62
1
100
AcDbLine
 10
9.669000
 20
242.875000
 30
0.0
 11
9.669000
 21
255.875000
 31
0.0
  0
SPLINE
  5
276
100
AcDbEntity
  8
Layer_1
 62
1
100
AcDbSpline
 70
8
 71
3
 72
8
 73
4
 74
0
 40
0
 40
0
 40
0
 40
0
 40
1
 40
1
 40
1
 40
1
 10
9.669000
 20
255.875000
 30
0.0
 10
9.669000
 20
256.007608
 30
0.0
 10
9.721678
 20
256.134785
 30
0.0
 10
9.815447
 20
256.228553
 30
0.0
  0
SPLINE
  5
277
100
AcDbEntity
  8
Layer_1
 62
1
100
AcDbSpline
 70
8
 71
3
 72
8
 73
4
 74
0
 40
0
 40
0
 40
0
 40
0
 40
1
 40
1
 40
1
 40
1
 10
9.815447
 20
256.228553
 30
0.0
 10
9.909215
 20
256.322322
 30
0.0
 10
10.036392
 20
256.375000
 30
0.0
 10
10.169000
 20
256.375000
 30
0.0
  0
LINE
  5
278
100
AcDbEntity
  8
Layer_1
 62
1
100
AcDbLine
 10
10.169000
 20
256.375000
 30
0.0
 11
10.169000
 21
256.375000
 31
0.0
  0
LINE
  5
279
100
AcDbEntity
  8
Layer_1
 62
1
100
AcDbLine
 10
219.719000
 20
275.425000
 30
0.0
 11
232.719000
 21
275.425000
 31
0.0
  0
SPLINE
  5
27a
100
AcDbEntity
  8
Layer_1
 62
1
100
AcDbSpline
 70
8
 71
3
 72
8
 73
4
 74
0
 40
0
 40
0
 40
0
 40
0
 40
1
 40
1
 40
1
 40
1
 10
232.719000
 20
275.425000
 30
0.0
 10
232.851608
 20
275.425000
 30
0.0
 10
232.978785
 20
275.372322
 30
0.0
 10
233.072553
 20
275.278553
 30
0.0
  0
SPLINE
  5
27b
100
AcDbEntity
  8
Layer_1
 62
1
100
AcDbSpline
 70
8
 71
3
 72
8
 73
4
 74
0
 40
0
 40
0
 40
0
 40
0
 40
1
 40
1
 40
1
 40
1
 10
233.072553
 20
275.278553
 30
0.0
 10
233.166322
 20
275.184785
 30
0.0
 10
233.219000
 20
275.057608
 30
0.0
 10
233.219000
 20
274.925000
 30
0.0
  0
LINE
  5
27c
100
AcDbEntity
  8
Layer_1
 62
1
100
AcDbLine
 10
233.219000
 20
274.925000
 30
0.0
 11
233.219000
 21
261.925000
 31
0.0
  0
SPLINE
  5
27d
100
AcDbEntity
  8
Layer_1
 62
1
100
AcDbSpline
 70
8
 71
3
 72
8
 73
4
 74
0
 40
0
 40
0
 40
0
 40
0
 40
1
 40
1
 40
1
 40
1
 10
233.219000
 20
261.925000
 30
0.0
 10
233.219000
 20
261.792392
 30
0.0
 10
233.166322
 20
261.665215
 30
0.0
 10
233.072553
 20
261.571447
 30
0.0
  0
SPLINE
  5
27e
100
AcDbEntity
  8
Layer_1
 62
1
100
AcDbSpline
 70
8
 71
3
 72
8
 73
4
 74
0
 40
0
 40
0
 40
0
 40
0
 40
1
 40
1
 40
1
 40
1
 10
233.072553
 20
261.571447
 30
0.0
 10
232.978785
 20
261.477678
 30
0.0
 10
232.851608
 20
261.425000
 30
0.0
 10
232.719000
 20
261.425000
 30
0.0
  0
LINE
  5
27f
100
AcDbEntity
  8
Layer_1
 62
1
100
AcDbLine
 10
232.719000
 20
261.425000
 30
0.0
 11
219.719000
 21
261.425000
 31
0.0
  0
SPLINE
  5
280
100
AcDbEntity
  8
Layer_1
 62
1
100
AcDbSpline
 70
8
 71
3
 72
8
 73
4
 74
0
 40
0
 40
0
 40
0
 40
0
 40
1
 40
1
 40
1
 40
1
 10
219.719000
 20
261.425000
 30
0.0
 10
219.586392
 20
261.425000
 30
0.0
 10
219.459215
 20
261.477678
 30
0.0
 10
219.365447
 20
261.571447
 30
0.0
  0
SPLINE
  5
281
100
AcDbEntity
  8
Layer_1
 62
1
100
AcDbSpline
 70
8
 71
3
 72
8
 73
4
 74
0
 40
0
 40
0
 40
0
 40
0
 40
1
 40
1
 40
1
 40
1
 10
219.365447
 20
261.571447
 30
0.0
 10
219.271678
 20
261.665215
 30
0.0
 10
219.219000
 20
261.792392
 30
0.0
 10
219.219000
 20
261.925000
 30
0.0
  0
LINE
  5
282
100
AcDbEntity
  8
Layer_1
 62
1
100
AcDbLine
 10
219.219000
 20
261.925000
 30
0.0
 11
219.219000
 21
274.925000
 31
0.0
  0
SPLINE
  5
283
100
AcDbEntity
  8
Layer_1
 62
1
100
AcDbSpline
 70
8
 71
3
 72
8
 73
4
 74
0
 40
0
 40
0
 40
0
 40
0
 40
1
 40
1
 40
1
 40
1
 10
219.219000
 20
274.925000
 30
0.0
 10
219.219000
 20
275.057608
 30
0.0
 10
219.271678
 20
275.184785
 30
0.0
 10
219.365447
 20
275.278553
 30
0.0
  0
SPLINE
  5
284
100
AcDbEntity
  8
Layer_1
 62
1
100
AcDbSpline
 70
8
 71
3
 72
8
 73
4
 74
0
 40
0
 40
0
 40
0
 40
0
 40
1
 40
1
 40
1
 40
1
 10
219.365447
 20
275.278553
 30
0.0
 10
219.459215
 20
275.372322
 30
0.0
 10
219.586392
 20
275.425000
 30
0.0
 10
219.719000
 20
275.425000
 30
0.0
  0
LINE
  5
285
100
AcDbEntity
  8
Layer_1
 62
1
100
AcDbLine
 10
219.719000
 20
275.425000
 30
0.0
 11
219.719000
 21
275.425000
 31
0.0
  0
LINE
  5
286
100
AcDbEntity
  8
Layer_1
 62
1
100
AcDbLine
 10
198.288000
 20
275.425000
 30
0.0
 11
211.288000
 21
275.425000
 31
0.0
  0
SPLINE
  5
287
100
AcDbEntity
  8
Layer_1
 62
1
100
AcDbSpline
 70
8
 71
3
 72
8
 73
4
 74
0
 40
0
 40
0
 40
0
 40
0
 40
1
 40
1
 40
1
 40
1
 10
211.288000
 20
275.425000
 30
0.0
 10
211.420608
 20
275.425000
 30
0.0
 10
211.547785
 20
275.372322
 30
0.0
 10
211.641553
 20
275.278553
 30
0.0
  0
SPLINE
  5
288
100
AcDbEntity
  8
Layer_1
 62
1
100
AcDbSpline
 70
8
 71
3
 72
8
 73
4
 74
0
 40
0
 40
0
 40
0
 40
0
 40
1
 40
1
 40
1
 40
1
 10
211.641553
 20
275.278553
 30
0.0
 10
211.735322
 20
275.184785
 30
0.0
 10
211.788000
 20
275.057608
 30
0.0
 10
211.788000
 20
274.925000
 30
0.0
  0
LINE
  5
289
100
AcDbEntity
  8
Layer_1
 62
1
100
AcDbLine
 10
211.788000
 20
274.925000
 30
0.0
 11
211.788000
 21
261.925000
 31
0.0
  0
SPLINE
  5
28a
100
AcDbEntity
  8
Layer_1
 62
1
100
AcDbSpline
 70
8
 71
3
 72
8
 73
4
 74
0
 40
0
 40
0
 40
0
 40
0
 40
1
 40
1
 40
1
 40
1
 10
211.788000
 20
261.925000
 30
0.0
 10
211.788000
 20
261.792392
 30
0.0
 10
211.735322
 20
261.665215
 30
0.0
 10
211.641553
 20
261.571447
 30
0.0
  0
SPLINE
  5
28b
100
AcDbEntity
  8
Layer_1
 62
1
100
AcDbSpline
 70
8
 71
3
 72
8
 73
4
 74
0
 40
0
 40
0
 40
0
 40
0
 40
1
 40
1
 40
1
 40
1
 10
211.641553
 20
261.571447
 30
0.0
 10
211.547785
 20
261.477678
 30
0.0
 10
211.420608
 20
261.425000
 30
0.0
 10
211.288000
 20
261.425000
 30
0.0
  0
LINE
  5
28c
100
AcDbEntity
  8
Layer_1
 62
1
100
AcDbLine
 10
211.288000
 20
261.425000
 30
0.0
 11
198.288000
 21
261.425000
 31
0.0
  0
SPLINE
  5
28d
100
AcDbEntity
  8
Layer_1
 62
1
100
AcDbSpline
 70
8
 71
3
 72
8
 73
4
 74
0
 40
0
 40
0
 40
0
 40
0
 40
1
 40
1
 40
1
 40
1
 10
198.288000
 20
261.425000
 30
0.0
 10
198.155392
 20
261.425000
 30
0.0
 10
198.028215
 20
261.477678
 30
0.0
 10
197.934447
 20
261.571447
 30
0.0
  0
SPLINE
  5
28e
100
AcDbEntity
  8
Layer_1
 62
1
100
AcDbSpline
 70
8
 71
3
 72
8
 73
4
 74
0
 40
0
 40
0
 40
0
 40
0
 40
1
 40
1
 40
1
 40
1
 10
197.934447
 20
261.571447
 30
0.0
 10
197.840678
 20
261.665215
 30
0.0
 10
197.788000
 20
261.792392
 30
0.0
 10
197.788000
 20
261.925000
 30
0.0
  0
LINE
  5
28f
100
AcDbEntity
  8
Layer_1
 62
1
100
AcDbLine
 10
197.788000
 20
261.925000
 30
0.0
 11
197.788000
 21
274.925000
 31
0.0
  0
SPLINE
  5
290
100
AcDbEntity
  8
Layer_1
 62
1
100
AcDbSpline
 70
8
 71
3
 72
8
 73
4
 74
0
 40
0
 40
0
 40
0
 40
0
 40
1
 40
1
 40
1
 40
1
 10
197.788000
 20
274.925000
 30
0.0
 10
197.788000
 20
275.057608
 30
0.0
 10
197.840678
 20
275.184785
 30
0.0
 10
197.934447
 20
275.278553
 30
0.0
  0
SPLINE
  5
291
100
AcDbEntity
  8
Layer_1
 62
1
100
AcDbSpline
 70
8
 71
3
 72
8
 73
4
 74
0
 40
0
 40
0
 40
0
 40
0
 40
1
 40
1
 40
1
 40
1
 10
197.934447
 20
275.278553
 30
0.0
 10
198.028215
 20
275.372322
 30
0.0
 10
198.155392
 20
275.425000
 30
0.0
 10
198.288000
 20
275.425000
 30
0.0
  0
LINE
  5
292
100
AcDbEntity
  8
Layer_1
 62
1
100
AcDbLine
 10
198.288000
 20
275.425000
 30
0.0
 11
198.288000
 21
275.425000
 31
0.0
  0
LINE
  5
293
100
AcDbEntity
  8
Layer_1
 62
1
100
AcDbLine
 10
179.238000
 20
275.425000
 30
0.0
 11
192.238000
 21
275.425000
 31
0.0
  0
SPLINE
  5
294
100
AcDbEntity
  8
Layer_1
 62
1
100
AcDbSpline
 70
8
 71
3
 72
8
 73
4
 74
0
 40
0
 40
0
 40
0
 40
0
 40
1
 40
1
 40
1
 40
1
 10
192.238000
 20
275.425000
 30
0.0
 10
192.370608
 20
275.425000
 30
0.0
 10
192.497785
 20
275.372322
 30
0.0
 10
192.591553
 20
275.278553
 30
0.0
  0
SPLINE
  5
295
100
AcDbEntity
  8
Layer_1
 62
1
100
AcDbSpline
 70
8
 71
3
 72
8
 73
4
 74
0
 40
0
 40
0
 40
0
 40
0
 40
1
 40
1
 40
1
 40
1
 10
192.591553
 20
275.278553
 30
0.0
 10
192.685322
 20
275.184785
 30
0.0
 10
192.738000
 20
275.057608
 30
0.0
 10
192.738000
 20
274.925000
 30
0.0
  0
LINE
  5
296
100
AcDbEntity
  8
Layer_1
 62
1
100
AcDbLine
 10
192.738000
 20
274.925000
 30
0.0
 11
192.738000
 21
261.925000
 31
0.0
  0
SPLINE
  5
297
100
AcDbEntity
  8
Layer_1
 62
1
100
AcDbSpline
 70
8
 71
3
 72
8
 73
4
 74
0
 40
0
 40
0
 40
0
 40
0
 40
1
 40
1
 40
1
 40
1
 10
192.738000
 20
261.925000
 30
0.0
 10
192.738000
 20
261.792392
 30
0.0
 10
192.685322
 20
261.665215
 30
0.0
 10
192.591553
 20
261.571447
 30
0.0
  0
SPLINE
  5
298
100
AcDbEntity
  8
Layer_1
 62
1
100
AcDbSpline
 70
8
 71
3
 72
8
 73
4
 74
0
 40
0
 40
0
 40
0
 40
0
 40
1
 40
1
 40
1
 40
1
 10
192.591553
 20
261.571447
 30
0.0
 10
192.497785
 20
261.477678
 30
0.0
 10
192.370608
 20
261.425000
 30
0.0
 10
192.238000
 20
261.425000
 30
0.0
  0
LINE
  5
299
100
AcDbEntity
  8
Layer_1
 62
1
100
AcDbLine
 10
192.238000
 20
261.425000
 30
0.0
 11
179.238000
 21
261.425000
 31
0.0
  0
SPLINE
  5
29a
100
AcDbEntity
  8
Layer_1
 62
1
100
AcDbSpline
 70
8
 71
3
 72
8
 73
4
 74
0
 40
0
 40
0
 40
0
 40
0
 40
1
 40
1
 40
1
 40
1
 10
179.238000
 20
261.425000
 30
0.0
 10
179.105392
 20
261.425000
 30
0.0
 10
178.978215
 20
261.477678
 30
0.0
 10
178.884447
 20
261.571447
 30
0.0
  0
SPLINE
  5
29b
100
AcDbEntity
  8
Layer_1
 62
1
100
AcDbSpline
 70
8
 71
3
 72
8
 73
4
 74
0
 40
0
 40
0
 40
0
 40
0
 40
1
 40
1
 40
1
 40
1
 10
178.884447
 20
261.571447
 30
0.0
 10
178.790678
 20
261.665215
 30
0.0
 10
178.738000
 20
261.792392
 30
0.0
 10
178.738000
 20
261.925000
 30
0.0
  0
LINE
  5
29c
100
AcDbEntity
  8
Layer_1
 62
1
100
AcDbLine
 10
178.738000
 20
261.925000
 30
0.0
 11
178.738000
 21
274.925000
 31
0.0
  0
SPLINE
  5
29d
100
AcDbEntity
  8
Layer_1
 62
1
100
AcDbSpline
 70
8
 71
3
 72
8
 73
4
 74
0
 40
0
 40
0
 40
0
 40
0
 40
1
 40
1
 40
1
 40
1
 10
178.738000
 20
274.925000
 30
0.0
 10
178.738000
 20
275.057608
 30
0.0
 10
178.790678
 20
275.184785
 30
0.0
 10
178.884447
 20
275.278553
 30
0.0
  0
SPLINE
  5
29e
100
AcDbEntity
  8
Layer_1
 62
1
100
AcDbSpline
 70
8
 71
3
 72
8
 73
4
 74
0
 40
0
 40
0
 40
0
 40
0
 40
1
 40
1
 40
1
 40
1
 10
178.884447
 20
275.278553
 30
0.0
 10
178.978215
 20
275.372322
 30
0.0
 10
179.105392
 20
275.425000
 30
0.0
 10
179.238000
 20
275.425000
 30
0.0
  0
LINE
  5
29f
100
AcDbEntity
  8
Layer_1
 62
1
100
AcDbLine
 10
179.238000
 20
275.425000
 30
0.0
 11
179.238000
 21
275.425000
 31
0.0
  0
LINE
  5
2a0
100
AcDbEntity
  8
Layer_1
 62
1
100
AcDbLine
 10
160.188000
 20
275.425000
 30
0.0
 11
173.188000
 21
275.425000
 31
0.0
  0
SPLINE
  5
2a1
100
AcDbEntity
  8
Layer_1
 62
1
100
AcDbSpline
 70
8
 71
3
 72
8
 73
4
 74
0
 40
0
 40
0
 40
0
 40
0
 40
1
 40
1
 40
1
 40
1
 10
173.188000
 20
275.425000
 30
0.0
 10
173.320608
 20
275.425000
 30
0.0
 10
173.447785
 20
275.372322
 30
0.0
 10
173.541553
 20
275.278553
 30
0.0
  0
SPLINE
  5
2a2
100
AcDbEntity
  8
Layer_1
 62
1
100
AcDbSpline
 70
8
 71
3
 72
8
 73
4
 74
0
 40
0
 40
0
 40
0
 40
0
 40
1
 40
1
 40
1
 40
1
 10
173.541553
 20
275.278553
 30
0.0
 10
173.635322
 20
275.184785
 30
0.0
 10
173.688000
 20
275.057608
 30
0.0
 10
173.688000
 20
274.925000
 30
0.0
  0
LINE
  5
2a3
100
AcDbEntity
  8
Layer_1
 62
1
100
AcDbLine
 10
173.688000
 20
274.925000
 30
0.0
 11
173.688000
 21
261.925000
 31
0.0
  0
SPLINE
  5
2a4
100
AcDbEntity
  8
Layer_1
 62
1
100
AcDbSpline
 70
8
 71
3
 72
8
 73
4
 74
0
 40
0
 40
0
 40
0
 40
0
 40
1
 40
1
 40
1
 40
1
 10
173.688000
 20
261.925000
 30
0.0
 10
173.688000
 20
261.792392
 30
0.0
 10
173.635322
 20
261.665215
 30
0.0
 10
173.541553
 20
261.571447
 30
0.0
  0
SPLINE
  5
2a5
100
AcDbEntity
  8
Layer_1
 62
1
100
AcDbSpline
 70
8
 71
3
 72
8
 73
4
 74
0
 40
0
 40
0
 40
0
 40
0
 40
1
 40
1
 40
1
 40
1
 10
173.541553
 20
261.571447
 30
0.0
 10
173.447785
 20
261.477678
 30
0.0
 10
173.320608
 20
261.425000
 30
0.0
 10
173.188000
 20
261.425000
 30
0.0
  0
LINE
  5
2a6
100
AcDbEntity
  8
Layer_1
 62
1
100
AcDbLine
 10
173.188000
 20
261.425000
 30
0.0
 11
160.188000
 21
261.425000
 31
0.0
  0
SPLINE
  5
2a7
100
AcDbEntity
  8
Layer_1
 62
1
100
AcDbSpline
 70
8
 71
3
 72
8
 73
4
 74
0
 40
0
 40
0
 40
0
 40
0
 40
1
 40
1
 40
1
 40
1
 10
160.188000
 20
261.425000
 30
0.0
 10
160.055392
 20
261.425000
 30
0.0
 10
159.928215
 20
261.477678
 30
0.0
 10
159.834447
 20
261.571447
 30
0.0
  0
SPLINE
  5
2a8
100
AcDbEntity
  8
Layer_1
 62
1
100
AcDbSpline
 70
8
 71
3
 72
8
 73
4
 74
0
 40
0
 40
0
 40
0
 40
0
 40
1
 40
1
 40
1
 40
1
 10
159.834447
 20
261.571447
 30
0.0
 10
159.740678
 20
261.665215
 30
0.0
 10
159.688000
 20
261.792392
 30
0.0
 10
159.688000
 20
261.925000
 30
0.0
  0
LINE
  5
2a9
100
AcDbEntity
  8
Layer_1
 62
1
100
AcDbLine
 10
159.688000
 20
261.925000
 30
0.0
 11
159.688000
 21
274.925000
 31
0.0
  0
SPLINE
  5
2aa
100
AcDbEntity
  8
Layer_1
 62
1
100
AcDbSpline
 70
8
 71
3
 72
8
 73
4
 74
0
 40
0
 40
0
 40
0
 40
0
 40
1
 40
1
 40
1
 40
1
 10
159.688000
 20
274.925000
 30
0.0
 10
159.688000
 20
275.057608
 30
0.0
 10
159.740678
 20
275.184785
 30
0.0
 10
159.834447
 20
275.278553
 30
0.0
  0
SPLINE
  5
2ab
100
AcDbEntity
  8
Layer_1
 62
1
100
AcDbSpline
 70
8
 71
3
 72
8
 73
4
 74
0
 40
0
 40
0
 40
0
 40
0
 40
1
 40
1
 40
1
 40
1
 10
159.834447
 20
275.278553
 30
0.0
 10
159.928215
 20
275.372322
 30
0.0
 10
160.055392
 20
275.425000
 30
0.0
 10
160.188000
 20
275.425000
 30
0.0
  0
LINE
  5
2ac
100
AcDbEntity
  8
Layer_1
 62
1
100
AcDbLine
 10
160.188000
 20
275.425000
 30
0.0
 11
160.188000
 21
275.425000
 31
0.0
  0
LINE
  5
2ad
100
AcDbEntity
  8
Layer_1
 62
1
100
AcDbLine
 10
141.138000
 20
275.425000
 30
0.0
 11
154.138000
 21
275.425000
 31
0.0
  0
SPLINE
  5
2ae
100
AcDbEntity
  8
Layer_1
 62
1
100
AcDbSpline
 70
8
 71
3
 72
8
 73
4
 74
0
 40
0
 40
0
 40
0
 40
0
 40
1
 40
1
 40
1
 40
1
 10
154.138000
 20
275.425000
 30
0.0
 10
154.270608
 20
275.425000
 30
0.0
 10
154.397785
 20
275.372322
 30
0.0
 10
154.491553
 20
275.278553
 30
0.0
  0
SPLINE
  5
2af
100
AcDbEntity
  8
Layer_1
 62
1
100
AcDbSpline
 70
8
 71
3
 72
8
 73
4
 74
0
 40
0
 40
0
 40
0
 40
0
 40
1
 40
1
 40
1
 40
1
 10
154.491553
 20
275.278553
 30
0.0
 10
154.585322
 20
275.184785
 30
0.0
 10
154.638000
 20
275.057608
 30
0.0
 10
154.638000
 20
274.925000
 30
0.0
  0
LINE
  5
2b0
100
AcDbEntity
  8
Layer_1
 62
1
100
AcDbLine
 10
154.638000
 20
274.925000
 30
0.0
 11
154.638000
 21
261.925000
 31
0.0
  0
SPLINE
  5
2b1
100
AcDbEntity
  8
Layer_1
 62
1
100
AcDbSpline
 70
8
 71
3
 72
8
 73
4
 74
0
 40
0
 40
0
 40
0
 40
0
 40
1
 40
1
 40
1
 40
1
 10
154.638000
 20
261.925000
 30
0.0
 10
154.638000
 20
261.792392
 30
0.0
 10
154.585322
 20
261.665215
 30
0.0
 10
154.491553
 20
261.571447
 30
0.0
  0
SPLINE
  5
2b2
100
AcDbEntity
  8
Layer_1
 62
1
100
AcDbSpline
 70
8
 71
3
 72
8
 73
4
 74
0
 40
0
 40
0
 40
0
 40
0
 40
1
 40
1
 40
1
 40
1
 10
154.491553
 20
261.571447
 30
0.0
 10
154.397785
 20
261.477678
 30
0.0
 10
154.270608
 20
261.425000
 30
0.0
 10
154.138000
 20
261.425000
 30
0.0
  0
LINE
  5
2b3
100
AcDbEntity
  8
Layer_1
 62
1
100
AcDbLine
 10
154.138000
 20
261.425000
 30
0.0
 11
141.138000
 21
261.425000
 31
0.0
  0
SPLINE
  5
2b4
100
AcDbEntity
  8
Layer_1
 62
1
100
AcDbSpline
 70
8
 71
3
 72
8
 73
4
 74
0
 40
0
 40
0
 40
0
 40
0
 40
1
 40
1
 40
1
 40
1
 10
141.138000
 20
261.425000
 30
0.0
 10
141.005392
 20
261.425000
 30
0.0
 10
140.878215
 20
261.477678
 30
0.0
 10
140.784447
 20
261.571447
 30
0.0
  0
SPLINE
  5
2b5
100
AcDbEntity
  8
Layer_1
 62
1
100
AcDbSpline
 70
8
 71
3
 72
8
 73
4
 74
0
 40
0
 40
0
 40
0
 40
0
 40
1
 40
1
 40
1
 40
1
 10
140.784447
 20
261.571447
 30
0.0
 10
140.690678
 20
261.665215
 30
0.0
 10
140.638000
 20
261.792392
 30
0.0
 10
140.638000
 20
261.925000
 30
0.0
  0
LINE
  5
2b6
100
AcDbEntity
  8
Layer_1
 62
1
100
AcDbLine
 10
140.638000
 20
261.925000
 30
0.0
 11
140.638000
 21
274.925000
 31
0.0
  0
SPLINE
  5
2b7
100
AcDbEntity
  8
Layer_1
 62
1
100
AcDbSpline
 70
8
 71
3
 72
8
 73
4
 74
0
 40
0
 40
0
 40
0
 40
0
 40
1
 40
1
 40
1
 40
1
 10
140.638000
 20
274.925000
 30
0.0
 10
140.638000
 20
275.057608
 30
0.0
 10
140.690678
 20
275.184785
 30
0.0
 10
140.784447
 20
275.278553
 30
0.0
  0
SPLINE
  5
2b8
100
AcDbEntity
  8
Layer_1
 62
1
100
AcDbSpline
 70
8
 71
3
 72
8
 73
4
 74
0
 40
0
 40
0
 40
0
 40
0
 40
1
 40
1
 40
1
 40
1
 10
140.784447
 20
275.278553
 30
0.0
 10
140.878215
 20
275.372322
 30
0.0
 10
141.005392
 20
275.425000
 30
0.0
 10
141.138000
 20
275.425000
 30
0.0
  0
LINE
  5
2b9
100
AcDbEntity
  8
Layer_1
 62
1
100
AcDbLine
 10
141.138000
 20
275.425000
 30
0.0
 11
141.138000
 21
275.425000
 31
0.0
  0
LINE
  5
2ba
100
AcDbEntity
  8
Layer_1
 62
1
100
AcDbLine
 10
122.088000
 20
275.425000
 30
0.0
 11
135.088000
 21
275.425000
 31
0.0
  0
SPLINE
  5
2bb
100
AcDbEntity
  8
Layer_1
 62
1
100
AcDbSpline
 70
8
 71
3
 72
8
 73
4
 74
0
 40
0
 40
0
 40
0
 40
0
 40
1
 40
1
 40
1
 40
1
 10
135.088000
 20
275.425000
 30
0.0
 10
135.220608
 20
275.425000
 30
0.0
 10
135.347785
 20
275.372322
 30
0.0
 10
135.441553
 20
275.278553
 30
0.0
  0
SPLINE
  5
2bc
100
AcDbEntity
  8
Layer_1
 62
1
100
AcDbSpline
 70
8
 71
3
 72
8
 73
4
 74
0
 40
0
 40
0
 40
0
 40
0
 40
1
 40
1
 40
1
 40
1
 10
135.441553
 20
275.278553
 30
0.0
 10
135.535322
 20
275.184785
 30
0.0
 10
135.588000
 20
275.057608
 30
0.0
 10
135.588000
 20
274.925000
 30
0.0
  0
LINE
  5
2bd
100
AcDbEntity
  8
Layer_1
 62
1
100
AcDbLine
 10
135.588000
 20
274.925000
 30
0.0
 11
135.588000
 21
261.925000
 31
0.0
  0
SPLINE
  5
2be
100
AcDbEntity
  8
Layer_1
 62
1
100
AcDbSpline
 70
8
 71
3
 72
8
 73
4
 74
0
 40
0
 40
0
 40
0
 40
0
 40
1
 40
1
 40
1
 40
1
 10
135.588000
 20
261.925000
 30
0.0
 10
135.588000
 20
261.792392
 30
0.0
 10
135.535322
 20
261.665215
 30
0.0
 10
135.441553
 20
261.571447
 30
0.0
  0
SPLINE
  5
2bf
100
AcDbEntity
  8
Layer_1
 62
1
100
AcDbSpline
 70
8
 71
3
 72
8
 73
4
 74
0
 40
0
 40
0
 40
0
 40
0
 40
1
 40
1
 40
1
 40
1
 10
135.441553
 20
261.571447
 30
0.0
 10
135.347785
 20
261.477678
 30
0.0
 10
135.220608
 20
261.425000
 30
0.0
 10
135.088000
 20
261.425000
 30
0.0
  0
LINE
  5
2c0
100
AcDbEntity
  8
Layer_1
 62
1
100
AcDbLine
 10
135.088000
 20
261.425000
 30
0.0
 11
122.088000
 21
261.425000
 31
0.0
  0
SPLINE
  5
2c1
100
AcDbEntity
  8
Layer_1
 62
1
100
AcDbSpline
 70
8
 71
3
 72
8
 73
4
 74
0
 40
0
 40
0
 40
0
 40
0
 40
1
 40
1
 40
1
 40
1
 10
122.088000
 20
261.425000
 30
0.0
 10
121.955392
 20
261.425000
 30
0.0
 10
121.828215
 20
261.477678
 30
0.0
 10
121.734447
 20
261.571447
 30
0.0
  0
SPLINE
  5
2c2
100
AcDbEntity
  8
Layer_1
 62
1
100
AcDbSpline
 70
8
 71
3
 72
8
 73
4
 74
0
 40
0
 40
0
 40
0
 40
0
 40
1
 40
1
 40
1
 40
1
 10
121.734447
 20
261.571447
 30
0.0
 10
121.640678
 20
261.665215
 30
0.0
 10
121.588000
 20
261.792392
 30
0.0
 10
121.588000
 20
261.925000
 30
0.0
  0
LINE
  5
2c3
100
AcDbEntity
  8
Layer_1
 62
1
100
AcDbLine
 10
121.588000
 20
261.925000
 30
0.0
 11
121.588000
 21
274.925000
 31
0.0
  0
SPLINE
  5
2c4
100
AcDbEntity
  8
Layer_1
 62
1
100
AcDbSpline
 70
8
 71
3
 72
8
 73
4
 74
0
 40
0
 40
0
 40
0
 40
0
 40
1
 40
1
 40
1
 40
1
 10
121.588000
 20
274.925000
 30
0.0
 10
121.588000
 20
275.057608
 30
0.0
 10
121.640678
 20
275.184785
 30
0.0
 10
121.734447
 20
275.278553
 30
0.0
  0
SPLINE
  5
2c5
100
AcDbEntity
  8
Layer_1
 62
1
100
AcDbSpline
 70
8
 71
3
 72
8
 73
4
 74
0
 40
0
 40
0
 40
0
 40
0
 40
1
 40
1
 40
1
 40
1
 10
121.734447
 20
275.278553
 30
0.0
 10
121.828215
 20
275.372322
 30
0.0
 10
121.955392
 20
275.425000
 30
0.0
 10
122.088000
 20
275.425000
 30
0.0
  0
LINE
  5
2c6
100
AcDbEntity
  8
Layer_1
 62
1
100
AcDbLine
 10
122.088000
 20
275.425000
 30
0.0
 11
122.088000
 21
275.425000
 31
0.0
  0
LINE
  5
2c7
100
AcDbEntity
  8
Layer_1
 62
1
100
AcDbLine
 10
103.038000
 20
275.425000
 30
0.0
 11
116.038000
 21
275.425000
 31
0.0
  0
SPLINE
  5
2c8
100
AcDbEntity
  8
Layer_1
 62
1
100
AcDbSpline
 70
8
 71
3
 72
8
 73
4
 74
0
 40
0
 40
0
 40
0
 40
0
 40
1
 40
1
 40
1
 40
1
 10
116.038000
 20
275.425000
 30
0.0
 10
116.170608
 20
275.425000
 30
0.0
 10
116.297785
 20
275.372322
 30
0.0
 10
116.391553
 20
275.278553
 30
0.0
  0
SPLINE
  5
2c9
100
AcDbEntity
  8
Layer_1
 62
1
100
AcDbSpline
 70
8
 71
3
 72
8
 73
4
 74
0
 40
0
 40
0
 40
0
 40
0
 40
1
 40
1
 40
1
 40
1
 10
116.391553
 20
275.278553
 30
0.0
 10
116.485322
 20
275.184785
 30
0.0
 10
116.538000
 20
275.057608
 30
0.0
 10
116.538000
 20
274.925000
 30
0.0
  0
LINE
  5
2ca
100
AcDbEntity
  8
Layer_1
 62
1
100
AcDbLine
 10
116.538000
 20
274.925000
 30
0.0
 11
116.538000
 21
261.925000
 31
0.0
  0
SPLINE
  5
2cb
100
AcDbEntity
  8
Layer_1
 62
1
100
AcDbSpline
 70
8
 71
3
 72
8
 73
4
 74
0
 40
0
 40
0
 40
0
 40
0
 40
1
 40
1
 40
1
 40
1
 10
116.538000
 20
261.925000
 30
0.0
 10
116.538000
 20
261.792392
 30
0.0
 10
116.485322
 20
261.665215
 30
0.0
 10
116.391553
 20
261.571447
 30
0.0
  0
SPLINE
  5
2cc
100
AcDbEntity
  8
Layer_1
 62
1
100
AcDbSpline
 70
8
 71
3
 72
8
 73
4
 74
0
 40
0
 40
0
 40
0
 40
0
 40
1
 40
1
 40
1
 40
1
 10
116.391553
 20
261.571447
 30
0.0
 10
116.297785
 20
261.477678
 30
0.0
 10
116.170608
 20
261.425000
 30
0.0
 10
116.038000
 20
261.425000
 30
0.0
  0
LINE
  5
2cd
100
AcDbEntity
  8
Layer_1
 62
1
100
AcDbLine
 10
116.038000
 20
261.425000
 30
0.0
 11
103.038000
 21
261.425000
 31
0.0
  0
SPLINE
  5
2ce
100
AcDbEntity
  8
Layer_1
 62
1
100
AcDbSpline
 70
8
 71
3
 72
8
 73
4
 74
0
 40
0
 40
0
 40
0
 40
0
 40
1
 40
1
 40
1
 40
1
 10
103.038000
 20
261.425000
 30
0.0
 10
102.905392
 20
261.425000
 30
0.0
 10
102.778215
 20
261.477678
 30
0.0
 10
102.684447
 20
261.571447
 30
0.0
  0
SPLINE
  5
2cf
100
AcDbEntity
  8
Layer_1
 62
1
100
AcDbSpline
 70
8
 71
3
 72
8
 73
4
 74
0
 40
0
 40
0
 40
0
 40
0
 40
1
 40
1
 40
1
 40
1
 10
102.684447
 20
261.571447
 30
0.0
 10
102.590678
 20
261.665215
 30
0.0
 10
102.538000
 20
261.792392
 30
0.0
 10
102.538000
 20
261.925000
 30
0.0
  0
LINE
  5
2d0
100
AcDbEntity
  8
Layer_1
 62
1
100
AcDbLine
 10
102.538000
 20
261.925000
 30
0.0
 11
102.538000
 21
274.925000
 31
0.0
  0
SPLINE
  5
2d1
100
AcDbEntity
  8
Layer_1
 62
1
100
AcDbSpline
 70
8
 71
3
 72
8
 73
4
 74
0
 40
0
 40
0
 40
0
 40
0
 40
1
 40
1
 40
1
 40
1
 10
102.538000
 20
274.925000
 30
0.0
 10
102.538000
 20
275.057608
 30
0.0
 10
102.590678
 20
275.184785
 30
0.0
 10
102.684447
 20
275.278553
 30
0.0
  0
SPLINE
  5
2d2
100
AcDbEntity
  8
Layer_1
 62
1
100
AcDbSpline
 70
8
 71
3
 72
8
 73
4
 74
0
 40
0
 40
0
 40
0
 40
0
 40
1
 40
1
 40
1
 40
1
 10
102.684447
 20
275.278553
 30
0.0
 10
102.778215
 20
275.372322
 30
0.0
 10
102.905392
 20
275.425000
 30
0.0
 10
103.038000
 20
275.425000
 30
0.0
  0
LINE
  5
2d3
100
AcDbEntity
  8
Layer_1
 62
1
100
AcDbLine
 10
103.038000
 20
275.425000
 30
0.0
 11
103.038000
 21
275.425000
 31
0.0
  0
LINE
  5
2d4
100
AcDbEntity
  8
Layer_1
 62
1
100
AcDbLine
 10
83.988000
 20
275.425000
 30
0.0
 11
96.988000
 21
275.425000
 31
0.0
  0
SPLINE
  5
2d5
100
AcDbEntity
  8
Layer_1
 62
1
100
AcDbSpline
 70
8
 71
3
 72
8
 73
4
 74
0
 40
0
 40
0
 40
0
 40
0
 40
1
 40
1
 40
1
 40
1
 10
96.988000
 20
275.425000
 30
0.0
 10
97.120608
 20
275.425000
 30
0.0
 10
97.247785
 20
275.372322
 30
0.0
 10
97.341553
 20
275.278553
 30
0.0
  0
SPLINE
  5
2d6
100
AcDbEntity
  8
Layer_1
 62
1
100
AcDbSpline
 70
8
 71
3
 72
8
 73
4
 74
0
 40
0
 40
0
 40
0
 40
0
 40
1
 40
1
 40
1
 40
1
 10
97.341553
 20
275.278553
 30
0.0
 10
97.435322
 20
275.184785
 30
0.0
 10
97.488000
 20
275.057608
 30
0.0
 10
97.488000
 20
274.925000
 30
0.0
  0
LINE
  5
2d7
100
AcDbEntity
  8
Layer_1
 62
1
100
AcDbLine
 10
97.488000
 20
274.925000
 30
0.0
 11
97.488000
 21
261.925000
 31
0.0
  0
SPLINE
  5
2d8
100
AcDbEntity
  8
Layer_1
 62
1
100
AcDbSpline
 70
8
 71
3
 72
8
 73
4
 74
0
 40
0
 40
0
 40
0
 40
0
 40
1
 40
1
 40
1
 40
1
 10
97.488000
 20
261.925000
 30
0.0
 10
97.488000
 20
261.792392
 30
0.0
 10
97.435322
 20
261.665215
 30
0.0
 10
97.341553
 20
261.571447
 30
0.0
  0
SPLINE
  5
2d9
100
AcDbEntity
  8
Layer_1
 62
1
100
AcDbSpline
 70
8
 71
3
 72
8
 73
4
 74
0
 40
0
 40
0
 40
0
 40
0
 40
1
 40
1
 40
1
 40
1
 10
97.341553
 20
261.571447
 30
0.0
 10
97.247785
 20
261.477678
 30
0.0
 10
97.120608
 20
261.425000
 30
0.0
 10
96.988000
 20
261.425000
 30
0.0
  0
LINE
  5
2da
100
AcDbEntity
  8
Layer_1
 62
1
100
AcDbLine
 10
96.988000
 20
261.425000
 30
0.0
 11
83.988000
 21
261.425000
 31
0.0
  0
SPLINE
  5
2db
100
AcDbEntity
  8
Layer_1
 62
1
100
AcDbSpline
 70
8
 71
3
 72
8
 73
4
 74
0
 40
0
 40
0
 40
0
 40
0
 40
1
 40
1
 40
1
 40
1
 10
83.988000
 20
261.425000
 30
0.0
 10
83.855392
 20
261.425000
 30
0.0
 10
83.728215
 20
261.477678
 30
0.0
 10
83.634447
 20
261.571447
 30
0.0
  0
SPLINE
  5
2dc
100
AcDbEntity
  8
Layer_1
 62
1
100
AcDbSpline
 70
8
 71
3
 72
8
 73
4
 74
0
 40
0
 40
0
 40
0
 40
0
 40
1
 40
1
 40
1
 40
1
 10
83.634447
 20
261.571447
 30
0.0
 10
83.540678
 20
261.665215
 30
0.0
 10
83.488000
 20
261.792392
 30
0.0
 10
83.488000
 20
261.925000
 30
0.0
  0
LINE
  5
2dd
100
AcDbEntity
  8
Layer_1
 62
1
100
AcDbLine
 10
83.488000
 20
261.925000
 30
0.0
 11
83.488000
 21
274.925000
 31
0.0
  0
SPLINE
  5
2de
100
AcDbEntity
  8
Layer_1
 62
1
100
AcDbSpline
 70
8
 71
3
 72
8
 73
4
 74
0
 40
0
 40
0
 40
0
 40
0
 40
1
 40
1
 40
1
 40
1
 10
83.488000
 20
274.925000
 30
0.0
 10
83.488000
 20
275.057608
 30
0.0
 10
83.540678
 20
275.184785
 30
0.0
 10
83.634447
 20
275.278553
 30
0.0
  0
SPLINE
  5
2df
100
AcDbEntity
  8
Layer_1
 62
1
100
AcDbSpline
 70
8
 71
3
 72
8
 73
4
 74
0
 40
0
 40
0
 40
0
 40
0
 40
1
 40
1
 40
1
 40
1
 10
83.634447
 20
275.278553
 30
0.0
 10
83.728215
 20
275.372322
 30
0.0
 10
83.855392
 20
275.425000
 30
0.0
 10
83.988000
 20
275.425000
 30
0.0
  0
LINE
  5
2e0
100
AcDbEntity
  8
Layer_1
 62
1
100
AcDbLine
 10
83.988000
 20
275.425000
 30
0.0
 11
83.988000
 21
275.425000
 31
0.0
  0
LINE
  5
2e1
100
AcDbEntity
  8
Layer_1
 62
1
100
AcDbLine
 10
64.938000
 20
275.425000
 30
0.0
 11
77.938000
 21
275.425000
 31
0.0
  0
SPLINE
  5
2e2
100
AcDbEntity
  8
Layer_1
 62
1
100
AcDbSpline
 70
8
 71
3
 72
8
 73
4
 74
0
 40
0
 40
0
 40
0
 40
0
 40
1
 40
1
 40
1
 40
1
 10
77.938000
 20
275.425000
 30
0.0
 10
78.070608
 20
275.425000
 30
0.0
 10
78.197785
 20
275.372322
 30
0.0
 10
78.291553
 20
275.278553
 30
0.0
  0
SPLINE
  5
2e3
100
AcDbEntity
  8
Layer_1
 62
1
100
AcDbSpline
 70
8
 71
3
 72
8
 73
4
 74
0
 40
0
 40
0
 40
0
 40
0
 40
1
 40
1
 40
1
 40
1
 10
78.291553
 20
275.278553
 30
0.0
 10
78.385322
 20
275.184785
 30
0.0
 10
78.438000
 20
275.057608
 30
0.0
 10
78.438000
 20
274.925000
 30
0.0
  0
LINE
  5
2e4
100
AcDbEntity
  8
Layer_1
 62
1
100
AcDbLine
 10
78.438000
 20
274.925000
 30
0.0
 11
78.438000
 21
261.925000
 31
0.0
  0
SPLINE
  5
2e5
100
AcDbEntity
  8
Layer_1
 62
1
100
AcDbSpline
 70
8
 71
3
 72
8
 73
4
 74
0
 40
0
 40
0
 40
0
 40
0
 40
1
 40
1
 40
1
 40
1
 10
78.438000
 20
261.925000
 30
0.0
 10
78.438000
 20
261.792392
 30
0.0
 10
78.385322
 20
261.665215
 30
0.0
 10
78.291553
 20
261.571447
 30
0.0
  0
SPLINE
  5
2e6
100
AcDbEntity
  8
Layer_1
 62
1
100
AcDbSpline
 70
8
 71
3
 72
8
 73
4
 74
0
 40
0
 40
0
 40
0
 40
0
 40
1
 40
1
 40
1
 40
1
 10
78.291553
 20
261.571447
 30
0.0
 10
78.197785
 20
261.477678
 30
0.0
 10
78.070608
 20
261.425000
 30
0.0
 10
77.938000
 20
261.425000
 30
0.0
  0
LINE
  5
2e7
100
AcDbEntity
  8
Layer_1
 62
1
100
AcDbLine
 10
77.938000
 20
261.425000
 30
0.0
 11
64.938000
 21
261.425000
 31
0.0
  0
SPLINE
  5
2e8
100
AcDbEntity
  8
Layer_1
 62
1
100
AcDbSpline
 70
8
 71
3
 72
8
 73
4
 74
0
 40
0
 40
0
 40
0
 40
0
 40
1
 40
1
 40
1
 40
1
 10
64.938000
 20
261.425000
 30
0.0
 10
64.805392
 20
261.425000
 30
0.0
 10
64.678215
 20
261.477678
 30
0.0
 10
64.584447
 20
261.571447
 30
0.0
  0
SPLINE
  5
2e9
100
AcDbEntity
  8
Layer_1
 62
1
100
AcDbSpline
 70
8
 71
3
 72
8
 73
4
 74
0
 40
0
 40
0
 40
0
 40
0
 40
1
 40
1
 40
1
 40
1
 10
64.584447
 20
261.571447
 30
0.0
 10
64.490678
 20
261.665215
 30
0.0
 10
64.438000
 20
261.792392
 30
0.0
 10
64.438000
 20
261.925000
 30
0.0
  0
LINE
  5
2ea
100
AcDbEntity
  8
Layer_1
 62
1
100
AcDbLine
 10
64.438000
 20
261.925000
 30
0.0
 11
64.438000
 21
274.925000
 31
0.0
  0
SPLINE
  5
2eb
100
AcDbEntity
  8
Layer_1
 62
1
100
AcDbSpline
 70
8
 71
3
 72
8
 73
4
 74
0
 40
0
 40
0
 40
0
 40
0
 40
1
 40
1
 40
1
 40
1
 10
64.438000
 20
274.925000
 30
0.0
 10
64.438000
 20
275.057608
 30
0.0
 10
64.490678
 20
275.184785
 30
0.0
 10
64.584447
 20
275.278553
 30
0.0
  0
SPLINE
  5
2ec
100
AcDbEntity
  8
Layer_1
 62
1
100
AcDbSpline
 70
8
 71
3
 72
8
 73
4
 74
0
 40
0
 40
0
 40
0
 40
0
 40
1
 40
1
 40
1
 40
1
 10
64.584447
 20
275.278553
 30
0.0
 10
64.678215
 20
275.372322
 30
0.0
 10
64.805392
 20
275.425000
 30
0.0
 10
64.938000
 20
275.425000
 30
0.0
  0
LINE
  5
2ed
100
AcDbEntity
  8
Layer_1
 62
1
100
AcDbLine
 10
64.938000
 20
275.425000
 30
0.0
 11
64.938000
 21
275.425000
 31
0.0
  0
LINE
  5
2ee
100
AcDbEntity
  8
Layer_1
 62
1
100
AcDbLine
 10
45.888000
 20
275.425000
 30
0.0
 11
58.888000
 21
275.425000
 31
0.0
  0
SPLINE
  5
2ef
100
AcDbEntity
  8
Layer_1
 62
1
100
AcDbSpline
 70
8
 71
3
 72
8
 73
4
 74
0
 40
0
 40
0
 40
0
 40
0
 40
1
 40
1
 40
1
 40
1
 10
58.888000
 20
275.425000
 30
0.0
 10
59.020608
 20
275.425000
 30
0.0
 10
59.147785
 20
275.372322
 30
0.0
 10
59.241553
 20
275.278553
 30
0.0
  0
SPLINE
  5
2f0
100
AcDbEntity
  8
Layer_1
 62
1
100
AcDbSpline
 70
8
 71
3
 72
8
 73
4
 74
0
 40
0
 40
0
 40
0
 40
0
 40
1
 40
1
 40
1
 40
1
 10
59.241553
 20
275.278553
 30
0.0
 10
59.335322
 20
275.184785
 30
0.0
 10
59.388000
 20
275.057608
 30
0.0
 10
59.388000
 20
274.925000
 30
0.0
  0
LINE
  5
2f1
100
AcDbEntity
  8
Layer_1
 62
1
100
AcDbLine
 10
59.388000
 20
274.925000
 30
0.0
 11
59.388000
 21
261.925000
 31
0.0
  0
SPLINE
  5
2f2
100
AcDbEntity
  8
Layer_1
 62
1
100
AcDbSpline
 70
8
 71
3
 72
8
 73
4
 74
0
 40
0
 40
0
 40
0
 40
0
 40
1
 40
1
 40
1
 40
1
 10
59.388000
 20
261.925000
 30
0.0
 10
59.388000
 20
261.792392
 30
0.0
 10
59.335322
 20
261.665215
 30
0.0
 10
59.241553
 20
261.571447
 30
0.0
  0
SPLINE
  5
2f3
100
AcDbEntity
  8
Layer_1
 62
1
100
AcDbSpline
 70
8
 71
3
 72
8
 73
4
 74
0
 40
0
 40
0
 40
0
 40
0
 40
1
 40
1
 40
1
 40
1
 10
59.241553
 20
261.571447
 30
0.0
 10
59.147785
 20
261.477678
 30
0.0
 10
59.020608
 20
261.425000
 30
0.0
 10
58.888000
 20
261.425000
 30
0.0
  0
LINE
  5
2f4
100
AcDbEntity
  8
Layer_1
 62
1
100
AcDbLine
 10
58.888000
 20
261.425000
 30
0.0
 11
45.888000
 21
261.425000
 31
0.0
  0
SPLINE
  5
2f5
100
AcDbEntity
  8
Layer_1
 62
1
100
AcDbSpline
 70
8
 71
3
 72
8
 73
4
 74
0
 40
0
 40
0
 40
0
 40
0
 40
1
 40
1
 40
1
 40
1
 10
45.888000
 20
261.425000
 30
0.0
 10
45.755392
 20
261.425000
 30
0.0
 10
45.628215
 20
261.477678
 30
0.0
 10
45.534447
 20
261.571447
 30
0.0
  0
SPLINE
  5
2f6
100
AcDbEntity
  8
Layer_1
 62
1
100
AcDbSpline
 70
8
 71
3
 72
8
 73
4
 74
0
 40
0
 40
0
 40
0
 40
0
 40
1
 40
1
 40
1
 40
1
 10
45.534447
 20
261.571447
 30
0.0
 10
45.440678
 20
261.665215
 30
0.0
 10
45.388000
 20
261.792392
 30
0.0
 10
45.388000
 20
261.925000
 30
0.0
  0
LINE
  5
2f7
100
AcDbEntity
  8
Layer_1
 62
1
100
AcDbLine
 10
45.388000
 20
261.925000
 30
0.0
 11
45.388000
 21
274.925000
 31
0.0
  0
SPLINE
  5
2f8
100
AcDbEntity
  8
Layer_1
 62
1
100
AcDbSpline
 70
8
 71
3
 72
8
 73
4
 74
0
 40
0
 40
0
 40
0
 40
0
 40
1
 40
1
 40
1
 40
1
 10
45.388000
 20
274.925000
 30
0.0
 10
45.388000
 20
275.057608
 30
0.0
 10
45.440678
 20
275.184785
 30
0.0
 10
45.534447
 20
275.278553
 30
0.0
  0
SPLINE
  5
2f9
100
AcDbEntity
  8
Layer_1
 62
1
100
AcDbSpline
 70
8
 71
3
 72
8
 73
4
 74
0
 40
0
 40
0
 40
0
 40
0
 40
1
 40
1
 40
1
 40
1
 10
45.534447
 20
275.278553
 30
0.0
 10
45.628215
 20
275.372322
 30
0.0
 10
45.755392
 20
275.425000
 30
0.0
 10
45.888000
 20
275.425000
 30
0.0
  0
LINE
  5
2fa
100
AcDbEntity
  8
Layer_1
 62
1
100
AcDbLine
 10
45.888000
 20
275.425000
 30
0.0
 11
45.888000
 21
275.425000
 31
0.0
  0
LINE
  5
2fb
100
AcDbEntity
  8
Layer_1
 62
1
100
AcDbLine
 10
26.838000
 20
275.425000
 30
0.0
 11
39.838000
 21
275.425000
 31
0.0
  0
SPLINE
  5
2fc
100
AcDbEntity
  8
Layer_1
 62
1
100
AcDbSpline
 70
8
 71
3
 72
8
 73
4
 74
0
 40
0
 40
0
 40
0
 40
0
 40
1
 40
1
 40
1
 40
1
 10
39.838000
 20
275.425000
 30
0.0
 10
39.970608
 20
275.425000
 30
0.0
 10
40.097785
 20
275.372322
 30
0.0
 10
40.191553
 20
275.278553
 30
0.0
  0
SPLINE
  5
2fd
100
AcDbEntity
  8
Layer_1
 62
1
100
AcDbSpline
 70
8
 71
3
 72
8
 73
4
 74
0
 40
0
 40
0
 40
0
 40
0
 40
1
 40
1
 40
1
 40
1
 10
40.191553
 20
275.278553
 30
0.0
 10
40.285322
 20
275.184785
 30
0.0
 10
40.338000
 20
275.057608
 30
0.0
 10
40.338000
 20
274.925000
 30
0.0
  0
LINE
  5
2fe
100
AcDbEntity
  8
Layer_1
 62
1
100
AcDbLine
 10
40.338000
 20
274.925000
 30
0.0
 11
40.338000
 21
261.925000
 31
0.0
  0
SPLINE
  5
2ff
100
AcDbEntity
  8
Layer_1
 62
1
100
AcDbSpline
 70
8
 71
3
 72
8
 73
4
 74
0
 40
0
 40
0
 40
0
 40
0
 40
1
 40
1
 40
1
 40
1
 10
40.338000
 20
261.925000
 30
0.0
 10
40.338000
 20
261.792392
 30
0.0
 10
40.285322
 20
261.665215
 30
0.0
 10
40.191553
 20
261.571447
 30
0.0
  0
SPLINE
  5
300
100
AcDbEntity
  8
Layer_1
 62
1
100
AcDbSpline
 70
8
 71
3
 72
8
 73
4
 74
0
 40
0
 40
0
 40
0
 40
0
 40
1
 40
1
 40
1
 40
1
 10
40.191553
 20
261.571447
 30
0.0
 10
40.097785
 20
261.477678
 30
0.0
 10
39.970608
 20
261.425000
 30
0.0
 10
39.838000
 20
261.425000
 30
0.0
  0
LINE
  5
301
100
AcDbEntity
  8
Layer_1
 62
1
100
AcDbLine
 10
39.838000
 20
261.425000
 30
0.0
 11
26.838000
 21
261.425000
 31
0.0
  0
SPLINE
  5
302
100
AcDbEntity
  8
Layer_1
 62
1
100
AcDbSpline
 70
8
 71
3
 72
8
 73
4
 74
0
 40
0
 40
0
 40
0
 40
0
 40
1
 40
1
 40
1
 40
1
 10
26.838000
 20
261.425000
 30
0.0
 10
26.705392
 20
261.425000
 30
0.0
 10
26.578215
 20
261.477678
 30
0.0
 10
26.484447
 20
261.571447
 30
0.0
  0
SPLINE
  5
303
100
AcDbEntity
  8
Layer_1
 62
1
100
AcDbSpline
 70
8
 71
3
 72
8
 73
4
 74
0
 40
0
 40
0
 40
0
 40
0
 40
1
 40
1
 40
1
 40
1
 10
26.484447
 20
261.571447
 30
0.0
 10
26.390678
 20
261.665215
 30
0.0
 10
26.338000
 20
261.792392
 30
0.0
 10
26.338000
 20
261.925000
 30
0.0
  0
LINE
  5
304
100
AcDbEntity
  8
Layer_1
 62
1
100
AcDbLine
 10
26.338000
 20
261.925000
 30
0.0
 11
26.338000
 21
274.925000
 31
0.0
  0
SPLINE
  5
305
100
AcDbEntity
  8
Layer_1
 62
1
100
AcDbSpline
 70
8
 71
3
 72
8
 73
4
 74
0
 40
0
 40
0
 40
0
 40
0
 40
1
 40
1
 40
1
 40
1
 10
26.338000
 20
274.925000
 30
0.0
 10
26.338000
 20
275.057608
 30
0.0
 10
26.390678
 20
275.184785
 30
0.0
 10
26.484447
 20
275.278553
 30
0.0
  0
SPLINE
  5
306
100
AcDbEntity
  8
Layer_1
 62
1
100
AcDbSpline
 70
8
 71
3
 72
8
 73
4
 74
0
 40
0
 40
0
 40
0
 40
0
 40
1
 40
1
 40
1
 40
1
 10
26.484447
 20
275.278553
 30
0.0
 10
26.578215
 20
275.372322
 30
0.0
 10
26.705392
 20
275.425000
 30
0.0
 10
26.838000
 20
275.425000
 30
0.0
  0
LINE
  5
307
100
AcDbEntity
  8
Layer_1
 62
1
100
AcDbLine
 10
26.838000
 20
275.425000
 30
0.0
 11
26.838000
 21
275.425000
 31
0.0
  0
LINE
  5
308
100
AcDbEntity
  8
Layer_1
 62
1
100
AcDbLine
 10
5.406000
 20
275.425000
 30
0.0
 11
18.406000
 21
275.425000
 31
0.0
  0
SPLINE
  5
309
100
AcDbEntity
  8
Layer_1
 62
1
100
AcDbSpline
 70
8
 71
3
 72
8
 73
4
 74
0
 40
0
 40
0
 40
0
 40
0
 40
1
 40
1
 40
1
 40
1
 10
18.406000
 20
275.425000
 30
0.0
 10
18.538608
 20
275.425000
 30
0.0
 10
18.665785
 20
275.372322
 30
0.0
 10
18.759553
 20
275.278553
 30
0.0
  0
SPLINE
  5
30a
100
AcDbEntity
  8
Layer_1
 62
1
100
AcDbSpline
 70
8
 71
3
 72
8
 73
4
 74
0
 40
0
 40
0
 40
0
 40
0
 40
1
 40
1
 40
1
 40
1
 10
18.759553
 20
275.278553
 30
0.0
 10
18.853322
 20
275.184785
 30
0.0
 10
18.906000
 20
275.057608
 30
0.0
 10
18.906000
 20
274.925000
 30
0.0
  0
LINE
  5
30b
100
AcDbEntity
  8
Layer_1
 62
1
100
AcDbLine
 10
18.906000
 20
274.925000
 30
0.0
 11
18.906000
 21
261.925000
 31
0.0
  0
SPLINE
  5
30c
100
AcDbEntity
  8
Layer_1
 62
1
100
AcDbSpline
 70
8
 71
3
 72
8
 73
4
 74
0
 40
0
 40
0
 40
0
 40
0
 40
1
 40
1
 40
1
 40
1
 10
18.906000
 20
261.925000
 30
0.0
 10
18.906000
 20
261.792392
 30
0.0
 10
18.853322
 20
261.665215
 30
0.0
 10
18.759553
 20
261.571447
 30
0.0
  0
SPLINE
  5
30d
100
AcDbEntity
  8
Layer_1
 62
1
100
AcDbSpline
 70
8
 71
3
 72
8
 73
4
 74
0
 40
0
 40
0
 40
0
 40
0
 40
1
 40
1
 40
1
 40
1
 10
18.759553
 20
261.571447
 30
0.0
 10
18.665785
 20
261.477678
 30
0.0
 10
18.538608
 20
261.425000
 30
0.0
 10
18.406000
 20
261.425000
 30
0.0
  0
LINE
  5
30e
100
AcDbEntity
  8
Layer_1
 62
1
100
AcDbLine
 10
18.406000
 20
261.425000
 30
0.0
 11
5.406000
 21
261.425000
 31
0.0
  0
SPLINE
  5
30f
100
AcDbEntity
  8
Layer_1
 62
1
100
AcDbSpline
 70
8
 71
3
 72
8
 73
4
 74
0
 40
0
 40
0
 40
0
 40
0
 40
1
 40
1
 40
1
 40
1
 10
5.406000
 20
261.425000
 30
0.0
 10
5.273392
 20
261.425000
 30
0.0
 10
5.146215
 20
261.477678
 30
0.0
 10
5.052447
 20
261.571447
 30
0.0
  0
SPLINE
  5
310
100
AcDbEntity
  8
Layer_1
 62
1
100
AcDbSpline
 70
8
 71
3
 72
8
 73
4
 74
0
 40
0
 40
0
 40
0
 40
0
 40
1
 40
1
 40
1
 40
1
 10
5.052447
 20
261.571447
 30
0.0
 10
4.958678
 20
261.665215
 30
0.0
 10
4.906000
 20
261.792392
 30
0.0
 10
4.906000
 20
261.925000
 30
0.0
  0
LINE
  5
311
100
AcDbEntity
  8
Layer_1
 62
1
100
AcDbLine
 10
4.906000
 20
261.925000
 30
0.0
 11
4.906000
 21
274.925000
 31
0.0
  0
SPLINE
  5
312
100
AcDbEntity
  8
Layer_1
 62
1
100
AcDbSpline
 70
8
 71
3
 72
8
 73
4
 74
0
 40
0
 40
0
 40
0
 40
0
 40
1
 40
1
 40
1
 40
1
 10
4.906000
 20
274.925000
 30
0.0
 10
4.906000
 20
275.057608
 30
0.0
 10
4.958678
 20
275.184785
 30
0.0
 10
5.052447
 20
275.278553
 30
0.0
  0
SPLINE
  5
313
100
AcDbEntity
  8
Layer_1
 62
1
100
AcDbSpline
 70
8
 71
3
 72
8
 73
4
 74
0
 40
0
 40
0
 40
0
 40
0
 40
1
 40
1
 40
1
 40
1
 10
5.052447
 20
275.278553
 30
0.0
 10
5.146215
 20
275.372322
 30
0.0
 10
5.273392
 20
275.425000
 30
0.0
 10
5.406000
 20
275.425000
 30
0.0
  0
LINE
  5
314
100
AcDbEntity
  8
Layer_1
 62
1
100
AcDbLine
 10
5.406000
 20
275.425000
 30
0.0
 11
5.406000
 21
275.425000
 31
0.0
  0
LINE
  5
315
100
AcDbEntity
  8
Layer_1
 62
1
100
AcDbLine
 10
22.075000
 20
294.475000
 30
0.0
 11
35.075000
 21
294.475000
 31
0.0
  0
SPLINE
  5
316
100
AcDbEntity
  8
Layer_1
 62
1
100
AcDbSpline
 70
8
 71
3
 72
8
 73
4
 74
0
 40
0
 40
0
 40
0
 40
0
 40
1
 40
1
 40
1
 40
1
 10
35.075000
 20
294.475000
 30
0.0
 10
35.207608
 20
294.475000
 30
0.0
 10
35.334785
 20
294.422322
 30
0.0
 10
35.428553
 20
294.328553
 30
0.0
  0
SPLINE
  5
317
100
AcDbEntity
  8
Layer_1
 62
1
100
AcDbSpline
 70
8
 71
3
 72
8
 73
4
 74
0
 40
0
 40
0
 40
0
 40
0
 40
1
 40
1
 40
1
 40
1
 10
35.428553
 20
294.328553
 30
0.0
 10
35.522322
 20
294.234785
 30
0.0
 10
35.575000
 20
294.107608
 30
0.0
 10
35.575000
 20
293.975000
 30
0.0
  0
LINE
  5
318
100
AcDbEntity
  8
Layer_1
 62
1
100
AcDbLine
 10
35.575000
 20
293.975000
 30
0.0
 11
35.575000
 21
280.975000
 31
0.0
  0
SPLINE
  5
319
100
AcDbEntity
  8
Layer_1
 62
1
100
AcDbSpline
 70
8
 71
3
 72
8
 73
4
 74
0
 40
0
 40
0
 40
0
 40
0
 40
1
 40
1
 40
1
 40
1
 10
35.575000
 20
280.975000
 30
0.0
 10
35.575000
 20
280.842392
 30
0.0
 10
35.522322
 20
280.715215
 30
0.0
 10
35.428553
 20
280.621447
 30
0.0
  0
SPLINE
  5
31a
100
AcDbEntity
  8
Layer_1
 62
1
100
AcDbSpline
 70
8
 71
3
 72
8
 73
4
 74
0
 40
0
 40
0
 40
0
 40
0
 40
1
 40
1
 40
1
 40
1
 10
35.428553
 20
280.621447
 30
0.0
 10
35.334785
 20
280.527678
 30
0.0
 10
35.207608
 20
280.475000
 30
0.0
 10
35.075000
 20
280.475000
 30
0.0
  0
LINE
  5
31b
100
AcDbEntity
  8
Layer_1
 62
1
100
AcDbLine
 10
35.075000
 20
280.475000
 30
0.0
 11
22.075000
 21
280.475000
 31
0.0
  0
SPLINE
  5
31c
100
AcDbEntity
  8
Layer_1
 62
1
100
AcDbSpline
 70
8
 71
3
 72
8
 73
4
 74
0
 40
0
 40
0
 40
0
 40
0
 40
1
 40
1
 40
1
 40
1
 10
22.075000
 20
280.475000
 30
0.0
 10
21.942392
 20
280.475000
 30
0.0
 10
21.815215
 20
280.527678
 30
0.0
 10
21.721447
 20
280.621447
 30
0.0
  0
SPLINE
  5
31d
100
AcDbEntity
  8
Layer_1
 62
1
100
AcDbSpline
 70
8
 71
3
 72
8
 73
4
 74
0
 40
0
 40
0
 40
0
 40
0
 40
1
 40
1
 40
1
 40
1
 10
21.721447
 20
280.621447
 30
0.0
 10
21.627678
 20
280.715215
 30
0.0
 10
21.575000
 20
280.842392
 30
0.0
 10
21.575000
 20
280.975000
 30
0.0
  0
LINE
  5
31e
100
AcDbEntity
  8
Layer_1
 62
1
100
AcDbLine
 10
21.575000
 20
280.975000
 30
0.0
 11
21.575000
 21
293.975000
 31
0.0
  0
SPLINE
  5
31f
100
AcDbEntity
  8
Layer_1
 62
1
100
AcDbSpline
 70
8
 71
3
 72
8
 73
4
 74
0
 40
0
 40
0
 40
0
 40
0
 40
1
 40
1
 40
1
 40
1
 10
21.575000
 20
293.975000
 30
0.0
 10
21.575000
 20
294.107608
 30
0.0
 10
21.627678
 20
294.234785
 30
0.0
 10
21.721447
 20
294.328553
 30
0.0
  0
SPLINE
  5
320
100
AcDbEntity
  8
Layer_1
 62
1
100
AcDbSpline
 70
8
 71
3
 72
8
 73
4
 74
0
 40
0
 40
0
 40
0
 40
0
 40
1
 40
1
 40
1
 40
1
 10
21.721447
 20
294.328553
 30
0.0
 10
21.815215
 20
294.422322
 30
0.0
 10
21.942392
 20
294.475000
 30
0.0
 10
22.075000
 20
294.475000
 30
0.0
  0
LINE
  5
321
100
AcDbEntity
  8
Layer_1
 62
1
100
AcDbLine
 10
22.075000
 20
294.475000
 30
0.0
 11
22.075000
 21
294.475000
 31
0.0
  0
LINE
  5
322
100
AcDbEntity
  8
Layer_1
 62
1
100
AcDbLine
 10
245.913000
 20
237.325000
 30
0.0
 11
258.913000
 21
237.325000
 31
0.0
  0
SPLINE
  5
323
100
AcDbEntity
  8
Layer_1
 62
1
100
AcDbSpline
 70
8
 71
3
 72
8
 73
4
 74
0
 40
0
 40
0
 40
0
 40
0
 40
1
 40
1
 40
1
 40
1
 10
258.913000
 20
237.325000
 30
0.0
 10
259.045608
 20
237.325000
 30
0.0
 10
259.172785
 20
237.272322
 30
0.0
 10
259.266553
 20
237.178553
 30
0.0
  0
SPLINE
  5
324
100
AcDbEntity
  8
Layer_1
 62
1
100
AcDbSpline
 70
8
 71
3
 72
8
 73
4
 74
0
 40
0
 40
0
 40
0
 40
0
 40
1
 40
1
 40
1
 40
1
 10
259.266553
 20
237.178553
 30
0.0
 10
259.360322
 20
237.084785
 30
0.0
 10
259.413000
 20
236.957608
 30
0.0
 10
259.413000
 20
236.825000
 30
0.0
  0
LINE
  5
325
100
AcDbEntity
  8
Layer_1
 62
1
100
AcDbLine
 10
259.413000
 20
236.825000
 30
0.0
 11
259.413000
 21
223.825000
 31
0.0
  0
SPLINE
  5
326
100
AcDbEntity
  8
Layer_1
 62
1
100
AcDbSpline
 70
8
 71
3
 72
8
 73
4
 74
0
 40
0
 40
0
 40
0
 40
0
 40
1
 40
1
 40
1
 40
1
 10
259.413000
 20
223.825000
 30
0.0
 10
259.413000
 20
223.692392
 30
0.0
 10
259.360322
 20
223.565215
 30
0.0
 10
259.266553
 20
223.471447
 30
0.0
  0
SPLINE
  5
327
100
AcDbEntity
  8
Layer_1
 62
1
100
AcDbSpline
 70
8
 71
3
 72
8
 73
4
 74
0
 40
0
 40
0
 40
0
 40
0
 40
1
 40
1
 40
1
 40
1
 10
259.266553
 20
223.471447
 30
0.0
 10
259.172785
 20
223.377678
 30
0.0
 10
259.045608
 20
223.325000
 30
0.0
 10
258.913000
 20
223.325000
 30
0.0
  0
LINE
  5
328
100
AcDbEntity
  8
Layer_1
 62
1
100
AcDbLine
 10
258.913000
 20
223.325000
 30
0.0
 11
245.913000
 21
223.325000
 31
0.0
  0
SPLINE
  5
329
100
AcDbEntity
  8
Layer_1
 62
1
100
AcDbSpline
 70
8
 71
3
 72
8
 73
4
 74
0
 40
0
 40
0
 40
0
 40
0
 40
1
 40
1
 40
1
 40
1
 10
245.913000
 20
223.325000
 30
0.0
 10
245.780392
 20
223.325000
 30
0.0
 10
245.653215
 20
223.377678
 30
0.0
 10
245.559447
 20
223.471447
 30
0.0
  0
SPLINE
  5
32a
100
AcDbEntity
  8
Layer_1
 62
1
100
AcDbSpline
 70
8
 71
3
 72
8
 73
4
 74
0
 40
0
 40
0
 40
0
 40
0
 40
1
 40
1
 40
1
 40
1
 10
245.559447
 20
223.471447
 30
0.0
 10
245.465678
 20
223.565215
 30
0.0
 10
245.413000
 20
223.692392
 30
0.0
 10
245.413000
 20
223.825000
 30
0.0
  0
LINE
  5
32b
100
AcDbEntity
  8
Layer_1
 62
1
100
AcDbLine
 10
245.413000
 20
223.825000
 30
0.0
 11
245.413000
 21
236.825000
 31
0.0
  0
SPLINE
  5
32c
100
AcDbEntity
  8
Layer_1
 62
1
100
AcDbSpline
 70
8
 71
3
 72
8
 73
4
 74
0
 40
0
 40
0
 40
0
 40
0
 40
1
 40
1
 40
1
 40
1
 10
245.413000
 20
236.825000
 30
0.0
 10
245.413000
 20
236.957608
 30
0.0
 10
245.465678
 20
237.084785
 30
0.0
 10
245.559447
 20
237.178553
 30
0.0
  0
SPLINE
  5
32d
100
AcDbEntity
  8
Layer_1
 62
1
100
AcDbSpline
 70
8
 71
3
 72
8
 73
4
 74
0
 40
0
 40
0
 40
0
 40
0
 40
1
 40
1
 40
1
 40
1
 10
245.559447
 20
237.178553
 30
0.0
 10
245.653215
 20
237.272322
 30
0.0
 10
245.780392
 20
237.325000
 30
0.0
 10
245.913000
 20
237.325000
 30
0.0
  0
LINE
  5
32e
100
AcDbEntity
  8
Layer_1
 62
1
100
AcDbLine
 10
245.913000
 20
237.325000
 30
0.0
 11
245.913000
 21
237.325000
 31
0.0
  0
LINE
  5
32f
100
AcDbEntity
  8
Layer_1
 62
1
100
AcDbLine
 10
1.056604
 20
217.625781
 30
0.0
 11
27.513728
 21
217.625781
 31
0.0
  0
SPLINE
  5
330
100
AcDbEntity
  8
Layer_1
 62
1
100
AcDbSpline
 70
8
 71
3
 72
8
 73
4
 74
0
 40
0
 40
0
 40
0
 40
0
 40
1
 40
1
 40
1
 40
1
 10
27.513728
 20
217.625781
 30
0.0
 10
28.098499
 20
217.625781
 30
0.0
 10
28.572807
 20
218.099343
 30
0.0
 10
28.573728
 20
218.684113
 30
0.0
  0
LINE
  5
331
100
AcDbEntity
  8
Layer_1
 62
1
100
AcDbLine
 10
28.573728
 20
218.684113
 30
0.0
 11
28.575428
 21
219.742449
 31
0.0
  0
SPLINE
  5
332
100
AcDbEntity
  8
Layer_1
 62
1
100
AcDbSpline
 70
8
 71
3
 72
8
 73
4
 74
0
 40
0
 40
0
 40
0
 40
0
 40
1
 40
1
 40
1
 40
1
 10
28.575428
 20
219.742449
 30
0.0
 10
28.576349
 20
220.327219
 30
0.0
 10
29.050657
 20
220.800781
 30
0.0
 10
29.635428
 20
220.800781
 30
0.0
  0
LINE
  5
333
100
AcDbEntity
  8
Layer_1
 62
1
100
AcDbLine
 10
29.635428
 20
220.800781
 30
0.0
 11
46.800116
 21
220.800781
 31
0.0
  0
SPLINE
  5
334
100
AcDbEntity
  8
Layer_1
 62
1
100
AcDbSpline
 70
8
 71
3
 72
8
 73
4
 74
0
 40
0
 40
0
 40
0
 40
0
 40
1
 40
1
 40
1
 40
1
 10
46.800116
 20
220.800781
 30
0.0
 10
47.384668
 20
220.800781
 30
0.0
 10
47.858591
 20
220.327000
 30
0.0
 10
47.858766
 20
219.742448
 30
0.0
  0
LINE
  5
335
100
AcDbEntity
  8
Layer_1
 62
1
100
AcDbLine
 10
47.858766
 20
219.742448
 30
0.0
 11
47.859082
 21
218.684114
 31
0.0
  0
SPLINE
  5
336
100
AcDbEntity
  8
Layer_1
 62
1
100
AcDbSpline
 70
8
 71
3
 72
8
 73
4
 74
0
 40
0
 40
0
 40
0
 40
0
 40
1
 40
1
 40
1
 40
1
 10
47.859082
 20
218.684114
 30
0.0
 10
47.859257
 20
218.099562
 30
0.0
 10
48.333180
 20
217.625781
 30
0.0
 10
48.917732
 20
217.625781
 30
0.0
  0
LINE
  5
337
100
AcDbEntity
  8
Layer_1
 62
1
100
AcDbLine
 10
48.917732
 20
217.625781
 30
0.0
 11
194.205210
 21
217.625781
 31
0.0
  0
SPLINE
  5
338
100
AcDbEntity
  8
Layer_1
 62
1
100
AcDbSpline
 70
8
 71
3
 72
8
 73
4
 74
0
 40
0
 40
0
 40
0
 40
0
 40
1
 40
1
 40
1
 40
1
 10
194.205210
 20
217.625781
 30
0.0
 10
194.789763
 20
217.625785
 30
0.0
 10
195.263686
 20
218.099561
 30
0.0
 10
195.263870
 20
218.684114
 30
0.0
  0
LINE
  5
339
100
AcDbEntity
  8
Layer_1
 62
1
100
AcDbLine
 10
195.263870
 20
218.684114
 30
0.0
 11
195.264210
 21
219.742448
 31
0.0
  0
SPLINE
  5
33a
100
AcDbEntity
  8
Layer_1
 62
1
100
AcDbSpline
 70
8
 71
3
 72
8
 73
4
 74
0
 40
0
 40
0
 40
0
 40
0
 40
1
 40
1
 40
1
 40
1
 10
195.264210
 20
219.742448
 30
0.0
 10
195.264394
 20
220.327001
 30
0.0
 10
195.738317
 20
220.800777
 30
0.0
 10
196.322870
 20
220.800781
 30
0.0
  0
LINE
  5
33b
100
AcDbEntity
  8
Layer_1
 62
1
100
AcDbLine
 10
196.322870
 20
220.800781
 30
0.0
 11
213.254260
 21
220.800781
 31
0.0
  0
SPLINE
  5
33c
100
AcDbEntity
  8
Layer_1
 62
1
100
AcDbSpline
 70
8
 71
3
 72
8
 73
4
 74
0
 40
0
 40
0
 40
0
 40
0
 40
1
 40
1
 40
1
 40
1
 10
213.254260
 20
220.800781
 30
0.0
 10
213.838813
 20
220.800777
 30
0.0
 10
214.312736
 20
220.327001
 30
0.0
 10
214.312920
 20
219.742448
 30
0.0
  0
LINE
  5
33d
100
AcDbEntity
  8
Layer_1
 62
1
100
AcDbLine
 10
214.312920
 20
219.742448
 30
0.0
 11
214.313260
 21
218.684114
 31
0.0
  0
SPLINE
  5
33e
100
AcDbEntity
  8
Layer_1
 62
1
100
AcDbSpline
 70
8
 71
3
 72
8
 73
4
 74
0
 40
0
 40
0
 40
0
 40
0
 40
1
 40
1
 40
1
 40
1
 10
214.313260
 20
218.684114
 30
0.0
 10
214.313444
 20
218.099561
 30
0.0
 10
214.787367
 20
217.625785
 30
0.0
 10
215.371920
 20
217.625781
 30
0.0
  0
LINE
  5
33f
100
AcDbEntity
  8
Layer_1
 62
1
100
AcDbLine
 10
215.371920
 20
217.625781
 30
0.0
 11
298.976790
 21
217.625781
 31
0.0
  0
SPLINE
  5
340
100
AcDbEntity
  8
Layer_1
 62
1
100
AcDbSpline
 70
8
 71
3
 72
8
 73
4
 74
0
 40
0
 40
0
 40
0
 40
0
 40
1
 40
1
 40
1
 40
1
 10
298.976790
 20
217.625781
 30
0.0
 10
299.561399
 20
217.625781
 30
0.0
 10
300.035422
 20
218.099505
 30
0.0
 10
300.035790
 20
218.684114
 30
0.0
  0
LINE
  5
341
100
AcDbEntity
  8
Layer_1
 62
1
100
AcDbLine
 10
300.035790
 20
218.684114
 30
0.0
 11
300.036450
 21
219.742448
 31
0.0
  0
SPLINE
  5
342
100
AcDbEntity
  8
Layer_1
 62
1
100
AcDbSpline
 70
8
 71
3
 72
8
 73
4
 74
0
 40
0
 40
0
 40
0
 40
0
 40
1
 40
1
 40
1
 40
1
 10
300.036450
 20
219.742448
 30
0.0
 10
300.036896
 20
220.448003
 30
0.0
 10
300.037119
 20
221.153559
 30
0.0
 10
300.037120
 20
221.859114
 30
0.0
  0
LINE
  5
343
100
AcDbEntity
  8
Layer_1
 62
1
100
AcDbLine
 10
300.037120
 20
221.859114
 30
0.0
 11
300.037120
 21
295.941667
 31
0.0
  0
SPLINE
  5
344
100
AcDbEntity
  8
Layer_1
 62
1
100
AcDbSpline
 70
8
 71
3
 72
8
 73
4
 74
0
 40
0
 40
0
 40
0
 40
0
 40
1
 40
1
 40
1
 40
1
 10
300.037120
 20
295.941667
 30
0.0
 10
300.037119
 20
296.647222
 30
0.0
 10
300.037046
 20
297.352778
 30
0.0
 10
300.036900
 20
298.058333
 30
0.0
  0
LINE
  5
345
100
AcDbEntity
  8
Layer_1
 62
1
100
AcDbLine
 10
300.036900
 20
298.058333
 30
0.0
 11
300.036690
 21
299.116667
 31
0.0
  0
SPLINE
  5
346
100
AcDbEntity
  8
Layer_1
 62
1
100
AcDbSpline
 70
8
 71
3
 72
8
 73
4
 74
0
 40
0
 40
0
 40
0
 40
0
 40
1
 40
1
 40
1
 40
1
 10
300.036690
 20
299.116667
 30
0.0
 10
300.036570
 20
299.701203
 30
0.0
 10
299.562676
 20
300.175000
 30
0.0
 10
298.978140
 20
300.175000
 30
0.0
  0
LINE
  5
347
100
AcDbEntity
  8
Layer_1
 62
1
100
AcDbLine
 10
298.978140
 20
300.175000
 30
0.0
 11
215.370840
 21
300.175000
 31
0.0
  0
SPLINE
  5
348
100
AcDbEntity
  8
Layer_1
 62
1
100
AcDbSpline
 70
8
 71
3
 72
8
 73
4
 74
0
 40
0
 40
0
 40
0
 40
0
 40
1
 40
1
 40
1
 40
1
 10
215.370840
 20
300.175000
 30
0.0
 10
215.090245
 20
300.174999
 30
0.0
 10
214.821158
 20
300.063464
 30
0.0
 10
214.622841
 20
299.864960
 30
0.0
  0
SPLINE
  5
349
100
AcDbEntity
  8
Layer_1
 62
1
100
AcDbSpline
 70
8
 71
3
 72
8
 73
4
 74
0
 40
0
 40
0
 40
0
 40
0
 40
1
 40
1
 40
1
 40
1
 10
214.622841
 20
299.864960
 30
0.0
 10
214.424525
 20
299.666455
 30
0.0
 10
214.313245
 20
299.397262
 30
0.0
 10
214.313510
 20
299.116667
 30
0.0
  0
LINE
  5
34a
100
AcDbEntity
  8
Layer_1
 62
1
100
AcDbLine
 10
214.313510
 20
299.116667
 30
0.0
 11
214.314510
 21
298.058333
 31
0.0
  0
SPLINE
  5
34b
100
AcDbEntity
  8
Layer_1
 62
1
100
AcDbSpline
 70
8
 71
3
 72
8
 73
4
 74
0
 40
0
 40
0
 40
0
 40
0
 40
1
 40
1
 40
1
 40
1
 10
214.314510
 20
298.058333
 30
0.0
 10
214.314775
 20
297.777738
 30
0.0
 10
214.203495
 20
297.508545
 30
0.0
 10
214.005179
 20
297.310040
 30
0.0
  0
SPLINE
  5
34c
100
AcDbEntity
  8
Layer_1
 62
1
100
AcDbSpline
 70
8
 71
3
 72
8
 73
4
 74
0
 40
0
 40
0
 40
0
 40
0
 40
1
 40
1
 40
1
 40
1
 10
214.005179
 20
297.310040
 30
0.0
 10
213.806862
 20
297.111536
 30
0.0
 10
213.537775
 20
297.000001
 30
0.0
 10
213.257180
 20
297.000000
 30
0.0
  0
LINE
  5
34d
100
AcDbEntity
  8
Layer_1
 62
1
100
AcDbLine
 10
213.257180
 20
297.000000
 30
0.0
 11
196.326580
 21
297.000000
 31
0.0
  0
SPLINE
  5
34e
100
AcDbEntity
  8
Layer_1
 62
1
100
AcDbSpline
 70
8
 71
3
 72
8
 73
4
 74
0
 40
0
 40
0
 40
0
 40
0
 40
1
 40
1
 40
1
 40
1
 10
196.326580
 20
297.000000
 30
0.0
 10
195.741809
 20
297.000000
 30
0.0
 10
195.267501
 20
297.473562
 30
0.0
 10
195.266580
 20
298.058332
 30
0.0
  0
LINE
  5
34f
100
AcDbEntity
  8
Layer_1
 62
1
100
AcDbLine
 10
195.266580
 20
298.058332
 30
0.0
 11
195.264580
 21
299.116668
 31
0.0
  0
SPLINE
  5
350
100
AcDbEntity
  8
Layer_1
 62
1
100
AcDbSpline
 70
8
 71
3
 72
8
 73
4
 74
0
 40
0
 40
0
 40
0
 40
0
 40
1
 40
1
 40
1
 40
1
 10
195.264580
 20
299.116668
 30
0.0
 10
195.263659
 20
299.701438
 30
0.0
 10
194.789351
 20
300.175000
 30
0.0
 10
194.204580
 20
300.175000
 30
0.0
  0
LINE
  5
351
100
AcDbEntity
  8
Layer_1
 62
1
100
AcDbLine
 10
194.204580
 20
300.175000
 30
0.0
 11
48.683924
 21
300.175000
 31
0.0
  0
SPLINE
  5
352
100
AcDbEntity
  8
Layer_1
 62
1
100
AcDbSpline
 70
8
 71
3
 72
8
 73
4
 74
0
 40
0
 40
0
 40
0
 40
0
 40
1
 40
1
 40
1
 40
1
 10
48.683924
 20
300.175000
 30
0.0
 10
48.099369
 20
300.175000
 30
0.0
 10
47.625442
 20
299.701222
 30
0.0
 10
47.625258
 20
299.116667
 30
0.0
  0
LINE
  5
353
100
AcDbEntity
  8
Layer_1
 62
1
100
AcDbLine
 10
47.625258
 20
299.116667
 30
0.0
 11
47.624924
 21
298.058333
 31
0.0
  0
SPLINE
  5
354
100
AcDbEntity
  8
Layer_1
 62
1
100
AcDbSpline
 70
8
 71
3
 72
8
 73
4
 74
0
 40
0
 40
0
 40
0
 40
0
 40
1
 40
1
 40
1
 40
1
 10
47.624924
 20
298.058333
 30
0.0
 10
47.624740
 20
297.473778
 30
0.0
 10
47.150813
 20
297.000000
 30
0.0
 10
46.566258
 20
297.000000
 30
0.0
  0
LINE
  5
355
100
AcDbEntity
  8
Layer_1
 62
1
100
AcDbLine
 10
46.566258
 20
297.000000
 30
0.0
 11
29.626045
 21
297.000000
 31
0.0
  0
SPLINE
  5
356
100
AcDbEntity
  8
Layer_1
 62
1
100
AcDbSpline
 70
8
 71
3
 72
8
 73
4
 74
0
 40
0
 40
0
 40
0
 40
0
 40
1
 40
1
 40
1
 40
1
 10
29.626045
 20
297.000000
 30
0.0
 10
29.345465
 20
297.000000
 30
0.0
 10
29.076394
 20
297.111540
 30
0.0
 10
28.878103
 20
297.310049
 30
0.0
  0
SPLINE
  5
357
100
AcDbEntity
  8
Layer_1
 62
1
100
AcDbSpline
 70
8
 71
3
 72
8
 73
4
 74
0
 40
0
 40
0
 40
0
 40
0
 40
1
 40
1
 40
1
 40
1
 10
28.878103
 20
297.310049
 30
0.0
 10
28.679812
 20
297.508559
 30
0.0
 10
28.568569
 20
297.777753
 30
0.0
 10
28.568879
 20
298.058333
 30
0.0
  0
LINE
  5
358
100
AcDbEntity
  8
Layer_1
 62
1
100
AcDbLine
 10
28.568879
 20
298.058333
 30
0.0
 11
28.570079
 21
299.114538
 31
0.0
  0
SPLINE
  5
359
100
AcDbEntity
  8
Layer_1
 62
1
100
AcDbSpline
 70
8
 71
3
 72
8
 73
4
 74
0
 40
0
 40
0
 40
0
 40
0
 40
1
 40
1
 40
1
 40
1
 10
28.570079
 20
299.114538
 30
0.0
 10
28.570389
 20
299.395119
 30
0.0
 10
28.459146
 20
299.664313
 30
0.0
 10
28.260855
 20
299.862823
 30
0.0
  0
SPLINE
  5
35a
100
AcDbEntity
  8
Layer_1
 62
1
100
AcDbSpline
 70
8
 71
3
 72
8
 73
4
 74
0
 40
0
 40
0
 40
0
 40
0
 40
1
 40
1
 40
1
 40
1
 10
28.260855
 20
299.862823
 30
0.0
 10
28.062564
 20
300.061333
 30
0.0
 10
27.793493
 20
300.172873
 30
0.0
 10
27.512913
 20
300.172873
 30
0.0
  0
LINE
  5
35b
100
AcDbEntity
  8
Layer_1
 62
1
100
AcDbLine
 10
27.512913
 20
300.172873
 30
0.0
 11
1.057325
 21
300.172931
 31
0.0
  0
SPLINE
  5
35c
100
AcDbEntity
  8
Layer_1
 62
1
100
AcDbSpline
 70
8
 71
3
 72
8
 73
4
 74
0
 40
0
 40
0
 40
0
 40
0
 40
1
 40
1
 40
1
 40
1
 10
1.057325
 20
300.172931
 30
0.0
 10
0.776669
 20
300.172931
 30
0.0
 10
0.507514
 20
300.061418
 30
0.0
 10
0.309093
 20
299.862932
 30
0.0
  0
SPLINE
  5
35d
100
AcDbEntity
  8
Layer_1
 62
1
100
AcDbSpline
 70
8
 71
3
 72
8
 73
4
 74
0
 40
0
 40
0
 40
0
 40
0
 40
1
 40
1
 40
1
 40
1
 10
0.309093
 20
299.862932
 30
0.0
 10
0.110672
 20
299.664447
 30
0.0
 10
-0.000753
 20
299.395255
 30
0.0
 10
-0.000661
 20
299.114600
 30
0.0
  0
LINE
  5
35e
100
AcDbEntity
  8
Layer_1
 62
1
100
AcDbLine
 10
-0.000661
 20
299.114600
 30
0.0
 11
-0.000314
 21
298.058333
 31
0.0
  0
SPLINE
  5
35f
100
AcDbEntity
  8
Layer_1
 62
1
100
AcDbSpline
 70
8
 71
3
 72
8
 73
4
 74
0
 40
0
 40
0
 40
0
 40
0
 40
1
 40
1
 40
1
 40
1
 10
-0.000314
 20
298.058333
 30
0.0
 10
-0.000093
 20
297.352778
 30
0.0
 10
0.000004
 20
296.647222
 30
0.0
 10
-0.000023
 20
295.941667
 30
0.0
  0
LINE
  5
360
100
AcDbEntity
  8
Layer_1
 62
1
100
AcDbLine
 10
-0.000023
 20
295.941667
 30
0.0
 11
-0.001706
 21
218.684114
 31
0.0
  0
SPLINE
  5
361
100
AcDbEntity
  8
Layer_1
 62
1
100
AcDbSpline
 70
8
 71
3
 72
8
 73
4
 74
0
 40
0
 40
0
 40
0
 40
0
 40
1
 40
1
 40
1
 40
1
 10
-0.001706
 20
218.684114
 30
0.0
 10
-0.001712
 20
218.403429
 30
0.0
 10
0.109786
 20
218.134238
 30
0.0
 10
0.308258
 20
217.935761
 30
0.0
  0
SPLINE
  5
362
100
AcDbEntity
  8
Layer_1
 62
1
100
AcDbSpline
 70
8
 71
3
 72
8
 73
4
 74
0
 40
0
 40
0
 40
0
 40
0
 40
1
 40
1
 40
1
 40
1
 10
0.308258
 20
217.935761
 30
0.0
 10
0.506730
 20
217.737284
 30
0.0
 10
0.775919
 20
217.625781
 30
0.0
 10
1.056604
 20
217.625781
 30
0.0
  0
LINE
  5
363
100
AcDbEntity
  8
Layer_1
 62
1
100
AcDbLine
 10
1.056604
 20
217.625781
 30
0.0
 11
1.056604
 21
217.625781
 31
0.0
  0
LINE
  5
364
100
AcDbEntity
  8
Layer_1
 62
1
100
AcDbLine
 10
245.049582
 20
294.153087
 30
0.0
 11
245.049582
 21
275.994258
 31
0.0
  0
SPLINE
  5
365
100
AcDbEntity
  8
Layer_1
 62
1
100
AcDbSpline
 70
8
 71
3
 72
8
 73
4
 74
0
 40
0
 40
0
 40
0
 40
0
 40
1
 40
1
 40
1
 40
1
 10
245.049582
 20
275.994258
 30
0.0
 10
245.049582
 20
274.130177
 30
0.0
 10
246.546512
 20
272.619158
 30
0.0
 10
248.393034
 20
272.619216
 30
0.0
  0
SPLINE
  5
366
100
AcDbEntity
  8
Layer_1
 62
1
100
AcDbSpline
 70
8
 71
3
 72
8
 73
4
 74
0
 40
0
 40
0
 40
0
 40
0
 40
1
 40
1
 40
1
 40
1
 10
248.393034
 20
272.619216
 30
0.0
 10
263.772839
 20
272.619675
 30
0.0
 10
279.152580
 20
272.616026
 30
0.0
 10
294.532385
 20
272.618578
 30
0.0
  0
SPLINE
  5
367
100
AcDbEntity
  8
Layer_1
 62
1
100
AcDbSpline
 70
8
 71
3
 72
8
 73
4
 74
0
 40
0
 40
0
 40
0
 40
0
 40
1
 40
1
 40
1
 40
1
 10
294.532385
 20
272.618578
 30
0.0
 10
296.378907
 20
272.618871
 30
0.0
 10
297.875837
 20
274.130337
 30
0.0
 10
297.875837
 20
275.994417
 30
0.0
  0
LINE
  5
368
100
AcDbEntity
  8
Layer_1
 62
1
100
AcDbLine
 10
297.875837
 20
275.994417
 30
0.0
 11
297.875837
 21
294.147569
 31
0.0
  0
SPLINE
  5
369
100
AcDbEntity
  8
Layer_1
 62
1
100
AcDbSpline
 70
8
 71
3
 72
8
 73
4
 74
0
 40
0
 40
0
 40
0
 40
0
 40
1
 40
1
 40
1
 40
1
 10
297.875837
 20
294.147569
 30
0.0
 10
297.875837
 20
296.011714
 30
0.0
 10
296.378977
 20
297.522954
 30
0.0
 10
294.532385
 20
297.523141
 30
0.0
  0
LINE
  5
36a
100
AcDbEntity
  8
Layer_1
 62
1
100
AcDbLine
 10
294.532385
 20
297.523141
 30
0.0
 11
248.393034
 21
297.528243
 31
0.0
  0
SPLINE
  5
36b
100
AcDbEntity
  8
Layer_1
 62
1
100
AcDbSpline
 70
8
 71
3
 72
8
 73
4
 74
0
 40
0
 40
0
 40
0
 40
0
 40
1
 40
1
 40
1
 40
1
 10
248.393034
 20
297.528243
 30
0.0
 10
247.506329
 20
297.528344
 30
0.0
 10
246.655908
 20
297.172825
 30
0.0
 10
246.028878
 20
296.539905
 30
0.0
  0
SPLINE
  5
36c
100
AcDbEntity
  8
Layer_1
 62
1
100
AcDbSpline
 70
8
 71
3
 72
8
 73
4
 74
0
 40
0
 40
0
 40
0
 40
0
 40
1
 40
1
 40
1
 40
1
 10
246.028878
 20
296.539905
 30
0.0
 10
245.401848
 20
295.906985
 30
0.0
 10
245.049581
 20
295.048520
 30
0.0
 10
245.049582
 20
294.153386
 30
0.0
  0
LINE
  5
36d
100
AcDbEntity
  8
Layer_1
 62
1
100
AcDbLine
 10
245.049582
 20
294.153386
 30
0.0
 11
245.049582
 21
294.153087
 31
0.0
  0
ENDSEC
  0
SECTION
  2
OBJECTS
  0
DICTIONARY
  5
C
330
0
100
AcDbDictionary
  3
ACAD_GROUP
350
D
  3
ACAD_MLINESTYLE
350
17
  0
DICTIONARY
  5
D
330
C
100
AcDbDictionary
  0
DICTIONARY
  5
1A
330
C
100
AcDbDictionary
  0
DICTIONARY
  5
17
330
C
100
AcDbDictionary
  3
STANDARD
350
18
  0
DICTIONARY
  5
19
330
C
100
AcDbDictionary
  0
ENDSEC
  0
EOF
