  0
SECTION
  2
HEADER
  9
$ACADVER
  1
AC1014
  9
$HANDSEED
  5
FFFF
  9
$INSUNITS
 70
     0
  9
$MEASUREMENT
 70
     1
  0
ENDSEC
  0
SECTION
  2
TABLES
  0
TABLE
  2
VPORT
  5
8
330
0
100
AcDbSymbolTable
 70
     4
  0
VPORT
  5
2E
330
8
100
AcDbSymbolTableRecord
100
AcDbViewportTableRecord
  2
*ACTIVE
 70
     0
 10
0.0
 20
0.0
 11
1.0
 21
1.0
 12
210.0
 22
148.5
 13
0.0
 23
0.0
 14
10.0
 24
10.0
 15
10.0
 25
10.0
 16
0.0
 26
0.0
 36
1.0
 17
0.0
 27
0.0
 37
0.0
 40
341.0
 41
1.24
 42
50.0
 43
0.0
 44
0.0
 50
0.0
 51
0.0
 71
     0
 72
   100
 73
     1
 74
     3
 75
     0
 76
     0
 77
     0
 78
     0
  0
ENDTAB
  0
TABLE
  2
LTYPE
  5
5
330
0
100
AcDbSymbolTable
 70
     1
  0
LTYPE
  5
14
330
5
100
AcDbSymbolTableRecord
100
AcDbLinetypeTableRecord
  2
BYBLOCK
 70
     0
  3

 72
    65
 73
     0
 40
0.0
  0
LTYPE
  5
15
330
5
100
AcDbSymbolTableRecord
100
AcDbLinetypeTableRecord
  2
BYLAYER
 70
     0
  3

 72
    65
 73
     0
 40
0.0
  0
LTYPE
  5
16
330
5
100
AcDbSymbolTableRecord
100
AcDbLinetypeTableRecord
  2
CONTINUOUS
 70
     0
  3
Solid line
 72
    65
 73
     0
 40
0.0
  0
ENDTAB
  0
TABLE
  2
LAYER
  5
2
100
AcDbSymbolTable
 70
2
  0
LAYER
  5
50
100
AcDbSymbolTableRecord
100
AcDbLayerTableRecord
  2
0
 70
0
  6
CONTINUOUS
  0
LAYER
  5
51
100
AcDbSymbolTableRecord
100
AcDbLayerTableRecord
  2
Layer_1
 70
0
  6
CONTINUOUS
  0
ENDTAB
  0
TABLE
  2
STYLE
  5
3
330
0
100
AcDbSymbolTable
 70
     1
  0
STYLE
  5
11
330
3
100
AcDbSymbolTableRecord
100
AcDbTextStyleTableRecord
  2
STANDARD
 70
     0
 40
0.0
 41
1.0
 50
0.0
 71
     0
 42
2.5
  3
txt
  4

  0
ENDTAB
  0
TABLE
  2
VIEW
  5
6
330
0
100
AcDbSymbolTable
 70
     0
  0
ENDTAB
  0
TABLE
  2
UCS
  5
7
330
0
100
AcDbSymbolTable
 70
     0
  0
ENDTAB
  0
TABLE
  2
APPID
  5
9
330
0
100
AcDbSymbolTable
 70
     2
  0
APPID
  5
12
330
9
100
AcDbSymbolTableRecord
100
AcDbRegAppTableRecord
  2
ACAD
 70
     0
  0
ENDTAB
  0
TABLE
  2
DIMSTYLE
  5
A
330
0
100
AcDbSymbolTable
 70
     1
  0
DIMSTYLE
105
27
330
A
100
AcDbSymbolTableRecord
100
AcDbDimStyleTableRecord
  2
ISO-25
 70
     0
  3

  4

  5

  6

  7

 40
1.0
 41
2.5
 42
0.625
 43
3.75
 44
1.25
 45
0.0
 46
0.0
 47
0.0
 48
0.0
140
2.5
141
2.5
142
0.0
143
0.03937007874016
144
1.0
145
0.0
146
1.0
147
0.625
 71
     0
 72
     0
 73
     0
 74
     0
 75
     0
 76
     0
 77
     1
 78
     8
170
     0
171
     3
172
     1
173
     0
174
     0
175
     0
176
     0
177
     0
178
     0
270
     2
271
     2
272
     2
273
     2
274
     3
340
11
275
     0
280
     0
281
     0
282
     0
283
     0
284
     8
285
     0
286
     0
287
     3
288
     0
  0
ENDTAB
  0
TABLE
  2
BLOCK_RECORD
  5
1
330
0
100
AcDbSymbolTable
 70
     1
  0
BLOCK_RECORD
  5
1F
330
1
100
AcDbSymbolTableRecord
100
AcDbBlockTableRecord
  2
*MODEL_SPACE
  0
BLOCK_RECORD
  5
1B
330
1
100
AcDbSymbolTableRecord
100
AcDbBlockTableRecord
  2
*PAPER_SPACE
  0
ENDTAB
  0
ENDSEC
  0
SECTION
  2
BLOCKS
  0
BLOCK
  5
20
330
1F
100
AcDbEntity
  8
0
100
AcDbBlockBegin
  2
*MODEL_SPACE
 70
     0
 10
0.0
 20
0.0
 30
0.0
  3
*MODEL_SPACE
  1

  0
ENDBLK
  5
21
330
1F
100
AcDbEntity
  8
0
100
AcDbBlockEnd
  0
BLOCK
  5
1C
330
1B
100
AcDbEntity
 67
     1
  8
0
100
AcDbBlockBegin
  2
*PAPER_SPACE
  1

  0
ENDBLK
  5
1D
330
1B
100
AcDbEntity
 67
     1
  8
0
100
AcDbBlockEnd
  0
ENDSEC
  0
SECTION
  2
ENTITIES
  0
SPLINE
  5
100
100
AcDbEntity
  8
Layer_1
 62
1
100
AcDbSpline
 70
8
 71
3
 72
8
 73
4
 74
0
 40
0
 40
0
 40
0
 40
0
 40
1
 40
1
 40
1
 40
1
 10
297.292280
 20
294.705988
 30
0.0
 10
297.035950
 20
296.032832
 30
0.0
 10
295.778160
 20
297.032244
 30
0.0
 10
294.442600
 20
296.990746
 30
0.0
  0
SPLINE
  5
101
100
AcDbEntity
  8
Layer_1
 62
1
100
AcDbSpline
 70
8
 71
3
 72
8
 73
4
 74
0
 40
0
 40
0
 40
0
 40
0
 40
1
 40
1
 40
1
 40
1
 10
294.442600
 20
296.990746
 30
0.0
 10
279.081060
 20
296.988195
 30
0.0
 10
263.718690
 20
297.002355
 30
0.0
 10
248.357650
 20
296.989470
 30
0.0
  0
SPLINE
  5
102
100
AcDbEntity
  8
Layer_1
 62
1
100
AcDbSpline
 70
8
 71
3
 72
8
 73
4
 74
0
 40
0
 40
0
 40
0
 40
0
 40
1
 40
1
 40
1
 40
1
 10
248.357650
 20
296.989470
 30
0.0
 10
246.885870
 20
296.996168
 30
0.0
 10
245.583350
 20
295.687648
 30
0.0
 10
245.583480
 20
294.201843
 30
0.0
  0
SPLINE
  5
103
100
AcDbEntity
  8
Layer_1
 62
1
100
AcDbSpline
 70
8
 71
3
 72
8
 73
4
 74
0
 40
0
 40
0
 40
0
 40
0
 40
1
 40
1
 40
1
 40
1
 10
245.583480
 20
294.201843
 30
0.0
 10
245.572780
 20
288.069834
 30
0.0
 10
245.567680
 20
281.935541
 30
0.0
 10
245.583480
 20
275.803347
 30
0.0
  0
SPLINE
  5
104
100
AcDbEntity
  8
Layer_1
 62
1
100
AcDbSpline
 70
8
 71
3
 72
8
 73
4
 74
0
 40
0
 40
0
 40
0
 40
0
 40
1
 40
1
 40
1
 40
1
 10
245.583480
 20
275.803347
 30
0.0
 10
245.640980
 20
274.278289
 30
0.0
 10
247.084520
 20
273.027322
 30
0.0
 10
248.582960
 20
273.151585
 30
0.0
  0
SPLINE
  5
105
100
AcDbEntity
  8
Layer_1
 62
1
100
AcDbSpline
 70
8
 71
3
 72
8
 73
4
 74
0
 40
0
 40
0
 40
0
 40
0
 40
1
 40
1
 40
1
 40
1
 10
248.582960
 20
273.151585
 30
0.0
 10
263.940840
 20
273.155385
 30
0.0
 10
279.299160
 20
273.141885
 30
0.0
 10
294.656730
 20
273.156685
 30
0.0
  0
SPLINE
  5
106
100
AcDbEntity
  8
Layer_1
 62
1
100
AcDbSpline
 70
8
 71
3
 72
8
 73
4
 74
0
 40
0
 40
0
 40
0
 40
0
 40
1
 40
1
 40
1
 40
1
 10
294.656730
 20
273.156685
 30
0.0
 10
296.191320
 20
273.180605
 30
0.0
 10
297.472600
 20
274.652294
 30
0.0
 10
297.346620
 20
276.188004
 30
0.0
  0
SPLINE
  5
107
100
AcDbEntity
  8
Layer_1
 62
1
100
AcDbSpline
 70
8
 71
3
 72
8
 73
4
 74
0
 40
0
 40
0
 40
0
 40
0
 40
1
 40
1
 40
1
 40
1
 10
297.346620
 20
276.188004
 30
0.0
 10
297.338620
 20
282.207505
 30
0.0
 10
297.363020
 20
288.228620
 30
0.0
 10
297.334620
 20
294.247107
 30
0.0
  0
SPLINE
  5
108
100
AcDbEntity
  8
Layer_1
 62
1
100
AcDbSpline
 70
8
 71
3
 72
8
 73
4
 74
0
 40
0
 40
0
 40
0
 40
0
 40
1
 40
1
 40
1
 40
1
 10
297.334620
 20
294.247107
 30
0.0
 10
297.319420
 20
294.399958
 30
0.0
 10
297.304920
 20
294.552809
 30
0.0
 10
297.290420
 20
294.705659
 30
0.0
  0
LINE
  5
109
100
AcDbEntity
  8
Layer_1
 62
1
100
AcDbLine
 10
297.290420
 20
294.705659
 30
0.0
 11
297.292280
 21
294.705988
 31
0.0
  0
SPLINE
  5
10a
100
AcDbEntity
  8
Layer_1
 62
1
100
AcDbSpline
 70
8
 71
3
 72
8
 73
4
 74
0
 40
0
 40
0
 40
0
 40
0
 40
1
 40
1
 40
1
 40
1
 10
247.655910
 20
276.184471
 30
0.0
 10
247.655910
 20
275.800232
 30
0.0
 10
247.887370
 20
275.453827
 30
0.0
 10
248.242361
 20
275.306785
 30
0.0
  0
SPLINE
  5
10b
100
AcDbEntity
  8
Layer_1
 62
1
100
AcDbSpline
 70
8
 71
3
 72
8
 73
4
 74
0
 40
0
 40
0
 40
0
 40
0
 40
1
 40
1
 40
1
 40
1
 10
248.242361
 20
275.306785
 30
0.0
 10
248.597351
 20
275.159744
 30
0.0
 10
249.005963
 20
275.241021
 30
0.0
 10
249.277661
 20
275.512720
 30
0.0
  0
SPLINE
  5
10c
100
AcDbEntity
  8
Layer_1
 62
1
100
AcDbSpline
 70
8
 71
3
 72
8
 73
4
 74
0
 40
0
 40
0
 40
0
 40
0
 40
1
 40
1
 40
1
 40
1
 10
249.277661
 20
275.512720
 30
0.0
 10
249.549360
 20
275.784418
 30
0.0
 10
249.630637
 20
276.193030
 30
0.0
 10
249.483596
 20
276.548020
 30
0.0
  0
SPLINE
  5
10d
100
AcDbEntity
  8
Layer_1
 62
1
100
AcDbSpline
 70
8
 71
3
 72
8
 73
4
 74
0
 40
0
 40
0
 40
0
 40
0
 40
1
 40
1
 40
1
 40
1
 10
249.483596
 20
276.548020
 30
0.0
 10
249.336554
 20
276.903011
 30
0.0
 10
248.990149
 20
277.134471
 30
0.0
 10
248.605910
 20
277.134471
 30
0.0
  0
SPLINE
  5
10e
100
AcDbEntity
  8
Layer_1
 62
1
100
AcDbSpline
 70
8
 71
3
 72
8
 73
4
 74
0
 40
0
 40
0
 40
0
 40
0
 40
1
 40
1
 40
1
 40
1
 10
248.605910
 20
277.134471
 30
0.0
 10
248.081239
 20
277.134471
 30
0.0
 10
247.655910
 20
276.709142
 30
0.0
 10
247.655910
 20
276.184471
 30
0.0
  0
LINE
  5
10f
100
AcDbEntity
  8
Layer_1
 62
1
100
AcDbLine
 10
247.655910
 20
276.184471
 30
0.0
 11
247.655910
 21
276.184471
 31
0.0
  0
SPLINE
  5
110
100
AcDbEntity
  8
Layer_1
 62
1
100
AcDbSpline
 70
8
 71
3
 72
8
 73
4
 74
0
 40
0
 40
0
 40
0
 40
0
 40
1
 40
1
 40
1
 40
1
 10
247.655910
 20
293.961875
 30
0.0
 10
247.655910
 20
293.577636
 30
0.0
 10
247.887370
 20
293.231232
 30
0.0
 10
248.242361
 20
293.084190
 30
0.0
  0
SPLINE
  5
111
100
AcDbEntity
  8
Layer_1
 62
1
100
AcDbSpline
 70
8
 71
3
 72
8
 73
4
 74
0
 40
0
 40
0
 40
0
 40
0
 40
1
 40
1
 40
1
 40
1
 10
248.242361
 20
293.084190
 30
0.0
 10
248.597351
 20
292.937148
 30
0.0
 10
249.005963
 20
293.018426
 30
0.0
 10
249.277661
 20
293.290124
 30
0.0
  0
SPLINE
  5
112
100
AcDbEntity
  8
Layer_1
 62
1
100
AcDbSpline
 70
8
 71
3
 72
8
 73
4
 74
0
 40
0
 40
0
 40
0
 40
0
 40
1
 40
1
 40
1
 40
1
 10
249.277661
 20
293.290124
 30
0.0
 10
249.549360
 20
293.561822
 30
0.0
 10
249.630637
 20
293.970434
 30
0.0
 10
249.483596
 20
294.325425
 30
0.0
  0
SPLINE
  5
113
100
AcDbEntity
  8
Layer_1
 62
1
100
AcDbSpline
 70
8
 71
3
 72
8
 73
4
 74
0
 40
0
 40
0
 40
0
 40
0
 40
1
 40
1
 40
1
 40
1
 10
249.483596
 20
294.325425
 30
0.0
 10
249.336554
 20
294.680415
 30
0.0
 10
248.990149
 20
294.911875
 30
0.0
 10
248.605910
 20
294.911875
 30
0.0
  0
SPLINE
  5
114
100
AcDbEntity
  8
Layer_1
 62
1
100
AcDbSpline
 70
8
 71
3
 72
8
 73
4
 74
0
 40
0
 40
0
 40
0
 40
0
 40
1
 40
1
 40
1
 40
1
 10
248.605910
 20
294.911875
 30
0.0
 10
248.353954
 20
294.911875
 30
0.0
 10
248.112318
 20
294.811786
 30
0.0
 10
247.934159
 20
294.633627
 30
0.0
  0
SPLINE
  5
115
100
AcDbEntity
  8
Layer_1
 62
1
100
AcDbSpline
 70
8
 71
3
 72
8
 73
4
 74
0
 40
0
 40
0
 40
0
 40
0
 40
1
 40
1
 40
1
 40
1
 10
247.934159
 20
294.633627
 30
0.0
 10
247.755999
 20
294.455467
 30
0.0
 10
247.655910
 20
294.213831
 30
0.0
 10
247.655910
 20
293.961875
 30
0.0
  0
LINE
  5
116
100
AcDbEntity
  8
Layer_1
 62
1
100
AcDbLine
 10
247.655910
 20
293.961875
 30
0.0
 11
247.655910
 21
293.961875
 31
0.0
  0
SPLINE
  5
117
100
AcDbEntity
  8
Layer_1
 62
1
100
AcDbSpline
 70
8
 71
3
 72
8
 73
4
 74
0
 40
0
 40
0
 40
0
 40
0
 40
1
 40
1
 40
1
 40
1
 10
293.370950
 20
276.184471
 30
0.0
 10
293.370950
 20
275.800232
 30
0.0
 10
293.602410
 20
275.453827
 30
0.0
 10
293.957401
 20
275.306785
 30
0.0
  0
SPLINE
  5
118
100
AcDbEntity
  8
Layer_1
 62
1
100
AcDbSpline
 70
8
 71
3
 72
8
 73
4
 74
0
 40
0
 40
0
 40
0
 40
0
 40
1
 40
1
 40
1
 40
1
 10
293.957401
 20
275.306785
 30
0.0
 10
294.312391
 20
275.159744
 30
0.0
 10
294.721003
 20
275.241021
 30
0.0
 10
294.992701
 20
275.512720
 30
0.0
  0
SPLINE
  5
119
100
AcDbEntity
  8
Layer_1
 62
1
100
AcDbSpline
 70
8
 71
3
 72
8
 73
4
 74
0
 40
0
 40
0
 40
0
 40
0
 40
1
 40
1
 40
1
 40
1
 10
294.992701
 20
275.512720
 30
0.0
 10
295.264400
 20
275.784418
 30
0.0
 10
295.345677
 20
276.193030
 30
0.0
 10
295.198636
 20
276.548020
 30
0.0
  0
SPLINE
  5
11a
100
AcDbEntity
  8
Layer_1
 62
1
100
AcDbSpline
 70
8
 71
3
 72
8
 73
4
 74
0
 40
0
 40
0
 40
0
 40
0
 40
1
 40
1
 40
1
 40
1
 10
295.198636
 20
276.548020
 30
0.0
 10
295.051594
 20
276.903011
 30
0.0
 10
294.705189
 20
277.134471
 30
0.0
 10
294.320950
 20
277.134471
 30
0.0
  0
SPLINE
  5
11b
100
AcDbEntity
  8
Layer_1
 62
1
100
AcDbSpline
 70
8
 71
3
 72
8
 73
4
 74
0
 40
0
 40
0
 40
0
 40
0
 40
1
 40
1
 40
1
 40
1
 10
294.320950
 20
277.134471
 30
0.0
 10
293.796279
 20
277.134471
 30
0.0
 10
293.370950
 20
276.709142
 30
0.0
 10
293.370950
 20
276.184471
 30
0.0
  0
LINE
  5
11c
100
AcDbEntity
  8
Layer_1
 62
1
100
AcDbLine
 10
293.370950
 20
276.184471
 30
0.0
 11
293.370950
 21
276.184471
 31
0.0
  0
SPLINE
  5
11d
100
AcDbEntity
  8
Layer_1
 62
1
100
AcDbSpline
 70
8
 71
3
 72
8
 73
4
 74
0
 40
0
 40
0
 40
0
 40
0
 40
1
 40
1
 40
1
 40
1
 10
293.370950
 20
293.961875
 30
0.0
 10
293.370950
 20
293.577636
 30
0.0
 10
293.602410
 20
293.231232
 30
0.0
 10
293.957401
 20
293.084190
 30
0.0
  0
SPLINE
  5
11e
100
AcDbEntity
  8
Layer_1
 62
1
100
AcDbSpline
 70
8
 71
3
 72
8
 73
4
 74
0
 40
0
 40
0
 40
0
 40
0
 40
1
 40
1
 40
1
 40
1
 10
293.957401
 20
293.084190
 30
0.0
 10
294.312391
 20
292.937148
 30
0.0
 10
294.721003
 20
293.018426
 30
0.0
 10
294.992701
 20
293.290124
 30
0.0
  0
SPLINE
  5
11f
100
AcDbEntity
  8
Layer_1
 62
1
100
AcDbSpline
 70
8
 71
3
 72
8
 73
4
 74
0
 40
0
 40
0
 40
0
 40
0
 40
1
 40
1
 40
1
 40
1
 10
294.992701
 20
293.290124
 30
0.0
 10
295.264400
 20
293.561822
 30
0.0
 10
295.345677
 20
293.970434
 30
0.0
 10
295.198636
 20
294.325425
 30
0.0
  0
SPLINE
  5
120
100
AcDbEntity
  8
Layer_1
 62
1
100
AcDbSpline
 70
8
 71
3
 72
8
 73
4
 74
0
 40
0
 40
0
 40
0
 40
0
 40
1
 40
1
 40
1
 40
1
 10
295.198636
 20
294.325425
 30
0.0
 10
295.051594
 20
294.680415
 30
0.0
 10
294.705189
 20
294.911875
 30
0.0
 10
294.320950
 20
294.911875
 30
0.0
  0
SPLINE
  5
121
100
AcDbEntity
  8
Layer_1
 62
1
100
AcDbSpline
 70
8
 71
3
 72
8
 73
4
 74
0
 40
0
 40
0
 40
0
 40
0
 40
1
 40
1
 40
1
 40
1
 10
294.320950
 20
294.911875
 30
0.0
 10
294.068994
 20
294.911875
 30
0.0
 10
293.827358
 20
294.811786
 30
0.0
 10
293.649199
 20
294.633627
 30
0.0
  0
SPLINE
  5
122
100
AcDbEntity
  8
Layer_1
 62
1
100
AcDbSpline
 70
8
 71
3
 72
8
 73
4
 74
0
 40
0
 40
0
 40
0
 40
0
 40
1
 40
1
 40
1
 40
1
 10
293.649199
 20
294.633627
 30
0.0
 10
293.471039
 20
294.455467
 30
0.0
 10
293.370950
 20
294.213831
 30
0.0
 10
293.370950
 20
293.961875
 30
0.0
  0
LINE
  5
123
100
AcDbEntity
  8
Layer_1
 62
1
100
AcDbLine
 10
293.370950
 20
293.961875
 30
0.0
 11
293.370950
 21
293.961875
 31
0.0
  0
ENDSEC
  0
SECTION
  2
OBJECTS
  0
DICTIONARY
  5
C
330
0
100
AcDbDictionary
  3
ACAD_GROUP
350
D
  3
ACAD_MLINESTYLE
350
17
  0
DICTIONARY
  5
D
330
C
100
AcDbDictionary
  0
DICTIONARY
  5
1A
330
C
100
AcDbDictionary
  0
DICTIONARY
  5
17
330
C
100
AcDbDictionary
  3
STANDARD
350
18
  0
DICTIONARY
  5
19
330
C
100
AcDbDictionary
  0
ENDSEC
  0
EOF
