  0
SECTION
  2
HEADER
  9
$ACADVER
  1
AC1014
  9
$HANDSEED
  5
FFFF
  9
$INSUNITS
 70
     0
  9
$MEASUREMENT
 70
     1
  0
ENDSEC
  0
SECTION
  2
TABLES
  0
TABLE
  2
VPORT
  5
8
330
0
100
AcDbSymbolTable
 70
     4
  0
VPORT
  5
2E
330
8
100
AcDbSymbolTableRecord
100
AcDbViewportTableRecord
  2
*ACTIVE
 70
     0
 10
0.0
 20
0.0
 11
1.0
 21
1.0
 12
210.0
 22
148.5
 13
0.0
 23
0.0
 14
10.0
 24
10.0
 15
10.0
 25
10.0
 16
0.0
 26
0.0
 36
1.0
 17
0.0
 27
0.0
 37
0.0
 40
341.0
 41
1.24
 42
50.0
 43
0.0
 44
0.0
 50
0.0
 51
0.0
 71
     0
 72
   100
 73
     1
 74
     3
 75
     0
 76
     0
 77
     0
 78
     0
  0
ENDTAB
  0
TABLE
  2
LTYPE
  5
5
330
0
100
AcDbSymbolTable
 70
     1
  0
LTYPE
  5
14
330
5
100
AcDbSymbolTableRecord
100
AcDbLinetypeTableRecord
  2
BYBLOCK
 70
     0
  3

 72
    65
 73
     0
 40
0.0
  0
LTYPE
  5
15
330
5
100
AcDbSymbolTableRecord
100
AcDbLinetypeTableRecord
  2
BYLAYER
 70
     0
  3

 72
    65
 73
     0
 40
0.0
  0
LTYPE
  5
16
330
5
100
AcDbSymbolTableRecord
100
AcDbLinetypeTableRecord
  2
CONTINUOUS
 70
     0
  3
Solid line
 72
    65
 73
     0
 40
0.0
  0
ENDTAB
  0
TABLE
  2
LAYER
  5
2
100
AcDbSymbolTable
 70
2
  0
LAYER
  5
50
100
AcDbSymbolTableRecord
100
AcDbLayerTableRecord
  2
0
 70
0
  6
CONTINUOUS
  0
LAYER
  5
51
100
AcDbSymbolTableRecord
100
AcDbLayerTableRecord
  2
Layer_1
 70
0
  6
CONTINUOUS
  0
ENDTAB
  0
TABLE
  2
STYLE
  5
3
330
0
100
AcDbSymbolTable
 70
     1
  0
STYLE
  5
11
330
3
100
AcDbSymbolTableRecord
100
AcDbTextStyleTableRecord
  2
STANDARD
 70
     0
 40
0.0
 41
1.0
 50
0.0
 71
     0
 42
2.5
  3
txt
  4

  0
ENDTAB
  0
TABLE
  2
VIEW
  5
6
330
0
100
AcDbSymbolTable
 70
     0
  0
ENDTAB
  0
TABLE
  2
UCS
  5
7
330
0
100
AcDbSymbolTable
 70
     0
  0
ENDTAB
  0
TABLE
  2
APPID
  5
9
330
0
100
AcDbSymbolTable
 70
     2
  0
APPID
  5
12
330
9
100
AcDbSymbolTableRecord
100
AcDbRegAppTableRecord
  2
ACAD
 70
     0
  0
ENDTAB
  0
TABLE
  2
DIMSTYLE
  5
A
330
0
100
AcDbSymbolTable
 70
     1
  0
DIMSTYLE
105
27
330
A
100
AcDbSymbolTableRecord
100
AcDbDimStyleTableRecord
  2
ISO-25
 70
     0
  3

  4

  5

  6

  7

 40
1.0
 41
2.5
 42
0.625
 43
3.75
 44
1.25
 45
0.0
 46
0.0
 47
0.0
 48
0.0
140
2.5
141
2.5
142
0.0
143
0.03937007874016
144
1.0
145
0.0
146
1.0
147
0.625
 71
     0
 72
     0
 73
     0
 74
     0
 75
     0
 76
     0
 77
     1
 78
     8
170
     0
171
     3
172
     1
173
     0
174
     0
175
     0
176
     0
177
     0
178
     0
270
     2
271
     2
272
     2
273
     2
274
     3
340
11
275
     0
280
     0
281
     0
282
     0
283
     0
284
     8
285
     0
286
     0
287
     3
288
     0
  0
ENDTAB
  0
TABLE
  2
BLOCK_RECORD
  5
1
330
0
100
AcDbSymbolTable
 70
     1
  0
BLOCK_RECORD
  5
1F
330
1
100
AcDbSymbolTableRecord
100
AcDbBlockTableRecord
  2
*MODEL_SPACE
  0
BLOCK_RECORD
  5
1B
330
1
100
AcDbSymbolTableRecord
100
AcDbBlockTableRecord
  2
*PAPER_SPACE
  0
ENDTAB
  0
ENDSEC
  0
SECTION
  2
BLOCKS
  0
BLOCK
  5
20
330
1F
100
AcDbEntity
  8
0
100
AcDbBlockBegin
  2
*MODEL_SPACE
 70
     0
 10
0.0
 20
0.0
 30
0.0
  3
*MODEL_SPACE
  1

  0
ENDBLK
  5
21
330
1F
100
AcDbEntity
  8
0
100
AcDbBlockEnd
  0
BLOCK
  5
1C
330
1B
100
AcDbEntity
 67
     1
  8
0
100
AcDbBlockBegin
  2
*PAPER_SPACE
  1

  0
ENDBLK
  5
1D
330
1B
100
AcDbEntity
 67
     1
  8
0
100
AcDbBlockEnd
  0
ENDSEC
  0
SECTION
  2
ENTITIES
  0
LINE
  5
100
100
AcDbEntity
  8
Layer_1
 62
3
100
AcDbLine
 10
-7.469141
 20
211.738281
 30
0.0
 11
307.510160
 21
211.738281
 31
0.0
  0
SPLINE
  5
101
100
AcDbEntity
  8
Layer_1
 62
3
100
AcDbSpline
 70
8
 71
3
 72
8
 73
4
 74
0
 40
0
 40
0
 40
0
 40
0
 40
1
 40
1
 40
1
 40
1
 10
307.510160
 20
211.738281
 30
0.0
 10
307.931191
 20
211.738281
 30
0.0
 10
308.334978
 20
211.905535
 30
0.0
 10
308.632692
 20
212.203249
 30
0.0
  0
SPLINE
  5
102
100
AcDbEntity
  8
Layer_1
 62
3
100
AcDbSpline
 70
8
 71
3
 72
8
 73
4
 74
0
 40
0
 40
0
 40
0
 40
0
 40
1
 40
1
 40
1
 40
1
 10
308.632692
 20
212.203249
 30
0.0
 10
308.930406
 20
212.500963
 30
0.0
 10
309.097660
 20
212.904750
 30
0.0
 10
309.097660
 20
213.325781
 30
0.0
  0
LINE
  5
103
100
AcDbEntity
  8
Layer_1
 62
3
100
AcDbLine
 10
309.097660
 20
213.325781
 30
0.0
 11
309.097660
 21
304.469141
 31
0.0
  0
SPLINE
  5
104
100
AcDbEntity
  8
Layer_1
 62
3
100
AcDbSpline
 70
8
 71
3
 72
8
 73
4
 74
0
 40
0
 40
0
 40
0
 40
0
 40
1
 40
1
 40
1
 40
1
 10
309.097660
 20
304.469141
 30
0.0
 10
309.097660
 20
304.890172
 30
0.0
 10
308.930406
 20
305.293959
 30
0.0
 10
308.632692
 20
305.591673
 30
0.0
  0
SPLINE
  5
105
100
AcDbEntity
  8
Layer_1
 62
3
100
AcDbSpline
 70
8
 71
3
 72
8
 73
4
 74
0
 40
0
 40
0
 40
0
 40
0
 40
1
 40
1
 40
1
 40
1
 10
308.632692
 20
305.591673
 30
0.0
 10
308.334978
 20
305.889387
 30
0.0
 10
307.931191
 20
306.056641
 30
0.0
 10
307.510160
 20
306.056641
 30
0.0
  0
LINE
  5
106
100
AcDbEntity
  8
Layer_1
 62
3
100
AcDbLine
 10
307.510160
 20
306.056641
 30
0.0
 11
-7.469141
 21
306.056641
 31
0.0
  0
SPLINE
  5
107
100
AcDbEntity
  8
Layer_1
 62
3
100
AcDbSpline
 70
8
 71
3
 72
8
 73
4
 74
0
 40
0
 40
0
 40
0
 40
0
 40
1
 40
1
 40
1
 40
1
 10
-7.469141
 20
306.056641
 30
0.0
 10
-7.890172
 20
306.056641
 30
0.0
 10
-8.293959
 20
305.889387
 30
0.0
 10
-8.591673
 20
305.591673
 30
0.0
  0
SPLINE
  5
108
100
AcDbEntity
  8
Layer_1
 62
3
100
AcDbSpline
 70
8
 71
3
 72
8
 73
4
 74
0
 40
0
 40
0
 40
0
 40
0
 40
1
 40
1
 40
1
 40
1
 10
-8.591673
 20
305.591673
 30
0.0
 10
-8.889387
 20
305.293959
 30
0.0
 10
-9.056641
 20
304.890172
 30
0.0
 10
-9.056641
 20
304.469141
 30
0.0
  0
LINE
  5
109
100
AcDbEntity
  8
Layer_1
 62
3
100
AcDbLine
 10
-9.056641
 20
304.469141
 30
0.0
 11
-9.056641
 21
213.325781
 31
0.0
  0
SPLINE
  5
10a
100
AcDbEntity
  8
Layer_1
 62
3
100
AcDbSpline
 70
8
 71
3
 72
8
 73
4
 74
0
 40
0
 40
0
 40
0
 40
0
 40
1
 40
1
 40
1
 40
1
 10
-9.056641
 20
213.325781
 30
0.0
 10
-9.056641
 20
212.904750
 30
0.0
 10
-8.889387
 20
212.500963
 30
0.0
 10
-8.591673
 20
212.203249
 30
0.0
  0
SPLINE
  5
10b
100
AcDbEntity
  8
Layer_1
 62
3
100
AcDbSpline
 70
8
 71
3
 72
8
 73
4
 74
0
 40
0
 40
0
 40
0
 40
0
 40
1
 40
1
 40
1
 40
1
 10
-8.591673
 20
212.203249
 30
0.0
 10
-8.293959
 20
211.905535
 30
0.0
 10
-7.890172
 20
211.738281
 30
0.0
 10
-7.469141
 20
211.738281
 30
0.0
  0
LINE
  5
10c
100
AcDbEntity
  8
Layer_1
 62
3
100
AcDbLine
 10
-7.469141
 20
211.738281
 30
0.0
 11
-7.469141
 21
211.738281
 31
0.0
  0
LINE
  5
10d
100
AcDbEntity
  8
Layer_1
 62
3
100
AcDbLine
 10
-0.529817
 20
296.470836
 30
0.0
 11
-0.529817
 21
279.005335
 31
0.0
  0
SPLINE
  5
10e
100
AcDbEntity
  8
Layer_1
 62
3
100
AcDbSpline
 70
8
 71
3
 72
8
 73
4
 74
0
 40
0
 40
0
 40
0
 40
0
 40
1
 40
1
 40
1
 40
1
 10
-0.529817
 20
279.005335
 30
0.0
 10
-0.821791
 20
278.712808
 30
0.0
 10
-0.821344
 20
278.238976
 30
0.0
 10
-0.528817
 20
277.947002
 30
0.0
  0
LINE
  5
10f
100
AcDbEntity
  8
Layer_1
 62
3
100
AcDbLine
 10
-0.528817
 20
277.947002
 30
0.0
 11
-0.528817
 21
259.957335
 31
0.0
  0
SPLINE
  5
110
100
AcDbEntity
  8
Layer_1
 62
3
100
AcDbSpline
 70
8
 71
3
 72
8
 73
4
 74
0
 40
0
 40
0
 40
0
 40
0
 40
1
 40
1
 40
1
 40
1
 10
-0.528817
 20
259.957335
 30
0.0
 10
-0.236843
 20
259.664808
 30
0.0
 10
-0.237290
 20
259.190976
 30
0.0
 10
-0.529817
 20
258.899002
 30
0.0
  0
LINE
  5
111
100
AcDbEntity
  8
Layer_1
 62
3
100
AcDbLine
 10
-0.529817
 20
258.899002
 30
0.0
 11
-0.529817
 21
240.905335
 31
0.0
  0
SPLINE
  5
112
100
AcDbEntity
  8
Layer_1
 62
3
100
AcDbSpline
 70
8
 71
3
 72
8
 73
4
 74
0
 40
0
 40
0
 40
0
 40
0
 40
1
 40
1
 40
1
 40
1
 10
-0.529817
 20
240.905335
 30
0.0
 10
-0.821791
 20
240.612808
 30
0.0
 10
-0.821344
 20
240.138976
 30
0.0
 10
-0.528817
 20
239.847002
 30
0.0
  0
LINE
  5
113
100
AcDbEntity
  8
Layer_1
 62
3
100
AcDbLine
 10
-0.528817
 20
239.847002
 30
0.0
 11
-0.528817
 21
221.326168
 31
0.0
  0
SPLINE
  5
114
100
AcDbEntity
  8
Layer_1
 62
3
100
AcDbSpline
 70
8
 71
3
 72
8
 73
4
 74
0
 40
0
 40
0
 40
0
 40
0
 40
1
 40
1
 40
1
 40
1
 10
-0.528817
 20
221.326168
 30
0.0
 10
-0.528817
 20
220.741667
 30
0.0
 10
-0.054985
 20
220.267835
 30
0.0
 10
0.529516
 20
220.267835
 30
0.0
  0
LINE
  5
115
100
AcDbEntity
  8
Layer_1
 62
3
100
AcDbLine
 10
0.529516
 20
220.267835
 30
0.0
 11
28.048184
 21
220.267835
 31
0.0
  0
SPLINE
  5
116
100
AcDbEntity
  8
Layer_1
 62
3
100
AcDbSpline
 70
8
 71
3
 72
8
 73
4
 74
0
 40
0
 40
0
 40
0
 40
0
 40
1
 40
1
 40
1
 40
1
 10
28.048184
 20
220.267835
 30
0.0
 10
28.632685
 20
220.267835
 30
0.0
 10
29.106517
 20
220.741667
 30
0.0
 10
29.106517
 20
221.326168
 30
0.0
  0
LINE
  5
117
100
AcDbEntity
  8
Layer_1
 62
3
100
AcDbLine
 10
29.106517
 20
221.326168
 30
0.0
 11
29.106517
 21
238.259502
 31
0.0
  0
SPLINE
  5
118
100
AcDbEntity
  8
Layer_1
 62
3
100
AcDbSpline
 70
8
 71
3
 72
8
 73
4
 74
0
 40
0
 40
0
 40
0
 40
0
 40
1
 40
1
 40
1
 40
1
 10
29.106517
 20
238.259502
 30
0.0
 10
29.106517
 20
238.844003
 30
0.0
 10
29.580349
 20
239.317835
 30
0.0
 10
30.164850
 20
239.317835
 30
0.0
  0
LINE
  5
119
100
AcDbEntity
  8
Layer_1
 62
3
100
AcDbLine
 10
30.164850
 20
239.317835
 30
0.0
 11
46.037850
 21
239.317835
 31
0.0
  0
SPLINE
  5
11a
100
AcDbEntity
  8
Layer_1
 62
3
100
AcDbSpline
 70
8
 71
3
 72
8
 73
4
 74
0
 40
0
 40
0
 40
0
 40
0
 40
1
 40
1
 40
1
 40
1
 10
46.037850
 20
239.317835
 30
0.0
 10
46.622351
 20
239.317835
 30
0.0
 10
47.096183
 20
238.844003
 30
0.0
 10
47.096183
 20
238.259502
 30
0.0
  0
LINE
  5
11b
100
AcDbEntity
  8
Layer_1
 62
3
100
AcDbLine
 10
47.096183
 20
238.259502
 30
0.0
 11
47.096183
 21
221.326168
 31
0.0
  0
SPLINE
  5
11c
100
AcDbEntity
  8
Layer_1
 62
3
100
AcDbSpline
 70
8
 71
3
 72
8
 73
4
 74
0
 40
0
 40
0
 40
0
 40
0
 40
1
 40
1
 40
1
 40
1
 10
47.096183
 20
221.326168
 30
0.0
 10
47.096183
 20
220.741667
 30
0.0
 10
47.570015
 20
220.267835
 30
0.0
 10
48.154516
 20
220.267835
 30
0.0
  0
LINE
  5
11d
100
AcDbEntity
  8
Layer_1
 62
3
100
AcDbLine
 10
48.154516
 20
220.267835
 30
0.0
 11
194.735190
 21
220.267835
 31
0.0
  0
SPLINE
  5
11e
100
AcDbEntity
  8
Layer_1
 62
3
100
AcDbSpline
 70
8
 71
3
 72
8
 73
4
 74
0
 40
0
 40
0
 40
0
 40
0
 40
1
 40
1
 40
1
 40
1
 10
194.735190
 20
220.267835
 30
0.0
 10
195.319690
 20
220.267837
 30
0.0
 10
195.793520
 20
220.741668
 30
0.0
 10
195.793520
 20
221.326168
 30
0.0
  0
LINE
  5
11f
100
AcDbEntity
  8
Layer_1
 62
3
100
AcDbLine
 10
195.793520
 20
221.326168
 30
0.0
 11
195.793520
 21
238.259502
 31
0.0
  0
SPLINE
  5
120
100
AcDbEntity
  8
Layer_1
 62
3
100
AcDbSpline
 70
8
 71
3
 72
8
 73
4
 74
0
 40
0
 40
0
 40
0
 40
0
 40
1
 40
1
 40
1
 40
1
 10
195.793520
 20
238.259502
 30
0.0
 10
195.793520
 20
238.844002
 30
0.0
 10
196.267350
 20
239.317833
 30
0.0
 10
196.851850
 20
239.317835
 30
0.0
  0
LINE
  5
121
100
AcDbEntity
  8
Layer_1
 62
3
100
AcDbLine
 10
196.851850
 20
239.317835
 30
0.0
 11
212.724850
 21
239.317835
 31
0.0
  0
SPLINE
  5
122
100
AcDbEntity
  8
Layer_1
 62
3
100
AcDbSpline
 70
8
 71
3
 72
8
 73
4
 74
0
 40
0
 40
0
 40
0
 40
0
 40
1
 40
1
 40
1
 40
1
 10
212.724850
 20
239.317835
 30
0.0
 10
213.309350
 20
239.317833
 30
0.0
 10
213.783180
 20
238.844002
 30
0.0
 10
213.783180
 20
238.259502
 30
0.0
  0
LINE
  5
123
100
AcDbEntity
  8
Layer_1
 62
3
100
AcDbLine
 10
213.783180
 20
238.259502
 30
0.0
 11
213.783180
 21
221.326168
 31
0.0
  0
SPLINE
  5
124
100
AcDbEntity
  8
Layer_1
 62
3
100
AcDbSpline
 70
8
 71
3
 72
8
 73
4
 74
0
 40
0
 40
0
 40
0
 40
0
 40
1
 40
1
 40
1
 40
1
 10
213.783180
 20
221.326168
 30
0.0
 10
213.783180
 20
220.741668
 30
0.0
 10
214.257010
 20
220.267837
 30
0.0
 10
214.841510
 20
220.267835
 30
0.0
  0
LINE
  5
125
100
AcDbEntity
  8
Layer_1
 62
3
100
AcDbLine
 10
214.841510
 20
220.267835
 30
0.0
 11
237.598190
 21
220.267835
 31
0.0
  0
SPLINE
  5
126
100
AcDbEntity
  8
Layer_1
 62
3
100
AcDbSpline
 70
8
 71
3
 72
8
 73
4
 74
0
 40
0
 40
0
 40
0
 40
0
 40
1
 40
1
 40
1
 40
1
 10
237.598190
 20
220.267835
 30
0.0
 10
238.182690
 20
220.267837
 30
0.0
 10
238.656520
 20
220.741668
 30
0.0
 10
238.656520
 20
221.326168
 30
0.0
  0
LINE
  5
127
100
AcDbEntity
  8
Layer_1
 62
3
100
AcDbLine
 10
238.656520
 20
221.326168
 30
0.0
 11
238.656520
 21
296.470836
 31
0.0
  0
SPLINE
  5
128
100
AcDbEntity
  8
Layer_1
 62
3
100
AcDbSpline
 70
8
 71
3
 72
8
 73
4
 74
0
 40
0
 40
0
 40
0
 40
0
 40
1
 40
1
 40
1
 40
1
 10
238.656520
 20
296.470836
 30
0.0
 10
238.656520
 20
297.055336
 30
0.0
 10
238.182690
 20
297.529167
 30
0.0
 10
237.598190
 20
297.529169
 30
0.0
  0
LINE
  5
129
100
AcDbEntity
  8
Layer_1
 62
3
100
AcDbLine
 10
237.598190
 20
297.529169
 30
0.0
 11
0.528516
 21
297.529169
 31
0.0
  0
SPLINE
  5
12a
100
AcDbEntity
  8
Layer_1
 62
3
100
AcDbSpline
 70
8
 71
3
 72
8
 73
4
 74
0
 40
0
 40
0
 40
0
 40
0
 40
1
 40
1
 40
1
 40
1
 10
0.528516
 20
297.529169
 30
0.0
 10
-0.055985
 20
297.529169
 30
0.0
 10
-0.529817
 20
297.055337
 30
0.0
 10
-0.529817
 20
296.470836
 30
0.0
  0
LINE
  5
12b
100
AcDbEntity
  8
Layer_1
 62
3
100
AcDbLine
 10
-0.529817
 20
296.470836
 30
0.0
 11
-0.529817
 21
296.470836
 31
0.0
  0
LINE
  5
12c
100
AcDbEntity
  8
Layer_1
 62
3
100
AcDbLine
 10
261.407600
 20
257.840060
 30
0.0
 11
261.407600
 21
241.437194
 31
0.0
  0
SPLINE
  5
12d
100
AcDbEntity
  8
Layer_1
 62
3
100
AcDbSpline
 70
8
 71
3
 72
8
 73
4
 74
0
 40
0
 40
0
 40
0
 40
0
 40
1
 40
1
 40
1
 40
1
 10
261.407600
 20
241.437194
 30
0.0
 10
261.407600
 20
240.852694
 30
0.0
 10
260.933770
 20
240.378863
 30
0.0
 10
260.349270
 20
240.378861
 30
0.0
  0
LINE
  5
12e
100
AcDbEntity
  8
Layer_1
 62
3
100
AcDbLine
 10
260.349270
 20
240.378861
 30
0.0
 11
243.417100
 21
240.378861
 31
0.0
  0
SPLINE
  5
12f
100
AcDbEntity
  8
Layer_1
 62
3
100
AcDbSpline
 70
8
 71
3
 72
8
 73
4
 74
0
 40
0
 40
0
 40
0
 40
0
 40
1
 40
1
 40
1
 40
1
 10
243.417100
 20
240.378861
 30
0.0
 10
242.832600
 20
240.378859
 30
0.0
 10
242.358770
 20
239.905028
 30
0.0
 10
242.358770
 20
239.320528
 30
0.0
  0
LINE
  5
130
100
AcDbEntity
  8
Layer_1
 62
3
100
AcDbLine
 10
242.358770
 20
239.320528
 30
0.0
 11
242.358770
 21
221.325866
 31
0.0
  0
SPLINE
  5
131
100
AcDbEntity
  8
Layer_1
 62
3
100
AcDbSpline
 70
8
 71
3
 72
8
 73
4
 74
0
 40
0
 40
0
 40
0
 40
0
 40
1
 40
1
 40
1
 40
1
 10
242.358770
 20
221.325866
 30
0.0
 10
242.358770
 20
220.741366
 30
0.0
 10
242.832600
 20
220.267535
 30
0.0
 10
243.417100
 20
220.267533
 30
0.0
  0
LINE
  5
132
100
AcDbEntity
  8
Layer_1
 62
3
100
AcDbLine
 10
243.417100
 20
220.267533
 30
0.0
 11
299.509430
 21
220.267533
 31
0.0
  0
SPLINE
  5
133
100
AcDbEntity
  8
Layer_1
 62
3
100
AcDbSpline
 70
8
 71
3
 72
8
 73
4
 74
0
 40
0
 40
0
 40
0
 40
0
 40
1
 40
1
 40
1
 40
1
 10
299.509430
 20
220.267533
 30
0.0
 10
300.093930
 20
220.267535
 30
0.0
 10
300.567760
 20
220.741366
 30
0.0
 10
300.567760
 20
221.325866
 30
0.0
  0
LINE
  5
134
100
AcDbEntity
  8
Layer_1
 62
3
100
AcDbLine
 10
300.567760
 20
221.325866
 30
0.0
 11
300.567760
 21
239.320528
 31
0.0
  0
SPLINE
  5
135
100
AcDbEntity
  8
Layer_1
 62
3
100
AcDbSpline
 70
8
 71
3
 72
8
 73
4
 74
0
 40
0
 40
0
 40
0
 40
0
 40
1
 40
1
 40
1
 40
1
 10
300.567760
 20
239.320528
 30
0.0
 10
300.567760
 20
239.905028
 30
0.0
 10
300.093930
 20
240.378859
 30
0.0
 10
299.509430
 20
240.378861
 30
0.0
  0
LINE
  5
136
100
AcDbEntity
  8
Layer_1
 62
3
100
AcDbLine
 10
299.509430
 20
240.378861
 30
0.0
 11
282.577260
 21
240.378861
 31
0.0
  0
SPLINE
  5
137
100
AcDbEntity
  8
Layer_1
 62
3
100
AcDbSpline
 70
8
 71
3
 72
8
 73
4
 74
0
 40
0
 40
0
 40
0
 40
0
 40
1
 40
1
 40
1
 40
1
 10
282.577260
 20
240.378861
 30
0.0
 10
281.992760
 20
240.378863
 30
0.0
 10
281.518930
 20
240.852694
 30
0.0
 10
281.518930
 20
241.437194
 30
0.0
  0
LINE
  5
138
100
AcDbEntity
  8
Layer_1
 62
3
100
AcDbLine
 10
281.518930
 20
241.437194
 30
0.0
 11
281.518930
 21
258.369357
 31
0.0
  0
SPLINE
  5
139
100
AcDbEntity
  8
Layer_1
 62
3
100
AcDbSpline
 70
8
 71
3
 72
8
 73
4
 74
0
 40
0
 40
0
 40
0
 40
0
 40
1
 40
1
 40
1
 40
1
 10
281.518930
 20
258.369357
 30
0.0
 10
281.518930
 20
258.953857
 30
0.0
 10
281.045100
 20
259.427688
 30
0.0
 10
280.460600
 20
259.427690
 30
0.0
  0
LINE
  5
13a
100
AcDbEntity
  8
Layer_1
 62
3
100
AcDbLine
 10
280.460600
 20
259.427690
 30
0.0
 11
262.465930
 21
259.427690
 31
0.0
  0
SPLINE
  5
13b
100
AcDbEntity
  8
Layer_1
 62
3
100
AcDbSpline
 70
8
 71
3
 72
8
 73
4
 74
0
 40
0
 40
0
 40
0
 40
0
 40
1
 40
1
 40
1
 40
1
 10
262.465930
 20
259.427690
 30
0.0
 10
262.027519
 20
259.573777
 30
0.0
 10
261.553689
 20
259.336803
 30
0.0
 10
261.407600
 20
258.898393
 30
0.0
  0
LINE
  5
13c
100
AcDbEntity
  8
Layer_1
 62
3
100
AcDbLine
 10
261.407600
 20
258.898393
 30
0.0
 11
261.407600
 21
257.840060
 31
0.0
  0
SPLINE
  5
13d
100
AcDbEntity
  8
Layer_1
 62
3
100
AcDbSpline
 70
8
 71
3
 72
8
 73
4
 74
0
 40
0
 40
0
 40
0
 40
0
 40
1
 40
1
 40
1
 40
1
 10
304.036620
 20
303.004430
 30
0.0
 10
303.652381
 20
303.004430
 30
0.0
 10
303.305976
 20
302.772970
 30
0.0
 10
303.158934
 20
302.417979
 30
0.0
  0
SPLINE
  5
13e
100
AcDbEntity
  8
Layer_1
 62
3
100
AcDbSpline
 70
8
 71
3
 72
8
 73
4
 74
0
 40
0
 40
0
 40
0
 40
0
 40
1
 40
1
 40
1
 40
1
 10
303.158934
 20
302.417979
 30
0.0
 10
303.011893
 20
302.062989
 30
0.0
 10
303.093170
 20
301.654377
 30
0.0
 10
303.364869
 20
301.382679
 30
0.0
  0
SPLINE
  5
13f
100
AcDbEntity
  8
Layer_1
 62
3
100
AcDbSpline
 70
8
 71
3
 72
8
 73
4
 74
0
 40
0
 40
0
 40
0
 40
0
 40
1
 40
1
 40
1
 40
1
 10
303.364869
 20
301.382679
 30
0.0
 10
303.636567
 20
301.110980
 30
0.0
 10
304.045179
 20
301.029703
 30
0.0
 10
304.400169
 20
301.176744
 30
0.0
  0
SPLINE
  5
140
100
AcDbEntity
  8
Layer_1
 62
3
100
AcDbSpline
 70
8
 71
3
 72
8
 73
4
 74
0
 40
0
 40
0
 40
0
 40
0
 40
1
 40
1
 40
1
 40
1
 10
304.400169
 20
301.176744
 30
0.0
 10
304.755160
 20
301.323786
 30
0.0
 10
304.986620
 20
301.670191
 30
0.0
 10
304.986620
 20
302.054430
 30
0.0
  0
SPLINE
  5
141
100
AcDbEntity
  8
Layer_1
 62
3
100
AcDbSpline
 70
8
 71
3
 72
8
 73
4
 74
0
 40
0
 40
0
 40
0
 40
0
 40
1
 40
1
 40
1
 40
1
 10
304.986620
 20
302.054430
 30
0.0
 10
304.986620
 20
302.306386
 30
0.0
 10
304.886531
 20
302.548022
 30
0.0
 10
304.708371
 20
302.726181
 30
0.0
  0
SPLINE
  5
142
100
AcDbEntity
  8
Layer_1
 62
3
100
AcDbSpline
 70
8
 71
3
 72
8
 73
4
 74
0
 40
0
 40
0
 40
0
 40
0
 40
1
 40
1
 40
1
 40
1
 10
304.708371
 20
302.726181
 30
0.0
 10
304.530212
 20
302.904341
 30
0.0
 10
304.288576
 20
303.004430
 30
0.0
 10
304.036620
 20
303.004430
 30
0.0
  0
LINE
  5
143
100
AcDbEntity
  8
Layer_1
 62
3
100
AcDbLine
 10
304.036620
 20
303.004430
 30
0.0
 11
304.036620
 21
303.004430
 31
0.0
  0
SPLINE
  5
144
100
AcDbEntity
  8
Layer_1
 62
3
100
AcDbSpline
 70
8
 71
3
 72
8
 73
4
 74
0
 40
0
 40
0
 40
0
 40
0
 40
1
 40
1
 40
1
 40
1
 10
304.036620
 20
216.687198
 30
0.0
 10
303.652381
 20
216.687198
 30
0.0
 10
303.305976
 20
216.455738
 30
0.0
 10
303.158934
 20
216.100747
 30
0.0
  0
SPLINE
  5
145
100
AcDbEntity
  8
Layer_1
 62
3
100
AcDbSpline
 70
8
 71
3
 72
8
 73
4
 74
0
 40
0
 40
0
 40
0
 40
0
 40
1
 40
1
 40
1
 40
1
 10
303.158934
 20
216.100747
 30
0.0
 10
303.011893
 20
215.745757
 30
0.0
 10
303.093170
 20
215.337145
 30
0.0
 10
303.364869
 20
215.065447
 30
0.0
  0
SPLINE
  5
146
100
AcDbEntity
  8
Layer_1
 62
3
100
AcDbSpline
 70
8
 71
3
 72
8
 73
4
 74
0
 40
0
 40
0
 40
0
 40
0
 40
1
 40
1
 40
1
 40
1
 10
303.364869
 20
215.065447
 30
0.0
 10
303.636567
 20
214.793748
 30
0.0
 10
304.045179
 20
214.712471
 30
0.0
 10
304.400169
 20
214.859512
 30
0.0
  0
SPLINE
  5
147
100
AcDbEntity
  8
Layer_1
 62
3
100
AcDbSpline
 70
8
 71
3
 72
8
 73
4
 74
0
 40
0
 40
0
 40
0
 40
0
 40
1
 40
1
 40
1
 40
1
 10
304.400169
 20
214.859512
 30
0.0
 10
304.755160
 20
215.006554
 30
0.0
 10
304.986620
 20
215.352959
 30
0.0
 10
304.986620
 20
215.737198
 30
0.0
  0
SPLINE
  5
148
100
AcDbEntity
  8
Layer_1
 62
3
100
AcDbSpline
 70
8
 71
3
 72
8
 73
4
 74
0
 40
0
 40
0
 40
0
 40
0
 40
1
 40
1
 40
1
 40
1
 10
304.986620
 20
215.737198
 30
0.0
 10
304.986620
 20
215.989154
 30
0.0
 10
304.886531
 20
216.230790
 30
0.0
 10
304.708371
 20
216.408949
 30
0.0
  0
SPLINE
  5
149
100
AcDbEntity
  8
Layer_1
 62
3
100
AcDbSpline
 70
8
 71
3
 72
8
 73
4
 74
0
 40
0
 40
0
 40
0
 40
0
 40
1
 40
1
 40
1
 40
1
 10
304.708371
 20
216.408949
 30
0.0
 10
304.530212
 20
216.587109
 30
0.0
 10
304.288576
 20
216.687198
 30
0.0
 10
304.036620
 20
216.687198
 30
0.0
  0
LINE
  5
14a
100
AcDbEntity
  8
Layer_1
 62
3
100
AcDbLine
 10
304.036620
 20
216.687198
 30
0.0
 11
304.036620
 21
216.687198
 31
0.0
  0
SPLINE
  5
14b
100
AcDbEntity
  8
Layer_1
 62
3
100
AcDbSpline
 70
8
 71
3
 72
8
 73
4
 74
0
 40
0
 40
0
 40
0
 40
0
 40
1
 40
1
 40
1
 40
1
 10
204.788910
 20
303.004430
 30
0.0
 10
204.404671
 20
303.004430
 30
0.0
 10
204.058266
 20
302.772970
 30
0.0
 10
203.911224
 20
302.417979
 30
0.0
  0
SPLINE
  5
14c
100
AcDbEntity
  8
Layer_1
 62
3
100
AcDbSpline
 70
8
 71
3
 72
8
 73
4
 74
0
 40
0
 40
0
 40
0
 40
0
 40
1
 40
1
 40
1
 40
1
 10
203.911224
 20
302.417979
 30
0.0
 10
203.764183
 20
302.062989
 30
0.0
 10
203.845460
 20
301.654377
 30
0.0
 10
204.117159
 20
301.382679
 30
0.0
  0
SPLINE
  5
14d
100
AcDbEntity
  8
Layer_1
 62
3
100
AcDbSpline
 70
8
 71
3
 72
8
 73
4
 74
0
 40
0
 40
0
 40
0
 40
0
 40
1
 40
1
 40
1
 40
1
 10
204.117159
 20
301.382679
 30
0.0
 10
204.388857
 20
301.110980
 30
0.0
 10
204.797469
 20
301.029703
 30
0.0
 10
205.152459
 20
301.176744
 30
0.0
  0
SPLINE
  5
14e
100
AcDbEntity
  8
Layer_1
 62
3
100
AcDbSpline
 70
8
 71
3
 72
8
 73
4
 74
0
 40
0
 40
0
 40
0
 40
0
 40
1
 40
1
 40
1
 40
1
 10
205.152459
 20
301.176744
 30
0.0
 10
205.507450
 20
301.323786
 30
0.0
 10
205.738910
 20
301.670191
 30
0.0
 10
205.738910
 20
302.054430
 30
0.0
  0
SPLINE
  5
14f
100
AcDbEntity
  8
Layer_1
 62
3
100
AcDbSpline
 70
8
 71
3
 72
8
 73
4
 74
0
 40
0
 40
0
 40
0
 40
0
 40
1
 40
1
 40
1
 40
1
 10
205.738910
 20
302.054430
 30
0.0
 10
205.738910
 20
302.306386
 30
0.0
 10
205.638821
 20
302.548022
 30
0.0
 10
205.460661
 20
302.726181
 30
0.0
  0
SPLINE
  5
150
100
AcDbEntity
  8
Layer_1
 62
3
100
AcDbSpline
 70
8
 71
3
 72
8
 73
4
 74
0
 40
0
 40
0
 40
0
 40
0
 40
1
 40
1
 40
1
 40
1
 10
205.460661
 20
302.726181
 30
0.0
 10
205.282502
 20
302.904341
 30
0.0
 10
205.040866
 20
303.004430
 30
0.0
 10
204.788910
 20
303.004430
 30
0.0
  0
LINE
  5
151
100
AcDbEntity
  8
Layer_1
 62
3
100
AcDbLine
 10
204.788910
 20
303.004430
 30
0.0
 11
204.788910
 21
303.004430
 31
0.0
  0
SPLINE
  5
152
100
AcDbEntity
  8
Layer_1
 62
3
100
AcDbSpline
 70
8
 71
3
 72
8
 73
4
 74
0
 40
0
 40
0
 40
0
 40
0
 40
1
 40
1
 40
1
 40
1
 10
204.788910
 20
216.687198
 30
0.0
 10
204.404671
 20
216.687198
 30
0.0
 10
204.058266
 20
216.455738
 30
0.0
 10
203.911224
 20
216.100747
 30
0.0
  0
SPLINE
  5
153
100
AcDbEntity
  8
Layer_1
 62
3
100
AcDbSpline
 70
8
 71
3
 72
8
 73
4
 74
0
 40
0
 40
0
 40
0
 40
0
 40
1
 40
1
 40
1
 40
1
 10
203.911224
 20
216.100747
 30
0.0
 10
203.764183
 20
215.745757
 30
0.0
 10
203.845460
 20
215.337145
 30
0.0
 10
204.117159
 20
215.065447
 30
0.0
  0
SPLINE
  5
154
100
AcDbEntity
  8
Layer_1
 62
3
100
AcDbSpline
 70
8
 71
3
 72
8
 73
4
 74
0
 40
0
 40
0
 40
0
 40
0
 40
1
 40
1
 40
1
 40
1
 10
204.117159
 20
215.065447
 30
0.0
 10
204.388857
 20
214.793748
 30
0.0
 10
204.797469
 20
214.712471
 30
0.0
 10
205.152459
 20
214.859512
 30
0.0
  0
SPLINE
  5
155
100
AcDbEntity
  8
Layer_1
 62
3
100
AcDbSpline
 70
8
 71
3
 72
8
 73
4
 74
0
 40
0
 40
0
 40
0
 40
0
 40
1
 40
1
 40
1
 40
1
 10
205.152459
 20
214.859512
 30
0.0
 10
205.507450
 20
215.006554
 30
0.0
 10
205.738910
 20
215.352959
 30
0.0
 10
205.738910
 20
215.737198
 30
0.0
  0
SPLINE
  5
156
100
AcDbEntity
  8
Layer_1
 62
3
100
AcDbSpline
 70
8
 71
3
 72
8
 73
4
 74
0
 40
0
 40
0
 40
0
 40
0
 40
1
 40
1
 40
1
 40
1
 10
205.738910
 20
215.737198
 30
0.0
 10
205.738910
 20
215.989154
 30
0.0
 10
205.638821
 20
216.230790
 30
0.0
 10
205.460661
 20
216.408949
 30
0.0
  0
SPLINE
  5
157
100
AcDbEntity
  8
Layer_1
 62
3
100
AcDbSpline
 70
8
 71
3
 72
8
 73
4
 74
0
 40
0
 40
0
 40
0
 40
0
 40
1
 40
1
 40
1
 40
1
 10
205.460661
 20
216.408949
 30
0.0
 10
205.282502
 20
216.587109
 30
0.0
 10
205.040866
 20
216.687198
 30
0.0
 10
204.788910
 20
216.687198
 30
0.0
  0
LINE
  5
158
100
AcDbEntity
  8
Layer_1
 62
3
100
AcDbLine
 10
204.788910
 20
216.687198
 30
0.0
 11
204.788910
 21
216.687198
 31
0.0
  0
SPLINE
  5
159
100
AcDbEntity
  8
Layer_1
 62
3
100
AcDbSpline
 70
8
 71
3
 72
8
 73
4
 74
0
 40
0
 40
0
 40
0
 40
0
 40
1
 40
1
 40
1
 40
1
 10
38.100216
 20
303.004430
 30
0.0
 10
37.715977
 20
303.004430
 30
0.0
 10
37.369572
 20
302.772970
 30
0.0
 10
37.222530
 20
302.417979
 30
0.0
  0
SPLINE
  5
15a
100
AcDbEntity
  8
Layer_1
 62
3
100
AcDbSpline
 70
8
 71
3
 72
8
 73
4
 74
0
 40
0
 40
0
 40
0
 40
0
 40
1
 40
1
 40
1
 40
1
 10
37.222530
 20
302.417979
 30
0.0
 10
37.075489
 20
302.062989
 30
0.0
 10
37.156766
 20
301.654377
 30
0.0
 10
37.428465
 20
301.382679
 30
0.0
  0
SPLINE
  5
15b
100
AcDbEntity
  8
Layer_1
 62
3
100
AcDbSpline
 70
8
 71
3
 72
8
 73
4
 74
0
 40
0
 40
0
 40
0
 40
0
 40
1
 40
1
 40
1
 40
1
 10
37.428465
 20
301.382679
 30
0.0
 10
37.700163
 20
301.110980
 30
0.0
 10
38.108775
 20
301.029703
 30
0.0
 10
38.463765
 20
301.176744
 30
0.0
  0
SPLINE
  5
15c
100
AcDbEntity
  8
Layer_1
 62
3
100
AcDbSpline
 70
8
 71
3
 72
8
 73
4
 74
0
 40
0
 40
0
 40
0
 40
0
 40
1
 40
1
 40
1
 40
1
 10
38.463765
 20
301.176744
 30
0.0
 10
38.818756
 20
301.323786
 30
0.0
 10
39.050216
 20
301.670191
 30
0.0
 10
39.050216
 20
302.054430
 30
0.0
  0
SPLINE
  5
15d
100
AcDbEntity
  8
Layer_1
 62
3
100
AcDbSpline
 70
8
 71
3
 72
8
 73
4
 74
0
 40
0
 40
0
 40
0
 40
0
 40
1
 40
1
 40
1
 40
1
 10
39.050216
 20
302.054430
 30
0.0
 10
39.050216
 20
302.306386
 30
0.0
 10
38.950127
 20
302.548022
 30
0.0
 10
38.771967
 20
302.726181
 30
0.0
  0
SPLINE
  5
15e
100
AcDbEntity
  8
Layer_1
 62
3
100
AcDbSpline
 70
8
 71
3
 72
8
 73
4
 74
0
 40
0
 40
0
 40
0
 40
0
 40
1
 40
1
 40
1
 40
1
 10
38.771967
 20
302.726181
 30
0.0
 10
38.593808
 20
302.904341
 30
0.0
 10
38.352172
 20
303.004430
 30
0.0
 10
38.100216
 20
303.004430
 30
0.0
  0
LINE
  5
15f
100
AcDbEntity
  8
Layer_1
 62
3
100
AcDbLine
 10
38.100216
 20
303.004430
 30
0.0
 11
38.100216
 21
303.004430
 31
0.0
  0
SPLINE
  5
160
100
AcDbEntity
  8
Layer_1
 62
3
100
AcDbSpline
 70
8
 71
3
 72
8
 73
4
 74
0
 40
0
 40
0
 40
0
 40
0
 40
1
 40
1
 40
1
 40
1
 10
38.100216
 20
216.687198
 30
0.0
 10
37.715977
 20
216.687198
 30
0.0
 10
37.369572
 20
216.455738
 30
0.0
 10
37.222530
 20
216.100747
 30
0.0
  0
SPLINE
  5
161
100
AcDbEntity
  8
Layer_1
 62
3
100
AcDbSpline
 70
8
 71
3
 72
8
 73
4
 74
0
 40
0
 40
0
 40
0
 40
0
 40
1
 40
1
 40
1
 40
1
 10
37.222530
 20
216.100747
 30
0.0
 10
37.075489
 20
215.745757
 30
0.0
 10
37.156766
 20
215.337145
 30
0.0
 10
37.428465
 20
215.065447
 30
0.0
  0
SPLINE
  5
162
100
AcDbEntity
  8
Layer_1
 62
3
100
AcDbSpline
 70
8
 71
3
 72
8
 73
4
 74
0
 40
0
 40
0
 40
0
 40
0
 40
1
 40
1
 40
1
 40
1
 10
37.428465
 20
215.065447
 30
0.0
 10
37.700163
 20
214.793748
 30
0.0
 10
38.108775
 20
214.712471
 30
0.0
 10
38.463765
 20
214.859512
 30
0.0
  0
SPLINE
  5
163
100
AcDbEntity
  8
Layer_1
 62
3
100
AcDbSpline
 70
8
 71
3
 72
8
 73
4
 74
0
 40
0
 40
0
 40
0
 40
0
 40
1
 40
1
 40
1
 40
1
 10
38.463765
 20
214.859512
 30
0.0
 10
38.818756
 20
215.006554
 30
0.0
 10
39.050216
 20
215.352959
 30
0.0
 10
39.050216
 20
215.737198
 30
0.0
  0
SPLINE
  5
164
100
AcDbEntity
  8
Layer_1
 62
3
100
AcDbSpline
 70
8
 71
3
 72
8
 73
4
 74
0
 40
0
 40
0
 40
0
 40
0
 40
1
 40
1
 40
1
 40
1
 10
39.050216
 20
215.737198
 30
0.0
 10
39.050216
 20
215.989154
 30
0.0
 10
38.950127
 20
216.230790
 30
0.0
 10
38.771967
 20
216.408949
 30
0.0
  0
SPLINE
  5
165
100
AcDbEntity
  8
Layer_1
 62
3
100
AcDbSpline
 70
8
 71
3
 72
8
 73
4
 74
0
 40
0
 40
0
 40
0
 40
0
 40
1
 40
1
 40
1
 40
1
 10
38.771967
 20
216.408949
 30
0.0
 10
38.593808
 20
216.587109
 30
0.0
 10
38.352172
 20
216.687198
 30
0.0
 10
38.100216
 20
216.687198
 30
0.0
  0
LINE
  5
166
100
AcDbEntity
  8
Layer_1
 62
3
100
AcDbLine
 10
38.100216
 20
216.687198
 30
0.0
 11
38.100216
 21
216.687198
 31
0.0
  0
SPLINE
  5
167
100
AcDbEntity
  8
Layer_1
 62
3
100
AcDbSpline
 70
8
 71
3
 72
8
 73
4
 74
0
 40
0
 40
0
 40
0
 40
0
 40
1
 40
1
 40
1
 40
1
 10
-3.999313
 20
303.004430
 30
0.0
 10
-4.383552
 20
303.004430
 30
0.0
 10
-4.729956
 20
302.772970
 30
0.0
 10
-4.876998
 20
302.417979
 30
0.0
  0
SPLINE
  5
168
100
AcDbEntity
  8
Layer_1
 62
3
100
AcDbSpline
 70
8
 71
3
 72
8
 73
4
 74
0
 40
0
 40
0
 40
0
 40
0
 40
1
 40
1
 40
1
 40
1
 10
-4.876998
 20
302.417979
 30
0.0
 10
-5.024040
 20
302.062989
 30
0.0
 10
-4.942762
 20
301.654377
 30
0.0
 10
-4.671064
 20
301.382679
 30
0.0
  0
SPLINE
  5
169
100
AcDbEntity
  8
Layer_1
 62
3
100
AcDbSpline
 70
8
 71
3
 72
8
 73
4
 74
0
 40
0
 40
0
 40
0
 40
0
 40
1
 40
1
 40
1
 40
1
 10
-4.671064
 20
301.382679
 30
0.0
 10
-4.399366
 20
301.110980
 30
0.0
 10
-3.990754
 20
301.029703
 30
0.0
 10
-3.635764
 20
301.176744
 30
0.0
  0
SPLINE
  5
16a
100
AcDbEntity
  8
Layer_1
 62
3
100
AcDbSpline
 70
8
 71
3
 72
8
 73
4
 74
0
 40
0
 40
0
 40
0
 40
0
 40
1
 40
1
 40
1
 40
1
 10
-3.635764
 20
301.176744
 30
0.0
 10
-3.280773
 20
301.323786
 30
0.0
 10
-3.049313
 20
301.670191
 30
0.0
 10
-3.049313
 20
302.054430
 30
0.0
  0
SPLINE
  5
16b
100
AcDbEntity
  8
Layer_1
 62
3
100
AcDbSpline
 70
8
 71
3
 72
8
 73
4
 74
0
 40
0
 40
0
 40
0
 40
0
 40
1
 40
1
 40
1
 40
1
 10
-3.049313
 20
302.054430
 30
0.0
 10
-3.049313
 20
302.306386
 30
0.0
 10
-3.149402
 20
302.548022
 30
0.0
 10
-3.327561
 20
302.726181
 30
0.0
  0
SPLINE
  5
16c
100
AcDbEntity
  8
Layer_1
 62
3
100
AcDbSpline
 70
8
 71
3
 72
8
 73
4
 74
0
 40
0
 40
0
 40
0
 40
0
 40
1
 40
1
 40
1
 40
1
 10
-3.327561
 20
302.726181
 30
0.0
 10
-3.505721
 20
302.904341
 30
0.0
 10
-3.747357
 20
303.004430
 30
0.0
 10
-3.999313
 20
303.004430
 30
0.0
  0
LINE
  5
16d
100
AcDbEntity
  8
Layer_1
 62
3
100
AcDbLine
 10
-3.999313
 20
303.004430
 30
0.0
 11
-3.999313
 21
303.004430
 31
0.0
  0
SPLINE
  5
16e
100
AcDbEntity
  8
Layer_1
 62
3
100
AcDbSpline
 70
8
 71
3
 72
8
 73
4
 74
0
 40
0
 40
0
 40
0
 40
0
 40
1
 40
1
 40
1
 40
1
 10
-3.999313
 20
216.687198
 30
0.0
 10
-4.383552
 20
216.687198
 30
0.0
 10
-4.729956
 20
216.455738
 30
0.0
 10
-4.876998
 20
216.100747
 30
0.0
  0
SPLINE
  5
16f
100
AcDbEntity
  8
Layer_1
 62
3
100
AcDbSpline
 70
8
 71
3
 72
8
 73
4
 74
0
 40
0
 40
0
 40
0
 40
0
 40
1
 40
1
 40
1
 40
1
 10
-4.876998
 20
216.100747
 30
0.0
 10
-5.024040
 20
215.745757
 30
0.0
 10
-4.942762
 20
215.337145
 30
0.0
 10
-4.671064
 20
215.065447
 30
0.0
  0
SPLINE
  5
170
100
AcDbEntity
  8
Layer_1
 62
3
100
AcDbSpline
 70
8
 71
3
 72
8
 73
4
 74
0
 40
0
 40
0
 40
0
 40
0
 40
1
 40
1
 40
1
 40
1
 10
-4.671064
 20
215.065447
 30
0.0
 10
-4.399366
 20
214.793748
 30
0.0
 10
-3.990754
 20
214.712471
 30
0.0
 10
-3.635764
 20
214.859512
 30
0.0
  0
SPLINE
  5
171
100
AcDbEntity
  8
Layer_1
 62
3
100
AcDbSpline
 70
8
 71
3
 72
8
 73
4
 74
0
 40
0
 40
0
 40
0
 40
0
 40
1
 40
1
 40
1
 40
1
 10
-3.635764
 20
214.859512
 30
0.0
 10
-3.280773
 20
215.006554
 30
0.0
 10
-3.049313
 20
215.352959
 30
0.0
 10
-3.049313
 20
215.737198
 30
0.0
  0
SPLINE
  5
172
100
AcDbEntity
  8
Layer_1
 62
3
100
AcDbSpline
 70
8
 71
3
 72
8
 73
4
 74
0
 40
0
 40
0
 40
0
 40
0
 40
1
 40
1
 40
1
 40
1
 10
-3.049313
 20
215.737198
 30
0.0
 10
-3.049313
 20
215.989154
 30
0.0
 10
-3.149402
 20
216.230790
 30
0.0
 10
-3.327561
 20
216.408949
 30
0.0
  0
SPLINE
  5
173
100
AcDbEntity
  8
Layer_1
 62
3
100
AcDbSpline
 70
8
 71
3
 72
8
 73
4
 74
0
 40
0
 40
0
 40
0
 40
0
 40
1
 40
1
 40
1
 40
1
 10
-3.327561
 20
216.408949
 30
0.0
 10
-3.505721
 20
216.587109
 30
0.0
 10
-3.747357
 20
216.687198
 30
0.0
 10
-3.999313
 20
216.687198
 30
0.0
  0
LINE
  5
174
100
AcDbEntity
  8
Layer_1
 62
3
100
AcDbLine
 10
-3.999313
 20
216.687198
 30
0.0
 11
-3.999313
 21
216.687198
 31
0.0
  0
LINE
  5
175
100
AcDbEntity
  8
Layer_1
 62
3
100
AcDbLine
 10
245.049582
 20
294.153087
 30
0.0
 11
245.049582
 21
275.994258
 31
0.0
  0
SPLINE
  5
176
100
AcDbEntity
  8
Layer_1
 62
3
100
AcDbSpline
 70
8
 71
3
 72
8
 73
4
 74
0
 40
0
 40
0
 40
0
 40
0
 40
1
 40
1
 40
1
 40
1
 10
245.049582
 20
275.994258
 30
0.0
 10
245.049582
 20
274.130177
 30
0.0
 10
246.546512
 20
272.619158
 30
0.0
 10
248.393034
 20
272.619216
 30
0.0
  0
SPLINE
  5
177
100
AcDbEntity
  8
Layer_1
 62
3
100
AcDbSpline
 70
8
 71
3
 72
8
 73
4
 74
0
 40
0
 40
0
 40
0
 40
0
 40
1
 40
1
 40
1
 40
1
 10
248.393034
 20
272.619216
 30
0.0
 10
263.772839
 20
272.619675
 30
0.0
 10
279.152580
 20
272.616026
 30
0.0
 10
294.532385
 20
272.618578
 30
0.0
  0
SPLINE
  5
178
100
AcDbEntity
  8
Layer_1
 62
3
100
AcDbSpline
 70
8
 71
3
 72
8
 73
4
 74
0
 40
0
 40
0
 40
0
 40
0
 40
1
 40
1
 40
1
 40
1
 10
294.532385
 20
272.618578
 30
0.0
 10
296.378907
 20
272.618871
 30
0.0
 10
297.875837
 20
274.130337
 30
0.0
 10
297.875837
 20
275.994417
 30
0.0
  0
LINE
  5
179
100
AcDbEntity
  8
Layer_1
 62
3
100
AcDbLine
 10
297.875837
 20
275.994417
 30
0.0
 11
297.875837
 21
294.147569
 31
0.0
  0
SPLINE
  5
17a
100
AcDbEntity
  8
Layer_1
 62
3
100
AcDbSpline
 70
8
 71
3
 72
8
 73
4
 74
0
 40
0
 40
0
 40
0
 40
0
 40
1
 40
1
 40
1
 40
1
 10
297.875837
 20
294.147569
 30
0.0
 10
297.875837
 20
296.011714
 30
0.0
 10
296.378977
 20
297.522954
 30
0.0
 10
294.532385
 20
297.523141
 30
0.0
  0
LINE
  5
17b
100
AcDbEntity
  8
Layer_1
 62
3
100
AcDbLine
 10
294.532385
 20
297.523141
 30
0.0
 11
248.393034
 21
297.528243
 31
0.0
  0
SPLINE
  5
17c
100
AcDbEntity
  8
Layer_1
 62
3
100
AcDbSpline
 70
8
 71
3
 72
8
 73
4
 74
0
 40
0
 40
0
 40
0
 40
0
 40
1
 40
1
 40
1
 40
1
 10
248.393034
 20
297.528243
 30
0.0
 10
247.506329
 20
297.528344
 30
0.0
 10
246.655908
 20
297.172825
 30
0.0
 10
246.028878
 20
296.539905
 30
0.0
  0
SPLINE
  5
17d
100
AcDbEntity
  8
Layer_1
 62
3
100
AcDbSpline
 70
8
 71
3
 72
8
 73
4
 74
0
 40
0
 40
0
 40
0
 40
0
 40
1
 40
1
 40
1
 40
1
 10
246.028878
 20
296.539905
 30
0.0
 10
245.401848
 20
295.906985
 30
0.0
 10
245.049581
 20
295.048520
 30
0.0
 10
245.049582
 20
294.153386
 30
0.0
  0
LINE
  5
17e
100
AcDbEntity
  8
Layer_1
 62
3
100
AcDbLine
 10
245.049582
 20
294.153386
 30
0.0
 11
245.049582
 21
294.153087
 31
0.0
  0
ENDSEC
  0
SECTION
  2
OBJECTS
  0
DICTIONARY
  5
C
330
0
100
AcDbDictionary
  3
ACAD_GROUP
350
D
  3
ACAD_MLINESTYLE
350
17
  0
DICTIONARY
  5
D
330
C
100
AcDbDictionary
  0
DICTIONARY
  5
1A
330
C
100
AcDbDictionary
  0
DICTIONARY
  5
17
330
C
100
AcDbDictionary
  3
STANDARD
350
18
  0
DICTIONARY
  5
19
330
C
100
AcDbDictionary
  0
ENDSEC
  0
EOF
