999
"DXF R12 Output" (www.mydxf.blogspot.com)
 0 
SECTION
 2 
HEADER
 9 
$ACADVER
 1 
AC1009
 9 
$EXTMIN
 10 
 0 
 20 
 0 
 9 
$EXTMAX
 10 
 8.5 
 20 
 11 
 0 
ENDSEC
 0 
SECTION
 2 
ENTITIES
0
LINE
8
Layer 1
10
249.820410
20
300.704167
11
299.507120
21
300.704167
0
LINE
8
Layer 1
10
299.507120
20
300.704167
11
299.919073
21
300.620998
0
LINE
8
Layer 1
10
299.919073
20
300.620998
11
300.255485
21
300.394188
0
LINE
8
Layer 1
10
300.255485
20
300.394188
11
300.482307
21
300.057784
0
LINE
8
Layer 1
10
300.482307
20
300.057784
11
300.565490
21
299.645833
0
LINE
8
Layer 1
10
300.565490
20
299.645833
11
300.566679
21
263.817403
0
LINE
8
Layer 1
10
300.566679
20
263.817403
11
300.566758
21
259.405755
0
LINE
8
Layer 1
10
300.566758
20
259.405755
11
300.566744
21
258.855208
0
LINE
8
Layer 1
10
300.566744
20
258.855208
11
300.566823
21
258.310303
0
LINE
8
Layer 1
10
300.566823
20
258.310303
11
300.567182
21
253.915582
0
LINE
8
Layer 1
10
300.567182
20
253.915582
11
300.569490
21
218.154855
0
LINE
8
Layer 1
10
300.569490
20
218.154855
11
300.486343
21
217.742940
0
LINE
8
Layer 1
10
300.486343
20
217.742940
11
300.259554
21
217.406565
0
LINE
8
Layer 1
10
300.259554
20
217.406565
11
299.923165
21
217.179776
0
LINE
8
Layer 1
10
299.923165
20
217.179776
11
299.511220
21
217.096614
0
LINE
8
Layer 1
10
299.511220
20
217.096614
11
214.841810
21
217.096614
0
LINE
8
Layer 1
10
214.841810
20
217.096614
11
214.429812
21
217.179777
0
LINE
8
Layer 1
10
214.429812
20
217.179777
11
214.093342
21
217.406575
0
LINE
8
Layer 1
10
214.093342
20
217.406575
11
213.866441
21
217.742975
0
LINE
8
Layer 1
10
213.866441
20
217.742975
11
213.783150
21
218.154947
0
LINE
8
Layer 1
10
213.783150
20
218.154947
11
213.782810
21
219.213281
0
LINE
8
Layer 1
10
213.782810
20
219.213281
11
213.699519
21
219.625253
0
LINE
8
Layer 1
10
213.699519
20
219.625253
11
213.472618
21
219.961653
0
LINE
8
Layer 1
10
213.472618
20
219.961653
11
213.136148
21
220.188451
0
LINE
8
Layer 1
10
213.136148
20
220.188451
11
212.724150
21
220.271614
0
LINE
8
Layer 1
10
212.724150
20
220.271614
11
196.852140
21
220.271614
0
LINE
8
Layer 1
10
196.852140
20
220.271614
11
196.440142
21
220.188451
0
LINE
8
Layer 1
10
196.440142
20
220.188451
11
196.103672
21
219.961653
0
LINE
8
Layer 1
10
196.103672
20
219.961653
11
195.876771
21
219.625253
0
LINE
8
Layer 1
10
195.876771
20
219.625253
11
195.793480
21
219.213281
0
LINE
8
Layer 1
10
195.793480
20
219.213281
11
195.793140
21
218.154947
0
LINE
8
Layer 1
10
195.793140
20
218.154947
11
195.709849
21
217.742975
0
LINE
8
Layer 1
10
195.709849
20
217.742975
11
195.482948
21
217.406575
0
LINE
8
Layer 1
10
195.482948
20
217.406575
11
195.146478
21
217.179777
0
LINE
8
Layer 1
10
195.146478
20
217.179777
11
194.734480
21
217.096614
0
LINE
8
Layer 1
10
194.734480
20
217.096614
11
48.154089
21
217.096614
0
LINE
8
Layer 1
10
48.154089
20
217.096614
11
47.749130
21
217.177181
0
LINE
8
Layer 1
10
47.749130
20
217.177181
11
47.405846
21
217.406612
0
LINE
8
Layer 1
10
47.405846
20
217.406612
11
47.176517
21
217.749964
0
LINE
8
Layer 1
10
47.176517
20
217.749964
11
47.096070
21
218.154947
0
LINE
8
Layer 1
10
47.096070
20
218.154947
11
47.096384
21
219.213281
0
LINE
8
Layer 1
10
47.096384
20
219.213281
11
47.015937
21
219.618264
0
LINE
8
Layer 1
10
47.015937
20
219.618264
11
46.786608
21
219.961616
0
LINE
8
Layer 1
10
46.786608
20
219.961616
11
46.443324
21
220.191047
0
LINE
8
Layer 1
10
46.443324
20
220.191047
11
46.038365
21
220.271614
0
LINE
8
Layer 1
10
46.038365
20
220.271614
11
30.164561
21
220.271614
0
LINE
8
Layer 1
10
30.164561
20
220.271614
11
29.752365
21
220.188483
0
LINE
8
Layer 1
10
29.752365
20
220.188483
11
29.415617
21
219.961737
0
LINE
8
Layer 1
10
29.415617
20
219.961737
11
29.188341
21
219.625346
0
LINE
8
Layer 1
10
29.188341
20
219.625346
11
29.104561
21
219.213282
0
LINE
8
Layer 1
10
29.104561
20
219.213282
11
29.102861
21
218.154946
0
LINE
8
Layer 1
10
29.102861
20
218.154946
11
29.019081
21
217.742882
0
LINE
8
Layer 1
10
29.019081
20
217.742882
11
28.791805
21
217.406491
0
LINE
8
Layer 1
10
28.791805
20
217.406491
11
28.455057
21
217.179745
0
LINE
8
Layer 1
10
28.455057
20
217.179745
11
28.042861
21
217.096614
0
LINE
8
Layer 1
10
28.042861
20
217.096614
11
0.528437
21
217.096614
0
LINE
8
Layer 1
10
0.528437
20
217.096614
11
0.123470
21
217.177180
0
LINE
8
Layer 1
10
0.123470
20
217.177180
11
-0.219827
21
217.406608
0
LINE
8
Layer 1
10
-0.219827
20
217.406608
11
-0.449172
21
217.749960
0
LINE
8
Layer 1
10
-0.449172
20
217.749960
11
-0.529640
21
218.154947
0
LINE
8
Layer 1
10
-0.529640
20
218.154947
11
-0.529384
21
219.213281
0
LINE
8
Layer 1
10
-0.529384
20
219.213281
11
-0.529127
21
220.271614
0
LINE
8
Layer 1
10
-0.529127
20
220.271614
11
-0.529203
21
296.470833
0
LINE
8
Layer 1
10
-0.529203
20
296.470833
11
-0.529551
21
298.587500
0
LINE
8
Layer 1
10
-0.529551
20
298.587500
11
-0.529897
21
299.643766
0
LINE
8
Layer 1
10
-0.529897
20
299.643766
11
-0.449462
21
300.048746
0
LINE
8
Layer 1
10
-0.449462
20
300.048746
11
-0.220142
21
300.392099
0
LINE
8
Layer 1
10
-0.220142
20
300.392099
11
0.123136
21
300.621531
0
LINE
8
Layer 1
10
0.123136
20
300.621531
11
0.528090
21
300.702097
0
LINE
8
Layer 1
10
0.528090
20
300.702097
11
28.042012
21
300.702040
0
LINE
8
Layer 1
10
28.042012
20
300.702040
11
28.446842
21
300.621456
0
LINE
8
Layer 1
10
28.446842
20
300.621456
11
28.789954
21
300.391989
0
LINE
8
Layer 1
10
28.789954
20
300.391989
11
29.019041
21
300.048624
0
LINE
8
Layer 1
10
29.019041
20
300.048624
11
29.099178
21
299.643705
0
LINE
8
Layer 1
10
29.099178
20
299.643705
11
29.097978
21
298.587499
0
LINE
8
Layer 1
10
29.097978
20
298.587499
11
29.178115
21
298.182581
0
LINE
8
Layer 1
10
29.178115
20
298.182581
11
29.407202
21
297.839216
0
LINE
8
Layer 1
10
29.407202
20
297.839216
11
29.750315
21
297.609750
0
LINE
8
Layer 1
10
29.750315
20
297.609750
11
30.155144
21
297.529167
0
LINE
8
Layer 1
10
30.155144
20
297.529167
11
46.036830
21
297.529167
0
LINE
8
Layer 1
10
46.036830
20
297.529167
11
46.448830
21
297.612328
0
LINE
8
Layer 1
10
46.448830
20
297.612328
11
46.785302
21
297.839125
0
LINE
8
Layer 1
10
46.785302
20
297.839125
11
47.012205
21
298.175526
0
LINE
8
Layer 1
10
47.012205
20
298.175526
11
47.095496
21
298.587500
0
LINE
8
Layer 1
10
47.095496
20
298.587500
11
47.095830
21
299.645833
0
LINE
8
Layer 1
10
47.095830
20
299.645833
11
47.179121
21
300.057807
0
LINE
8
Layer 1
10
47.179121
20
300.057807
11
47.406024
21
300.394208
0
LINE
8
Layer 1
10
47.406024
20
300.394208
11
47.742496
21
300.621005
0
LINE
8
Layer 1
10
47.742496
20
300.621005
11
48.154496
21
300.704167
0
LINE
8
Layer 1
10
48.154496
20
300.704167
11
194.733900
21
300.704167
0
LINE
8
Layer 1
10
194.733900
20
300.704167
11
195.146096
21
300.621036
0
LINE
8
Layer 1
10
195.146096
20
300.621036
11
195.482844
21
300.394289
0
LINE
8
Layer 1
10
195.482844
20
300.394289
11
195.710120
21
300.057899
0
LINE
8
Layer 1
10
195.710120
20
300.057899
11
195.793900
21
299.645835
0
LINE
8
Layer 1
10
195.793900
20
299.645835
11
195.795900
21
298.587499
0
LINE
8
Layer 1
10
195.795900
20
298.587499
11
195.879680
21
298.175434
0
LINE
8
Layer 1
10
195.879680
20
298.175434
11
196.106956
21
297.839044
0
LINE
8
Layer 1
10
196.106956
20
297.839044
11
196.443704
21
297.612298
0
LINE
8
Layer 1
10
196.443704
20
297.612298
11
196.855900
21
297.529167
0
LINE
8
Layer 1
10
196.855900
20
297.529167
11
212.728160
21
297.529167
0
LINE
8
Layer 1
10
212.728160
20
297.529167
11
213.133014
21
297.609748
0
LINE
8
Layer 1
10
213.133014
20
297.609748
11
213.476159
21
297.839207
0
LINE
8
Layer 1
10
213.476159
20
297.839207
11
213.705293
21
298.182569
0
LINE
8
Layer 1
10
213.705293
20
298.182569
11
213.785490
21
298.587500
0
LINE
8
Layer 1
10
213.785490
20
298.587500
11
213.784490
21
299.645834
0
LINE
8
Layer 1
10
213.784490
20
299.645834
11
213.864687
21
300.050764
0
LINE
8
Layer 1
10
213.864687
20
300.050764
11
214.093821
21
300.394126
0
LINE
8
Layer 1
10
214.093821
20
300.394126
11
214.436966
21
300.623585
0
LINE
8
Layer 1
10
214.436966
20
300.623585
11
214.841820
21
300.704167
0
LINE
8
Layer 1
10
214.841820
20
300.704167
11
235.699650
21
300.704167
0
LINE
8
Layer 1
10
235.699650
20
300.704167
11
236.111654
21
300.787329
0
LINE
8
Layer 1
10
236.111654
20
300.787329
11
236.448133
21
301.014125
0
LINE
8
Layer 1
10
236.448133
20
301.014125
11
236.675045
21
301.350525
0
LINE
8
Layer 1
10
236.675045
20
301.350525
11
236.758350
21
301.762500
0
LINE
8
Layer 1
10
236.758350
20
301.762500
11
236.760350
21
308.174089
0
LINE
8
Layer 1
10
236.760350
20
308.174089
11
236.679924
21
308.579067
0
LINE
8
Layer 1
10
236.679924
20
308.579067
11
236.450612
21
308.922421
0
LINE
8
Layer 1
10
236.450612
20
308.922421
11
236.107340
21
309.151854
0
LINE
8
Layer 1
10
236.107340
20
309.151854
11
235.702390
21
309.232422
0
LINE
8
Layer 1
10
235.702390
20
309.232422
11
-8.263672
21
309.232422
0
LINE
8
Layer 1
10
-8.263672
20
309.232422
11
-9.041552
21
309.155459
0
LINE
8
Layer 1
10
-9.041552
20
309.155459
11
-9.782447
21
308.930319
0
LINE
8
Layer 1
10
-9.782447
20
308.930319
11
-10.465537
21
308.565625
0
LINE
8
Layer 1
10
-10.465537
20
308.565625
11
-11.070002
21
308.070002
0
LINE
8
Layer 1
10
-11.070002
20
308.070002
11
-11.565625
21
307.465537
0
LINE
8
Layer 1
10
-11.565625
20
307.465537
11
-11.930319
21
306.782447
0
LINE
8
Layer 1
10
-11.930319
20
306.782447
11
-12.155459
21
306.041552
0
LINE
8
Layer 1
10
-12.155459
20
306.041552
11
-12.232422
21
305.263672
0
LINE
8
Layer 1
10
-12.232422
20
305.263672
11
-12.232422
21
212.531250
0
LINE
8
Layer 1
10
-12.232422
20
212.531250
11
-12.155459
21
211.753370
0
LINE
8
Layer 1
10
-12.155459
20
211.753370
11
-11.930319
21
211.012475
0
LINE
8
Layer 1
10
-11.930319
20
211.012475
11
-11.565625
21
210.329385
0
LINE
8
Layer 1
10
-11.565625
20
210.329385
11
-11.070002
21
209.724920
0
LINE
8
Layer 1
10
-11.070002
20
209.724920
11
-10.465537
21
209.229297
0
LINE
8
Layer 1
10
-10.465537
20
209.229297
11
-9.782447
21
208.864603
0
LINE
8
Layer 1
10
-9.782447
20
208.864603
11
-9.041552
21
208.639463
0
LINE
8
Layer 1
10
-9.041552
20
208.639463
11
-8.263672
21
208.562500
0
LINE
8
Layer 1
10
-8.263672
20
208.562500
11
308.304690
21
208.562500
0
LINE
8
Layer 1
10
308.304690
20
208.562500
11
309.082570
21
208.639463
0
LINE
8
Layer 1
10
309.082570
20
208.639463
11
309.823465
21
208.864603
0
LINE
8
Layer 1
10
309.823465
20
208.864603
11
310.506555
21
209.229297
0
LINE
8
Layer 1
10
310.506555
20
209.229297
11
311.111020
21
209.724920
0
LINE
8
Layer 1
10
311.111020
20
209.724920
11
311.606643
21
210.329385
0
LINE
8
Layer 1
10
311.606643
20
210.329385
11
311.971337
21
211.012475
0
LINE
8
Layer 1
10
311.971337
20
211.012475
11
312.196477
21
211.753370
0
LINE
8
Layer 1
10
312.196477
20
211.753370
11
312.273440
21
212.531250
0
LINE
8
Layer 1
10
312.273440
20
212.531250
11
312.273440
21
305.263672
0
LINE
8
Layer 1
10
312.273440
20
305.263672
11
312.196477
21
306.041552
0
LINE
8
Layer 1
10
312.196477
20
306.041552
11
311.971337
21
306.782447
0
LINE
8
Layer 1
10
311.971337
20
306.782447
11
311.606643
21
307.465537
0
LINE
8
Layer 1
10
311.606643
20
307.465537
11
311.111020
21
308.070002
0
LINE
8
Layer 1
10
311.111020
20
308.070002
11
310.506555
21
308.565625
0
LINE
8
Layer 1
10
310.506555
20
308.565625
11
309.823465
21
308.930319
0
LINE
8
Layer 1
10
309.823465
20
308.930319
11
309.082570
21
309.155459
0
LINE
8
Layer 1
10
309.082570
20
309.155459
11
308.304690
21
309.232422
0
LINE
8
Layer 1
10
308.304690
20
309.232422
11
249.820410
21
309.232422
0
LINE
8
Layer 1
10
249.820410
20
309.232422
11
249.408460
21
309.149252
0
LINE
8
Layer 1
10
249.408460
20
309.149252
11
249.072058
21
308.922442
0
LINE
8
Layer 1
10
249.072058
20
308.922442
11
248.845249
21
308.586039
0
LINE
8
Layer 1
10
248.845249
20
308.586039
11
248.762080
21
308.174089
0
LINE
8
Layer 1
10
248.762080
20
308.174089
11
248.762080
21
301.762500
0
LINE
8
Layer 1
10
248.762080
20
301.762500
11
248.845249
21
301.350550
0
LINE
8
Layer 1
10
248.845249
20
301.350550
11
249.072057
21
301.014147
0
LINE
8
Layer 1
10
249.072057
20
301.014147
11
249.408460
21
300.787337
0
LINE
8
Layer 1
10
249.408460
20
300.787337
11
249.820410
21
300.704167
0
LINE
8
Layer 1
10
249.820410
20
300.704167
11
249.820410
21
300.704167
0
LINE
8
Layer 1
10
304.036620
20
303.619430
11
303.427451
21
303.496445
0
LINE
8
Layer 1
10
303.427451
20
303.496445
11
302.929998
21
303.161052
0
LINE
8
Layer 1
10
302.929998
20
303.161052
11
302.594605
21
302.663599
0
LINE
8
Layer 1
10
302.594605
20
302.663599
11
302.471620
21
302.054430
0
LINE
8
Layer 1
10
302.471620
20
302.054430
11
302.594605
21
301.445261
0
LINE
8
Layer 1
10
302.594605
20
301.445261
11
302.929998
21
300.947808
0
LINE
8
Layer 1
10
302.929998
20
300.947808
11
303.427451
21
300.612415
0
LINE
8
Layer 1
10
303.427451
20
300.612415
11
304.036620
21
300.489430
0
LINE
8
Layer 1
10
304.036620
20
300.489430
11
304.645789
21
300.612415
0
LINE
8
Layer 1
10
304.645789
20
300.612415
11
305.143242
21
300.947808
0
LINE
8
Layer 1
10
305.143242
20
300.947808
11
305.478635
21
301.445261
0
LINE
8
Layer 1
10
305.478635
20
301.445261
11
305.601620
21
302.054430
0
LINE
8
Layer 1
10
305.601620
20
302.054430
11
305.482492
21
302.653330
0
LINE
8
Layer 1
10
305.482492
20
302.653330
11
305.143242
21
303.161052
0
LINE
8
Layer 1
10
305.143242
20
303.161052
11
304.635520
21
303.500302
0
LINE
8
Layer 1
10
304.635520
20
303.500302
11
304.036620
21
303.619430
0
LINE
8
Layer 1
10
304.036620
20
303.619430
11
304.036620
21
303.619430
0
LINE
8
Layer 1
10
304.036620
20
217.302198
11
303.427451
21
217.179213
0
LINE
8
Layer 1
10
303.427451
20
217.179213
11
302.929998
21
216.843820
0
LINE
8
Layer 1
10
302.929998
20
216.843820
11
302.594605
21
216.346367
0
LINE
8
Layer 1
10
302.594605
20
216.346367
11
302.471620
21
215.737198
0
LINE
8
Layer 1
10
302.471620
20
215.737198
11
302.594605
21
215.128029
0
LINE
8
Layer 1
10
302.594605
20
215.128029
11
302.929998
21
214.630576
0
LINE
8
Layer 1
10
302.929998
20
214.630576
11
303.427451
21
214.295183
0
LINE
8
Layer 1
10
303.427451
20
214.295183
11
304.036620
21
214.172198
0
LINE
8
Layer 1
10
304.036620
20
214.172198
11
304.645789
21
214.295183
0
LINE
8
Layer 1
10
304.645789
20
214.295183
11
305.143242
21
214.630576
0
LINE
8
Layer 1
10
305.143242
20
214.630576
11
305.478635
21
215.128029
0
LINE
8
Layer 1
10
305.478635
20
215.128029
11
305.601620
21
215.737198
0
LINE
8
Layer 1
10
305.601620
20
215.737198
11
305.482492
21
216.336098
0
LINE
8
Layer 1
10
305.482492
20
216.336098
11
305.143242
21
216.843820
0
LINE
8
Layer 1
10
305.143242
20
216.843820
11
304.635520
21
217.183070
0
LINE
8
Layer 1
10
304.635520
20
217.183070
11
304.036620
21
217.302198
0
LINE
8
Layer 1
10
304.036620
20
217.302198
11
304.036620
21
217.302198
0
LINE
8
Layer 1
10
204.788910
20
303.619430
11
203.919443
21
303.355680
0
LINE
8
Layer 1
10
203.919443
20
303.355680
11
203.343038
21
302.653330
0
LINE
8
Layer 1
10
203.343038
20
302.653330
11
203.253981
21
301.749114
0
LINE
8
Layer 1
10
203.253981
20
301.749114
11
203.682288
21
300.947808
0
LINE
8
Layer 1
10
203.682288
20
300.947808
11
204.483594
21
300.519501
0
LINE
8
Layer 1
10
204.483594
20
300.519501
11
205.387810
21
300.608558
0
LINE
8
Layer 1
10
205.387810
20
300.608558
11
206.090160
21
301.184963
0
LINE
8
Layer 1
10
206.090160
20
301.184963
11
206.353910
21
302.054430
0
LINE
8
Layer 1
10
206.353910
20
302.054430
11
206.234782
21
302.653330
0
LINE
8
Layer 1
10
206.234782
20
302.653330
11
205.895532
21
303.161052
0
LINE
8
Layer 1
10
205.895532
20
303.161052
11
205.387810
21
303.500302
0
LINE
8
Layer 1
10
205.387810
20
303.500302
11
204.788910
21
303.619430
0
LINE
8
Layer 1
10
204.788910
20
303.619430
11
204.788910
21
303.619430
0
LINE
8
Layer 1
10
204.788910
20
217.302198
11
203.919443
21
217.038448
0
LINE
8
Layer 1
10
203.919443
20
217.038448
11
203.343038
21
216.336098
0
LINE
8
Layer 1
10
203.343038
20
216.336098
11
203.253981
21
215.431882
0
LINE
8
Layer 1
10
203.253981
20
215.431882
11
203.682288
21
214.630576
0
LINE
8
Layer 1
10
203.682288
20
214.630576
11
204.483594
21
214.202269
0
LINE
8
Layer 1
10
204.483594
20
214.202269
11
205.387810
21
214.291326
0
LINE
8
Layer 1
10
205.387810
20
214.291326
11
206.090160
21
214.867731
0
LINE
8
Layer 1
10
206.090160
20
214.867731
11
206.353910
21
215.737198
0
LINE
8
Layer 1
10
206.353910
20
215.737198
11
206.234782
21
216.336098
0
LINE
8
Layer 1
10
206.234782
20
216.336098
11
205.895532
21
216.843820
0
LINE
8
Layer 1
10
205.895532
20
216.843820
11
205.387810
21
217.183070
0
LINE
8
Layer 1
10
205.387810
20
217.183070
11
204.788910
21
217.302198
0
LINE
8
Layer 1
10
204.788910
20
217.302198
11
204.788910
21
217.302198
0
LINE
8
Layer 1
10
38.100216
20
303.619430
11
37.230749
21
303.355680
0
LINE
8
Layer 1
10
37.230749
20
303.355680
11
36.654344
21
302.653330
0
LINE
8
Layer 1
10
36.654344
20
302.653330
11
36.565287
21
301.749114
0
LINE
8
Layer 1
10
36.565287
20
301.749114
11
36.993594
21
300.947808
0
LINE
8
Layer 1
10
36.993594
20
300.947808
11
37.794900
21
300.519501
0
LINE
8
Layer 1
10
37.794900
20
300.519501
11
38.699116
21
300.608558
0
LINE
8
Layer 1
10
38.699116
20
300.608558
11
39.401466
21
301.184963
0
LINE
8
Layer 1
10
39.401466
20
301.184963
11
39.665216
21
302.054430
0
LINE
8
Layer 1
10
39.665216
20
302.054430
11
39.546088
21
302.653330
0
LINE
8
Layer 1
10
39.546088
20
302.653330
11
39.206838
21
303.161052
0
LINE
8
Layer 1
10
39.206838
20
303.161052
11
38.699116
21
303.500302
0
LINE
8
Layer 1
10
38.699116
20
303.500302
11
38.100216
21
303.619430
0
LINE
8
Layer 1
10
38.100216
20
303.619430
11
38.100216
21
303.619430
0
LINE
8
Layer 1
10
38.100216
20
217.302198
11
37.230749
21
217.038448
0
LINE
8
Layer 1
10
37.230749
20
217.038448
11
36.654344
21
216.336098
0
LINE
8
Layer 1
10
36.654344
20
216.336098
11
36.565287
21
215.431882
0
LINE
8
Layer 1
10
36.565287
20
215.431882
11
36.993594
21
214.630576
0
LINE
8
Layer 1
10
36.993594
20
214.630576
11
37.794900
21
214.202269
0
LINE
8
Layer 1
10
37.794900
20
214.202269
11
38.699116
21
214.291326
0
LINE
8
Layer 1
10
38.699116
20
214.291326
11
39.401466
21
214.867731
0
LINE
8
Layer 1
10
39.401466
20
214.867731
11
39.665216
21
215.737198
0
LINE
8
Layer 1
10
39.665216
20
215.737198
11
39.546088
21
216.336098
0
LINE
8
Layer 1
10
39.546088
20
216.336098
11
39.206838
21
216.843820
0
LINE
8
Layer 1
10
39.206838
20
216.843820
11
38.699116
21
217.183070
0
LINE
8
Layer 1
10
38.699116
20
217.183070
11
38.100216
21
217.302198
0
LINE
8
Layer 1
10
38.100216
20
217.302198
11
38.100216
21
217.302198
0
LINE
8
Layer 1
10
-3.999313
20
303.619430
11
-4.868780
21
303.355680
0
LINE
8
Layer 1
10
-4.868780
20
303.355680
11
-5.445184
21
302.653330
0
LINE
8
Layer 1
10
-5.445184
20
302.653330
11
-5.534242
21
301.749114
0
LINE
8
Layer 1
10
-5.534242
20
301.749114
11
-5.105935
21
300.947808
0
LINE
8
Layer 1
10
-5.105935
20
300.947808
11
-4.304629
21
300.519501
0
LINE
8
Layer 1
10
-4.304629
20
300.519501
11
-3.400413
21
300.608558
0
LINE
8
Layer 1
10
-3.400413
20
300.608558
11
-2.698063
21
301.184963
0
LINE
8
Layer 1
10
-2.698063
20
301.184963
11
-2.434313
21
302.054430
0
LINE
8
Layer 1
10
-2.434313
20
302.054430
11
-2.557298
21
302.663599
0
LINE
8
Layer 1
10
-2.557298
20
302.663599
11
-2.892691
21
303.161052
0
LINE
8
Layer 1
10
-2.892691
20
303.161052
11
-3.390144
21
303.496445
0
LINE
8
Layer 1
10
-3.390144
20
303.496445
11
-3.999313
21
303.619430
0
LINE
8
Layer 1
10
-3.999313
20
303.619430
11
-3.999313
21
303.619430
0
LINE
8
Layer 1
10
-3.999313
20
217.302198
11
-4.868780
21
217.038448
0
LINE
8
Layer 1
10
-4.868780
20
217.038448
11
-5.445184
21
216.336098
0
LINE
8
Layer 1
10
-5.445184
20
216.336098
11
-5.534242
21
215.431882
0
LINE
8
Layer 1
10
-5.534242
20
215.431882
11
-5.105935
21
214.630576
0
LINE
8
Layer 1
10
-5.105935
20
214.630576
11
-4.304629
21
214.202269
0
LINE
8
Layer 1
10
-4.304629
20
214.202269
11
-3.400413
21
214.291326
0
LINE
8
Layer 1
10
-3.400413
20
214.291326
11
-2.698063
21
214.867731
0
LINE
8
Layer 1
10
-2.698063
20
214.867731
11
-2.434313
21
215.737198
0
LINE
8
Layer 1
10
-2.434313
20
215.737198
11
-2.557298
21
216.346367
0
LINE
8
Layer 1
10
-2.557298
20
216.346367
11
-2.892691
21
216.843820
0
LINE
8
Layer 1
10
-2.892691
20
216.843820
11
-3.390144
21
217.179213
0
LINE
8
Layer 1
10
-3.390144
20
217.179213
11
-3.999313
21
217.302198
0
LINE
8
Layer 1
10
-3.999313
20
217.302198
11
-3.999313
21
217.302198
 0 
ENDSEC
 0 
EOF